<?xml version="1.0" encoding="UTF-8"?>
<svg width="94px" height="105px" viewBox="0 0 94 105" version="1.1" xmlns="http://www.w3.org/2000/svg" xmlns:xlink="http://www.w3.org/1999/xlink">
    <title>Group</title>
    <g id="Page-1" stroke="none" stroke-width="1" fill="none" fill-rule="evenodd">
        <g id="Group" fill="#EBE9F1">
            <path d="M88.7842,74.1397 C88.7842,75.4827 88.1512,76.7737 87.0812,77.5997 L49.8752,99.0807 C49.5572,99.2647 49.2242,99.4197 48.8822,99.5467 L48.8822,70.1537 L88.7842,47.1147 L88.7842,74.1397 Z M44.3822,99.5297 L43.9652,99.3577 L6.7842,77.9297 L32.3182,63.1877 L44.3822,70.1537 L44.3822,99.5297 Z M46.6322,66.2567 L32.3182,57.9907 L0.0552,76.6187 L1.1802,78.5677 C1.7142,79.4927 2.4102,80.3117 3.3172,81.0557 C3.5032,81.1967 3.7672,81.3827 4.0882,81.5697 L40.8522,102.7947 L41.1982,102.9957 C41.2412,103.0207 41.2842,103.0447 41.3272,103.0697 C41.4152,103.1217 41.5012,103.1657 41.5762,103.1987 L41.8612,103.3447 C41.9182,103.3717 41.9762,103.3977 42.0342,103.4227 C42.0892,103.4497 42.1452,103.4757 42.2002,103.5007 L42.6322,103.7537 L42.8302,103.7537 L43.2972,103.9167 C43.4072,103.9517 43.5152,103.9857 43.5852,104.0027 C43.6622,104.0257 43.7402,104.0477 43.8172,104.0697 C43.9112,104.0977 44.0052,104.1217 44.0992,104.1407 C44.1692,104.1577 44.2432,104.1737 44.3262,104.1927 C44.3442,104.1967 44.3642,104.2007 44.3822,104.2027 L44.3822,104.4497 L45.5932,104.4497 L45.7782,104.5377 L46.1942,104.4497 L46.6322,104.4497 C46.6662,104.4497 46.7012,104.4427 46.7362,104.4427 L48.8822,104.4427 L48.8822,104.1927 C50.0162,103.9547 51.1162,103.5607 52.1252,102.9777 L89.4282,81.4407 L89.8272,81.1657 C91.9922,79.4987 93.2842,76.8727 93.2842,74.1397 L93.2842,39.3197 L46.6322,66.2567 Z" id="Fill-560"></path>
            <path d="M4.5,30.542 L28.494,44.395 L4.5,58.247 L4.5,30.542 Z M43.035,5.697 L43.563,5.397 L43.562,5.393 L43.666,5.332 L43.672,5.342 L43.803,5.276 C43.889,5.233 43.975,5.194 44.006,5.18 L44.125,5.129 C44.197,5.098 44.27,5.069 44.351,5.039 C44.449,5.001 44.55,4.967 44.629,4.94 C44.905,4.85 45.193,4.777 45.511,4.72 C45.595,4.705 45.679,4.688 45.791,4.674 C46.106,4.63 46.433,4.611 46.775,4.616 L47.276,4.645 C47.36,4.653 47.455,4.666 47.583,4.685 L47.853,4.73 C47.972,4.752 48.091,4.779 48.209,4.808 L48.289,4.827 C48.402,4.856 48.518,4.891 48.71,4.952 L48.987,5.051 L86.55,26.646 L60.311,41.796 L46.652,33.908 L32.995,41.795 L6.756,26.646 L43.035,5.697 Z M43.107,4.355 L42.971,4.219 L42.553,3.387 L43.107,4.355 Z M46.653,49.681 L37.495,44.393 L46.652,39.105 L55.81,44.394 L46.653,49.681 Z M-7.10542736e-15,66.04 L32.995,46.992 L45.279,54.083 L46.653,54.877 L70.038,41.377 L80.429,35.377 L80.429,35.376 L93.255,27.971 L92.146,26.026 C91.631,25.126 90.959,24.322 90.147,23.637 L90.08,23.581 C89.724,23.304 89.398,23.1 89.222,22.993 L52.474,1.776 L52.105,1.563 C52.08,1.548 52.055,1.533 52.029,1.519 L51.415,1.2 C51.364,1.177 51.313,1.154 51.262,1.132 C51.218,1.111 51.167,1.088 51.103,1.059 L50.602,0.804 L50.477,0.804 C50.378,0.768 50.269,0.73 50.12,0.678 L49.983,0.634 C49.805,0.578 49.626,0.525 49.447,0.479 L49.129,0.401 C48.979,0.366 48.836,0.336 48.718,0.315 L48.145,0.218 C48.051,0.205 47.959,0.193 47.867,0.183 L47.486,0 L47.005,0.121 C46.426,0.102 45.774,0.133 45.198,0.213 C45.039,0.234 44.879,0.261 44.688,0.295 C44.19,0.385 43.699,0.509 43.204,0.672 C43.049,0.724 42.895,0.777 42.753,0.832 C42.611,0.885 42.468,0.943 42.402,0.973 L42.305,1.014 C42.134,1.086 41.965,1.164 41.818,1.238 L41.542,1.376 C41.453,1.421 41.366,1.468 41.279,1.517 L3.93,23.081 C3.803,23.155 3.608,23.278 3.326,23.49 C3.167,23.619 3.011,23.751 2.874,23.878 C2.8,23.945 2.729,24.016 2.645,24.098 C2.607,24.135 2.571,24.175 2.535,24.213 C0.963,25.859 0.303,28.115 0.303,28.115 C0.107,28.848 0.003,29.605 -7.10542736e-15,30.37 L-7.10542736e-15,66.04 Z" id="Fill-562"></path>
        </g>
    </g>
</svg>
