<svg width="22" height="22" viewBox="0 0 22 22" fill="none" xmlns="http://www.w3.org/2000/svg">
<path d="M3.36133 1.75378H18.3736V18.8737C18.3736 19.7641 17.3513 20.2666 16.6463 19.7228L15.2192 18.6219C14.8602 18.345 14.3658 18.3237 13.9844 18.5689L12.0272 19.8272C11.3207 20.2813 10.4142 20.2813 9.70774 19.8272L7.75048 18.5689C7.36907 18.3237 6.87466 18.345 6.51565 18.6219L5.0886 19.7228C4.38364 20.2666 3.36133 19.7641 3.36133 18.8737V1.75378Z" stroke="#434343" stroke-width="1.60845"/>
<path d="M7.65039 8.18703H10.8673" stroke="#434343" stroke-width="1.60845" stroke-linecap="round" stroke-linejoin="round"/>
<path d="M1.2168 1.7538H20.5183" stroke="#434343" stroke-width="1.60845" stroke-linecap="round" stroke-linejoin="round"/>
<path d="M7.65039 12.4758H10.8673" stroke="#434343" stroke-width="1.60845" stroke-linecap="round" stroke-linejoin="round"/>
<path d="M14.084 8.18703H14.6201" stroke="#434343" stroke-width="1.60845" stroke-linecap="round" stroke-linejoin="round"/>
<path d="M14.084 12.4758H14.6201" stroke="#434343" stroke-width="1.60845" stroke-linecap="round" stroke-linejoin="round"/>
</svg>
