<svg width="25" height="25" viewBox="0 0 25 25" fill="none" xmlns="http://www.w3.org/2000/svg">
<path d="M10.9375 22.6562C10.9086 22.6562 10.8797 22.6547 10.8516 22.6516L3.85859 21.8742C2.58828 21.8492 1.5625 20.8078 1.5625 19.5312V4.6875C1.5625 3.39531 2.61406 2.34375 3.90625 2.34375C3.93516 2.34375 3.96406 2.34531 3.99219 2.34844L10.9852 3.125C12.2555 3.15078 13.2812 4.19219 13.2812 5.46875V20.3125C13.2812 21.6047 12.2297 22.6562 10.9375 22.6562ZM3.87031 3.90703C3.45625 3.92578 3.125 4.26875 3.125 4.6875V19.5312C3.125 19.9625 3.47578 20.3125 3.90625 20.3125C3.93516 20.3125 3.96406 20.3141 3.99219 20.3172L10.9734 21.093C11.3875 21.0742 11.7188 20.7313 11.7188 20.3125V5.46875C11.7188 5.03828 11.368 4.6875 10.9375 4.6875C10.9086 4.6875 10.8797 4.68594 10.8516 4.68281L3.87031 3.90703Z" fill="#434343"/>
<path d="M14.8728 22.5664C14.4798 22.5664 14.1408 22.2711 14.097 21.8711C14.0494 21.4422 14.3588 21.0563 14.7877 21.0086L21.008 20.3172C21.0361 20.3141 21.065 20.3125 21.0939 20.3125C21.5252 20.3125 21.8752 19.9625 21.8752 19.5312V4.6875C21.8752 4.26875 21.5439 3.92578 21.1298 3.90703L14.9533 4.59297C14.5322 4.64453 14.1384 4.33281 14.0908 3.90312C14.0431 3.47422 14.3525 3.08828 14.7814 3.04062L21.0088 2.34844C21.0361 2.34531 21.065 2.34375 21.0939 2.34375C22.3861 2.34375 23.4377 3.39531 23.4377 4.6875V19.5312C23.4377 20.8078 22.4127 21.8492 21.1416 21.8742L14.9603 22.5617C14.9306 22.5648 14.9009 22.5664 14.8728 22.5664Z" fill="#434343"/>
</svg>
