<svg width="25" height="26" viewBox="0 0 25 26" fill="none" xmlns="http://www.w3.org/2000/svg">
<path d="M21.875 4.14636H3.125C2.50361 4.14704 1.90786 4.39419 1.46847 4.83358C1.02908 5.27297 0.781932 5.86872 0.78125 6.49011V20.5526C0.781932 21.174 1.02908 21.7697 1.46847 22.2091C1.90786 22.6485 2.50361 22.8957 3.125 22.8964H21.875C22.4964 22.8957 23.0921 22.6485 23.5315 22.2091C23.9709 21.7697 24.2181 21.174 24.2187 20.5526V6.49011C24.2181 5.86872 23.9709 5.27297 23.5315 4.83358C23.0921 4.39419 22.4964 4.14704 21.875 4.14636ZM22.6562 20.2291L17.3492 14.9221C17.2019 14.7798 17.0045 14.7011 16.7997 14.7029C16.5948 14.7046 16.3989 14.7868 16.254 14.9317C16.1092 15.0765 16.027 15.2725 16.0253 15.4773C16.0235 15.6821 16.1022 15.8795 16.2445 16.0268L21.5515 21.3339H3.44852L8.75547 16.0268C8.89778 15.8795 8.97652 15.6821 8.97474 15.4773C8.97296 15.2725 8.8908 15.0765 8.74595 14.9317C8.6011 14.7868 8.40515 14.7046 8.20031 14.7029C7.99547 14.7011 7.79813 14.7798 7.65078 14.9221L2.34375 20.2291V8.78949L11.1374 15.0707C11.537 15.3496 12.0126 15.4992 12.4998 15.4992C12.9871 15.4992 13.4627 15.3496 13.8623 15.0707L22.6562 8.78957V20.2291ZM3.125 5.70886H21.875C22.0821 5.70913 22.2807 5.79153 22.4271 5.93798C22.5736 6.08444 22.656 6.28299 22.6562 6.49011V6.86925L12.954 13.7995C12.8214 13.8941 12.6626 13.9449 12.4998 13.9448C12.3369 13.9448 12.1782 13.8938 12.0457 13.7991L2.34375 6.86925V6.49011C2.34402 6.28299 2.42641 6.08444 2.57287 5.93798C2.71932 5.79153 2.91788 5.70913 3.125 5.70886Z" fill="#434343"/>
</svg>
