<svg width="24" height="21" viewBox="0 0 24 21" fill="none" xmlns="http://www.w3.org/2000/svg">
<path d="M23.6247 7.00005L19.8747 2.00005C19.7784 1.8713 19.6359 1.78505 19.4772 1.7588L11.9772 0.508804C11.9097 0.497554 11.8397 0.497554 11.7722 0.508804L4.27218 1.7588C4.11343 1.78505 3.97093 1.8713 3.87468 2.00005L0.124683 7.00005C-0.054067 7.2388 -0.039067 7.5713 0.159683 7.79255L11.4097 20.2926C11.5284 20.4238 11.6972 20.5001 11.8747 20.5001C12.0522 20.5001 12.2209 20.4251 12.3397 20.2926L23.5897 7.79255C23.7897 7.57005 23.8047 7.2388 23.6247 7.00005ZM15.9822 6.75005L11.8747 18.0463L7.76718 6.75005H15.9822ZM8.38343 5.50005L11.8747 2.0088L15.3659 5.50005H8.38343ZM13.6959 2.06255L18.3184 2.83255L16.7772 5.1438L13.6947 2.06255H13.6959ZM6.97218 5.1438L5.43093 2.83255L10.0534 2.06255L6.97218 5.1438ZM5.83718 5.69505L2.10593 6.4413L4.34468 3.4563L5.83718 5.69505ZM6.47093 6.8438L10.1884 17.0676L1.82343 7.77255L6.47093 6.84255V6.8438ZM17.2784 6.8438L21.9259 7.7738L13.5609 17.0688L17.2784 6.84505V6.8438ZM17.9122 5.69505L19.4047 3.4563L21.6434 6.4413L17.9122 5.69505Z" fill="#434343"/>
</svg>
