<svg width="25" height="25" viewBox="0 0 25 25" fill="none" xmlns="http://www.w3.org/2000/svg">
<path d="M23.8478 11.213C23.8471 11.2124 23.8466 11.2117 23.846 11.2112L14.2678 1.63327C13.8595 1.22483 13.3167 1 12.7393 1C12.1619 1 11.6191 1.22483 11.2107 1.63327L1.63742 11.2063C1.63419 11.2096 1.63079 11.213 1.62774 11.2162C0.789351 12.0594 0.790784 13.4275 1.63186 14.2686C2.01613 14.6531 2.52346 14.8756 3.06609 14.899C3.0883 14.9012 3.11051 14.9022 3.13291 14.9022H3.51448V21.9508C3.51448 23.3458 4.64954 24.4807 6.04453 24.4807H9.79185C10.1718 24.4807 10.4798 24.1726 10.4798 23.7928V18.2666C10.4798 17.6301 10.9977 17.1123 11.6342 17.1123H13.8444C14.4809 17.1123 14.9987 17.6301 14.9987 18.2666V23.7928C14.9987 24.1726 15.3066 24.4807 15.6866 24.4807H19.4339C20.8291 24.4807 21.9639 23.3458 21.9639 21.9508V14.9022H22.3179C22.8951 14.9022 23.4379 14.6774 23.8466 14.2688C24.6885 13.4265 24.6889 12.0558 23.8478 11.213ZM22.8736 13.296C22.7251 13.4446 22.5277 13.5264 22.3179 13.5264H21.276C20.8961 13.5264 20.5881 13.8344 20.5881 14.2143V21.9508C20.5881 22.5871 20.0704 23.1049 19.4339 23.1049H16.3745V18.2666C16.3745 16.8716 15.2396 15.7365 13.8444 15.7365H11.6342C10.239 15.7365 9.10394 16.8716 9.10394 18.2666V23.1049H6.04453C5.40821 23.1049 4.89031 22.5871 4.89031 21.9508V14.2143C4.89031 13.8344 4.58236 13.5264 4.20239 13.5264H3.17841C3.16766 13.5257 3.15709 13.5252 3.14616 13.525C2.94122 13.5214 2.749 13.4401 2.60497 13.2959C2.29864 12.9895 2.29864 12.491 2.60497 12.1845C2.60515 12.1845 2.60515 12.1843 2.60533 12.1841L2.60587 12.1836L12.1838 2.60602C12.3321 2.45751 12.5293 2.37582 12.7393 2.37582C12.9491 2.37582 13.1463 2.45751 13.2948 2.60602L22.8706 12.1816C22.872 12.183 22.8736 12.1845 22.8751 12.1859C23.1798 12.4928 23.1793 12.9903 22.8736 13.296Z" fill="#434343" stroke="#434343" stroke-width="0.25"/>
</svg>
