<svg width="18" height="19" viewBox="0 0 18 19" fill="none" xmlns="http://www.w3.org/2000/svg">
<path d="M11.4804 1.91419C11.1928 1.61986 10.8493 1.38598 10.47 1.22631C10.0907 1.06663 9.68335 0.984375 9.27183 0.984375C8.86031 0.984375 8.45294 1.06663 8.07365 1.22631C7.69437 1.38598 7.35083 1.61986 7.06322 1.91419L6.39861 2.5959L5.44763 2.58414C5.03599 2.57927 4.62753 2.65676 4.24627 2.81204C3.865 2.96733 3.51864 3.19728 3.22755 3.48838C2.93645 3.77948 2.7065 4.12584 2.55121 4.5071C2.39592 4.88836 2.31844 5.29682 2.32331 5.70847L2.33399 6.65944L1.65442 7.32405C1.36009 7.61167 1.12622 7.95521 0.96654 8.33449C0.806864 8.71377 0.724609 9.12114 0.724609 9.53267C0.724609 9.94419 0.806864 10.3516 0.96654 10.7308C1.12622 11.1101 1.36009 11.4537 1.65442 11.7413L2.33506 12.4059L2.32331 13.3569C2.31844 13.7685 2.39592 14.177 2.55121 14.5582C2.7065 14.9395 2.93645 15.2859 3.22755 15.577C3.51864 15.868 3.865 16.098 4.24627 16.2533C4.62753 16.4086 5.03599 16.4861 5.44763 16.4812L6.39861 16.4705L7.06322 17.1501C7.35083 17.4444 7.69437 17.6783 8.07365 17.838C8.45294 17.9976 8.86031 18.0799 9.27183 18.0799C9.68335 18.0799 10.0907 17.9976 10.47 17.838C10.8493 17.6783 11.1928 17.4444 11.4804 17.1501L12.1451 16.4694L13.096 16.4812C13.5077 16.4861 13.9161 16.4086 14.2974 16.2533C14.6787 16.098 15.025 15.868 15.3161 15.577C15.6072 15.2859 15.8372 14.9395 15.9925 14.5582C16.1477 14.177 16.2252 13.7685 16.2204 13.3569L16.2097 12.4059L16.8892 11.7413C17.1836 11.4537 17.4174 11.1101 17.5771 10.7308C17.7368 10.3516 17.8191 9.94419 17.8191 9.53267C17.8191 9.12114 17.7368 8.71377 17.5771 8.33449C17.4174 7.95521 17.1836 7.61167 16.8892 7.32405L16.2086 6.65944L16.2204 5.70847C16.2252 5.29682 16.1477 4.88836 15.9925 4.5071C15.8372 4.12584 15.6072 3.77948 15.3161 3.48838C15.025 3.19728 14.6787 2.96733 14.2974 2.81204C13.9161 2.65676 13.5077 2.57927 13.096 2.58414L12.1451 2.59483L11.4804 1.91526V1.91419ZM11.7871 8.30815L8.58157 11.5137C8.53195 11.5634 8.47299 11.6029 8.40808 11.6298C8.34318 11.6568 8.27359 11.6706 8.20332 11.6706C8.13305 11.6706 8.06346 11.6568 7.99856 11.6298C7.93365 11.6029 7.8747 11.5634 7.82507 11.5137L6.2223 9.91092C6.17263 9.86125 6.13323 9.80227 6.10634 9.73737C6.07946 9.67247 6.06563 9.60291 6.06563 9.53267C6.06563 9.46242 6.07946 9.39286 6.10634 9.32796C6.13323 9.26306 6.17263 9.20409 6.2223 9.15441C6.27198 9.10474 6.33095 9.06534 6.39585 9.03845C6.46075 9.01157 6.53031 8.99774 6.60056 8.99774C6.6708 8.99774 6.74036 9.01157 6.80526 9.03845C6.87016 9.06534 6.92914 9.10474 6.97881 9.15441L8.20332 10.38L11.0306 7.55165C11.1309 7.45133 11.267 7.39497 11.4089 7.39497C11.5507 7.39497 11.6868 7.45133 11.7871 7.55165C11.8874 7.65197 11.9438 7.78803 11.9438 7.9299C11.9438 8.07177 11.8874 8.20783 11.7871 8.30815Z" fill="#009262"/>
</svg>
