<svg width="25" height="25" viewBox="0 0 25 25" fill="none" xmlns="http://www.w3.org/2000/svg">
<path d="M12.6837 2.05078C7.01678 2.05078 2.42188 6.64569 2.42188 12.3126C2.42188 17.9795 7.01678 22.5744 12.6837 22.5744C18.3506 22.5744 22.9455 17.9795 22.9455 12.3126C22.9455 6.64569 18.3506 2.05078 12.6837 2.05078ZM12.6837 20.8336C7.97883 20.8336 4.16272 17.0174 4.16272 12.3126C4.16272 7.60773 7.97883 3.79162 12.6837 3.79162C17.3885 3.79162 21.2046 7.60773 21.2046 12.3126C21.2046 17.0174 17.3885 20.8336 12.6837 20.8336ZM10.668 8.64766H9.56849C9.46771 8.64766 9.38524 8.73012 9.38524 8.8309V15.7943C9.38524 15.8951 9.46771 15.9775 9.56849 15.9775H10.668C10.7688 15.9775 10.8512 15.8951 10.8512 15.7943V8.8309C10.8512 8.73012 10.7688 8.64766 10.668 8.64766ZM15.7989 8.64766H14.6994C14.5986 8.64766 14.5161 8.73012 14.5161 8.8309V15.7943C14.5161 15.8951 14.5986 15.9775 14.6994 15.9775H15.7989C15.8997 15.9775 15.9821 15.8951 15.9821 15.7943V8.8309C15.9821 8.73012 15.8997 8.64766 15.7989 8.64766Z" fill="#656565"/>
</svg>
