<svg width="91" height="69" viewBox="0 0 91 69" fill="none" xmlns="http://www.w3.org/2000/svg">
<rect x="0.65" y="2.65" width="74.7" height="48.7" rx="2.35" fill="#FBFAF8" stroke="#8CA385" stroke-width="1.3"/>
<rect x="5.65" y="7.65" width="46.7" height="38.7" rx="1.35" fill="#FBFAF8" stroke="#8CA385" stroke-width="1.3"/>
<rect x="75.0687" y="53.6529" width="5.67766" height="17.1968" transform="rotate(-37.7619 75.0687 53.6529)" fill="#FBFAF8" stroke="#8CA385" stroke-width="1.3"/>
<rect x="23.65" y="54.65" width="28.7" height="6.7" stroke="#8CA385" stroke-width="1.3"/>
<path d="M57.7263 56.4527C73.0392 56.4527 85.4527 44.0392 85.4527 28.7263C85.4527 13.4135 73.0392 1 57.7263 1C42.4135 1 30 13.4135 30 28.7263C30 44.0392 42.4135 56.4527 57.7263 56.4527Z" fill="#FBFAF8" stroke="#8CA385" stroke-width="1.3" stroke-miterlimit="10"/>
<path d="M44.6255 15.7239L38.2825 26.4583L57.5176 48.3947L77.0102 26.2332L71.3538 15.7239H44.6255Z" stroke="#8CA385" stroke-width="1.3" stroke-miterlimit="10"/>
<path d="M38.2827 26.3696H77.0105" stroke="#8CA385" stroke-width="1.3" stroke-miterlimit="10"/>
<path d="M53.3642 15.7239L50.0293 26.4583L57.371 48.3947" stroke="#8CA385" stroke-width="1.3" stroke-miterlimit="10"/>
<path d="M61.5734 15.7239L65.0798 26.4583L57.371 48.3947" stroke="#8CA385" stroke-width="1.3" stroke-miterlimit="10"/>
</svg>
