<svg width="175" height="178" viewBox="0 0 175 178" fill="none" xmlns="http://www.w3.org/2000/svg">
<path d="M128.83 65.1666L174.377 38.7382M128.83 113.056L174.377 139.485M116.735 139.453L138.251 118.501V59.6899L116.735 37.1461M125.169 155.374L153.433 127.289V50.9016L125.169 22.7856M46.1385 65.3576L0.591442 38.9292M46.1385 113.215L0.591442 139.644M116.735 37.3371H58.2652L36.749 59.8809V118.692L58.2652 139.644H116.735M125.169 22.9766H49.7988L21.5348 51.0927V127.48L49.7988 155.565H125.169M37.3537 1.77017H137.646M37.7357 176.421H137.264M64.1536 130.824H110.846M64.1536 47.3354H110.846M110.846 47.1761L137.646 1.61096L174.409 38.77V139.485L137.264 176.23L110.846 130.665L128.83 113.056V65.1666L110.846 47.1761ZM64.1536 47.3354L37.3537 1.77017L0.591442 38.9292V139.644L37.7357 176.421L64.1536 130.856L46.1703 113.247V65.3576L64.1536 47.3354Z" stroke="url(#paint0_radial_396_1173)" stroke-miterlimit="10"/>
<defs>
<radialGradient id="paint0_radial_396_1173" cx="0" cy="0" r="1" gradientUnits="userSpaceOnUse" gradientTransform="translate(87.4949 88.9965) scale(89.2308 89.2664)">
<stop offset="0.4078" stop-color="#D7D6D8"/>
<stop offset="1" stop-color="#838282"/>
</radialGradient>
</defs>
</svg>
