<svg width="114" height="115" viewBox="0 0 114 115" fill="none" xmlns="http://www.w3.org/2000/svg">
<path d="M52.4246 80.0588L52.4246 87.156" stroke="#656565" stroke-width="1.90633" stroke-miterlimit="10"/>
<path d="M55.4821 25.7711L61.2039 37.3476C61.4799 37.9043 61.8875 38.3856 62.3916 38.75C62.8957 39.1144 63.4811 39.3509 64.0974 39.4392L76.9065 41.3038C77.6054 41.414 78.2602 41.7149 78.7983 42.1732C79.3365 42.6315 79.737 43.2293 79.9558 43.9005C80.1745 44.5718 80.2028 45.2903 80.0376 45.9766C79.8724 46.6629 79.5201 47.2902 79.0197 47.7892L69.7542 56.804C69.3118 57.2362 68.9803 57.7683 68.7879 58.3554C68.5955 58.9424 68.5478 59.5671 68.6489 60.1765L70.8433 72.9042C70.9606 73.606 70.8793 74.3265 70.6087 74.9848C70.3381 75.6431 69.8888 76.2131 69.3113 76.6308C68.7338 77.0485 68.051 77.2973 67.3396 77.3493C66.6282 77.4013 65.9164 77.2544 65.284 76.9252L53.8241 70.9261C53.2749 70.6392 52.6641 70.4893 52.0441 70.4893C51.4241 70.4893 50.8134 70.6392 50.2642 70.9261L38.8042 76.9252C38.1718 77.2544 37.46 77.4013 36.7486 77.3493C36.0372 77.2973 35.3544 77.0485 34.7769 76.6308C34.1995 76.2131 33.7502 75.6431 33.4796 74.9848C33.2089 74.3265 33.1277 73.606 33.2449 72.9042L35.4394 60.1765C35.5404 59.5671 35.4927 58.9424 35.3003 58.3554C35.1079 57.7683 34.7764 57.2362 34.334 56.804L25.0685 47.7892C24.5681 47.2902 24.2158 46.6629 24.0506 45.9766C23.8854 45.2903 23.9137 44.5718 24.1324 43.9005C24.3511 43.2293 24.7517 42.6315 25.2899 42.1732C25.828 41.7149 26.4828 41.414 27.1817 41.3038L39.9908 39.4392C40.608 39.3536 41.1946 39.1181 41.6991 38.7534C42.2036 38.3887 42.6106 37.906 42.8843 37.3476L48.6061 25.7711C48.9233 25.1319 49.4134 24.5939 50.0208 24.2178C50.6283 23.8417 51.3291 23.6423 52.0441 23.6423C52.7591 23.6423 53.4599 23.8417 54.0674 24.2178C54.6749 24.5939 55.1649 25.1319 55.4821 25.7711V25.7711Z" stroke="#656565" stroke-width="1.90633" stroke-miterlimit="10"/>
<path d="M39.6074 34.6357L31.7756 27.5385" stroke="#656565" stroke-width="1.90633" stroke-miterlimit="10"/>
<path d="M65.9502 34.6357L73.07 27.5385" stroke="#656565" stroke-width="1.90633" stroke-miterlimit="10"/>
<path d="M19.7456 114.74C19.7456 114.74 23.2188 96.5032 17.43 87.873C11.6412 79.2428 -13.5502 44.9172 14.3959 17.1521C18.9223 12.3152 24.3951 8.41593 30.49 5.68535C36.585 2.95476 43.1782 1.44836 49.8791 1.25536C56.5801 1.06237 63.2525 2.18671 69.5011 4.56178C75.7498 6.93686 81.4476 10.5144 86.2572 15.0824C94.0367 23.426 98.1768 34.4118 97.7949 45.6982C97.6352 54.0941 113.125 69.7144 111.888 77.5245C110.65 85.3347 98.2341 82.8745 98.2341 82.8745V97.0499C98.2341 99.2248 97.3508 101.311 95.7785 102.849C94.2062 104.387 92.0738 105.251 89.8502 105.251H79.3106C78.6754 105.229 78.0425 105.335 77.4512 105.563C76.8598 105.791 76.3228 106.135 75.8734 106.575C75.424 107.014 75.0719 107.539 74.8391 108.118C74.6062 108.696 74.4975 109.315 74.5198 109.937V114.74" stroke="#656565" stroke-width="2.41897" stroke-miterlimit="10"/>
</svg>
