<svg width="521" height="439" viewBox="0 0 521 439" fill="none" xmlns="http://www.w3.org/2000/svg">
<g clip-path="url(#clip0_411_4219)">
<path d="M255.434 433.236L0.0175781 143.938L85.4377 0.173462H441.47L442.161 1.40419L520.52 142.4L516.222 144.784L438.63 5.09638H88.2006L6.08064 143.323L259.118 430.006L255.434 433.236Z" fill="url(#paint0_radial_411_4219)"/>
<path d="M296.494 311.702L257.276 424.159L159.115 142.784L154.51 144.399L254.82 432.006L255.51 433.775H259.118L300.331 315.625C300.003 314.979 299.721 314.31 299.487 313.625C298.442 313.06 297.442 312.417 296.494 311.702V311.702Z" fill="url(#paint1_radial_411_4219)"/>
<path d="M437.94 1.32727L355.589 142.784L321.13 241.089C322.36 240.728 323.618 240.471 324.89 240.32H326.042L359.503 144.4L441.854 3.40428L437.94 1.32727Z" fill="url(#paint2_radial_411_4219)"/>
<path d="M156.429 148.015L84.6702 3.40427L89.0448 1.17351L157.197 138.554L255.817 2.63502C256.166 2.14812 256.628 1.75351 257.163 1.48548C257.698 1.21745 258.289 1.08396 258.887 1.09651C260.075 1.23606 261.168 1.81147 261.957 2.71178L359.657 142.169L355.589 145.015L258.811 6.55781L156.429 148.015Z" fill="url(#paint3_radial_411_4219)"/>
<path d="M432.337 232.627C433.808 233.379 435.197 234.281 436.481 235.32L520.904 141.323H3.01074V146.169H509.085L432.337 232.627Z" fill="url(#paint4_radial_411_4219)"/>
<path d="M317.829 360.239L255.817 429.929L259.425 433.236L322.511 362.777C320.905 362.018 319.342 361.17 317.829 360.239V360.239Z" fill="url(#paint5_radial_411_4219)"/>
<path d="M388.975 369.315C375.833 368.832 363.123 364.489 352.425 356.825C341.727 349.16 333.512 338.513 328.803 326.208C324.093 313.902 323.097 300.48 325.937 287.611C328.777 274.742 335.329 262.994 344.778 253.827C354.227 244.66 366.155 238.479 379.081 236.052C392.006 233.626 405.358 235.06 417.477 240.178C429.595 245.296 439.946 253.871 447.241 264.837C454.536 275.803 458.454 288.676 458.508 301.856C458.205 320.041 450.711 337.361 437.673 350.01C424.635 362.66 407.119 369.603 388.975 369.315ZM388.975 239.858C376.8 240.355 365.039 244.428 355.154 251.57C345.27 258.711 337.697 268.607 333.378 280.027C329.059 291.446 328.184 303.886 330.861 315.801C333.538 327.715 339.649 338.578 348.436 347.039C357.222 355.501 368.296 361.188 380.281 363.393C392.266 365.599 404.633 364.225 415.845 359.444C427.058 354.663 436.621 346.684 443.347 336.5C450.072 326.316 453.663 314.376 453.673 302.164C453.31 285.311 446.297 269.291 434.169 257.612C422.042 245.933 405.79 239.549 388.975 239.858V239.858Z" fill="url(#paint6_radial_411_4219)"/>
<path d="M416.143 394.699C411.156 394.213 406.336 392.638 402.022 390.084C398.178 387.758 393.89 386.264 389.435 385.699C384.98 386.264 380.693 387.758 376.849 390.084C371.655 393.552 365.388 395.026 359.197 394.238C353.134 392.392 349.757 386.546 346.38 380.315C344.535 376.444 341.924 372.989 338.705 370.162C334.81 368.163 330.558 366.96 326.195 366.623C319.796 366.582 313.652 364.108 309.004 359.7C305.946 354.026 305.151 347.401 306.778 341.162C307.594 336.92 307.594 332.56 306.778 328.317C304.919 324.543 302.306 321.192 299.103 318.471C296.158 316.854 293.7 314.472 291.988 311.576C290.276 308.68 289.373 305.376 289.373 302.01C289.373 298.644 290.276 295.339 291.988 292.443C293.7 289.547 296.158 287.166 299.103 285.549C302.306 282.828 304.919 279.477 306.778 275.703C307.594 271.46 307.594 267.1 306.778 262.857C305.151 256.618 305.946 249.993 309.004 244.319C313.671 239.894 319.847 237.418 326.272 237.397C330.603 237.074 334.828 235.898 338.705 233.935C341.925 231.078 344.535 227.598 346.38 223.705C349.757 217.782 353.134 211.705 359.197 209.859C365.392 208.983 371.69 210.465 376.849 214.013C380.696 216.318 384.985 217.786 389.435 218.32C393.886 217.786 398.175 216.318 402.022 214.013C407.184 210.472 413.479 208.991 419.674 209.859C425.737 211.705 429.19 217.551 432.491 223.705C434.305 227.616 436.92 231.102 440.165 233.935C444.035 235.917 448.264 237.094 452.599 237.397C455.833 236.899 459.142 237.281 462.179 238.504C465.216 239.727 467.869 241.744 469.861 244.347C471.853 246.949 473.112 250.04 473.504 253.296C473.897 256.552 473.409 259.854 472.092 262.857C471.241 267.097 471.241 271.464 472.092 275.703C473.984 279.456 476.591 282.802 479.767 285.549C482.713 287.166 485.17 289.547 486.882 292.443C488.594 295.339 489.497 298.644 489.497 302.01C489.497 305.376 488.594 308.68 486.882 311.576C485.17 314.472 482.713 316.854 479.767 318.471C476.591 321.218 473.984 324.563 472.092 328.317C471.241 332.556 471.241 336.923 472.092 341.162C473.409 344.165 473.897 347.468 473.504 350.724C473.112 353.98 471.853 357.071 469.861 359.673C467.869 362.275 465.216 364.293 462.179 365.516C459.142 366.738 455.833 367.121 452.599 366.623C448.258 366.947 444.028 368.151 440.165 370.162C436.928 372.972 434.314 376.431 432.491 380.315C429.19 386.238 425.737 392.392 419.674 394.238C418.522 394.547 417.335 394.702 416.143 394.699V394.699ZM389.435 380.853C394.639 381.331 399.672 382.96 404.171 385.623C408.306 388.479 413.28 389.861 418.292 389.545C422.437 388.238 425.353 383.007 428.193 377.931C430.298 373.379 433.361 369.338 437.172 366.085C441.658 363.659 446.597 362.192 451.678 361.777C456.82 361.796 461.81 360.029 465.799 356.777C467.996 351.952 468.43 346.507 467.027 341.393C465.983 336.448 465.983 331.339 467.027 326.394C469.074 321.913 472.058 317.926 475.776 314.702C479.844 310.548 484.142 306.164 484.142 301.702C484.142 297.241 479.844 292.933 475.776 288.703C472.04 285.496 469.053 281.504 467.027 277.011C465.983 272.066 465.983 266.956 467.027 262.011C468.364 257.02 467.93 251.718 465.799 247.012C461.789 243.787 456.818 242 451.678 241.935C446.588 241.569 441.639 240.099 437.172 237.627C433.361 234.374 430.298 230.333 428.193 225.782C425.353 220.705 422.437 215.474 418.292 214.243C413.283 213.85 408.292 215.209 404.171 218.089C399.676 220.775 394.644 222.43 389.435 222.935C384.227 222.43 379.195 220.775 374.7 218.089C370.578 215.209 365.588 213.85 360.578 214.243C356.434 215.474 353.517 220.705 350.678 225.782C348.572 230.333 345.509 234.374 341.698 237.627C337.235 240.108 332.284 241.579 327.193 241.935C322.052 242 317.081 243.787 313.071 247.012C310.941 251.718 310.507 257.02 311.843 262.011C312.887 266.956 312.887 272.066 311.843 277.011C309.819 281.484 306.862 285.471 303.171 288.703C299.027 292.933 294.729 297.241 294.729 301.702C294.729 306.164 299.027 310.548 303.171 314.702C306.845 317.949 309.799 321.932 311.843 326.394C312.887 331.339 312.887 336.448 311.843 341.393C310.507 346.385 310.941 351.686 313.071 356.393C317.034 359.701 322.036 361.499 327.193 361.47C332.277 361.862 337.221 363.33 341.698 365.777C345.509 369.03 348.572 373.071 350.678 377.623C353.517 382.7 356.434 387.93 360.578 389.238C365.591 389.553 370.564 388.172 374.7 385.315C379.224 382.76 384.256 381.236 389.435 380.853V380.853Z" fill="url(#paint7_radial_411_4219)"/>
<path d="M356.28 438.236L340.854 396.545L303.631 414.929L323.432 363.777L327.96 365.623L312.764 404.93L343.617 389.699L356.357 424.391L369.865 388.93L374.469 390.699L356.28 438.236Z" fill="url(#paint8_radial_411_4219)"/>
<path d="M424.125 438.236L405.859 390.699L410.464 388.93L423.972 424.391L436.788 389.699L467.564 404.93L452.368 365.623L456.896 363.777L476.697 414.929L439.475 396.545L424.125 438.236Z" fill="url(#paint9_radial_411_4219)"/>
<path d="M374.316 337.624L339.856 303.933L343.31 300.394L374.623 331.009L435.1 281.626L438.17 285.472L374.316 337.624Z" fill="url(#paint10_radial_411_4219)"/>
</g>
<defs>
<radialGradient id="paint0_radial_411_4219" cx="0" cy="0" r="1" gradientUnits="userSpaceOnUse" gradientTransform="translate(260.269 216.705) scale(239.146 239.684)">
<stop stop-color="#D7D6D8"/>
<stop offset="1" stop-color="#838282"/>
</radialGradient>
<radialGradient id="paint1_radial_411_4219" cx="0" cy="0" r="1" gradientUnits="userSpaceOnUse" gradientTransform="translate(227.421 288.241) scale(114.891 115.15)">
<stop stop-color="#D7D6D8"/>
<stop offset="1" stop-color="#838282"/>
</radialGradient>
<radialGradient id="paint2_radial_411_4219" cx="0" cy="0" r="1" gradientUnits="userSpaceOnUse" gradientTransform="translate(381.607 121.17) scale(94.7833 94.9969)">
<stop stop-color="#D7D6D8"/>
<stop offset="1" stop-color="#838282"/>
</radialGradient>
<radialGradient id="paint3_radial_411_4219" cx="0" cy="0" r="1" gradientUnits="userSpaceOnUse" gradientTransform="translate(222.202 74.7095) scale(110.21 110.458)">
<stop stop-color="#D7D6D8"/>
<stop offset="1" stop-color="#838282"/>
</radialGradient>
<radialGradient id="paint4_radial_411_4219" cx="0" cy="0" r="1" gradientUnits="userSpaceOnUse" gradientTransform="translate(261.727 188.167) scale(185.883 186.302)">
<stop stop-color="#D7D6D8"/>
<stop offset="1" stop-color="#838282"/>
</radialGradient>
<radialGradient id="paint5_radial_411_4219" cx="0" cy="0" r="1" gradientUnits="userSpaceOnUse" gradientTransform="translate(288.742 396.699) scale(34.9202 34.9988)">
<stop stop-color="#D7D6D8"/>
<stop offset="1" stop-color="#838282"/>
</radialGradient>
<radialGradient id="paint6_radial_411_4219" cx="0" cy="0" r="1" gradientUnits="userSpaceOnUse" gradientTransform="translate(388.975 302.163) scale(68.3054 68.4593)">
<stop stop-color="#D7D6D8"/>
<stop offset="1" stop-color="#838282"/>
</radialGradient>
<radialGradient id="paint7_radial_411_4219" cx="0" cy="0" r="1" gradientUnits="userSpaceOnUse" gradientTransform="translate(389.435 302.01) scale(96.3183 96.5353)">
<stop stop-color="#D7D6D8"/>
<stop offset="1" stop-color="#838282"/>
</radialGradient>
<radialGradient id="paint8_radial_411_4219" cx="0" cy="0" r="1" gradientUnits="userSpaceOnUse" gradientTransform="translate(339.012 401.007) scale(36.3016 36.3834)">
<stop stop-color="#D7D6D8"/>
<stop offset="1" stop-color="#838282"/>
</radialGradient>
<radialGradient id="paint9_radial_411_4219" cx="0" cy="0" r="1" gradientUnits="userSpaceOnUse" gradientTransform="translate(441.317 401.007) scale(36.3016 36.3834)">
<stop stop-color="#D7D6D8"/>
<stop offset="1" stop-color="#838282"/>
</radialGradient>
<radialGradient id="paint10_radial_411_4219" cx="0" cy="0" r="1" gradientUnits="userSpaceOnUse" gradientTransform="translate(389.051 309.625) scale(39.9855 40.0756)">
<stop stop-color="#D7D6D8"/>
<stop offset="1" stop-color="#838282"/>
</radialGradient>
<clipPath id="clip0_411_4219">
<rect width="520.503" height="438.063" fill="white" transform="translate(0.0175781 0.173462)"/>
</clipPath>
</defs>
</svg>
