<svg width="32" height="32" viewBox="0 0 32 32" fill="none" xmlns="http://www.w3.org/2000/svg">
<path d="M15.3812 3.10165C15.3812 2.20497 15.3826 1.72886 15.3984 1.46393C15.4061 1.33271 15.418 1.24003 15.4401 1.16977C15.4657 1.08852 15.5033 1.04252 15.5424 1.00349C15.6561 0.889742 15.8177 0.84237 16 0.84237C16.1822 0.84237 16.3438 0.889742 16.4576 1.00349C16.4966 1.04252 16.5343 1.08852 16.5599 1.16977C16.582 1.24003 16.5938 1.33271 16.6016 1.46393C16.6173 1.72886 16.6187 2.20497 16.6187 3.10165C16.6187 3.99833 16.6173 4.47445 16.6016 4.73937C16.5938 4.8706 16.582 4.96327 16.5599 5.03353C16.5343 5.11479 16.4966 5.16079 16.4576 5.19982C16.3438 5.31357 16.1822 5.36094 16 5.36094C15.8177 5.36094 15.6561 5.31357 15.5424 5.19982C15.5033 5.16079 15.4657 5.11479 15.4401 5.03353C15.418 4.96327 15.4061 4.8706 15.3984 4.73937C15.3826 4.47445 15.3812 3.99833 15.3812 3.10165Z" fill="#656565" stroke="#656565" stroke-width="0.3"/>
<path d="M11.834 4.11551C12.2863 4.68165 12.5413 5.00495 12.6823 5.21232C12.7531 5.31643 12.8006 5.399 12.8296 5.47394C12.8605 5.55351 12.8686 5.61931 12.8686 5.68557C12.8686 5.86023 12.8222 6.01871 12.7105 6.13361C12.5981 6.24919 12.4415 6.29844 12.2675 6.29844C12.1972 6.29844 12.1259 6.29181 12.0656 6.28175C12.0124 6.27289 11.9461 6.25807 11.9001 6.2318L11.8999 6.23211L11.8913 6.22637C11.8747 6.21531 11.8606 6.20081 11.8562 6.19633C11.856 6.19608 11.8558 6.19587 11.8556 6.19569C11.848 6.18793 11.8393 6.17849 11.8299 6.16812C11.811 6.14718 11.7862 6.11872 11.7565 6.0841C11.6971 6.01464 11.6159 5.91755 11.519 5.80007C11.325 5.56497 11.0667 5.24647 10.7909 4.90026C10.3386 4.33411 10.0836 4.01081 9.9426 3.80345C9.87181 3.69934 9.82432 3.61677 9.79524 3.54182C9.76437 3.46225 9.75625 3.39646 9.75625 3.3302C9.75625 3.15284 9.80411 2.9917 9.91737 2.87845C9.96889 2.82692 10.0373 2.79298 10.1008 2.7704C10.1666 2.74698 10.2397 2.73141 10.3114 2.72338C10.3832 2.71536 10.4579 2.71443 10.5273 2.72268C10.5942 2.73063 10.6683 2.74851 10.7299 2.787L10.7299 2.78695L10.7336 2.78939C10.7502 2.80046 10.7643 2.81495 10.7686 2.81944C10.7689 2.81968 10.7691 2.8199 10.7693 2.82008C10.7769 2.82784 10.7856 2.83728 10.795 2.84765C10.8139 2.86858 10.8387 2.89704 10.8683 2.93167C10.9278 3.00113 11.009 3.09821 11.1059 3.2157C11.2999 3.4508 11.5582 3.76929 11.834 4.11551ZM11.834 4.11551C11.834 4.11554 11.834 4.11557 11.834 4.11561L11.7167 4.20907L11.8339 4.11544C11.8339 4.11546 11.8339 4.11548 11.834 4.11551Z" fill="#656565" stroke="#656565" stroke-width="0.3"/>
<path d="M20.1698 4.11553C20.4456 3.76931 20.7039 3.4508 20.8979 3.2157C20.9948 3.09821 21.076 3.00113 21.1355 2.93167C21.1651 2.89704 21.1899 2.86858 21.2088 2.84765C21.2182 2.83728 21.2269 2.82784 21.2345 2.82008C21.2347 2.8199 21.2349 2.81968 21.2351 2.81944C21.2395 2.81495 21.2536 2.80046 21.2702 2.78939L21.27 2.7891L21.279 2.78396C21.325 2.7577 21.3913 2.74287 21.4445 2.73402C21.5048 2.72396 21.5761 2.71733 21.6464 2.71733C21.8204 2.71733 21.977 2.76658 22.0894 2.88216C22.2011 2.99706 22.2475 3.15553 22.2475 3.3302C22.2475 3.39646 22.2394 3.46225 22.2085 3.54182C22.1795 3.61677 22.132 3.69934 22.0612 3.80345C21.9202 4.01081 21.6652 4.33411 21.2129 4.90026C20.9371 5.24647 20.6788 5.56497 20.4848 5.80007C20.3879 5.91755 20.3067 6.01464 20.2472 6.0841C20.2176 6.11872 20.1928 6.14718 20.1739 6.16812C20.1645 6.17849 20.1558 6.18793 20.1482 6.19569C20.148 6.19587 20.1478 6.19608 20.1475 6.19633C20.1432 6.20081 20.1291 6.21531 20.1125 6.22637L20.1127 6.22667L20.1037 6.2318C20.0578 6.258 19.9916 6.27285 19.9393 6.28169C19.8798 6.29175 19.8099 6.29844 19.7422 6.29844C19.566 6.29844 19.4079 6.24963 19.2945 6.13412C19.1817 6.01907 19.1352 5.86024 19.1352 5.68557C19.1352 5.61931 19.1433 5.55351 19.1741 5.47394C19.2032 5.399 19.2507 5.31643 19.3215 5.21232C19.4625 5.00496 19.7175 4.68166 20.1698 4.11553ZM20.1698 4.11553C20.1698 4.1155 20.1699 4.11547 20.1699 4.11544L20.2871 4.20907L20.1697 4.11561C20.1698 4.11558 20.1698 4.11556 20.1698 4.11553Z" fill="#656565" stroke="#656565" stroke-width="0.3"/>
<path d="M1.00895 14.9126C0.905641 14.6955 0.855812 14.3953 0.850482 14.1098C0.845158 13.8245 0.88374 13.5268 0.978734 13.3165L0.979045 13.3158C0.99437 13.2823 1.02479 13.2332 1.06026 13.1789C1.09791 13.1212 1.14776 13.048 1.20769 12.962C1.32766 12.7899 1.4901 12.5635 1.68073 12.3018C2.06209 11.7783 2.55787 11.1114 3.05582 10.45C3.55377 9.78862 4.05433 9.13227 4.44526 8.63001C4.64064 8.37898 4.80913 8.16583 4.9364 8.0096C4.99995 7.93159 5.05392 7.86691 5.09618 7.81849C5.13369 7.77551 5.17311 7.73205 5.20299 7.70964L5.20517 7.70803C5.31904 7.62579 5.50068 7.5249 5.60945 7.48412L5.60943 7.48405L5.61372 7.48259C5.63635 7.47487 5.66232 7.47235 5.67277 7.47134L5.67395 7.47123C5.69052 7.4696 5.71114 7.46815 5.73482 7.46681C5.78247 7.46411 5.84788 7.46156 5.92916 7.45912C6.09201 7.45424 6.32253 7.4497 6.6106 7.44549C7.18693 7.43708 7.99604 7.42999 8.96009 7.42422C10.8883 7.41268 13.4377 7.40645 15.9873 7.40572C18.5369 7.40499 21.087 7.40975 23.0167 7.42019C23.9815 7.42541 24.7915 7.43205 25.369 7.44014C25.6576 7.44418 25.8887 7.44859 26.0522 7.45339C26.1338 7.45578 26.1995 7.4583 26.2475 7.46098C26.2713 7.46231 26.2921 7.46374 26.3088 7.46535L26.3097 7.46544C26.3206 7.46648 26.3458 7.46891 26.3679 7.4761L26.3679 7.476L26.3732 7.47796C26.4979 7.52389 26.6857 7.62422 26.8018 7.70803L26.8028 7.70879C26.8211 7.72227 26.8391 7.74071 26.8518 7.75406C26.8669 7.77 26.8847 7.78994 26.9046 7.81296C26.9446 7.85915 26.9964 7.92148 27.0579 7.99709C27.1809 8.14851 27.3454 8.35651 27.5372 8.60232C27.9209 9.09413 28.4156 9.7396 28.9098 10.3918C29.4041 11.0439 29.8983 11.7033 30.2812 12.2229C30.4726 12.4826 30.6366 12.7079 30.7589 12.8801C30.8778 13.0474 30.965 13.1751 30.9951 13.2325L30.9964 13.235C31.0757 13.3937 31.1232 13.6669 31.1409 14.0031C31.1526 14.2251 31.1551 14.3737 31.1358 14.5045C31.1159 14.6394 31.074 14.7483 31.0113 14.8914L31.0114 14.8914L31.0094 14.8956C30.9874 14.942 30.9377 15.0115 30.8722 15.0967C30.8028 15.1869 30.7049 15.3081 30.5756 15.4639C30.3169 15.7757 29.9287 16.2301 29.3826 16.8601C28.2901 18.1204 26.5627 20.0866 23.9672 23.0278L23.9671 23.0279C23.4285 23.6378 22.9306 24.2019 22.4702 24.7236C19.6596 27.9082 18.2434 29.5127 17.4615 30.3161C17.0109 30.779 16.7534 30.9955 16.5484 31.0873C16.4384 31.1366 16.3455 31.1497 16.2544 31.15C16.2145 31.1501 16.1744 31.1478 16.1372 31.1457L16.1293 31.1452C16.0885 31.1429 16.0482 31.1407 16.0035 31.1407C15.9587 31.1407 15.9184 31.1429 15.8777 31.1452L15.8697 31.1457C15.8325 31.1478 15.7924 31.1501 15.7526 31.15C15.6614 31.1497 15.5686 31.1366 15.4586 31.0873C15.2535 30.9955 14.996 30.779 14.5454 30.3161C13.7635 29.5127 12.3474 27.9082 9.53682 24.7237C9.07636 24.202 8.57847 23.6378 8.03981 23.0279L8.03973 23.0278C5.61991 20.2828 3.89112 18.3137 2.7555 17.0052C2.18776 16.351 1.76777 15.8613 1.48364 15.5221C1.34167 15.3526 1.2329 15.2198 1.15634 15.1225C1.11813 15.0739 1.08713 15.0331 1.06374 15.0004C1.04307 14.9715 1.02168 14.9399 1.00895 14.9126ZM1.00895 14.9126C1.00873 14.9121 1.00852 14.9117 1.00832 14.9112L1.14474 14.8489L1.00935 14.9134C1.00921 14.9132 1.00908 14.9129 1.00895 14.9126ZM5.70333 9.14479C5.71723 9.16196 5.73236 9.18075 5.7487 9.20112C5.8459 9.32236 5.98352 9.49684 6.15186 9.71202C6.48841 10.1422 6.9466 10.7336 7.44741 11.3838L5.70333 9.14479ZM5.70333 9.14479C5.64509 9.21756 5.56605 9.31814 5.46971 9.44199C5.2564 9.71623 4.95995 10.1025 4.62064 10.5483C3.94595 11.4348 3.10272 12.5556 2.40834 13.4977H5.74415H9.07231M5.70333 9.14479L9.07231 13.4977M9.07231 13.4977L7.4475 11.3839L9.07231 13.4977ZM20.459 13.4704L18.364 13.486C18.3639 13.486 18.3637 13.486 18.3636 13.486M20.459 13.4704L18.3647 13.636L18.3636 13.486M20.459 13.4704L19.0221 11.1308L19.022 11.1307L17.4899 8.64172H16.0035H14.517L12.9849 11.1307L12.9849 11.1308L11.548 13.4704L13.6429 13.486C13.6431 13.486 13.6432 13.486 13.6434 13.486M20.459 13.4704L13.6434 13.486M18.3636 13.486C17.0634 13.4919 14.9435 13.4919 13.6434 13.486M18.3636 13.486H13.6434M8.59931 10.7264L8.59937 10.7265C9.09131 11.3678 9.54365 11.9519 9.87584 12.377C10.042 12.5896 10.1779 12.7622 10.2735 12.8822C10.2856 12.8974 10.2971 12.9117 10.3079 12.9251C10.3705 12.8327 10.4567 12.7014 10.561 12.5397C10.7793 12.2009 11.0746 11.7316 11.3935 11.2137C12.0318 10.1715 12.6822 9.11671 12.8412 8.86341C12.8413 8.86331 12.8413 8.86321 12.8414 8.8631L12.9794 8.64172H9.96857H6.99772L8.59931 10.7264ZM23.4076 10.7265L23.4076 10.7264L25.0092 8.64172H22.0384H19.0275L19.1655 8.8631C19.3242 9.11585 19.9749 10.171 20.6134 11.2137C20.9323 11.7316 21.2277 12.2009 21.446 12.5397C21.5502 12.7014 21.6364 12.8327 21.6991 12.9251C21.7098 12.9117 21.7213 12.8974 21.7334 12.8822C21.8291 12.7622 21.965 12.5896 22.1311 12.377C22.4633 11.9519 22.9156 11.3678 23.4076 10.7265ZM27.8714 11.1893L27.8709 11.1886C27.4259 10.5914 27.0162 10.0485 26.7142 9.6536C26.5631 9.45608 26.4393 9.29599 26.3516 9.18478C26.3396 9.16957 26.3284 9.15534 26.3178 9.14209C26.3053 9.1572 26.2917 9.17365 26.2772 9.19142C26.1804 9.30941 26.0426 9.48144 25.8736 9.69509C25.5358 10.1222 25.0747 10.7134 24.5711 11.3664L22.9344 13.4977H26.2687H29.6042C29.5134 13.3795 29.3 13.0942 29.0136 12.7116C28.6989 12.291 28.2962 11.7528 27.8714 11.1893ZM12.0285 21.5498L12.0285 21.5498L9.88776 14.7352H6.07812H2.49334L2.53588 14.7837L2.92305 15.224C3.25349 15.5996 3.72094 16.1306 4.27998 16.7655C5.39805 18.0352 6.88242 19.7204 8.36953 21.4086C10.6882 24.0407 13.0134 26.6798 13.9675 27.7626C13.8642 27.4255 13.723 26.9685 13.5517 26.4175C13.1651 25.1734 12.6261 23.451 12.0285 21.5498ZM20.7391 14.7352H16.0035H11.2678C11.2766 14.7641 11.2883 14.8025 11.303 14.8502C11.3364 14.9588 11.3848 15.1146 11.4463 15.3124C11.5694 15.7079 11.7453 16.2711 11.961 16.9602C12.3924 18.3385 12.9827 20.2207 13.6272 22.2743C14.2717 24.3279 14.862 26.2072 15.2933 27.5797L15.8081 29.2167L15.9515 29.6722L15.9904 29.7954L16.0011 29.8291L16.0035 29.8366L16.0059 29.8291L16.0165 29.7954L16.0554 29.6722L16.1988 29.2167L16.7136 27.5797C17.145 26.2072 17.7353 24.3279 18.3798 22.2743C19.0243 20.2207 19.6146 18.3385 20.0459 16.9602C20.2616 16.2711 20.4375 15.7079 20.5606 15.3124C20.6222 15.1146 20.6705 14.9588 20.7039 14.8502C20.7186 14.8025 20.7304 14.7641 20.7391 14.7352ZM18.4552 26.4175C18.284 26.9685 18.1427 27.4255 18.0394 27.7626C18.9935 26.6798 21.3188 24.0407 23.6374 21.4086C25.1245 19.7204 26.6089 18.0352 27.727 16.7655C28.286 16.1306 28.7535 15.5996 29.0839 15.224L29.4711 14.7837L29.5136 14.7352H25.9288H22.1192L19.9784 21.5498L19.9784 21.5498C19.3808 23.451 18.8418 25.1734 18.4552 26.4175Z" fill="#656565" stroke="#656565" stroke-width="0.3"/>
</svg>
