<svg width="22" height="28" viewBox="0 0 22 28" fill="none" xmlns="http://www.w3.org/2000/svg">
<path d="M6.78177 0.991103C6.34198 1.53534 5.94067 2.0411 5.8857 2.11257L5.78125 2.25H6.95769H8.12863L8.52993 1.16152C8.74983 0.567806 8.92574 0.0620484 8.92574 0.0345616C8.92574 0.0125722 8.62339 -0.00391995 8.25506 0.00157742H7.57889L6.78177 0.991103Z" fill="#656565"/>
<path d="M9.50415 0.0620481C9.48766 0.10053 9.30624 0.60079 9.09185 1.17252C8.88295 1.74424 8.70703 2.22251 8.70703 2.23351C8.70703 2.2445 9.69656 2.25 10.906 2.25C12.1154 2.25 13.1049 2.2445 13.1049 2.23351C13.1049 2.22251 12.9235 1.72225 12.6981 1.11754L12.2913 0.0235665L10.9115 0.0070744C9.83399 -0.00392033 9.52064 0.0070744 9.50415 0.0620481Z" fill="#656565"/>
<path d="M12.8828 0.0345616C12.8828 0.0620484 13.0642 0.567806 13.2786 1.16152L13.6799 2.25H14.8509H16.0273L15.9229 2.11257C15.8679 2.0411 15.4666 1.53534 15.0268 0.991103L14.2297 0.00157742H13.559C13.1852 -0.00391995 12.8828 0.0125722 12.8828 0.0345616Z" fill="#656565"/>
<path d="M6.07001 3.05425C8.06006 5.20372 9.93466 7.18827 9.95665 7.17177C9.96764 7.15528 9.56633 6.16575 9.06058 4.96733L8.13702 2.79587H6.98257H5.82812L6.07001 3.05425Z" fill="#656565"/>
<path d="M8.76567 2.86181C8.76567 2.90029 9.20546 3.96129 9.73871 5.21469L10.7117 7.49609H10.9041H11.0966L12.0696 5.21469C12.6028 3.96129 13.0426 2.90029 13.0426 2.86181C13.0481 2.81234 12.5863 2.79584 10.9041 2.79584C9.22195 2.79584 8.76018 2.81234 8.76567 2.86181Z" fill="#656565"/>
<path d="M12.74 4.96733C12.2343 6.16575 11.833 7.15528 11.844 7.17177C11.866 7.18827 13.7406 5.20372 15.7306 3.05425L15.9725 2.79587H14.818H13.6636L12.74 4.96733Z" fill="#656565"/>
<path d="M7.35765 6.13658C3.86133 7.3405 1.22809 10.2046 0.315526 13.7944C-0.00332087 15.0533 -0.0912787 16.7905 0.101129 18.0494C0.832279 22.898 4.63646 26.6527 9.45215 27.2849C10.2603 27.3894 11.5466 27.3894 12.3438 27.2849C17.1814 26.6472 20.9691 22.9035 21.7058 18.0384C21.8267 17.2577 21.8267 15.724 21.7113 14.9214C21.1176 10.8203 18.2919 7.42296 14.3943 6.12008L13.7896 5.91668L13.3333 6.40595C13.0859 6.66982 12.7341 7.05464 12.5472 7.25804L12.2173 7.62086L12.5362 7.68683C14.2843 8.03866 15.7741 8.7973 17 9.96824C17.8631 10.7983 18.3854 11.4965 18.8911 12.5025C19.6003 13.9153 19.9026 15.4381 19.8037 17.0873C19.5728 20.8145 16.8846 24.0965 13.2508 25.086C11.7446 25.4928 10.0184 25.4928 8.53959 25.075C6.98933 24.6407 5.70294 23.8821 4.554 22.7221C1.35453 19.4897 1.10715 14.3826 3.97677 10.8478C4.70792 9.95175 5.90085 8.97871 6.88488 8.48945C7.45111 8.20359 8.2922 7.90673 8.95189 7.7583C9.28723 7.68134 9.5621 7.61537 9.56759 7.60987C9.58958 7.59338 8.03383 5.92768 7.99535 5.92768C7.97885 5.93317 7.69299 6.02663 7.35765 6.13658Z" fill="#656565"/>
</svg>
