<svg width="169" height="172" viewBox="0 0 169 172" fill="none" xmlns="http://www.w3.org/2000/svg">
<path d="M29.5051 170.875C29.5051 170.875 34.6966 143.617 26.0441 130.718C17.3916 117.818 -20.2616 66.5122 21.509 25.0121C28.2746 17.7824 36.4547 11.9543 45.5648 7.8729C54.6748 3.79153 64.5296 1.53993 74.5454 1.25146C84.5612 0.962995 94.5344 2.64353 103.874 6.19352C113.214 9.74352 121.73 15.0908 128.919 21.9186C140.547 34.3896 146.735 50.81 146.164 67.6796C145.926 80.2288 169.079 103.576 167.229 115.25C165.379 126.924 146.821 123.247 146.821 123.247V144.434C146.821 147.685 145.501 150.803 143.151 153.102C140.801 155.4 137.613 156.692 134.29 156.692H118.536C117.587 156.659 116.641 156.818 115.757 157.158C114.873 157.499 114.07 158.014 113.399 158.671C112.727 159.328 112.201 160.113 111.853 160.977C111.505 161.842 111.342 162.767 111.376 163.696V170.875" stroke="#8DA385" stroke-width="2.41897" stroke-miterlimit="10"/>
<path d="M24.1304 80.4043H124.261" stroke="#8DA385" stroke-width="2.41897" stroke-miterlimit="10"/>
<path d="M40.8992 51.0454L57.3687 80.4048L75.4494 51.0454" stroke="#8DA385" stroke-width="2.41897" stroke-miterlimit="10"/>
<path d="M74.1963 51.0454L90.6659 80.4048L108.747 51.0454" stroke="#8DA385" stroke-width="2.41897" stroke-miterlimit="10"/>
<path d="M57.3679 80.4048L74.5535 131.419L124.261 80.4048L107.493 51.0454H40.8983L24.1304 80.4048L74.7851 132.18" stroke="#8DA385" stroke-width="2.41897" stroke-miterlimit="10"/>
<path d="M90.6621 80.4043L74.5505 131.418" stroke="#8DA385" stroke-width="2.41897" stroke-miterlimit="10"/>
<path d="M39.0473 44.3908L33.3784 32.542" stroke="#8DA385" stroke-width="2.41897" stroke-miterlimit="10"/>
<path d="M111.727 44.3908L117.336 32.542" stroke="#8DA385" stroke-width="2.41897" stroke-miterlimit="10"/>
<path d="M75.4509 40.5967V27.0552" stroke="#8DA385" stroke-width="2.41897" stroke-miterlimit="10"/>
</svg>
