<svg width="74" height="64" viewBox="0 0 74 64" fill="none" xmlns="http://www.w3.org/2000/svg">
<path d="M23.9936 14.2031L14.5068 30.134L43.2932 62.6803L72.4708 29.7971L63.9946 14.2031H23.9936Z" stroke="#8DA385" stroke-width="1.3" stroke-miterlimit="10"/>
<path d="M14.5068 30.134H72.4708" stroke="#8DA385" stroke-width="1.3" stroke-miterlimit="10"/>
<path d="M37.0885 14.2031L31.9268 30.134L43.2935 62.6803" stroke="#8DA385" stroke-width="1.3" stroke-miterlimit="10"/>
<path d="M49.498 14.2031L54.6706 30.134L43.293 62.6803" stroke="#8DA385" stroke-width="1.3" stroke-miterlimit="10"/>
<path d="M34.6661 12.1709C36.3396 7.63945 36.3178 3.83604 34.1988 1.98868C30.3193 -1.39092 20.8326 3.15142 13.0301 12.1275C5.22771 21.1035 2.04371 31.1228 5.92318 34.5024C7.78142 36.1107 10.9002 35.9259 14.508 34.3176" stroke="#8DA385" stroke-width="1.3" stroke-miterlimit="10"/>
<path d="M32.4268 12.3558C33.307 9.62822 33.2309 7.44398 32.0029 6.37902C29.3297 4.05351 22.2227 7.84606 16.1373 14.8443C10.0518 21.8426 7.28079 29.4059 9.95404 31.7206C10.4398 32.0737 11.0031 32.3054 11.5967 32.3961C12.1904 32.4869 12.7972 32.4341 13.3663 32.2422" stroke="#8DA385" stroke-width="1.3" stroke-miterlimit="10"/>
<path d="M8.94275 10.1063L4.40039 5.56396" stroke="#8DA385" stroke-width="1.3" stroke-miterlimit="10"/>
<path d="M14.5068 5.56384V0" stroke="#8DA385" stroke-width="1.3" stroke-miterlimit="10"/>
<path d="M5.56384 16.2678H0" stroke="#8DA385" stroke-width="1.3" stroke-miterlimit="10"/>
</svg>
