<svg width="338" height="335" viewBox="0 0 338 335" fill="none" xmlns="http://www.w3.org/2000/svg">
<path d="M167.324 1.18018L121.565 52.6147L50.885 49.7674L52.2864 119.074L79.7662 167.54L121.565 52.6147L104.991 13.7813M52.2864 212.31L104.382 230.364L79.8271 167.479L52.2864 212.31ZM52.2864 212.31L1.71387 167.479L52.2864 119.013L14.9358 102.595M47.8994 282.162L52.2864 212.31L14.4484 231.151M104.382 320.935L121.565 279.739L104.382 230.424L169.03 253.991L121.626 279.739L49.6664 284.04M52.2864 119.013L102.371 105.322L168.969 77.5747L121.565 52.6147M121.565 279.739L168.969 333.839M233.007 13.7813L216.434 52.6147L258.171 167.479L285.651 119.013L287.053 49.7068L216.373 52.5542L170.736 1.18018M323.063 102.595L285.712 119.013L336.285 167.479L285.712 212.31L258.232 167.479L233.677 230.364L285.773 212.31M323.55 231.212L285.712 212.371L290.099 282.223M288.332 284.04L216.434 279.739L169.03 253.991L233.677 230.424L216.495 279.739L233.677 320.935M216.434 52.6147L169.03 77.6353L235.627 105.382L285.712 119.074M216.434 279.739L169.03 333.839M336.285 167.479C336.285 259.322 261.401 333.778 169.03 333.778C76.6587 333.778 1.7748 259.322 1.7748 167.479C1.7748 75.6361 76.6587 1.18018 169.03 1.18018C261.401 1.18018 336.285 75.6361 336.285 167.479Z" stroke="url(#paint0_radial_429_1187)" stroke-width="1.86075" stroke-miterlimit="10"/>
<defs>
<radialGradient id="paint0_radial_429_1187" cx="0" cy="0" r="1" gradientUnits="userSpaceOnUse" gradientTransform="translate(169.013 167.491) scale(171.031 170.054)">
<stop offset="0.4078" stop-color="#D7D6D8"/>
<stop offset="1" stop-color="#838282"/>
</radialGradient>
</defs>
</svg>
