<svg width="32" height="25" viewBox="0 0 32 25" fill="none" xmlns="http://www.w3.org/2000/svg">
<path d="M1.00896 7.91262C0.905644 7.69551 0.855812 7.39528 0.850482 7.10975C0.845158 6.82452 0.88374 6.52684 0.978736 6.31649L0.978734 6.31649L0.979045 6.31581C0.99437 6.28232 1.02479 6.23318 1.06026 6.17887C1.09791 6.1212 1.14776 6.048 1.20769 5.962C1.32766 5.78986 1.4901 5.56348 1.68073 5.30182C2.06209 4.77832 2.55787 4.11136 3.05582 3.44999C3.55377 2.78862 4.05433 2.13227 4.44526 1.63001C4.64064 1.37898 4.80913 1.16583 4.9364 1.0096C4.99995 0.931589 5.05392 0.866909 5.09618 0.818487C5.13369 0.775511 5.17311 0.732052 5.20299 0.709635L5.20517 0.708033C5.31904 0.625793 5.50069 0.524904 5.60945 0.484118L5.60943 0.484053L5.61372 0.48259C5.63635 0.474874 5.66232 0.472355 5.67277 0.47134L5.67395 0.471226C5.69052 0.469599 5.71114 0.468149 5.73482 0.466808C5.78247 0.464109 5.84788 0.461557 5.92916 0.45912C6.09201 0.454235 6.32253 0.449696 6.6106 0.445494C7.18693 0.437084 7.99604 0.429987 8.96009 0.424217C10.8883 0.41268 13.4377 0.406454 15.9873 0.405722C18.5369 0.404989 21.087 0.40975 23.0167 0.420189C23.9815 0.425407 24.7915 0.432049 25.369 0.440136C25.6576 0.44418 25.8887 0.448591 26.0522 0.453388C26.1338 0.455784 26.1995 0.458302 26.2475 0.460976C26.2713 0.462303 26.2921 0.463741 26.3088 0.465349L26.3097 0.465441C26.3206 0.466482 26.3458 0.46891 26.3679 0.476099L26.3679 0.475996L26.3732 0.477957C26.4979 0.523886 26.6857 0.624218 26.8018 0.708029L26.8028 0.708788C26.8211 0.722267 26.8391 0.740711 26.8518 0.754059C26.8669 0.770004 26.8847 0.789944 26.9046 0.812963C26.9446 0.859148 26.9964 0.921482 27.0579 0.997087C27.1809 1.14851 27.3454 1.35651 27.5372 1.60232C27.9209 2.09413 28.4156 2.7396 28.9098 3.39175C29.4041 4.04392 29.8983 4.70327 30.2812 5.22288C30.4726 5.48262 30.6366 5.70789 30.7589 5.88007C30.8778 6.04743 30.965 6.17511 30.9951 6.23246L30.9964 6.23498C31.0757 6.39368 31.1232 6.6669 31.1409 7.00313C31.1526 7.22515 31.1551 7.37371 31.1358 7.50455C31.1159 7.63943 31.074 7.74826 31.0113 7.89141L31.0114 7.89144L31.0094 7.89565C30.9874 7.94204 30.9377 8.01151 30.8722 8.09668C30.8028 8.18691 30.7049 8.30812 30.5756 8.46392C30.3169 8.77575 29.9287 9.23009 29.3826 9.86012C28.2901 11.1204 26.5627 13.0866 23.9672 16.0278L23.9671 16.0279C23.4285 16.6378 22.9306 17.2019 22.4702 17.7236C19.6595 20.9082 18.2434 22.5127 17.4615 23.3161C17.0109 23.779 16.7534 23.9955 16.5484 24.0873C16.4384 24.1366 16.3455 24.1497 16.2544 24.15C16.2145 24.1501 16.1744 24.1478 16.1372 24.1457L16.1293 24.1452C16.0885 24.1429 16.0482 24.1407 16.0035 24.1407C15.9587 24.1407 15.9184 24.1429 15.8777 24.1452L15.8697 24.1457C15.8325 24.1478 15.7924 24.1501 15.7526 24.15C15.6614 24.1497 15.5686 24.1366 15.4586 24.0873C15.2535 23.9955 14.996 23.779 14.5454 23.3161C13.7635 22.5127 12.3474 20.9082 9.53682 17.7237C9.07636 17.202 8.57847 16.6378 8.03981 16.0279L8.03973 16.0278C5.61991 13.2828 3.89112 11.3137 2.7555 10.0052C2.18776 9.35102 1.76777 8.86134 1.48364 8.52212C1.34167 8.35262 1.2329 8.21982 1.15634 8.12246C1.11813 8.07386 1.08713 8.03307 1.06374 8.00039C1.04308 7.97152 1.02169 7.93996 1.00896 7.91262ZM1.00896 7.91262C1.00874 7.91216 1.00853 7.91169 1.00832 7.91123L1.14474 7.84887L1.00935 7.91344C1.00922 7.91316 1.00909 7.91289 1.00896 7.91262ZM23.4076 3.7264L23.4076 3.72649C22.9156 4.36777 22.4633 4.95186 22.1311 5.37697C21.965 5.58957 21.8291 5.76216 21.7334 5.88218C21.7213 5.89737 21.7098 5.91169 21.6991 5.92512C21.6364 5.83271 21.5502 5.70143 21.446 5.53968C21.2277 5.20093 20.9324 4.73166 20.6135 4.21379C20.6135 4.21377 20.6134 4.21375 20.6134 4.21372L20.4857 4.29238L23.4076 3.7264ZM23.4076 3.7264L25.0092 1.64172M23.4076 3.7264L25.0092 1.64172M25.0092 1.64172H22.0384H19.0275L19.1655 1.8631C19.1656 1.86321 19.1657 1.86331 19.1657 1.86341L25.0092 1.64172ZM11.548 6.47043L13.6429 6.48603C13.6431 6.48603 13.6432 6.48603 13.6434 6.48603L11.548 6.47043ZM11.548 6.47043L12.9849 4.13078L12.9849 4.13066L14.517 1.64172H16.0035H17.4899L19.022 4.13066L19.0221 4.13078L20.459 6.47043L18.364 6.48603C18.3639 6.48603 18.3637 6.48603 18.3636 6.48603L11.548 6.47043ZM8.59931 3.7264L8.59937 3.72649C9.09131 4.36777 9.54365 4.95186 9.87584 5.37697C10.042 5.58957 10.1779 5.76216 10.2735 5.88218C10.2856 5.89737 10.2971 5.91169 10.3079 5.92512C10.3705 5.83271 10.4567 5.70143 10.561 5.53968C10.7793 5.20091 11.0746 4.73161 11.3935 4.21372C12.0318 3.17145 12.6822 2.11671 12.8412 1.86341C12.8413 1.86331 12.8413 1.86321 12.8414 1.8631L12.9794 1.64172H9.96857H6.99772L8.59931 3.7264ZM5.7487 2.20112C5.73236 2.18075 5.71723 2.16196 5.70333 2.14479C5.64509 2.21756 5.56605 2.31814 5.46971 2.44199C5.2564 2.71624 4.95995 3.10248 4.62064 3.5483C3.94595 4.43479 3.10272 5.55564 2.40834 6.49775H5.74415H9.07231L7.4475 4.38391C7.44748 4.38388 7.44746 4.38385 7.44743 4.38382C6.94662 3.73364 6.48842 3.14223 6.15186 2.71202C5.98352 2.49684 5.8459 2.32236 5.7487 2.20112ZM27.8714 4.18931L27.8709 4.18865C27.4259 3.59141 27.0162 3.04849 26.7142 2.6536C26.5631 2.45608 26.4393 2.29599 26.3516 2.18478C26.3396 2.16957 26.3284 2.15534 26.3178 2.14209C26.3053 2.1572 26.2917 2.17365 26.2772 2.19142C26.1804 2.30941 26.0426 2.48144 25.8736 2.69509C25.5358 3.12217 25.0747 3.71342 24.5711 4.36641L22.9344 6.49775H26.2687H29.6042C29.5134 6.37943 29.2999 6.09411 29.0134 5.71135C28.6988 5.29085 28.2961 4.75275 27.8714 4.18931ZM12.0285 14.5498L12.0285 14.5498L9.88776 7.7352H6.07812H2.49334L2.53588 7.78368L2.92305 8.22398C3.25349 8.59956 3.72094 9.13057 4.27998 9.76546C5.39805 11.0352 6.88242 12.7204 8.36953 14.4086C10.6882 17.0407 13.0134 19.6798 13.9675 20.7626C13.8642 20.4255 13.723 19.9685 13.5517 19.4175C13.1651 18.1734 12.6261 16.451 12.0285 14.5498ZM16.0035 7.7352H11.2678C11.2766 7.76408 11.2883 7.80251 11.303 7.85016C11.3364 7.95881 11.3848 8.11459 11.4463 8.31239C11.5694 8.70794 11.7453 9.27106 11.961 9.96022C12.3924 11.3385 12.9827 13.2207 13.6272 15.2743C14.2717 17.3279 14.862 19.2072 15.2933 20.5797L15.8081 22.2167L15.9515 22.6722L15.9904 22.7954L16.0011 22.8291L16.0035 22.8366L16.0059 22.8291L16.0165 22.7954L16.0554 22.6722L16.1988 22.2167L16.7136 20.5797C17.145 19.2072 17.7353 17.3279 18.3798 15.2743C19.0243 13.2207 19.6146 11.3385 20.0459 9.96022C20.2616 9.27106 20.4375 8.70794 20.5606 8.31239C20.6222 8.11459 20.6705 7.95881 20.7039 7.85016C20.7186 7.80251 20.7304 7.76408 20.7391 7.7352H16.0035ZM29.5136 7.7352H25.9288H22.1192L19.9784 14.5498L19.9784 14.5498C19.3808 16.451 18.8418 18.1734 18.4552 19.4175C18.284 19.9685 18.1427 20.4255 18.0394 20.7626C18.9935 19.6798 21.3188 17.0407 23.6374 14.4086C25.1245 12.7204 26.6089 11.0352 27.727 9.76546C28.286 9.13057 28.7535 8.59956 29.0839 8.22398L29.4711 7.78368L29.5136 7.7352Z" fill="#656565" stroke="#656565" stroke-width="0.3"/>
</svg>
