<svg width="142" height="206" viewBox="0 0 142 206" fill="none" xmlns="http://www.w3.org/2000/svg">
<path d="M0.877445 31.9345L26.9739 45.5009M104.4 11.0832L37.6378 10.9345L11.5038 37.4354V170.163L36.0608 195.772L105.977 195.92M42.1437 17.6248L19.8021 41.7841V165.703L41.2801 187.558L100.682 187.706M0.877445 175.441L29.3395 161.168M141.123 32.0832L115.026 45.6496M105.977 195.958L130.534 170.349V37.5841L104.4 11.0832M100.72 187.706L122.235 165.851V41.8956L99.8939 17.7363L42.1437 17.6248M141.123 175.589L112.66 161.317M46.3492 23.869L95.6508 24.0177M96.4394 180.979L45.5606 180.83M111.759 205.027L30.2782 204.878M30.9166 0.973447L111.121 1.12212M30.2782 204.878L0.877445 175.441V31.9345L30.9166 0.936279L46.3492 23.869L26.9739 45.5009L29.3771 161.168L45.5982 180.83L30.2782 204.878ZM111.759 205.027L141.16 175.589V32.0832L111.121 1.08495L95.6508 24.0177L115.026 45.6496L112.623 161.317L96.4018 180.979L111.759 205.027Z" stroke="url(#paint0_radial_396_1177)" stroke-miterlimit="10"/>
<defs>
<radialGradient id="paint0_radial_396_1177" cx="0" cy="0" r="1" gradientUnits="userSpaceOnUse" gradientTransform="translate(71.0056 102.999) scale(90.6547 89.7354)">
<stop offset="0.4078" stop-color="#D7D6D8"/>
<stop offset="1" stop-color="#838282"/>
</radialGradient>
</defs>
</svg>
