<svg width="18" height="18" viewBox="0 0 18 18" fill="none" xmlns="http://www.w3.org/2000/svg">
<path d="M7.40084 0.049091C5.67492 0.271898 4.02216 1.04341 2.7352 2.2306C1.21879 3.63062 0.251073 5.53612 0.0349175 7.55136C-0.0116392 7.96704 -0.0116392 9.05114 0.0349175 9.46683C0.427323 13.0916 3.19079 16.1311 6.7557 16.8594C7.86308 17.0822 9.23982 17.0822 10.304 16.8527C12.3225 16.4171 14.1017 15.2731 15.3454 13.6137C16.2399 12.4198 16.792 11.0531 16.9749 9.57324C17.0414 9.03452 17.0414 7.98699 16.9749 7.44494C16.8286 6.25442 16.4162 5.07388 15.801 4.07291C14.4309 1.84152 12.1496 0.365011 9.5757 0.0457656C9.06025 -0.0174184 7.90631 -0.0140929 7.40084 0.049091ZM9.71204 1.30612C12.5952 1.79496 14.9164 3.9532 15.6081 6.78317C15.8841 7.91383 15.8841 9.10435 15.6081 10.235C15.2456 11.7115 14.3877 13.1016 13.2337 14.0726C12.3624 14.8042 11.3182 15.3396 10.2375 15.6056C9.12011 15.8783 7.91629 15.8783 6.78563 15.6056C5.78798 15.3596 4.76706 14.8607 3.9623 14.2156C2.71525 13.2213 1.79409 11.7814 1.41499 10.235C1.13897 9.10435 1.13897 7.91383 1.41499 6.78317C1.73423 5.48291 2.38935 4.32232 3.35706 3.35461C4.61742 2.09426 6.16376 1.38261 8.01273 1.21301C8.37853 1.17975 9.24648 1.22631 9.71204 1.30612Z" fill="#FF0303"/>
<path d="M8.16977 4.49852C7.58781 4.71468 7.40158 5.32656 7.78401 5.7622C8.28616 6.33418 9.33036 6.06814 9.43012 5.34319C9.47335 5.03725 9.26717 4.69805 8.9446 4.53178C8.78831 4.45529 8.34269 4.43534 8.16977 4.49852Z" fill="#FF0303"/>
<path d="M8.08212 7.13568C7.97238 7.16894 7.85599 7.23545 7.77618 7.31193L7.64648 7.43498V9.73953V12.0441L7.78948 12.1837C7.97903 12.3733 8.21847 12.4465 8.59092 12.4265C8.98332 12.4066 9.28927 12.2436 9.37906 12.0075C9.39568 11.9643 9.40898 10.95 9.40898 9.75283C9.40898 7.35849 9.41564 7.42832 9.20613 7.2687C8.96337 7.0858 8.45457 7.02594 8.08212 7.13568Z" fill="#FF0303"/>
</svg>
