<svg width="63" height="64" viewBox="0 0 63 64" fill="none" xmlns="http://www.w3.org/2000/svg">
<path d="M11.0913 63.8634C11.0913 63.8634 13.0089 53.7633 9.81297 48.9836C6.61707 44.2039 -7.29058 25.1932 8.13787 9.81594C10.6368 7.13707 13.6582 4.97753 17.0231 3.46524C20.388 1.95295 24.028 1.11865 27.7275 1.01176C31.4269 0.904872 35.1106 1.52757 38.5604 2.84297C42.0101 4.15837 45.1558 6.13972 47.811 8.66967C52.106 13.2906 54.3916 19.375 54.1808 25.6257C54.0926 30.2757 62.6444 38.9268 61.9611 43.2523C61.2779 47.5778 54.4232 46.2153 54.4232 46.2153V54.0661C54.4232 55.2707 53.9356 56.4259 53.0676 57.2777C52.1995 58.1294 51.0223 58.6079 49.7947 58.6079H43.976C43.6253 58.5958 43.2759 58.6547 42.9494 58.7809C42.623 58.907 42.3264 59.0977 42.0783 59.3412C41.8302 59.5846 41.6359 59.8756 41.5073 60.1959C41.3788 60.5163 41.3188 60.8592 41.3311 61.2033V63.8634" stroke="#8DA385" stroke-width="1.3" stroke-miterlimit="10"/>
<path d="M9.10645 30.3406H46.0906" stroke="#8DA385" stroke-width="1.3" stroke-miterlimit="10"/>
<path d="M15.2998 19.4622L21.383 30.3409L28.0613 19.4622" stroke="#8DA385" stroke-width="1.3" stroke-miterlimit="10"/>
<path d="M27.5986 19.4622L33.6818 30.3409L40.3602 19.4622" stroke="#8DA385" stroke-width="1.3" stroke-miterlimit="10"/>
<path d="M21.3831 30.3409L27.7308 49.2434L46.0906 30.3409L39.8972 19.4622H15.2999L9.10645 30.3409L27.8163 49.5255" stroke="#8DA385" stroke-width="1.3" stroke-miterlimit="10"/>
<path d="M33.6805 30.3406L27.7295 49.2432" stroke="#8DA385" stroke-width="1.3" stroke-miterlimit="10"/>
<path d="M14.6153 16.9966L12.5215 12.6062" stroke="#8DA385" stroke-width="1.3" stroke-miterlimit="10"/>
<path d="M41.4609 16.9966L43.5328 12.6062" stroke="#8DA385" stroke-width="1.3" stroke-miterlimit="10"/>
<path d="M28.0615 15.5904V10.5728" stroke="#8DA385" stroke-width="1.3" stroke-miterlimit="10"/>
</svg>
