<svg width="46" height="60" viewBox="0 0 46 60" fill="none" xmlns="http://www.w3.org/2000/svg">
<path d="M23.4089 44.5001L18.7953 59.0001L13.5225 52.4092L4.95435 55.0455L10.2271 40.5455" stroke="#656565" stroke-width="1.6" stroke-miterlimit="10" stroke-linecap="round" stroke-linejoin="round"/>
<path d="M34.0201 41.9296L40.5451 52.4091L32.636 51.75L28.0224 59L22.0906 49.7727" stroke="#656565" stroke-width="1.6" stroke-miterlimit="10" stroke-linecap="round" stroke-linejoin="round"/>
<path d="M22.75 44.5C34.7622 44.5 44.5 34.7622 44.5 22.75C44.5 10.7378 34.7622 1 22.75 1C10.7378 1 1 10.7378 1 22.75C1 34.7622 10.7378 44.5 22.75 44.5Z" stroke="#656565" stroke-width="1.6" stroke-miterlimit="10"/>
<path d="M22.7502 37.909C31.1223 37.909 37.9092 31.122 37.9092 22.7499C37.9092 14.3778 31.1223 7.59082 22.7502 7.59082C14.378 7.59082 7.59106 14.3778 7.59106 22.7499C7.59106 31.122 14.378 37.909 22.7502 37.909Z" stroke="#656565" stroke-width="1.6" stroke-miterlimit="10"/>
<path d="M16.1589 23.409L20.1135 27.3635L29.3408 17.4772" stroke="#656565" stroke-width="1.6" stroke-miterlimit="10" stroke-linecap="round" stroke-linejoin="round"/>
</svg>
