<svg width="60" height="54" viewBox="0 0 60 54" fill="none" xmlns="http://www.w3.org/2000/svg">
<path d="M6.37166 40.5876C6.18134 40.5876 5.99431 40.538 5.82894 40.4438C5.66358 40.3496 5.52559 40.214 5.42852 40.0503C4.86922 39.1071 0 30.7505 0 27.6359C0.0681946 25.9932 0.768732 24.4405 1.95516 23.3023C3.14159 22.1641 4.72207 21.5286 6.36618 21.5286C8.01029 21.5286 9.59077 22.1641 10.7772 23.3023C11.9636 24.4405 12.6642 25.9932 12.7324 27.6359C12.7324 30.7505 7.86314 39.1071 7.3148 40.0503C7.21774 40.214 7.07974 40.3496 6.91438 40.4438C6.74902 40.538 6.56198 40.5876 6.37166 40.5876ZM6.37166 23.4686C5.2654 23.4686 4.20429 23.9073 3.42101 24.6885C2.63774 25.4697 2.19625 26.5297 2.19334 27.6359C2.19334 29.259 4.47442 33.876 6.37166 37.2757C8.2689 33.876 10.539 29.259 10.539 27.6359C10.5275 26.5383 10.0833 25.4896 9.30302 24.7175C8.52274 23.9454 7.46935 23.5124 6.37166 23.5125V23.4686Z" fill="#656565"/>
<path d="M11.1531 45.7639H1.59008C1.29922 45.7639 1.02028 45.6484 0.814616 45.4427C0.60895 45.237 0.493408 44.9581 0.493408 44.6672C0.493408 44.3764 0.60895 44.0974 0.814616 43.8918C1.02028 43.6861 1.29922 43.5706 1.59008 43.5706H11.1531C11.4439 43.5706 11.7229 43.6861 11.9285 43.8918C12.1342 44.0974 12.2497 44.3764 12.2497 44.6672C12.2497 44.9581 12.1342 45.237 11.9285 45.4427C11.7229 45.6484 11.4439 45.7639 11.1531 45.7639Z" fill="#656565"/>
<path d="M53.2215 39.5349C53.0312 39.5349 52.8442 39.4853 52.6788 39.3911C52.5135 39.2969 52.3755 39.1612 52.2784 38.9975C51.7301 38.0544 46.8608 29.6978 46.8608 26.5832C46.929 24.9405 47.6296 23.3878 48.816 22.2496C50.0024 21.1114 51.5829 20.4758 53.227 20.4758C54.8711 20.4758 56.4516 21.1114 57.638 22.2496C58.8245 23.3878 59.525 24.9405 59.5932 26.5832C59.5932 29.6978 54.724 38.0544 54.1098 38.9975C54.0177 39.1535 53.8883 39.2842 53.7333 39.378C53.5783 39.4718 53.4025 39.5257 53.2215 39.5349ZM53.2215 22.4159C52.1163 22.4159 51.0563 22.8549 50.2748 23.6364C49.4932 24.418 49.0542 25.478 49.0542 26.5832C49.0542 28.2063 51.3243 32.8233 53.2215 36.223C55.1188 32.8233 57.3999 28.2063 57.3999 26.5832C57.3969 25.4769 56.9555 24.417 56.1722 23.6358C55.3889 22.8546 54.3278 22.4159 53.2215 22.4159Z" fill="#656565"/>
<path d="M58.0029 44.7112H48.4399C48.1491 44.7112 47.8701 44.5956 47.6645 44.39C47.4588 44.1843 47.3433 43.9053 47.3433 43.6145C47.3433 43.3236 47.4588 43.0447 47.6645 42.839C47.8701 42.6334 48.1491 42.5178 48.4399 42.5178H57.9919C58.2828 42.5178 58.5617 42.6334 58.7674 42.839C58.9731 43.0447 59.0886 43.3236 59.0886 43.6145C59.0886 43.9053 58.9731 44.1843 58.7674 44.39C58.5617 44.5956 58.2828 44.7112 57.9919 44.7112H58.0029Z" fill="#656565"/>
<path d="M29.3689 47.0471C29.1756 47.0479 28.9856 46.9976 28.8181 46.9013C28.6505 46.805 28.5114 46.6661 28.4148 46.4988C27.8445 45.5227 14.3445 22.5146 14.3445 14.6185C14.4502 10.7055 16.079 6.98828 18.884 4.258C21.6891 1.52772 25.449 0 29.3634 0C33.2778 0 37.0377 1.52772 39.8428 4.258C42.6478 6.98828 44.2766 10.7055 44.3823 14.6185C44.3823 22.5146 30.8933 45.5227 30.312 46.5426C30.211 46.7002 30.0712 46.8293 29.9061 46.9176C29.741 47.0059 29.5561 47.0505 29.3689 47.0471ZM29.3689 1.79843C25.9687 1.80133 22.7084 3.1526 20.303 5.55589C17.8977 7.95918 16.5436 11.2183 16.5378 14.6185C16.5378 20.7928 26.2543 38.3066 29.3689 43.7571C32.4725 38.2737 42.189 20.7818 42.189 14.6185C42.1861 11.2193 40.8345 7.96016 38.4309 5.55656C36.0272 3.15295 32.7681 1.80133 29.3689 1.79843Z" fill="#656565"/>
<path d="M43.2856 54H15.4412C15.1503 54 14.8714 53.8844 14.6657 53.6788C14.46 53.4731 14.3445 53.1942 14.3445 52.9033C14.3445 52.6125 14.46 52.3335 14.6657 52.1278C14.8714 51.9222 15.1503 51.8066 15.4412 51.8066H43.2856C43.5765 51.8066 43.8554 51.9222 44.0611 52.1278C44.2668 52.3335 44.3823 52.6125 44.3823 52.9033C44.3823 53.1942 44.2668 53.4731 44.0611 53.6788C43.8554 53.8844 43.5765 54 43.2856 54Z" fill="#656565"/>
<path d="M29.3687 22.6791C27.7764 22.6704 26.2223 22.1903 24.9025 21.2993C23.5828 20.4084 22.5565 19.1465 21.9531 17.6729C21.3497 16.1993 21.1964 14.58 21.5123 13.0193C21.8283 11.4586 22.5994 10.0264 23.7284 8.90354C24.8574 7.78064 26.2937 7.01729 27.8561 6.70981C29.4185 6.40233 31.037 6.5645 32.5073 7.17585C33.9776 7.7872 35.2339 8.82034 36.1177 10.1449C37.0014 11.4695 37.4731 13.0262 37.4731 14.6185C37.4717 15.6803 37.2608 16.7314 36.8524 17.7116C36.4441 18.6918 35.8464 19.5817 35.0935 20.3305C34.3407 21.0793 33.4475 21.6722 32.4651 22.0752C31.4828 22.4782 30.4305 22.6834 29.3687 22.6791ZM29.3687 8.75133C28.2102 8.75999 27.0802 9.11145 26.1211 9.76139C25.1621 10.4113 24.4169 11.3307 23.9795 12.4035C23.5422 13.4763 23.4322 14.6546 23.6635 15.7898C23.8949 16.925 24.4571 17.9664 25.2793 18.7825C26.1016 19.5987 27.1471 20.1531 28.284 20.376C29.4209 20.5988 30.5983 20.4801 31.6679 20.0348C32.7374 19.5894 33.6512 18.8374 34.2939 17.8736C34.9367 16.9097 35.2798 15.7771 35.2798 14.6185C35.2784 13.8447 35.1242 13.0789 34.8261 12.3648C34.5279 11.6507 34.0918 11.0026 33.5426 10.4575C32.9934 9.91235 32.342 9.48104 31.6258 9.18826C30.9095 8.89548 30.1425 8.747 29.3687 8.75133Z" fill="#656565"/>
</svg>
