<svg width="184" height="119" viewBox="0 0 184 119" fill="none" xmlns="http://www.w3.org/2000/svg">
<path d="M39.1488 59.8771H147.216M57.2996 27.2428L75.0641 59.8123M57.2996 27.2428H129.13L147.216 59.8123L93.5367 116.582M57.2996 27.2428L39.1488 59.8123L94.309 118.139M75.0641 59.8123L94.5665 27.2428M75.0641 59.8123L93.5367 116.582M93.2148 27.2428L110.979 59.8123L130.417 27.2428M93.5367 116.582L110.979 59.8771M55.2399 19.7816L49.1897 6.61112M133.636 19.7816L139.686 6.61112M94.5021 15.5645V0.512451M31.94 30.357L13.4031 19.7816M13.4031 111.391L31.94 100.816M22.6716 65.5865H0.530273M151.722 30.357L170.259 19.7816M170.259 111.391L151.722 100.816M160.99 65.5865H183.132" stroke="#656565" stroke-width="2.41897" stroke-miterlimit="10"/>
</svg>
