<svg width="60" height="59" viewBox="0 0 60 59" fill="none" xmlns="http://www.w3.org/2000/svg">
<path d="M54.5288 17.0561C52.4574 17.2539 50.8349 19.107 50.8349 21.2749V31.278C50.1014 30.6653 49.185 30.3313 48.2166 30.3313C47.1237 30.3313 46.0955 30.7575 45.3225 31.5306L36.4353 40.417C35.6666 41.1854 35.2437 42.207 35.2437 43.2935V58.2622C35.2437 58.6696 35.5736 59 35.9814 59H48.5632C48.971 59 49.301 58.6696 49.301 58.2622V51.3251C49.301 50.7015 49.5257 50.0984 49.9343 49.6269L57.2147 41.2264C58.3797 39.8809 59.0217 38.1604 59.0217 36.3812V21.1304C59.0217 19.9798 58.5332 18.8757 57.6809 18.1012C56.8307 17.3274 55.6851 16.9502 54.5288 17.0561ZM57.5461 36.3812C57.5461 37.8056 57.0324 39.1831 56.0994 40.2603L48.819 48.6607C48.1784 49.4003 47.8254 50.3466 47.8254 51.3251V57.5244H36.7192V43.2935C36.7192 42.6011 36.9887 41.9502 37.4786 41.4602L46.3657 32.5738C47.3549 31.5842 49.0798 31.585 50.0675 32.5738C50.5618 33.0684 50.8341 33.7255 50.8341 34.4247C50.8341 35.124 50.5618 35.7814 50.0675 36.276L44.4507 41.8936C44.1625 42.1818 44.1625 42.649 44.4507 42.9369C44.7389 43.225 45.2057 43.225 45.4939 42.9369L51.1108 37.3193C51.8839 36.5462 52.3097 35.5181 52.3097 34.4247C52.3097 34.4193 52.3097 34.4143 52.3097 34.4089C52.3104 34.3992 52.3104 34.3894 52.3104 34.3797V21.2749C52.3104 19.8591 53.3465 18.6512 54.6685 18.5252C55.4222 18.4538 56.1369 18.6909 56.6888 19.1927C57.2334 19.6884 57.5461 20.3945 57.5461 21.1304V36.3812Z" fill="#656565"/>
<path d="M9.08742 49.6269C9.49594 50.0985 9.72073 50.7015 9.72073 51.3251V58.2623C9.72073 58.6697 10.0507 59 10.4585 59H23.0403C23.448 59 23.778 58.6697 23.778 58.2623V43.2935C23.778 42.2071 23.3551 41.1854 22.5864 40.417L13.6992 31.5306C12.9261 30.7575 11.898 30.3314 10.805 30.3314C9.83672 30.3314 8.92027 30.6653 8.18682 31.2781V21.2749C8.18682 19.107 6.5643 17.2539 4.49292 17.0562C3.33727 16.9477 2.19098 17.3274 1.34081 18.1012C0.488486 18.8757 0 19.9799 0 21.1305V36.3813C0 38.1605 0.641948 39.881 1.80697 41.2265L9.08742 49.6269ZM1.47554 21.1305C1.47554 20.3945 1.78823 19.6884 2.33292 19.1927C2.88553 18.6906 3.60096 18.4535 4.35314 18.5252C5.67523 18.6513 6.71128 19.8592 6.71128 21.2749V34.3798C6.71128 34.3895 6.71128 34.3992 6.712 34.4089C6.712 34.4143 6.712 34.4194 6.712 34.4248C6.712 35.5181 7.1378 36.5462 7.91088 37.3193L13.5277 42.9369C13.8159 43.2251 14.2828 43.2251 14.571 42.9369C14.8592 42.6491 14.8592 42.1818 14.571 41.8937L8.95413 36.2761C8.45988 35.7815 8.18754 35.124 8.18754 34.4248C8.18754 33.7256 8.45988 33.0685 8.95413 32.5739C9.94191 31.585 11.6667 31.5843 12.656 32.5739L21.5431 41.4603C22.033 41.9502 22.3025 42.6012 22.3025 43.2935V57.5245H11.1963V51.3251C11.1963 50.3467 10.8432 49.4003 10.2027 48.6608L2.92227 40.2603C1.98925 39.1832 1.47554 37.8056 1.47554 36.3813V21.1305Z" fill="#656565"/>
<path d="M45.3534 11.4882C45.2756 11.2501 45.0825 11.0671 44.8404 11.003L35.4158 8.50762L30.1304 0.316111C29.8594 -0.10537 29.162 -0.10537 28.8911 0.316111L23.6057 8.50762L14.1811 11.003C13.939 11.0671 13.7459 11.2501 13.6681 11.4882C13.591 11.7267 13.6393 11.9879 13.7978 12.1824L19.9557 19.7406L19.4168 29.4747C19.4024 29.7247 19.517 29.965 19.7194 30.1123C19.9233 30.2604 20.187 30.2939 20.4197 30.2035L29.5107 26.6828L38.6018 30.2035C38.6882 30.237 38.7783 30.2532 38.8683 30.2532C39.0218 30.2532 39.1738 30.2053 39.3021 30.1123C39.5045 29.965 39.6191 29.7247 39.6047 29.4747L39.0658 19.7406L45.2237 12.1824C45.3822 11.9879 45.4305 11.7267 45.3534 11.4882ZM37.7415 19.0299C37.6255 19.1725 37.5664 19.3534 37.5772 19.5367L38.0686 28.4145L29.7773 25.2037C29.6916 25.1705 29.6008 25.154 29.5107 25.154C29.4207 25.154 29.3299 25.1705 29.2442 25.2037L20.9529 28.4145L21.4442 19.5367C21.455 19.3534 21.396 19.1725 21.28 19.0299L15.6638 12.1367L24.2592 9.86104C24.4371 9.81385 24.5906 9.70217 24.69 9.54763L29.5107 2.07661L34.3315 9.54763C34.4309 9.70217 34.5844 9.81385 34.7623 9.86104L43.3577 12.1367L37.7415 19.0299Z" fill="#656565"/>
</svg>
