<svg width="59" height="59" viewBox="0 0 59 59" fill="none" xmlns="http://www.w3.org/2000/svg">
<path d="M25.8698 0.517323L25.8696 0.517353C13.1888 2.1466 3.00525 11.8195 0.807039 24.3138C-0.856678 33.7833 2.07136 43.2258 8.78119 50.0154L8.78129 50.0155C13.2596 54.5508 18.8059 57.3978 25.0725 58.3891C25.8544 58.512 27.3324 58.5982 28.8287 58.6313C30.3241 58.6644 31.7996 58.6436 32.5767 58.5599C34.9818 58.2862 37.6978 57.647 39.8844 56.8499C41.3565 56.3062 44.1333 54.8896 45.5303 53.9696C45.5304 53.9696 45.5305 53.9695 45.5306 53.9695L46.7977 53.1286L47.4098 52.7223L47.3396 53.4537L47.2013 54.8947L47.2011 54.8966C47.161 55.2917 47.1297 55.6539 47.1112 55.9188C47.1077 55.9693 47.1047 56.0158 47.1022 56.058C47.1756 56.068 47.2614 56.0789 47.3574 56.0905C47.6773 56.1291 48.0988 56.1739 48.5208 56.2148C48.9429 56.2557 49.3628 56.2925 49.6796 56.3155C49.7642 56.3216 49.8406 56.3267 49.907 56.3306C49.9108 56.3009 49.9147 56.269 49.9188 56.235C49.9492 55.9842 49.9897 55.6271 50.0366 55.1982C50.1305 54.3408 50.2501 53.2011 50.3667 52.0617C50.4834 50.9222 50.5972 49.7838 50.6796 48.9291C50.7208 48.5015 50.7541 48.1458 50.776 47.8966C50.7779 47.8756 50.7796 47.8553 50.7813 47.8359C50.7544 47.8331 50.7259 47.8301 50.6959 47.8269C50.4415 47.8004 50.0827 47.7648 49.6539 47.7235C48.7966 47.6409 47.6624 47.5354 46.5301 47.4324C45.3978 47.3294 44.2679 47.229 43.4193 47.1565C42.9948 47.1202 42.6415 47.091 42.3936 47.0719C42.3653 47.0698 42.3384 47.0677 42.3131 47.0658C42.305 47.1227 42.2962 47.1866 42.2869 47.2565C42.2472 47.5531 42.1985 47.9491 42.151 48.3551C42.1036 48.7611 42.0577 49.1754 42.0237 49.5085C42.0078 49.6641 41.9951 49.7967 41.986 49.901C42.242 49.9094 42.9252 49.9662 43.5807 50.0401C43.5816 50.0402 43.5825 50.0403 43.5835 50.0404L44.8921 50.1667L45.8643 50.2605L45.0537 50.8055L44.3855 51.2548C44.3855 51.2548 44.3854 51.2549 44.3854 51.2549C39.8308 54.3263 35.0128 55.7877 29.4679 55.7877C12.8977 55.7877 0.502799 40.5852 3.76209 24.2653C5.91257 13.4551 14.8036 5.0566 25.8076 3.44403C27.6393 3.16244 31.0366 3.13924 32.8096 3.37382C32.8101 3.37388 32.8106 3.37394 32.811 3.37401L33.6039 3.47208C33.6942 3.02065 33.8224 2.25671 33.9251 1.59236C33.9775 1.25353 34.0228 0.943581 34.0528 0.717251C34.0557 0.695843 34.0583 0.675297 34.0609 0.655636C34.0309 0.650482 33.9988 0.645088 33.9648 0.639488C33.7243 0.599873 33.3969 0.551456 33.0431 0.505806L33.0411 0.505547C32.2532 0.399376 30.881 0.347286 29.4831 0.350163C28.0861 0.353039 26.6946 0.410717 25.8698 0.517323Z" fill="#656565" stroke="#F5F5F5" stroke-width="0.7"/>
<path d="M39.4018 1.98658L39.3211 1.95746L38.918 3.13114C38.918 3.13118 38.9179 3.13121 38.9179 3.13125C38.6992 3.76982 38.4922 4.36682 38.3895 4.65878C38.5153 4.7271 38.7263 4.81981 39.0601 4.95134C39.6356 5.17455 40.5549 5.58193 41.1272 5.86222L41.1272 5.86221L41.1298 5.86349C41.4045 6.00084 41.6571 6.12287 41.841 6.20707C41.8474 6.21003 41.8538 6.21294 41.86 6.21578C41.9055 6.13421 41.9593 6.03607 42.0194 5.92556C42.1818 5.62652 42.3867 5.24175 42.5873 4.86066C42.788 4.47956 42.9836 4.10342 43.1273 3.82168C43.1612 3.75517 43.1921 3.69428 43.2193 3.64007C43.1407 3.59878 43.0468 3.55133 42.9396 3.49879C42.6429 3.35324 42.2551 3.17355 41.8338 2.98583C40.9892 2.60952 40.0249 2.20749 39.4037 1.98727L39.4037 1.98727L39.4018 1.98658ZM41.7356 6.43297C41.735 6.43375 41.7348 6.43383 41.7352 6.43313C41.733 6.43593 41.7309 6.43878 41.7287 6.4417L41.7356 6.43297Z" fill="#656565" stroke="#F5F5F5" stroke-width="0.7"/>
<path d="M46.8315 7.74905L46.8315 7.74906L46.8294 7.75181C46.5492 8.11195 46.2986 8.44812 46.1189 8.69996C46.0591 8.78377 46.008 8.85703 45.9668 8.91799C45.9859 8.93232 46.0064 8.94662 46.0276 8.96026L46.0348 8.96489L46.0417 8.96987C46.143 9.04218 46.3729 9.24252 46.6463 9.49178C46.9268 9.74766 47.2721 10.0726 47.6148 10.4094C47.9585 10.736 48.2777 11.0322 48.517 11.2461C48.5978 11.3183 48.6682 11.3799 48.7265 11.4295C48.7862 11.3813 48.8577 11.3217 48.939 11.2525C49.1766 11.0501 49.4845 10.7769 49.792 10.4973C50.0995 10.2178 50.4042 9.93414 50.6353 9.71132C50.729 9.62104 50.8092 9.54211 50.872 9.4782C50.8005 9.38406 50.6983 9.26534 50.5783 9.14032C50.2217 8.77269 49.4838 8.1108 48.8092 7.53692C48.4732 7.25106 48.1578 6.99119 47.9188 6.80465C47.8444 6.7466 47.779 6.69691 47.7237 6.65636C47.6783 6.70575 47.625 6.76583 47.5648 6.83576C47.3658 7.06707 47.105 7.39001 46.8315 7.74905Z" fill="#656565" stroke="#F5F5F5" stroke-width="0.7"/>
<path d="M52.1993 16.0554L52.1994 16.0554L52.2032 16.0618C52.5313 16.6126 52.9981 17.4876 53.2457 18.0182L53.2457 18.0182L53.2468 18.0205L53.5418 18.6649L54.126 18.4102L54.1262 18.4101C55.1492 17.9651 55.7275 17.7115 56.0508 17.5576C56.1064 17.5312 56.1524 17.5086 56.1905 17.4893C56.1903 17.4889 56.1901 17.4885 56.1899 17.4881C56.132 17.3563 56.0472 17.178 55.9429 16.9671C55.7348 16.5462 55.455 16.008 55.1708 15.4784C54.8866 14.9486 54.5998 14.431 54.3779 14.0508C54.3035 13.9233 54.2376 13.8134 54.1823 13.7247C54.1397 13.7526 54.0926 13.7835 54.0416 13.817C54.0081 13.839 53.973 13.8621 53.9363 13.8862C53.6973 14.0434 53.3932 14.2433 53.063 14.4584C52.6899 14.7052 52.3402 14.9402 52.0772 15.1204C51.9656 15.1968 51.8703 15.2628 51.7958 15.3154C51.8034 15.3331 51.812 15.3523 51.8215 15.373C51.9014 15.5474 52.0319 15.7875 52.1993 16.0554Z" fill="#656565" stroke="#F5F5F5" stroke-width="0.7"/>
<path d="M12.6382 20.6341L12.6372 20.6342C11.4047 20.8013 10.1979 21.7101 9.60981 22.961L9.60937 22.962C9.45822 23.281 9.38319 23.4752 9.33673 23.7112C9.28824 23.9575 9.26829 24.2617 9.25092 24.8062L9.25085 24.808L9.21818 25.6901H10.6534H12.1019V25.1985C12.1019 24.8441 12.1087 24.5817 12.1579 24.3795C12.216 24.1404 12.3294 23.9934 12.4799 23.8574C12.7286 23.6239 13.0251 23.4795 13.3416 23.471C13.6636 23.4623 13.9609 23.5956 14.1981 23.8328C14.4721 24.1068 14.5311 24.4345 14.5311 24.8872C14.5311 25.4858 14.442 25.9557 14.0909 26.5532C13.7564 27.1226 13.1818 27.8107 12.2412 28.8661C10.8009 30.5023 10.4491 30.9674 10.0454 31.7854C9.4391 33.0314 9.22804 34.0147 9.22804 35.7355V36.7574H13.4318H17.6355V35.3205V33.8836H15.3916H12.7977H12.2314L12.4847 33.3771L12.7037 32.939L12.7037 32.939L12.7067 32.9331C12.7531 32.8445 12.8431 32.7161 12.9472 32.5764C13.0568 32.4293 13.1982 32.2486 13.3614 32.0468C13.6878 31.6432 14.1064 31.149 14.5422 30.6609C16.244 28.7406 16.7109 28.0459 17.0903 26.962C17.2532 26.494 17.3599 25.7913 17.3909 25.0937C17.4221 24.3899 17.3733 23.7532 17.261 23.4053C16.625 21.4886 14.7283 20.3447 12.6382 20.6341Z" fill="#656565" stroke="#F5F5F5" stroke-width="0.7"/>
<path d="M21.3766 24.7771L21.3762 24.7777L18.7968 29.122V30.9973V32.6072H21.3865H24.3263H24.6763V32.9572V34.917V36.5268H26.1132H27.5501V34.917V32.9572V32.6072H27.9001H28.6495H29.0488V31.1702V29.7333H28.6495H27.9001H27.5501V29.3833V24.7719V20.5106H25.8028H25.8019L23.8926 20.521L21.3766 24.7771ZM24.6763 29.3833V29.7333H24.3263H23.3925C23.1299 29.7333 22.8893 29.7215 22.7125 29.7025C22.6268 29.6933 22.5431 29.6812 22.4762 29.6642C22.4482 29.6571 22.3936 29.6421 22.3404 29.6113C22.3166 29.5976 22.2558 29.5601 22.2094 29.4866C22.1523 29.3961 22.1329 29.2735 22.1812 29.1576C22.1948 29.124 22.2133 29.0887 22.2243 29.0677C22.242 29.0342 22.2648 28.9923 22.2916 28.9444C22.3452 28.8483 22.4178 28.7215 22.5025 28.5755C22.672 28.2831 22.8926 27.9093 23.112 27.5411C23.3315 27.173 23.5506 26.8092 23.7173 26.5371C23.8005 26.4013 23.8715 26.2868 23.9233 26.2056C23.9489 26.1654 23.9716 26.1306 23.9895 26.1046C23.9978 26.0924 24.0086 26.0772 24.0197 26.0629C24.0245 26.0569 24.0354 26.0431 24.0501 26.0281C24.0568 26.0213 24.0726 26.0054 24.0953 25.9888C24.1067 25.9805 24.127 25.9666 24.1545 25.9537C24.1791 25.9422 24.2321 25.9206 24.3032 25.9206C24.4227 25.9206 24.5047 25.9791 24.5446 26.017C24.5832 26.0537 24.6042 26.0906 24.6133 26.1078C24.6321 26.1433 24.6403 26.174 24.6426 26.1829C24.6488 26.2062 24.6515 26.2259 24.6523 26.2323C24.6546 26.2493 24.6559 26.2666 24.6567 26.2788C24.6586 26.3058 24.6601 26.3413 24.6615 26.3819C24.6643 26.4644 24.6669 26.5815 24.6691 26.7235C24.6734 27.0082 24.6763 27.3991 24.6763 27.827V29.3833Z" fill="#656565" stroke="#F5F5F5" stroke-width="0.7"/>
<path d="M34.9478 20.5102L34.9459 20.5103C34.9465 20.5103 34.9471 20.5103 34.9477 20.5103C34.9477 20.5102 34.9477 20.5102 34.9478 20.5102ZM35.2077 20.5392C35.1904 20.63 35.1698 20.7408 35.1461 20.8705C35.0704 21.2852 34.9647 21.8863 34.8365 22.6295C34.5802 24.1156 34.2345 26.1667 33.8599 28.4257C33.4911 30.679 33.1598 32.7332 32.9236 34.2267C32.8054 34.9736 32.7112 35.5796 32.648 36C32.6278 36.1345 32.6108 36.2495 32.5973 36.3438C32.6676 36.3578 32.7486 36.3735 32.8384 36.3904C33.161 36.4513 33.5875 36.527 34.0142 36.5995C34.441 36.6721 34.8658 36.7412 35.1852 36.7892C35.266 36.8014 35.3394 36.812 35.4038 36.821C35.4246 36.7086 35.4499 36.5667 35.4794 36.3979C35.5591 35.9421 35.6679 35.2967 35.796 34.5245C36.052 32.9804 36.384 30.9323 36.7111 28.8857C37.0381 26.8391 37.3601 24.7946 37.5959 23.2578C37.7138 22.4892 37.8101 21.8486 37.8746 21.3983C37.8976 21.238 37.9165 21.1027 37.9308 20.9949C37.8702 20.9828 37.8014 20.9695 37.7257 20.9552C37.4295 20.8992 37.0367 20.8297 36.6367 20.7622C36.2368 20.6947 35.8318 20.6296 35.5112 20.5821C35.3972 20.5652 35.2949 20.5507 35.2077 20.5392Z" fill="#656565" stroke="#F5F5F5" stroke-width="0.7"/>
<path d="M46.5762 20.5106H42.4301V21.9475V23.3844H44.4549H46.8298H47.2683L47.1711 23.812L47.1135 24.0656L47.1135 24.0656L47.1128 24.0686C47.0403 24.375 46.4462 27.5059 45.8697 30.582C45.5822 32.1158 45.3002 33.6303 45.0915 34.7627C44.9871 35.329 44.9012 35.7992 44.8421 36.1285C44.8291 36.2009 44.8174 36.2663 44.8072 36.3244C44.8768 36.3386 44.9564 36.3545 45.0441 36.3716C45.3685 36.4349 45.7963 36.5138 46.224 36.5899C46.6516 36.6661 47.0773 36.7393 47.3975 36.7911C47.4775 36.8041 47.5504 36.8156 47.6147 36.8255C47.637 36.7139 47.6646 36.5739 47.6969 36.4084C47.7869 35.9475 47.913 35.2914 48.0633 34.5047C48.3636 32.9313 48.7599 30.8367 49.1547 28.7379C49.5495 26.6392 49.9428 24.5367 50.2375 22.9474C50.3848 22.1527 50.5074 21.4867 50.5931 21.0138C50.6253 20.8361 50.6522 20.686 50.6733 20.5668C50.5434 20.5569 50.3665 20.5481 50.1318 20.5407C49.4536 20.5193 48.3349 20.5106 46.5762 20.5106ZM50.7243 20.2636C50.7243 20.2639 50.7241 20.2654 50.7238 20.2679C50.7242 20.2647 50.7244 20.2634 50.7243 20.2636Z" fill="#656565" stroke="#F5F5F5" stroke-width="0.7"/>
<path d="M56.428 22.9781L56.4269 22.9784C56.0203 23.0815 55.6492 23.1814 55.3766 23.2595C55.2999 23.2815 55.2318 23.3015 55.1734 23.3192C55.1752 23.3303 55.177 23.3419 55.179 23.3538C55.2092 23.5395 55.2596 23.7946 55.322 24.0727C55.4517 24.6502 55.6149 25.6298 55.6855 26.2527L55.7822 27.0424L56.0403 27.0176C56.286 26.9913 56.7845 26.9456 57.2792 26.9003C57.4434 26.8852 57.6072 26.8702 57.7612 26.8559C58.0695 26.8274 58.3526 26.7962 58.5611 26.7682C58.5904 26.7643 58.6179 26.7604 58.6436 26.7567C58.6393 26.6898 58.6328 26.6102 58.6239 26.5188C58.5937 26.2083 58.5392 25.7876 58.4705 25.328C58.3329 24.4077 58.1423 23.3582 57.9858 22.7534C57.9691 22.694 57.9534 22.6477 57.939 22.6124C57.9248 22.6152 57.9093 22.6184 57.8924 22.6219C57.7984 22.6415 57.6719 22.6702 57.5211 22.7059C57.2201 22.7773 56.8305 22.8746 56.428 22.9781Z" fill="#656565" stroke="#F5F5F5" stroke-width="0.7"/>
<path d="M55.6969 32.7341L55.6969 32.7341L55.7921 31.9489L55.9097 31.9661L55.9131 31.9666L55.9131 31.9666C56.1818 32.0032 56.9691 32.0617 57.6549 32.1074M55.6969 32.7341L57.6782 31.7582M55.6969 32.7341L55.6965 32.737C55.6149 33.3668 55.4518 34.3463 55.322 34.9245L55.322 34.9245L55.3214 34.9269C55.2484 35.2416 55.2057 35.4908 55.189 35.6591C55.1881 35.6688 55.1872 35.6781 55.1864 35.6869C55.2682 35.7116 55.3733 35.7415 55.4976 35.7753C55.8 35.8577 56.2054 35.9605 56.6406 36.0636L56.6406 36.0635L56.644 36.0644C57.2514 36.2148 57.6331 36.2999 57.8688 36.3345C57.9043 36.3397 57.9343 36.3435 57.9596 36.3461M55.6969 32.7341L57.9596 36.3461M57.6549 32.1074L57.6782 31.7582M57.6549 32.1074C57.6548 32.1074 57.6546 32.1074 57.6545 32.1074L57.6782 31.7582M57.6549 32.1074C57.9888 32.13 58.2979 32.161 58.5251 32.1915C58.5675 32.1972 58.6064 32.2028 58.6414 32.2082M57.6782 31.7582C58.3584 31.8043 58.9463 31.885 58.9809 31.9311M58.6414 32.2082C58.6424 32.1921 58.6433 32.1767 58.644 32.162C58.6471 32.0995 58.6473 32.0568 58.6461 32.0312C58.6456 32.0228 58.6452 32.0191 58.6452 32.0191C58.6452 32.0191 58.6454 32.0202 58.6457 32.0223C58.6463 32.0254 58.648 32.0346 58.652 32.0475C58.6556 32.059 58.6642 32.084 58.6822 32.1136L58.9809 31.9311M58.6414 32.2082C58.6341 32.3269 58.6195 32.4826 58.5985 32.6672C58.5511 33.0848 58.4734 33.6295 58.3846 34.1811C58.2958 34.7326 58.1965 35.2864 58.1064 35.7218C58.0612 35.94 58.0191 36.1248 57.9825 36.2633C57.9743 36.2939 57.9667 36.3215 57.9596 36.3461M58.6414 32.2082C58.7011 32.2173 58.7498 32.226 58.7867 32.2337C58.8171 32.24 58.8316 32.2442 58.835 32.2453C58.8372 32.246 58.8281 32.2433 58.8135 32.2361C58.8134 32.2361 58.8133 32.236 58.8131 32.2359C58.807 32.233 58.7494 32.2058 58.7009 32.1411L58.9809 31.9311M58.9809 31.9311L57.9596 36.3461M58.0742 36.35C58.0741 36.3499 58.0727 36.3501 58.0702 36.3506C58.073 36.3503 58.0743 36.35 58.0742 36.35ZM55.8342 31.6013L55.4878 31.5506L55.4456 31.8982L55.8342 31.6013Z" fill="#656565" stroke="#F5F5F5" stroke-width="0.7"/>
<path d="M53.2459 40.9783L53.2456 40.9791C52.999 41.5075 52.5895 42.28 52.328 42.708C52.2424 42.8483 52.1683 42.9663 52.1041 43.0684C52.0034 43.2286 51.9274 43.3497 51.8702 43.4563C51.8133 43.5626 51.8012 43.6105 51.7988 43.6262C51.8078 43.6408 51.8502 43.6982 52.0248 43.8241C52.1488 43.9136 52.3043 44.0146 52.5052 44.1452C52.6241 44.2225 52.7589 44.3101 52.9126 44.4117C53.3033 44.6646 53.6661 44.8959 53.9389 45.0636C54.0296 45.1193 54.109 45.1672 54.1753 45.206C54.2428 45.1095 54.3269 44.9795 54.4239 44.8222C54.6543 44.4482 54.9429 43.9432 55.2236 43.4276C55.5043 42.9121 55.7743 42.3912 55.9682 41.9857C56.0576 41.7986 56.1287 41.6406 56.1769 41.5211C56.1417 41.5024 56.1023 41.4819 56.0589 41.4597C55.8469 41.3514 55.556 41.2107 55.2372 41.0617C54.6559 40.79 53.9971 40.4978 53.5713 40.3292C53.5031 40.4393 53.4048 40.6357 53.2459 40.9783ZM51.7983 43.6323C51.7984 43.6322 51.7984 43.6315 51.7983 43.6303C51.7982 43.6317 51.7983 43.6323 51.7983 43.6323Z" fill="#656565" stroke="#F5F5F5" stroke-width="0.7"/>
</svg>
