<svg width="55" height="55" viewBox="0 0 55 55" fill="none" xmlns="http://www.w3.org/2000/svg">
<path d="M27.5 0C26.7997 0 26.2677 0.273299 25.6739 0.60004C25.0802 0.926774 24.4559 1.34727 23.8497 1.76308C23.2435 2.17888 22.6519 2.59007 22.1459 2.91501C21.64 3.23988 21.1826 3.47197 21.0681 3.50208C20.9535 3.53362 20.4446 3.56856 19.8439 3.54097C19.2433 3.50943 18.5192 3.43693 17.7864 3.37984C17.0535 3.32343 16.3192 3.28085 15.6418 3.29469C14.9643 3.30723 14.3629 3.33927 13.7565 3.68731C13.1501 4.03726 12.8203 4.54111 12.4694 5.12073C12.1184 5.70023 11.7938 6.36696 11.4767 7.03011C11.1596 7.69327 10.8468 8.35879 10.5711 8.8932C10.2954 9.42754 10.0179 9.85016 9.93401 9.93401C9.85019 10.018 9.42758 10.2954 8.8932 10.5711C8.3588 10.847 7.6933 11.1484 7.03012 11.4656C6.36693 11.7829 5.70039 12.1184 5.12074 12.4694C4.54111 12.82 4.03742 13.1371 3.68731 13.7435C3.33717 14.35 3.30881 14.9532 3.29469 15.6307C3.28085 16.3081 3.33555 17.0535 3.39285 17.7864C3.44993 18.5193 3.51068 19.2433 3.53915 19.8439C3.56739 20.4447 3.53346 20.9535 3.50208 21.0681C3.47137 21.1829 3.25291 21.6399 2.92798 22.1459C2.60304 22.652 2.17886 23.2435 1.76308 23.8497C1.34727 24.4562 0.939543 25.0691 0.613008 25.6628C0.286502 26.2567 0 26.7997 0 27.5C0 28.2002 0.286445 28.7304 0.613008 29.3242C0.939505 29.9181 1.3473 30.531 1.76308 31.1372C2.17889 31.7437 2.60303 32.3462 2.92798 32.8522C3.25291 33.3583 3.47135 33.8155 3.50208 33.93C3.53279 34.0448 3.56732 34.5425 3.53915 35.1431C3.51091 35.7439 3.44983 36.4677 3.39285 37.2006C3.33576 37.9334 3.28065 38.6788 3.29469 39.3563C3.30845 40.0337 3.33736 40.6371 3.68731 41.2435C4.03739 41.8499 4.54109 42.1778 5.12074 42.5287C5.70036 42.8793 6.36693 43.2043 7.03012 43.5214C7.6933 43.8387 8.35881 44.14 8.8932 44.4159C9.4276 44.6918 9.85015 44.98 9.93401 45.0641C10.0178 45.1481 10.2954 45.5723 10.5711 46.1067C10.8468 46.6411 11.1596 47.2918 11.4767 47.955C11.7938 48.6182 12.1184 49.2865 12.4694 49.8662C12.8203 50.4457 13.1501 50.9625 13.7565 51.3126C14.3629 51.6626 14.9643 51.689 15.6418 51.7034C16.3192 51.7159 17.0535 51.6592 17.7864 51.6052C18.5192 51.5488 19.2433 51.4871 19.8439 51.4589C20.4446 51.4274 20.9535 51.4664 21.0681 51.4978C21.1827 51.5293 21.6399 51.747 22.1459 52.0719C22.6519 52.3968 23.2435 52.821 23.8497 53.2368C24.4559 53.6526 25.0802 54.0622 25.6739 54.3887C26.2677 54.7155 26.7997 54.9999 27.5 54.9999C28.2002 54.9999 28.7304 54.7155 29.3242 54.3887C29.9179 54.062 30.544 53.6525 31.1502 53.2368C31.7564 52.821 32.3462 52.3968 32.8522 52.0719C33.3581 51.747 33.8155 51.5285 33.93 51.4978C34.0446 51.4663 34.5554 51.4313 35.156 51.4589C35.7567 51.4904 36.4807 51.5488 37.2136 51.6052C37.9464 51.6616 38.6788 51.7178 39.3563 51.7034C40.0337 51.6908 40.637 51.6607 41.2435 51.3126C41.8499 50.9627 42.1778 50.4459 42.5287 49.8662C42.8796 49.2867 43.2043 48.6182 43.5214 47.955C43.8385 47.2918 44.1531 46.6411 44.4288 46.1067C44.7045 45.5724 44.9802 45.148 45.0641 45.0641C45.1479 44.9801 45.5724 44.6913 46.1067 44.4159C46.6411 44.1399 47.3048 43.8386 47.968 43.5214C48.6312 43.204 49.2866 42.8796 49.8662 42.5287C50.4459 42.1775 50.9625 41.8499 51.3126 41.2435C51.6627 40.637 51.6893 40.0337 51.7034 39.3563C51.717 38.6788 51.6625 37.9334 51.6052 37.2006C51.5481 36.4677 51.4874 35.7437 51.459 35.1431C51.4306 34.5422 51.4647 34.0446 51.496 33.93C51.5269 33.8152 51.7471 33.3581 52.072 32.8522C52.3969 32.346 52.8193 31.7434 53.235 31.1372C53.6508 30.5308 54.0604 29.9179 54.387 29.3242C54.7135 28.7302 55 28.2002 55 27.5C55 26.7997 54.7135 26.2565 54.387 25.6628C54.0604 25.0689 53.6508 24.4559 53.235 23.8497C52.8192 23.2433 52.3969 22.6518 52.072 22.1459C51.7471 21.6398 51.5268 21.1826 51.496 21.0681C51.4652 20.9533 51.4308 20.4448 51.459 19.8439C51.4873 19.2431 51.5483 18.5193 51.6052 17.7864C51.6623 17.0535 51.7174 16.3081 51.7034 15.6307C51.6894 14.9532 51.6626 14.35 51.3126 13.7435C50.9625 13.137 50.4459 12.8203 49.8662 12.4694C49.2866 12.1181 48.6312 11.7827 47.968 11.4656C47.3048 11.1482 46.6411 10.8469 46.1067 10.5711C45.5723 10.2951 45.1479 10.0178 45.0641 9.93401C44.9803 9.85 44.7046 9.42761 44.4288 8.8932C44.1531 8.35886 43.8385 7.69327 43.5214 7.03011C43.2043 6.36696 42.8797 5.70042 42.5287 5.12073C42.1778 4.54123 41.8499 4.03738 41.2435 3.68731C40.6371 3.33735 40.0337 3.30849 39.3563 3.29469C38.6788 3.28215 37.9464 3.32515 37.2136 3.37984C36.4807 3.43625 35.7567 3.51273 35.156 3.54097C34.5554 3.5725 34.0446 3.53344 33.93 3.50208C33.8154 3.47054 33.3581 3.23989 32.8522 2.91501C32.3462 2.59013 31.7564 2.17883 31.1502 1.76308C30.544 1.34727 29.9179 0.926534 29.3242 0.60004C28.7304 0.273289 28.2002 0 27.5 0ZM27.5 1.89827C27.5085 1.89827 27.9338 1.9984 28.4185 2.26496C28.9033 2.53149 29.481 2.91315 30.0724 3.31874C30.6638 3.72451 31.2639 4.15889 31.8243 4.51881C32.3848 4.87881 32.8707 5.17528 33.4411 5.32812C34.0115 5.48115 34.5759 5.45764 35.2412 5.42628C35.9066 5.39475 36.6449 5.33515 37.3599 5.27999C38.0748 5.22359 38.7661 5.18166 39.3193 5.19294C39.8724 5.20549 40.2931 5.32375 40.3008 5.32812C40.3083 5.33278 40.6143 5.62726 40.9008 6.10039C41.1873 6.5739 41.5101 7.20353 41.8194 7.85051C42.1288 8.49749 42.4326 9.16977 42.738 9.76175C43.0434 10.3538 43.3131 10.8518 43.7307 11.2692C44.1482 11.6869 44.6444 11.9565 45.2363 12.2619C45.8282 12.5674 46.5006 12.8714 47.1475 13.1805C47.7945 13.4897 48.4133 13.7999 48.8865 14.0861C49.3598 14.3727 49.6655 14.6909 49.6699 14.6991C49.6746 14.7059 49.7936 15.126 49.8051 15.6788C49.8163 16.2319 49.7754 16.9232 49.72 17.6382C49.6642 18.3531 49.5922 19.0933 49.5607 19.7587C49.5292 20.424 49.5063 20.9884 49.6589 21.5588C49.8117 22.1289 50.1194 22.6021 50.4793 23.1626C50.8392 23.7233 51.2627 24.3361 51.6683 24.9275C52.0739 25.519 52.4666 26.0966 52.7332 26.5814C52.9998 27.0662 53.0998 27.4911 53.0998 27.4999C53.0998 27.5067 52.9997 27.9206 52.7332 28.4056C52.4666 28.8903 52.0739 29.4809 51.6683 30.0723C51.2626 30.6637 50.8393 31.2638 50.4793 31.8243C50.1194 32.385 49.8117 32.8707 49.6589 33.4411C49.506 34.0112 49.5293 34.5758 49.5607 35.2412C49.5923 35.9065 49.6644 36.6319 49.72 37.3469C49.7758 38.0619 49.8167 38.7661 49.8051 39.3192C49.794 39.8724 49.6743 40.2931 49.6699 40.3008C49.6653 40.3076 49.3598 40.6142 48.8865 40.9008C48.4133 41.1874 47.7945 41.497 47.1475 41.8064C46.5006 42.1156 45.8283 42.4323 45.2363 42.738C44.6443 43.0434 44.1482 43.3003 43.7307 43.7177C43.3131 44.1353 43.0434 44.6443 42.738 45.2363C42.4326 45.8283 42.1288 46.5005 41.8194 47.1475C41.51 47.7946 41.1874 48.4133 40.9008 48.8865C40.6144 49.36 40.3085 49.6654 40.3008 49.6699C40.2933 49.6746 39.8724 49.7932 39.3193 49.8051C38.7662 49.8176 38.0748 49.7746 37.3599 49.7199C36.6449 49.6635 35.9066 49.592 35.2412 49.5607C34.5759 49.5291 34.0115 49.5045 33.4411 49.6588C32.8708 49.8119 32.3848 50.1196 31.8243 50.4792C31.2639 50.8392 30.6637 51.2607 30.0724 51.6664C29.4809 52.0721 28.9033 52.4535 28.4185 52.7201C27.9338 52.9867 27.5088 53.0998 27.5 53.0998C27.4914 53.0998 27.0662 52.9867 26.5814 52.7201C26.0967 52.4536 25.519 52.072 24.9276 51.6664C24.3362 51.2606 23.7361 50.8392 23.1756 50.4793C22.6152 50.1193 22.1292 49.8116 21.5588 49.6588C20.9885 49.5058 20.4241 49.5293 19.7587 49.5607C19.0934 49.5922 18.3532 49.6641 17.6382 49.7199C16.9232 49.7763 16.2319 49.8164 15.6788 49.8051C15.1257 49.7925 14.7068 49.6743 14.6991 49.6699C14.6915 49.6652 14.3727 49.36 14.0861 48.8865C13.7996 48.413 13.4898 47.7946 13.1805 47.1475C12.8711 46.5005 12.5673 45.8282 12.2619 45.2363C11.9565 44.6442 11.6868 44.1352 11.2693 43.7177C10.8517 43.3 10.3537 43.0434 9.76178 42.738C9.1698 42.4325 8.49938 42.1159 7.85239 41.8064C7.20542 41.4972 6.58479 41.1876 6.11154 40.9008C5.63828 40.6142 5.3326 40.3083 5.32815 40.3008C5.32342 40.294 5.20444 39.8721 5.19296 39.3192C5.18167 38.7661 5.22436 38.0619 5.28001 37.3469C5.33586 36.6319 5.4078 35.9065 5.43928 35.2412C5.47067 34.5758 5.49371 34.0114 5.34113 33.4411C5.18829 32.8703 4.88063 32.3847 4.5207 31.8243C4.16078 31.2636 3.73737 30.6637 3.33174 30.0723C2.92609 29.4809 2.53345 28.8903 2.26686 28.4056C2.00025 27.9207 1.89831 27.5088 1.89831 27.4999C1.89831 27.4931 2.00031 27.066 2.26686 26.5814C2.53346 26.0966 2.92611 25.5189 3.33174 24.9275C3.73739 24.3361 4.16076 23.723 4.5207 23.1626C4.88063 22.6019 5.1883 22.1292 5.34113 21.5588C5.49397 20.9887 5.47077 20.424 5.43928 19.7587C5.40789 19.0933 5.33558 18.3531 5.28001 17.6382C5.22416 16.9232 5.18144 16.2319 5.19296 15.6788C5.20425 15.1256 5.32377 14.7068 5.32815 14.6991C5.33288 14.6923 5.63828 14.3727 6.11154 14.0861C6.5848 13.7995 7.20542 13.4899 7.85239 13.1805C8.49938 12.8713 9.16983 12.5673 9.76178 12.2619C10.3537 11.9565 10.8517 11.6869 11.2693 11.2692C11.6868 10.8516 11.9565 10.3537 12.2619 9.76175C12.5674 9.1697 12.8712 8.49749 13.1805 7.85051C13.4899 7.20353 13.7996 6.57366 14.0861 6.10039C14.3726 5.62689 14.6914 5.33251 14.6991 5.32812C14.7067 5.32347 15.1257 5.20423 15.6788 5.19294C16.2319 5.1804 16.9232 5.22556 17.6382 5.27999C18.3532 5.3364 19.0934 5.39493 19.7587 5.42628C20.4241 5.45782 20.9885 5.48241 21.5588 5.32812C22.1292 5.1751 22.6152 4.87886 23.1756 4.51881C23.736 4.15882 24.3362 3.72438 24.9276 3.31874C25.519 2.91296 26.0966 2.53157 26.5814 2.26496C27.0661 1.9984 27.4911 1.89827 27.5 1.89827ZM27.4981 9.28949C17.4527 9.28949 9.29134 17.449 9.29134 27.4944C9.29134 37.5397 17.4527 45.7067 27.4981 45.7067C37.5434 45.7067 45.7104 37.5397 45.7104 27.4944C45.7104 17.449 37.5434 9.28949 27.4981 9.28949ZM27.4981 11.1859C36.5185 11.1859 43.814 18.4739 43.814 27.4944C43.814 36.5148 36.5185 43.8103 27.4981 43.8103C18.4776 43.8103 11.1878 36.5148 11.1878 27.4944C11.1878 18.4739 18.4776 11.1859 27.4981 11.1859ZM27.8129 15.9529C27.5624 15.9534 27.3223 16.053 27.1449 16.23C26.9676 16.4069 26.8675 16.6469 26.8666 16.8974V19.4309H26.0628C23.6158 19.4309 21.6384 21.4696 21.6384 23.9386C21.6384 26.4075 23.6159 28.4463 26.0628 28.4463H27.4981H28.9315C30.3362 28.4463 31.4595 29.5826 31.4595 31.0576C31.4595 32.5326 30.3362 33.6689 28.9315 33.6689H23.4719C23.3474 33.6684 23.224 33.6924 23.1087 33.7396C22.9935 33.7868 22.8887 33.8563 22.8003 33.944C22.7119 34.0317 22.6417 34.1359 22.5936 34.2508C22.5455 34.3656 22.5205 34.4888 22.52 34.6134C22.5195 34.7385 22.5438 34.8625 22.5914 34.9782C22.6391 35.0939 22.7092 35.1991 22.7977 35.2876C22.8862 35.3761 22.9913 35.4462 23.107 35.4938C23.2227 35.5415 23.3467 35.5658 23.4719 35.5653H26.8666V38.0914C26.8675 38.3419 26.9676 38.5818 27.1449 38.7588C27.3223 38.9358 27.5624 39.0354 27.8129 39.0359C27.9374 39.0364 28.0608 39.0123 28.1761 38.9651C28.2913 38.9179 28.3961 38.8485 28.4845 38.7608C28.5729 38.6731 28.6431 38.5688 28.6912 38.4539C28.7393 38.3391 28.7643 38.2159 28.7648 38.0914V35.5653H28.9315C31.3785 35.5653 33.3559 33.5265 33.3559 31.0576C33.3559 28.5886 31.3785 26.5499 28.9315 26.5499H27.4981H26.0628C24.6581 26.5499 23.5349 25.4135 23.5349 23.9386C23.5349 22.4636 24.6581 21.3273 26.0628 21.3273H31.5298C31.6543 21.3268 31.7775 21.3018 31.8924 21.2537C32.0073 21.2056 32.1115 21.1354 32.1992 21.047C32.2869 20.9586 32.3564 20.8538 32.4036 20.7385C32.4508 20.6233 32.4748 20.4999 32.4743 20.3754C32.4734 20.1252 32.3735 19.8855 32.1966 19.7086C32.0197 19.5317 31.78 19.4319 31.5298 19.4309H28.7648V16.8974C28.7643 16.7729 28.7393 16.6497 28.6912 16.5348C28.6431 16.42 28.5729 16.3157 28.4845 16.228C28.3961 16.1403 28.2913 16.0709 28.1761 16.0237C28.0608 15.9764 27.9374 15.9524 27.8129 15.9529Z" fill="#656565"/>
</svg>
