<svg width="419" height="419" viewBox="0 0 419 419" fill="none" xmlns="http://www.w3.org/2000/svg">
<g opacity="0.25">
<path d="M290.479 136.443C296.19 141.958 302.131 147.244 308.268 152.285" stroke="#58595B" stroke-width="0.65" stroke-miterlimit="10"/>
<path d="M210.122 318.317C217.896 318.333 225.686 318.644 233.443 319.266" stroke="#58595B" stroke-width="0.65" stroke-miterlimit="10"/>
<path d="M258.254 99.9629C263.409 106.837 268.843 113.481 274.538 119.88" stroke="#58595B" stroke-width="0.65" stroke-miterlimit="10"/>
<path d="M258.663 318.48C263.802 311.656 269.235 305.044 274.914 298.694" stroke="#58595B" stroke-width="0.65" stroke-miterlimit="10"/>
<path d="M232.854 99.7829C240.612 99.1774 248.353 98.2772 256.061 97.0825C256.765 98.0481 257.534 98.9973 258.254 99.9629" stroke="#58595B" stroke-width="0.65" stroke-miterlimit="10"/>
<path d="M320.494 173.2C320.903 169.78 321.377 166.343 321.901 162.939C317.237 159.535 312.72 155.951 308.268 152.285" stroke="#58595B" stroke-width="0.65" stroke-miterlimit="10"/>
<path d="M318.53 197.782C318.235 205.408 318.235 213.035 318.513 220.645" stroke="#58595B" stroke-width="0.65" stroke-miterlimit="10"/>
<path d="M318.53 197.782C318.841 189.566 319.512 181.367 320.494 173.2" stroke="#58595B" stroke-width="0.65" stroke-miterlimit="10"/>
<path d="M320.412 245.145C319.446 237.011 318.808 228.828 318.513 220.645" stroke="#58595B" stroke-width="0.65" stroke-miterlimit="10"/>
<path d="M290.871 282.164C296.616 276.649 302.573 271.363 308.743 266.306" stroke="#58595B" stroke-width="0.65" stroke-miterlimit="10"/>
<path d="M274.914 298.694C280.021 292.982 285.34 287.467 290.871 282.165" stroke="#58595B" stroke-width="0.65" stroke-miterlimit="10"/>
<path d="M159.895 101.092C160.91 99.7502 161.941 98.4409 162.939 97.0989C170.238 98.2281 177.586 99.0955 184.935 99.6847" stroke="#58595B" stroke-width="0.65" stroke-miterlimit="10"/>
<path d="M100.503 198.977C100.225 190.827 99.6193 182.676 98.67 174.559" stroke="#58595B" stroke-width="0.65" stroke-miterlimit="10"/>
<path d="M109.733 153.119C105.593 156.491 101.403 159.797 97.0989 162.939C97.7044 166.801 98.2281 170.68 98.6864 174.575" stroke="#58595B" stroke-width="0.65" stroke-miterlimit="10"/>
<path d="M100.438 221.873C100.094 230.121 99.4229 238.369 98.4082 246.569" stroke="#58595B" stroke-width="0.65" stroke-miterlimit="10"/>
<path d="M109.733 153.119C115.936 148.062 121.926 142.776 127.703 137.244" stroke="#58595B" stroke-width="0.65" stroke-miterlimit="10"/>
<path d="M100.438 221.872C100.748 214.246 100.765 206.619 100.503 198.993" stroke="#58595B" stroke-width="0.65" stroke-miterlimit="10"/>
<path d="M129.012 283.032C134.528 288.367 139.83 293.915 144.936 299.66" stroke="#58595B" stroke-width="0.65" stroke-miterlimit="10"/>
<path d="M143.676 120.748C149.355 114.43 154.756 107.868 159.895 101.076" stroke="#58595B" stroke-width="0.65" stroke-miterlimit="10"/>
<path d="M111.304 267.19C117.409 272.247 123.317 277.517 129.012 283.032" stroke="#58595B" stroke-width="0.65" stroke-miterlimit="10"/>
<path d="M127.703 137.244C133.235 131.958 138.57 126.459 143.676 120.764" stroke="#58595B" stroke-width="0.65" stroke-miterlimit="10"/>
<path d="M274.538 119.88C279.644 125.608 284.947 131.124 290.478 136.442" stroke="#58595B" stroke-width="0.65" stroke-miterlimit="10"/>
<path d="M98.4081 246.569C98.0154 249.744 97.5899 252.902 97.0989 256.061C101.96 259.612 106.673 263.36 111.321 267.19" stroke="#58595B" stroke-width="0.65" stroke-miterlimit="10"/>
<path d="M186.899 319.151C178.896 319.757 170.893 320.657 162.939 321.901C157.293 314.176 151.27 306.779 144.936 299.643" stroke="#58595B" stroke-width="0.65" stroke-miterlimit="10"/>
<path d="M209.369 100.683C217.208 100.683 225.031 100.388 232.854 99.783" stroke="#58595B" stroke-width="0.65" stroke-miterlimit="10"/>
<path d="M210.122 318.317C202.364 318.3 194.623 318.579 186.882 319.168" stroke="#58595B" stroke-width="0.65" stroke-miterlimit="10"/>
<path d="M184.935 99.6848C193.069 100.339 201.219 100.683 209.369 100.683" stroke="#58595B" stroke-width="0.65" stroke-miterlimit="10"/>
<path d="M258.663 318.48C257.796 319.626 256.912 320.739 256.061 321.901C248.549 320.739 241.004 319.855 233.443 319.25" stroke="#58595B" stroke-width="0.65" stroke-miterlimit="10"/>
<path d="M320.412 245.145C320.837 248.795 321.328 252.428 321.901 256.061C317.4 259.351 313.031 262.787 308.743 266.323" stroke="#58595B" stroke-width="0.65" stroke-miterlimit="10"/>
<path d="M258.663 276.518L274.914 298.694" stroke="#58595B" stroke-width="0.65" stroke-miterlimit="10"/>
<path d="M308.743 266.322L281.625 250.791" stroke="#58595B" stroke-width="0.65" stroke-miterlimit="10"/>
<path d="M271.494 264.85L290.871 282.165" stroke="#58595B" stroke-width="0.65" stroke-miterlimit="10"/>
<path d="M292.197 217.961L318.513 220.662" stroke="#58595B" stroke-width="0.65" stroke-miterlimit="10"/>
<path d="M288.646 234.933L320.412 245.145" stroke="#58595B" stroke-width="0.65" stroke-miterlimit="10"/>
<path d="M209.991 292.606L210.122 318.317" stroke="#58595B" stroke-width="0.65" stroke-miterlimit="10"/>
<path d="M192.725 290.92L186.899 319.152" stroke="#58595B" stroke-width="0.65" stroke-miterlimit="10"/>
<path d="M243.688 285.258L258.663 318.481" stroke="#58595B" stroke-width="0.65" stroke-miterlimit="10"/>
<path d="M176.195 285.667L161.433 319.381" stroke="#58595B" stroke-width="0.65" stroke-miterlimit="10"/>
<path d="M233.443 319.266L227.224 290.708" stroke="#58595B" stroke-width="0.65" stroke-miterlimit="10"/>
<path d="M292.148 200.63L318.53 197.782" stroke="#58595B" stroke-width="0.65" stroke-miterlimit="10"/>
<path d="M148.144 265.57L129.012 283.032" stroke="#58595B" stroke-width="0.65" stroke-miterlimit="10"/>
<path d="M137.146 168.602L109.733 153.119" stroke="#58595B" stroke-width="0.65" stroke-miterlimit="10"/>
<path d="M127.703 137.244L147.211 154.478" stroke="#58595B" stroke-width="0.65" stroke-miterlimit="10"/>
<path d="M98.67 174.575L130.207 184.509" stroke="#58595B" stroke-width="0.65" stroke-miterlimit="10"/>
<path d="M143.676 120.748L159.993 142.727" stroke="#58595B" stroke-width="0.65" stroke-miterlimit="10"/>
<path d="M174.919 133.906L159.895 101.092" stroke="#58595B" stroke-width="0.65" stroke-miterlimit="10"/>
<path d="M137.834 251.609L111.304 267.19" stroke="#58595B" stroke-width="0.65" stroke-miterlimit="10"/>
<path d="M100.503 198.977L126.77 201.513" stroke="#58595B" stroke-width="0.65" stroke-miterlimit="10"/>
<path d="M161.122 277.075L144.936 299.66" stroke="#58595B" stroke-width="0.65" stroke-miterlimit="10"/>
<path d="M100.438 221.873L126.918 218.861" stroke="#58595B" stroke-width="0.65" stroke-miterlimit="10"/>
<path d="M130.649 235.816L98.4082 246.569" stroke="#58595B" stroke-width="0.65" stroke-miterlimit="10"/>
<path d="M209.369 100.683V126.378" stroke="#58595B" stroke-width="0.65" stroke-miterlimit="10"/>
<path d="M288.515 183.675L320.494 173.2" stroke="#58595B" stroke-width="0.65" stroke-miterlimit="10"/>
<path d="M232.854 99.783L226.815 128.194" stroke="#58595B" stroke-width="0.65" stroke-miterlimit="10"/>
<path d="M308.268 152.285L281.428 167.849" stroke="#58595B" stroke-width="0.65" stroke-miterlimit="10"/>
<path d="M258.319 142.236L274.538 119.88" stroke="#58595B" stroke-width="0.65" stroke-miterlimit="10"/>
<path d="M243.312 133.562L258.254 99.9629" stroke="#58595B" stroke-width="0.65" stroke-miterlimit="10"/>
<path d="M271.216 153.823L290.479 136.443" stroke="#58595B" stroke-width="0.65" stroke-miterlimit="10"/>
<path d="M191.366 128.374L184.935 99.6848" stroke="#58595B" stroke-width="0.65" stroke-miterlimit="10"/>
<path d="M271.494 264.85C267.632 269.17 263.344 273.082 258.663 276.519" stroke="#58595B" stroke-width="0.65" stroke-miterlimit="10"/>
<path d="M291.809 221.034C298.176 175.572 266.484 133.556 221.022 127.188C175.56 120.821 133.544 152.513 127.177 197.975C120.809 243.437 152.502 285.453 197.964 291.821C243.426 298.188 285.442 266.495 291.809 221.034Z" stroke="#58595B" stroke-width="0.65" stroke-miterlimit="10"/>
<path d="M219.45 218.96C212.789 225.588 210.58 232.985 209.844 236.111C208.747 232.56 205.932 225.13 198.878 218.55C192.938 213.002 186.702 210.564 183.233 209.5C186.964 208.109 193.641 205.081 199.86 198.682C205.638 192.741 208.485 186.555 209.844 182.889C210.858 186.31 213.215 192.578 218.747 198.535C225.391 205.703 232.969 208.469 236.455 209.5C233.329 210.237 226.03 212.413 219.45 218.96Z" stroke="#58595B" stroke-width="0.65" stroke-miterlimit="10"/>
<path d="M177.668 132.547L185.933 151.974L165.148 209.484L151.45 185.229L150.763 150.975C150.763 150.73 150.959 150.534 151.205 150.55L185.949 151.974L208.714 126.23" stroke="#58595B" stroke-width="0.65" stroke-miterlimit="10"/>
<path d="M132.842 177.014L151.45 185.229L126.443 209.32C126.345 209.418 126.345 209.565 126.443 209.664L151.434 231.954L165.132 209.5L177.357 240.988L151.434 231.938" stroke="#58595B" stroke-width="0.65" stroke-miterlimit="10"/>
<path d="M149.241 266.928L151.434 231.938L132.596 241.397" stroke="#58595B" stroke-width="0.65" stroke-miterlimit="10"/>
<path d="M177.357 286.322L185.917 265.684L177.357 240.988L209.533 252.788L185.917 265.684L150.124 267.845" stroke="#58595B" stroke-width="0.65" stroke-miterlimit="10"/>
<path d="M151.434 185.246L176.375 178.405L209.533 164.51L185.917 151.974" stroke="#58595B" stroke-width="0.65" stroke-miterlimit="10"/>
<path d="M185.917 265.7L209.533 292.77" stroke="#58595B" stroke-width="0.65" stroke-miterlimit="10"/>
<path d="M241.397 132.547L233.132 151.974L253.917 209.484L267.615 185.229L268.319 150.714C268.319 150.615 268.237 150.55 268.155 150.55L233.149 151.974L210.384 126.23" stroke="#58595B" stroke-width="0.65" stroke-miterlimit="10"/>
<path d="M286.223 177.014L267.615 185.229L292.491 209.205C292.655 209.353 292.639 209.615 292.475 209.762L267.599 231.938L253.901 209.484L241.675 240.972L267.599 231.921" stroke="#58595B" stroke-width="0.65" stroke-miterlimit="10"/>
<path d="M269.825 266.928L267.632 231.938L286.469 241.397" stroke="#58595B" stroke-width="0.65" stroke-miterlimit="10"/>
<path d="M241.708 286.322L233.149 265.684L241.708 240.988L209.533 252.788L233.149 265.684L268.941 267.845" stroke="#58595B" stroke-width="0.65" stroke-miterlimit="10"/>
<path d="M267.632 185.246L242.69 178.405L209.533 164.51L233.149 151.974" stroke="#58595B" stroke-width="0.65" stroke-miterlimit="10"/>
<path d="M233.149 265.7L209.533 292.77" stroke="#58595B" stroke-width="0.65" stroke-miterlimit="10"/>
<path d="M209.5 1.93115C238.255 102.287 316.713 180.745 417.069 209.5C316.713 238.255 238.271 316.697 209.516 417.052C180.745 316.697 102.287 238.255 1.93115 209.5C102.287 180.745 180.745 102.287 209.5 1.93115Z" stroke="#58595B" stroke-width="0.65" stroke-miterlimit="10"/>
<path d="M356.269 356.269C264.964 305.633 154.02 305.633 62.7305 356.269C113.367 264.98 113.367 154.036 62.7305 62.7305C154.02 113.367 264.964 113.367 356.269 62.7305C305.633 154.02 305.633 264.964 356.269 356.269Z" stroke="#58595B" stroke-width="0.65" stroke-miterlimit="10"/>
</g>
</svg>
