<svg width="46" height="77" viewBox="0 0 46 77" fill="none" xmlns="http://www.w3.org/2000/svg">
<path d="M38.779 73.3846C39.2973 71.9965 39.4722 70.5068 39.2893 69.0388C39.1064 67.5709 38.5709 66.167 37.7272 64.9434L26.3801 48.4624V33.5608H15.0331V48.4624L3.19964 65.7332C2.52459 66.713 2.09618 67.837 1.94985 69.0122C1.80352 70.1874 1.94346 71.3799 2.35812 72.4913V72.4913C2.74081 73.5204 3.43543 74.4089 4.34791 75.0365C5.26039 75.664 6.34667 76.0003 7.45968 75.9999H35.0712C35.8845 75.9811 36.6732 75.7216 37.3346 75.2551C37.9959 74.7886 38.4993 74.1368 38.779 73.3846V73.3846Z" stroke="#8DA385" stroke-width="1.3" stroke-miterlimit="10"/>
<path d="M16.0588 22.66C14.2461 18.3442 11.8918 14.2689 9.05078 10.5291" stroke="#8DA385" stroke-width="1.3" stroke-miterlimit="10"/>
<path d="M16.085 22.7114C17.0535 25.0047 17.8704 27.3573 18.5306 29.7544C18.9119 31.0491 19.2143 32.3437 19.4641 33.5607C20.2135 36.92 20.5926 40.3492 20.5949 43.7886" stroke="#8DA385" stroke-width="1.3" stroke-miterlimit="10"/>
<path d="M1.83105 1C1.83105 1 1.83105 1 1.83105 1.10307" stroke="#8DA385" stroke-width="1.3" stroke-miterlimit="10"/>
<path d="M16.2685 22.6337L16.0844 22.7114C16.0844 22.7114 -1.78416 25.1195 1.84478 1.15527C25.709 7.43439 16.2685 22.6337 16.2685 22.6337Z" stroke="#8DA385" stroke-width="1.3" stroke-miterlimit="10"/>
<path d="M34.9003 18.5037C31.0798 19.6752 27.5351 21.5854 24.4736 24.1225" stroke="#8DA385" stroke-width="1.3" stroke-miterlimit="10"/>
<path d="M18.5293 29.7799C20.3028 27.7561 22.2614 25.8969 24.3803 24.2258" stroke="#8DA385" stroke-width="1.3" stroke-miterlimit="10"/>
<path d="M44.1558 15.9407C34.1762 35.011 25.7481 25.9225 24.4333 24.2006L24.5253 24.1359C24.5253 24.1359 21.751 8.82001 44.1558 15.9407Z" stroke="#8DA385" stroke-width="1.3" stroke-miterlimit="10"/>
<path d="M44.5246 16.0693L44.1035 15.9404" stroke="#8DA385" stroke-width="1.3" stroke-miterlimit="10"/>
<path d="M44.2483 15.7715L44.1562 15.9399" stroke="#8DA385" stroke-width="1.3" stroke-miterlimit="10"/>
<path d="M24.3819 24.188L24.1846 23.9417" stroke="#8DA385" stroke-width="1.3" stroke-miterlimit="10"/>
<path d="M20.6072 48.4757C21.0574 48.4757 21.4224 48.1161 21.4224 47.6726C21.4224 47.2291 21.0574 46.8696 20.6072 46.8696C20.157 46.8696 19.792 47.2291 19.792 47.6726C19.792 48.1161 20.157 48.4757 20.6072 48.4757Z" stroke="#8DA385" stroke-width="1.3" stroke-miterlimit="10"/>
</svg>
