<svg width="109" height="111" viewBox="0 0 109 111" fill="none" xmlns="http://www.w3.org/2000/svg">
<path d="M12.0277 105.584C11.3808 105.804 10.7218 105.962 10.0505 106.06C9.39146 106.158 8.64087 106.207 7.79876 106.207C5.57751 106.207 3.82615 105.627 2.54466 104.467C1.26318 103.308 0.622436 101.734 0.622436 99.7442C0.622436 97.8036 1.28759 96.2231 2.61789 95.0027C3.9604 93.77 5.68125 93.1537 7.78045 93.1537C8.47611 93.1537 9.20229 93.2025 9.95897 93.3001C10.7279 93.3978 11.3808 93.5259 11.9178 93.6846C11.9544 93.6846 11.9849 93.7029 12.0094 93.7395C12.0338 93.7761 12.0521 93.8249 12.0643 93.8859C12.0765 94.0202 12.0887 94.1911 12.1009 94.3985C12.1131 94.606 12.1253 94.966 12.1375 95.4786C12.1619 96.2475 12.1863 96.8212 12.2107 97.1995C12.2351 97.5778 12.2595 97.9074 12.284 98.1881C12.284 98.2369 12.2595 98.2613 12.2107 98.2613C12.1741 98.2613 12.1497 98.2369 12.1375 98.1881C12.0521 97.5168 11.8995 96.8944 11.6798 96.3208C11.4723 95.7349 11.2038 95.2345 10.8743 94.8196C10.4838 94.3192 10.0261 93.947 9.5013 93.7029C8.98871 93.4466 8.42119 93.3184 7.79876 93.3184C6.38302 93.3184 5.2785 93.8859 4.4852 95.021C3.6919 96.1438 3.29525 97.6999 3.29525 99.6892C3.29525 101.666 3.6919 103.222 4.4852 104.358C5.2785 105.48 6.38302 106.042 7.79876 106.042C8.4334 106.042 9.00701 105.914 9.51961 105.657C10.0444 105.389 10.5021 104.992 10.8926 104.467C11.2222 104.028 11.4968 103.509 11.7164 102.911C11.9361 102.301 12.0887 101.63 12.1741 100.897C12.1863 100.861 12.2107 100.843 12.2473 100.843C12.284 100.843 12.3023 100.861 12.3023 100.897C12.2901 101.166 12.2717 101.465 12.2473 101.795C12.2351 102.124 12.2168 102.624 12.1924 103.296C12.168 104.004 12.1436 104.504 12.1192 104.797C12.107 105.09 12.0948 105.328 12.0826 105.511C12.0826 105.535 12.0765 105.554 12.0643 105.566C12.0521 105.578 12.0399 105.584 12.0277 105.584ZM21.4613 106.078H21.1867C21.1012 106.078 21.028 106.06 20.967 106.023C20.9182 105.999 20.8815 105.95 20.8571 105.877L17.452 97.1812C17.2446 96.6564 17.0676 96.217 16.9211 95.8631C16.7747 95.5092 16.6465 95.2101 16.5367 94.966C16.2682 94.4046 16.0363 94.0263 15.841 93.831C15.6458 93.6235 15.3284 93.5198 14.8891 93.5198H14.7609C14.6755 93.5198 14.6328 93.4893 14.6328 93.4283C14.6328 93.3672 14.6694 93.3367 14.7426 93.3367C14.8525 93.3367 14.9867 93.3428 15.1454 93.355C15.304 93.355 15.5542 93.3611 15.896 93.3733C16.1156 93.3855 16.2682 93.3917 16.3536 93.3917C16.4391 93.3917 16.5001 93.3917 16.5367 93.3917C16.5733 93.3917 16.6649 93.3917 16.8113 93.3917C16.9578 93.3917 17.2507 93.3855 17.69 93.3733C18.3857 93.3611 18.8678 93.355 19.1363 93.355C19.417 93.3428 19.6123 93.3367 19.7221 93.3367C19.7953 93.3367 19.8258 93.3672 19.8136 93.4283C19.8136 93.4893 19.777 93.5198 19.7038 93.5198H19.356C18.9776 93.5198 18.7763 93.6296 18.7518 93.8493C18.7396 94.0568 18.8617 94.5145 19.118 95.2223C19.1912 95.4176 19.2766 95.6495 19.3743 95.918C19.4841 96.1865 19.6672 96.6503 19.9235 97.3093L22.2485 103.204C22.2851 103.314 22.3156 103.387 22.34 103.424C22.3644 103.448 22.3888 103.46 22.4132 103.46C22.4254 103.46 22.4437 103.448 22.4682 103.424C22.4926 103.387 22.517 103.338 22.5414 103.277L24.3355 98.6091C24.6528 97.767 24.8786 97.0835 25.0128 96.5588C25.1471 96.0217 25.2142 95.5458 25.2142 95.1308C25.2142 94.6182 25.0921 94.2155 24.8481 93.9226C24.6162 93.6296 24.2988 93.4832 23.8961 93.4832C23.8473 93.4832 23.7863 93.4893 23.713 93.5015C23.652 93.5015 23.5605 93.5076 23.4384 93.5198C23.3896 93.532 23.353 93.5381 23.3286 93.5381C23.3164 93.5381 23.3042 93.5381 23.292 93.5381C23.2553 93.5381 23.2248 93.532 23.2004 93.5198C23.176 93.4954 23.1638 93.471 23.1638 93.4466C23.1638 93.41 23.1821 93.3855 23.2187 93.3733C23.2553 93.3489 23.3103 93.3367 23.3835 93.3367C23.4445 93.3367 23.5727 93.3367 23.7679 93.3367C23.9632 93.3367 24.3416 93.3428 24.903 93.355C25.44 93.3672 25.8 93.3733 25.9831 93.3733C26.1784 93.3733 26.3004 93.3733 26.3492 93.3733C26.3858 93.3733 26.4347 93.3733 26.4957 93.3733C26.5689 93.3733 26.6971 93.3672 26.8801 93.355C27.1486 93.3428 27.35 93.3367 27.4843 93.3367C27.6185 93.3367 27.7344 93.3367 27.8321 93.3367C27.8565 93.3367 27.8748 93.3489 27.887 93.3733C27.9114 93.3855 27.9236 93.4039 27.9236 93.4283C27.9236 93.4527 27.9114 93.4771 27.887 93.5015C27.8626 93.5137 27.8382 93.5198 27.8138 93.5198H27.7772C27.5453 93.5198 27.3195 93.6113 27.0998 93.7944C26.8923 93.9653 26.6848 94.2277 26.4774 94.5816C26.0502 95.3627 25.6841 96.0767 25.379 96.7235C25.086 97.3582 24.8114 98.0111 24.5551 98.6824L21.7542 105.895C21.742 105.956 21.7115 105.999 21.6626 106.023C21.626 106.06 21.5589 106.078 21.4613 106.078ZM31.353 106.005C30.8282 106.017 30.4804 106.023 30.3095 106.023C30.1386 106.023 30.0288 106.023 29.98 106.023C29.9067 106.023 29.8701 105.999 29.8701 105.95C29.8701 105.901 29.9067 105.877 29.98 105.877C30.4437 105.877 30.7366 105.792 30.8587 105.621C30.9929 105.438 31.0845 105.096 31.1333 104.595C31.1577 104.376 31.176 104.107 31.1882 103.79C31.2004 103.473 31.2065 103.058 31.2065 102.545C31.2065 102.545 31.2065 102.258 31.2065 101.685C31.2065 101.099 31.2065 100.226 31.2065 99.0668C31.2065 99.0058 31.2065 98.902 31.2065 98.7556C31.2065 98.6091 31.2065 98.3284 31.2065 97.9135C31.1943 97.4619 31.1882 97.1507 31.1882 96.9798C31.1882 96.8089 31.1882 96.6869 31.1882 96.6137C31.1882 96.0645 31.1821 95.6495 31.1699 95.3688C31.1699 95.0881 31.1638 94.8562 31.1516 94.6731C31.115 94.2094 31.0296 93.8981 30.8953 93.7395C30.7733 93.5808 30.4865 93.5015 30.0349 93.5015C29.9617 93.5015 29.925 93.4771 29.925 93.4283C29.925 93.3672 29.9617 93.3367 30.0349 93.3367C30.0593 93.3367 30.1386 93.3367 30.2729 93.3367C30.4193 93.3367 30.7183 93.3428 31.1699 93.355C31.8534 93.3672 32.3171 93.3733 32.5612 93.3733C32.8175 93.3733 32.9762 93.3733 33.0372 93.3733C33.0738 93.3733 33.1471 93.3733 33.2569 93.3733C33.3667 93.3733 33.5742 93.3672 33.8793 93.355C34.3675 93.3428 34.7154 93.3367 34.9228 93.3367C35.1303 93.3367 35.289 93.3367 35.3988 93.3367C37.4858 93.3367 39.1761 93.9164 40.4698 95.0759C41.7635 96.2231 42.4104 97.7365 42.4104 99.616C42.4104 101.532 41.7757 103.082 40.5065 104.266C39.2372 105.438 37.559 106.023 35.472 106.023C35.35 106.023 35.1791 106.023 34.9595 106.023C34.752 106.011 34.4224 105.999 33.9709 105.987C33.7146 105.975 33.5376 105.969 33.44 105.969C33.3545 105.969 33.2935 105.969 33.2569 105.969C33.1837 105.969 33.0189 105.975 32.7626 105.987C32.5063 105.987 32.0364 105.993 31.353 106.005ZM35.5087 105.84C36.9122 105.84 37.9679 105.316 38.6758 104.266C39.3958 103.216 39.7559 101.666 39.7559 99.616C39.7559 97.6389 39.3775 96.1255 38.6208 95.0759C37.8764 94.0263 36.7901 93.5015 35.3622 93.5015H34.6116C34.1967 93.5015 33.9343 93.5747 33.8244 93.7212C33.7146 93.8676 33.6352 94.1483 33.5864 94.5633C33.5742 94.7586 33.562 94.9966 33.5498 95.2773C33.5376 95.558 33.5254 95.9058 33.5132 96.3208C33.5132 96.5282 33.5132 96.7723 33.5132 97.053C33.5132 97.3215 33.5132 97.6633 33.5132 98.0782V103.113C33.5132 103.735 33.501 104.29 33.4766 104.779C33.4522 105.255 33.4156 105.584 33.3667 105.767C33.4278 105.767 33.5071 105.773 33.6047 105.785C33.7146 105.785 33.8854 105.792 34.1173 105.804C34.4835 105.816 34.7642 105.828 34.9595 105.84C35.1547 105.84 35.3378 105.84 35.5087 105.84ZM52.0878 105.987C51.8437 105.999 51.6545 106.011 51.5203 106.023C51.3982 106.023 51.2884 106.023 51.1908 106.023C51.1175 106.023 51.0809 105.999 51.0809 105.95C51.0809 105.889 51.1175 105.859 51.1908 105.859H51.264C51.6545 105.859 51.9291 105.706 52.0878 105.401C52.2587 105.096 52.3868 104.589 52.4722 103.882C52.5089 103.552 52.5333 103.174 52.5455 102.746C52.5699 102.307 52.5821 101.819 52.5821 101.282C52.5821 100.855 52.5821 100.354 52.5821 99.7808C52.5821 99.1949 52.5882 98.3223 52.6004 97.1629C52.6004 96.4428 52.6004 95.9485 52.6004 95.68C52.6004 95.3993 52.6004 95.1796 52.6004 95.021C52.6004 94.7891 52.576 94.5877 52.5272 94.4168C52.4783 94.2338 52.4051 94.0934 52.3075 93.9958C52.161 93.8249 51.9963 93.6968 51.8132 93.6113C51.6423 93.5259 51.4471 93.4832 51.2274 93.4832H51.1725C51.1114 93.4832 51.0809 93.4588 51.0809 93.41C51.0809 93.3611 51.1114 93.3367 51.1725 93.3367C51.7827 93.3367 52.338 93.3306 52.8384 93.3184C53.351 93.294 53.8392 93.2574 54.3029 93.2086C54.3762 93.1964 54.4189 93.1903 54.4311 93.1903C54.4555 93.1903 54.4738 93.1903 54.486 93.1903C54.547 93.1903 54.5897 93.2025 54.6142 93.2269C54.6508 93.2513 54.6813 93.294 54.7057 93.355C54.7667 93.4893 54.8583 93.6663 54.9803 93.8859C55.1023 94.1056 55.2488 94.3741 55.4197 94.6914L58.7332 100.33L61.8637 94.966C61.9369 94.844 62.0102 94.7159 62.0834 94.5816C62.1566 94.4351 62.2604 94.2338 62.3946 93.9775C62.4434 93.892 62.4739 93.831 62.4861 93.7944C62.5105 93.7578 62.5289 93.7273 62.5411 93.7029C62.6387 93.5442 62.7363 93.4283 62.834 93.355C62.9438 93.2818 63.0598 93.2452 63.1818 93.2452C63.2306 93.2452 63.2916 93.2452 63.3649 93.2452C63.4503 93.2452 63.5968 93.2513 63.8042 93.2635C64.329 93.2879 64.7501 93.3062 65.0674 93.3184C65.3847 93.3306 65.6838 93.3367 65.9645 93.3367C66.0377 93.3367 66.0743 93.3672 66.0743 93.4283C66.0743 93.4771 66.0377 93.5015 65.9645 93.5015H65.7631C65.3725 93.5015 65.1223 93.6235 65.0125 93.8676C64.9149 94.0995 64.8538 94.5938 64.8294 95.3505C64.8294 95.5946 64.8233 95.8936 64.8111 96.2475C64.8111 96.6015 64.8111 97.1019 64.8111 97.7487V101.703C64.8111 102.045 64.8111 102.344 64.8111 102.6C64.8111 102.856 64.8111 103.088 64.8111 103.296C64.8233 103.65 64.8355 103.955 64.8477 104.211C64.8599 104.455 64.8721 104.669 64.8843 104.852C64.9332 105.242 65.0064 105.511 65.104 105.657C65.2139 105.792 65.4397 105.859 65.7814 105.859H65.9645C66.0377 105.859 66.0743 105.889 66.0743 105.95C66.0743 105.999 66.0377 106.023 65.9645 106.023C65.8546 106.023 65.6777 106.023 65.4336 106.023C65.1895 106.011 64.7745 105.999 64.1887 105.987C63.8225 105.975 63.5785 105.969 63.4564 105.969C63.3344 105.969 63.255 105.969 63.2184 105.969C63.1818 105.969 63.1086 105.969 62.9987 105.969C62.9011 105.969 62.7119 105.975 62.4312 105.987C62.0041 105.999 61.6928 106.011 61.4976 106.023C61.3023 106.023 61.1558 106.023 61.0582 106.023C60.985 106.023 60.9484 105.999 60.9484 105.95C60.9484 105.889 60.985 105.859 61.0582 105.859H61.3877C61.7905 105.859 62.0468 105.785 62.1566 105.639C62.2787 105.48 62.3702 105.2 62.4312 104.797C62.4556 104.602 62.4739 104.364 62.4861 104.083C62.4983 103.79 62.5044 103.442 62.5044 103.039C62.5167 102.808 62.5228 102.551 62.5228 102.271C62.5228 101.99 62.5228 101.66 62.5228 101.282V94.7647C62.5228 94.6792 62.5167 94.6243 62.5044 94.5999C62.4922 94.5633 62.4678 94.545 62.4312 94.545C62.4068 94.545 62.3702 94.5755 62.3214 94.6365C62.2848 94.6975 62.1993 94.8379 62.0651 95.0576L58.0009 101.959C57.8667 102.203 57.7752 102.356 57.7263 102.417C57.6897 102.466 57.6531 102.49 57.6165 102.49H57.5433C57.5189 102.49 57.4944 102.478 57.47 102.454C57.4578 102.429 57.4151 102.362 57.3419 102.252L52.8384 94.5816L52.8201 101.282C52.8079 102.832 52.9604 103.985 53.2778 104.742C53.5951 105.486 54.126 105.859 54.8705 105.859H55.1268C55.1878 105.859 55.2183 105.889 55.2183 105.95C55.2183 105.999 55.1878 106.023 55.1268 106.023C55.0047 106.023 54.8094 106.023 54.5409 106.023C54.2724 106.023 53.8392 106.011 53.2411 105.987C52.997 105.975 52.8323 105.969 52.7469 105.969C52.6736 105.969 52.6187 105.969 52.5821 105.969C52.5455 105.969 52.4906 105.969 52.4173 105.969C52.3563 105.969 52.2465 105.975 52.0878 105.987ZM76.0912 101.483L73.8394 101.538C73.6441 101.538 73.4122 101.538 73.1437 101.538C72.8752 101.526 72.2162 101.502 71.1666 101.465L71.0934 101.648C70.9103 102.148 70.7638 102.649 70.654 103.149C70.5442 103.65 70.4953 104.089 70.5075 104.467C70.5075 104.907 70.6174 105.248 70.8371 105.493C71.069 105.737 71.3924 105.859 71.8073 105.859C71.8684 105.859 71.9294 105.859 71.9904 105.859C72.0636 105.846 72.1613 105.834 72.2833 105.822C72.3321 105.81 72.3626 105.804 72.3749 105.804C72.3993 105.804 72.4176 105.804 72.4298 105.804C72.4664 105.804 72.4969 105.816 72.5213 105.84C72.5457 105.853 72.5579 105.871 72.5579 105.895C72.5579 105.932 72.5396 105.962 72.503 105.987C72.4664 106.011 72.4115 106.023 72.3382 106.023C72.2772 106.023 72.1552 106.023 71.9721 106.023C71.789 106.023 71.4351 106.017 70.9103 106.005C70.4099 105.993 70.0682 105.987 69.8851 105.987C69.7142 105.987 69.6044 105.987 69.5556 105.987C69.519 105.987 69.464 105.987 69.3908 105.987C69.3298 105.987 69.2139 105.993 69.043 106.005C68.7745 106.017 68.5731 106.023 68.4389 106.023C68.3168 106.023 68.207 106.023 68.1093 106.023C68.0727 106.023 68.0483 106.017 68.0361 106.005C68.0117 105.981 67.9995 105.95 67.9995 105.914C67.9995 105.889 68.0117 105.871 68.0361 105.859C68.0605 105.846 68.0849 105.84 68.1093 105.84H68.1643C68.3839 105.84 68.5975 105.755 68.805 105.584C69.0247 105.413 69.2261 105.163 69.4091 104.833C69.6532 104.406 69.9034 103.906 70.1597 103.332C70.416 102.759 70.6906 102.063 70.9835 101.245L73.9309 93.4283C73.9554 93.3794 73.9859 93.3428 74.0225 93.3184C74.0591 93.294 74.1018 93.2818 74.1506 93.2818H74.9744C75.0477 93.2818 75.1026 93.294 75.1392 93.3184C75.1758 93.3306 75.2063 93.3611 75.2307 93.41L78.4161 101.282C78.6358 101.831 78.8372 102.313 79.0203 102.728C79.2033 103.143 79.362 103.509 79.4963 103.827C79.8502 104.583 80.137 105.108 80.3567 105.401C80.5886 105.694 80.8571 105.84 81.1622 105.84H81.2537C81.2903 105.84 81.3208 105.853 81.3453 105.877C81.3697 105.889 81.3819 105.907 81.3819 105.932C81.3819 105.956 81.3697 105.981 81.3453 106.005C81.333 106.017 81.3086 106.023 81.272 106.023C81.1622 106.023 81.034 106.023 80.8876 106.023C80.7411 106.011 80.5214 105.999 80.2285 105.987C80.0455 105.975 79.9173 105.969 79.8441 105.969C79.7709 105.969 79.7159 105.969 79.6793 105.969C79.6427 105.969 79.5451 105.969 79.3864 105.969C79.2277 105.969 78.9165 105.975 78.4528 105.987C77.7327 105.999 77.2262 106.011 76.9333 106.023C76.6404 106.023 76.439 106.023 76.3292 106.023C76.2559 106.023 76.2071 105.999 76.1827 105.95C76.1705 105.889 76.201 105.859 76.2742 105.859H76.6587C77.098 105.859 77.3299 105.724 77.3543 105.456C77.391 105.175 77.275 104.65 77.0065 103.882C76.9089 103.601 76.7868 103.265 76.6404 102.875C76.4939 102.484 76.3108 102.02 76.0912 101.483ZM75.9996 101.3V101.282L73.4916 95.1491L71.2215 101.319L73.7296 101.282L75.9996 101.3ZM84.3327 106.005C83.9909 106.017 83.7652 106.023 83.6553 106.023C83.5455 106.023 83.4784 106.023 83.4539 106.023C83.3807 106.023 83.3441 105.999 83.3441 105.95C83.3441 105.889 83.3807 105.859 83.4539 105.859C83.7102 105.859 83.8811 105.859 83.9665 105.859C84.0642 105.859 84.1374 105.853 84.1862 105.84C84.3205 105.743 84.412 105.566 84.4608 105.309C84.5218 105.041 84.5646 104.559 84.589 103.863C84.6012 103.387 84.6073 102.869 84.6073 102.307C84.6195 101.746 84.6256 101.16 84.6256 100.55V97.7487C84.6256 97.1263 84.6195 96.632 84.6073 96.2658C84.6073 95.8997 84.6073 95.5885 84.6073 95.3322C84.5707 94.5999 84.4974 94.1117 84.3876 93.8676C84.29 93.6235 84.0459 93.5015 83.6553 93.5015H83.4356C83.3624 93.5015 83.3258 93.4771 83.3258 93.4283C83.3258 93.3672 83.3624 93.3367 83.4356 93.3367C83.5333 93.3367 83.6797 93.3367 83.875 93.3367C84.0825 93.3367 84.4059 93.3428 84.8453 93.355C85.1504 93.3672 85.3518 93.3733 85.4494 93.3733C85.5592 93.3733 85.6325 93.3733 85.6691 93.3733C85.7179 93.3733 85.8277 93.3733 85.9986 93.3733C86.1817 93.3733 86.5295 93.3672 87.0421 93.355C87.6401 93.3428 88.0429 93.3367 88.2504 93.3367C88.47 93.3367 88.6104 93.3367 88.6714 93.3367C90.2946 93.3367 91.5151 93.5869 92.3328 94.0873C93.1505 94.5755 93.5594 95.3017 93.5594 96.2658C93.5594 97.0835 93.1566 97.7548 92.3511 98.2796C91.5578 98.8044 90.4045 99.1583 88.8911 99.3414C90.1116 99.3536 90.9964 99.5672 91.5456 99.9821C92.0948 100.397 92.6074 101.203 93.0834 102.399C93.2909 102.911 93.4617 103.338 93.596 103.68C93.7424 104.01 93.8706 104.29 93.9804 104.522C94.2367 105.035 94.4686 105.389 94.6761 105.584C94.8958 105.767 95.2131 105.859 95.6281 105.859H95.7379C95.8233 105.859 95.8599 105.889 95.8477 105.95C95.8477 105.999 95.805 106.023 95.7196 106.023H95.0422C94.8103 106.023 94.5724 106.023 94.3283 106.023C94.0964 106.036 93.8096 106.054 93.4678 106.078C93.3214 106.091 93.2176 106.097 93.1566 106.097C93.1078 106.097 93.0651 106.097 93.0285 106.097C92.7844 106.097 92.583 106.066 92.4243 106.005C92.2657 105.932 92.1253 105.822 92.0033 105.676C91.8568 105.493 91.7043 105.218 91.5456 104.852C91.3869 104.473 91.1551 103.833 90.8499 102.93C90.6791 102.393 90.5143 101.941 90.3557 101.575C90.2092 101.197 90.0627 100.879 89.9163 100.623C89.6722 100.22 89.4037 99.9333 89.1108 99.7625C88.8301 99.5916 88.4273 99.494 87.9025 99.4696H86.914V101.282C86.914 101.66 86.914 101.99 86.914 102.271C86.914 102.539 86.914 102.783 86.914 103.003C86.9262 103.406 86.9384 103.747 86.9506 104.028C86.9628 104.296 86.975 104.528 86.9872 104.724C87.036 105.163 87.1092 105.462 87.2069 105.621C87.3045 105.779 87.5364 105.859 87.9025 105.859H88.2687C88.3419 105.859 88.3785 105.889 88.3785 105.95C88.3785 105.999 88.3419 106.023 88.2687 106.023C88.1588 106.023 87.9941 106.023 87.7744 106.023C87.5547 106.011 87.1886 106.005 86.676 106.005C86.3464 105.993 86.1268 105.987 86.0169 105.987C85.9071 105.987 85.8338 105.987 85.7972 105.987C85.7362 105.987 85.6081 105.987 85.4128 105.987C85.2175 105.987 84.8575 105.993 84.3327 106.005ZM87.4632 93.5198C87.2069 93.5198 87.0482 93.6357 86.9872 93.8676C86.9384 94.0873 86.914 94.6365 86.914 95.5153V99.2682C87.036 99.256 87.1825 99.2499 87.3533 99.2499C87.5242 99.2499 87.8293 99.2499 88.2687 99.2499C89.0864 99.2499 89.7454 98.9875 90.2458 98.4627C90.7462 97.9379 90.9964 97.2239 90.9964 96.3208C90.9964 95.381 90.7706 94.6792 90.319 94.2155C89.8675 93.7395 89.1962 93.5015 88.3053 93.5015C88.0612 93.5015 87.872 93.5015 87.7378 93.5015C87.6157 93.5015 87.5242 93.5076 87.4632 93.5198ZM101.65 105.987C101.138 105.999 100.772 106.011 100.552 106.023C100.332 106.023 100.174 106.023 100.076 106.023C100.003 106.023 99.9662 105.999 99.9662 105.95C99.9662 105.889 100.003 105.859 100.076 105.859H100.406C100.772 105.859 101.004 105.779 101.101 105.621C101.199 105.462 101.272 105.163 101.321 104.724C101.333 104.528 101.345 104.296 101.358 104.028C101.37 103.747 101.382 103.406 101.394 103.003C101.394 102.783 101.394 102.539 101.394 102.271C101.394 101.99 101.394 101.66 101.394 101.282V93.4832H100.644C99.7038 93.4832 98.941 93.8249 98.3552 94.5084C97.7816 95.1796 97.4337 96.1377 97.3117 97.3826L97.2018 98.4261C97.1896 98.4871 97.153 98.5176 97.092 98.5176C97.031 98.5176 97.0066 98.4871 97.0188 98.4261L97.1286 97.3826C97.1652 97.0286 97.1896 96.6442 97.2018 96.2292C97.2262 95.8143 97.2507 95.259 97.2751 94.5633C97.2873 94.0751 97.2934 93.77 97.2934 93.6479C97.3056 93.5137 97.3239 93.4405 97.3483 93.4283C97.4093 93.3917 97.6534 93.3611 98.0806 93.3367C98.5199 93.3123 99.0203 93.3001 99.5817 93.3001C99.655 93.3001 99.7587 93.3001 99.893 93.3001C100.039 93.3001 100.308 93.3062 100.698 93.3184C101.26 93.3306 101.669 93.3367 101.925 93.3367C102.181 93.3367 102.389 93.3367 102.547 93.3367C102.657 93.3367 102.767 93.3367 102.877 93.3367C102.999 93.3367 103.17 93.3306 103.39 93.3184C103.78 93.3184 104.128 93.3184 104.433 93.3184C104.75 93.3062 105.104 93.3001 105.495 93.3001C106.056 93.3001 106.557 93.3123 106.996 93.3367C107.435 93.3611 107.686 93.3917 107.747 93.4283C107.771 93.4405 107.783 93.5137 107.783 93.6479C107.795 93.7822 107.808 94.0995 107.82 94.5999C107.82 95.2712 107.826 95.8082 107.838 96.2109C107.863 96.6015 107.887 96.9737 107.911 97.3276L107.985 98.3711C107.997 98.4322 107.972 98.4627 107.911 98.4627C107.863 98.4627 107.832 98.4322 107.82 98.3711L107.71 97.3276C107.588 96.0828 107.246 95.1308 106.685 94.4718C106.123 93.8127 105.373 93.4771 104.433 93.4649H103.682V101.282C103.682 101.648 103.682 101.972 103.682 102.252C103.682 102.533 103.689 102.789 103.701 103.021C103.701 103.412 103.707 103.747 103.719 104.028C103.731 104.296 103.75 104.528 103.774 104.724C103.811 105.163 103.878 105.462 103.975 105.621C104.085 105.779 104.323 105.859 104.689 105.859H105.019C105.092 105.859 105.129 105.889 105.129 105.95C105.129 105.999 105.092 106.023 105.019 106.023C104.909 106.023 104.744 106.023 104.525 106.023C104.317 106.011 103.951 105.999 103.426 105.987C103.109 105.975 102.895 105.969 102.785 105.969C102.676 105.969 102.602 105.969 102.566 105.969C102.529 105.969 102.45 105.969 102.328 105.969C102.218 105.969 101.992 105.975 101.65 105.987Z" fill="#212121"/>
<path d="M76.8637 75.7809C68.7001 75.7809 62.0137 72.671 57.1933 67.5396L61.0807 63.5744C64.8126 67.6951 70.1773 70.2608 77.0192 70.2608C89.0702 70.2608 97.8558 60.931 97.8558 48.1802C97.8558 35.5072 89.0702 26.1774 77.0969 26.1774C70.566 26.1774 84.2415 22.3183 80.5096 26.4389L78.4821 24.6327C83.3025 19.579 68.9333 20.735 77.0969 20.735C92.4134 20.735 103.765 32.786 103.765 48.1802C103.765 63.6522 92.3356 75.7809 76.8637 75.7809Z" fill="#656565"/>
<path d="M31.8854 75.7809C40.049 75.7809 46.7353 72.671 51.5557 67.5396L47.6683 63.5744C43.9364 67.6951 38.5717 70.2608 31.7299 70.2608C19.6788 70.2608 10.8933 60.931 10.8933 48.1802C10.8933 35.5072 19.6788 26.1774 31.6521 26.1774C38.183 26.1774 24.5075 22.3183 28.2394 26.4389L30.2669 24.6327C25.4465 19.579 39.8157 20.735 31.6521 20.735C16.3357 20.735 4.98438 32.786 4.98438 48.1802C4.98438 63.6522 16.4134 75.7809 31.8854 75.7809Z" fill="#656565"/>
<path d="M54.7141 78.5383L29.8213 25.4312M54.7141 78.5383L78.4814 26.8809L54.7141 2M54.7141 78.5383V50.7024M29.8213 25.4312L54.7141 2M29.8213 25.4312L44.6 28.8463M54.7141 2V18.4757M54.7141 18.4757L44.6148 28.8463L54.7141 50.7164L65.0059 28.3584M54.7141 18.4757L65.0059 28.3584M65.0059 28.3584L78.4666 26.8948M54.7141 8.10523L35.9964 26.7136L54.6993 66.76L73.2245 27.1457L54.7141 8.10523ZM68.6931 28.0796L54.7141 13.9317L40.5277 27.9821L54.7141 58.6476L68.6931 28.0796Z" stroke="#656565" stroke-width="0.506876" stroke-miterlimit="10"/>
<path d="M79.2417 23.5372L54.4048 78.5333L29.8213 23.5372L54.4048 3.51562L79.2417 23.5372Z" stroke="#434343" stroke-width="5.06876"/>
<path fill-rule="evenodd" clip-rule="evenodd" d="M82.3128 22.811L54.3936 84.7307L26.7471 22.8024L30.8354 19.4883L54.4166 72.3481L78.2283 19.4883L82.3128 22.811Z" fill="#656565"/>
</svg>
