<svg width="174" height="163" viewBox="0 0 174 163" fill="none" xmlns="http://www.w3.org/2000/svg">
<path d="M23.9661 5.79446L32.1742 24.0148L4.888 26.1268C4.85631 26.1268 4.82462 26.1584 4.85631 26.2214L22.7302 53.2682L40.8892 64.0176L32.1742 41.4786V24.0148M1.94071 59.7935L22.7302 53.2997L32.1742 41.5101L59.5871 32.3999L87 25.2442L57.4321 1.22362C57.4004 1.1921 57.337 1.1921 57.3053 1.22362L32.1742 24.0463L87 40.7851V14.4948M23.5858 99.7332L40.9209 89.5828M22.7302 53.2682L10.0854 79.1171C10.0537 79.1486 10.0854 79.2117 10.1487 79.2432L68.8409 98.9451L40.8892 64.0176V120.507L74.3552 122.84L68.8092 98.9451L87.6655 112.216L74.3869 122.84L58.3828 138.286M74.3552 122.84L87.0951 163M141.826 24.0148V41.4786L133.111 64.0176L151.27 53.2682L169.175 26.1584V26.1268L141.826 24.0148ZM141.826 24.0148L150.034 5.79446M87 14.4948V40.7535L141.826 24.0148L116.695 1.1921C116.663 1.16057 116.6 1.16057 116.568 1.1921L87 25.2127L114.413 32.3684L141.826 41.4786L151.27 53.2682L172.059 59.762M133.111 89.5828L150.446 99.7332M115.649 138.286L99.6448 122.84L87.6655 112.248L105.222 98.9767L99.6765 122.871L133.111 120.538C133.142 120.538 133.142 120.507 133.142 120.475V64.0491L105.222 98.9767L163.915 79.2432C163.946 79.2432 163.978 79.1802 163.946 79.1486L151.27 53.2682M99.6448 122.84L86.9049 163M86.9049 163C85.9542 162.275 85.0351 161.518 84.1161 160.793C62.1858 143.077 41.3646 123.123 24.283 100.679C14.4588 87.7544 5.14153 73.3169 1.30689 57.3977C-3.63694 36.9393 5.77536 16.4808 23.9661 5.79446C43.8682 -5.90059 69.5064 1.69646 87 14.4948C104.494 1.69646 130.132 -5.90059 150.034 5.79446C168.225 16.4808 177.637 36.9393 172.693 57.3662C168.858 73.3169 159.541 87.7544 149.717 100.647C132.635 123.092 111.814 143.046 89.8839 160.762C88.9649 161.518 88.0141 162.243 87.0951 162.968L86.9049 163Z" stroke="url(#paint0_radial_396_1166)" stroke-miterlimit="10"/>
<defs>
<radialGradient id="paint0_radial_396_1166" cx="0" cy="0" r="1" gradientUnits="userSpaceOnUse" gradientTransform="translate(87.006 81.499) scale(86.0908 85.634)">
<stop offset="0.4078" stop-color="#D7D6D8"/>
<stop offset="1" stop-color="#838282"/>
</radialGradient>
</defs>
</svg>
