<svg width="40" height="40" viewBox="0 0 40 40" fill="none" xmlns="http://www.w3.org/2000/svg">
<path d="M30.5565 7.45906C30.1053 7.45537 29.6632 7.58538 29.2863 7.83257C28.9093 8.07976 28.6145 8.433 28.4393 8.84747C28.2641 9.26194 28.2162 9.71897 28.302 10.1605C28.3877 10.6021 28.6033 11.0083 28.921 11.3277C29.2387 11.647 29.6444 11.8651 30.0866 11.9542C30.5289 12.0433 30.9878 11.9995 31.4051 11.8282C31.8223 11.6569 32.179 11.366 32.4301 10.9923C32.6812 10.6186 32.8152 10.179 32.8152 9.72918C32.8152 9.13032 32.5779 8.55569 32.1548 8.13049C31.7318 7.7053 31.1572 7.46397 30.5565 7.45906Z" fill="#5C5D5F"/>
<path d="M20.4576 10.3613C18.5711 10.3613 16.7268 10.919 15.1582 11.9638C13.5896 13.0086 12.3671 14.4936 11.6451 16.2311C10.9231 17.9685 10.7342 19.8803 11.1022 21.7248C11.4703 23.5692 12.3787 25.2634 13.7127 26.5932C15.0467 27.923 16.7465 28.8286 18.5968 29.1955C20.4471 29.5624 22.365 29.3741 24.1079 28.6544C25.8509 27.9347 27.3407 26.716 28.3888 25.1523C29.4369 23.5887 29.9963 21.7503 29.9963 19.8698C29.9963 17.348 28.9914 14.9295 27.2026 13.1463C25.4137 11.3631 22.9875 10.3613 20.4576 10.3613ZM20.4576 25.9544C19.2504 25.9544 18.0703 25.5975 17.0665 24.929C16.0627 24.2604 15.2803 23.3101 14.8183 22.1982C14.3563 21.0864 14.2354 19.863 14.471 18.6827C14.7065 17.5024 15.2878 16.4182 16.1414 15.5673C16.9951 14.7163 18.0828 14.1368 19.2668 13.902C20.4509 13.6672 21.6782 13.7877 22.7936 14.2483C23.909 14.7088 24.8623 15.4887 25.533 16.4893C26.2037 17.4899 26.5617 18.6663 26.5617 19.8698C26.5568 21.482 25.912 23.0268 24.7684 24.1668C23.6247 25.3069 22.075 25.9495 20.4576 25.9544Z" fill="#5C5D5F"/>
<path d="M28.0369 39.1661H12.5623C9.4795 39.1612 6.52442 37.9383 4.34456 35.7654C2.16471 33.5924 0.937798 30.6467 0.932861 27.5737V12.1667C0.937798 9.09368 2.16471 6.14794 4.34456 3.97499C6.52442 1.80205 9.4795 0.57914 12.5623 0.574219H28.0369C31.1197 0.57914 34.0748 1.80205 36.2546 3.97499C38.4345 6.14794 39.6613 9.09368 39.6662 12.1667V27.5737C39.6613 30.6467 38.4345 33.5924 36.2546 35.7654C34.0748 37.9383 31.1197 39.1612 28.0369 39.1661ZM12.5623 4.20267C10.4466 4.2076 8.41927 5.04883 6.92502 6.54184C5.43076 8.03485 4.59156 10.0577 4.59157 12.1667V27.5737C4.59156 29.6826 5.43076 31.7055 6.92502 33.1985C8.41927 34.6915 10.4466 35.5328 12.5623 35.5377H28.0369C30.1558 35.5377 32.1879 34.6986 33.6862 33.2051C35.1845 31.7115 36.0263 29.6859 36.0263 27.5737V12.1667C36.0263 10.0545 35.1845 8.02882 33.6862 6.53528C32.1879 5.04174 30.1558 4.20267 28.0369 4.20267H12.5623Z" fill="#5C5D5F"/>
</svg>
