<svg width="85" height="65" viewBox="0 0 85 65" fill="none" xmlns="http://www.w3.org/2000/svg">
<path d="M1 40.1998L22.2066 34.8007C23.9292 34.3635 25.7446 34.4681 27.4057 35.1002L40.1296 39.9345C40.589 40.1073 41.0755 40.1971 41.5662 40.1998H54.3073C55.3755 40.1998 56.3999 40.6244 57.1552 41.3802C57.9105 42.1359 58.3348 43.161 58.3348 44.2298V44.2298C58.336 44.7597 58.2326 45.2847 58.0307 45.7746C57.8288 46.2646 57.5323 46.7098 57.1582 47.085C56.7841 47.4601 56.3397 47.7577 55.8505 47.9608C55.3613 48.1639 54.8369 48.2684 54.3073 48.2684H32.9296" stroke="#8DA385" stroke-width="1.3" stroke-miterlimit="10"/>
<path d="M1.71777 62.0521L12.8341 58.1676C15.0054 57.4133 17.3531 57.3298 19.5724 57.928L40.8816 63.6607C42.1524 64.0026 43.4787 64.0871 44.7826 63.9093C46.0866 63.7316 47.3419 63.295 48.475 62.6254L83.2008 42.0475L80.9177 39.3352C79.8921 38.1318 78.5017 37.2966 76.9581 36.9568C75.4145 36.617 73.8022 36.7912 72.3666 37.4528L58.3685 43.8957" stroke="#8DA385" stroke-width="1.3" stroke-miterlimit="10"/>
<path d="M19.967 13.5375L22.0117 17.6475C22.1096 17.8436 22.253 18.0131 22.4297 18.1418C22.6064 18.2705 22.8113 18.3548 23.0272 18.3874L27.5458 19.0724C27.7927 19.1129 28.0238 19.2209 28.2137 19.3846C28.4036 19.5483 28.545 19.7614 28.6224 20.0005C28.6998 20.2396 28.7103 20.4955 28.6526 20.7402C28.595 20.9848 28.4714 21.2089 28.2955 21.3877L25.0241 24.5935C24.8675 24.7481 24.7505 24.9385 24.6828 25.1484C24.6152 25.3583 24.599 25.5815 24.6356 25.7991L25.4058 30.3201C25.4433 30.5682 25.4122 30.8218 25.3161 31.0534C25.2199 31.285 25.0624 31.4855 24.8605 31.6333C24.6587 31.781 24.4204 31.8701 24.1716 31.891C23.9229 31.9119 23.6731 31.8637 23.4497 31.7517L19.4013 29.6145C19.2076 29.5136 18.9925 29.461 18.7743 29.461C18.5561 29.461 18.3411 29.5136 18.1473 29.6145L14.0784 31.7175C13.8548 31.8313 13.6043 31.8809 13.3544 31.8609C13.1045 31.8409 12.8649 31.752 12.6621 31.6041C12.4592 31.4561 12.3008 31.2547 12.2044 31.0222C12.108 30.7896 12.0773 30.5348 12.1156 30.2858L12.8925 25.7648C12.9292 25.5473 12.913 25.3241 12.8453 25.1142C12.7777 24.9043 12.6606 24.7139 12.5041 24.5592L9.23263 21.3534C9.05674 21.1746 8.9332 20.9506 8.87555 20.7059C8.8179 20.4612 8.82837 20.2053 8.90579 19.9662C8.98321 19.7271 9.12461 19.5141 9.31449 19.3503C9.50438 19.1866 9.73543 19.0786 9.98234 19.0381L14.501 18.3531C14.7168 18.3205 14.9217 18.2363 15.0984 18.1076C15.2752 17.9788 15.4185 17.8093 15.5165 17.6133L17.5611 13.5033C17.6804 13.2857 17.8563 13.1048 18.07 12.98C18.2837 12.8551 18.5272 12.7911 18.7743 12.7946C19.0215 12.7981 19.263 12.8691 19.4731 13C19.6832 13.1308 19.8539 13.3166 19.967 13.5375V13.5375Z" stroke="#8DA385" stroke-width="1.3" stroke-miterlimit="10"/>
<path d="M67.1594 13.5375L69.204 17.6475C69.302 17.8436 69.4454 18.0131 69.6221 18.1418C69.7988 18.2705 70.0037 18.3548 70.2196 18.3874L74.7382 19.0724C74.9851 19.1129 75.2162 19.2209 75.4061 19.3846C75.596 19.5483 75.7373 19.7614 75.8148 20.0005C75.8922 20.2396 75.9026 20.4955 75.845 20.7402C75.7873 20.9848 75.6638 21.2089 75.4879 21.3877L72.2165 24.5935C72.0599 24.7481 71.9428 24.9385 71.8752 25.1484C71.8076 25.3583 71.7914 25.5815 71.828 25.7991L72.5982 30.3201C72.6356 30.5682 72.6046 30.8218 72.5085 31.0534C72.4123 31.285 72.2547 31.4855 72.0529 31.6333C71.8511 31.781 71.6128 31.8701 71.364 31.891C71.1152 31.9119 70.8655 31.8637 70.6421 31.7517L66.5937 29.6145C66.4 29.5136 66.1849 29.461 65.9667 29.461C65.7485 29.461 65.5334 29.5136 65.3397 29.6145L61.2708 31.7175C61.0472 31.8313 60.7967 31.8809 60.5468 31.8609C60.2969 31.8409 60.0573 31.752 59.8544 31.6041C59.6516 31.4561 59.4932 31.2547 59.3968 31.0222C59.3004 30.7896 59.2696 30.5348 59.308 30.2858L60.0849 25.7648C60.1215 25.5473 60.1054 25.3241 60.0377 25.1142C59.9701 24.9043 59.853 24.7139 59.6965 24.5592L56.425 21.3534C56.2491 21.1746 56.1256 20.9506 56.0679 20.7059C56.0103 20.4612 56.0208 20.2053 56.0982 19.9662C56.1756 19.7271 56.317 19.5141 56.5069 19.3503C56.6968 19.1866 56.9278 19.0786 57.1747 19.0381L61.6934 18.3531C61.9092 18.3205 62.1141 18.2363 62.2908 18.1076C62.4675 17.9788 62.6109 17.8093 62.7089 17.6133L64.7535 13.5033C64.8728 13.2857 65.0487 13.1048 65.2624 12.98C65.4761 12.8551 65.7196 12.7911 65.9667 12.7946C66.2138 12.7981 66.4554 12.8691 66.6655 13C66.8756 13.1308 67.0463 13.3166 67.1594 13.5375V13.5375Z" stroke="#8DA385" stroke-width="1.3" stroke-miterlimit="10"/>
<path d="M42.9229 30.7722L42.9229 34.5176" stroke="#8DA385" stroke-width="1.3" stroke-miterlimit="10"/>
<path d="M44.5317 2.12338L47.5416 8.23258C47.6868 8.52633 47.9012 8.78033 48.1664 8.97263C48.4316 9.16493 48.7396 9.28976 49.0637 9.33635L55.802 10.3203C56.1696 10.3785 56.5141 10.5373 56.7972 10.7791C57.0802 11.021 57.291 11.3365 57.406 11.6907C57.5211 12.0449 57.536 12.4241 57.4491 12.7863C57.3622 13.1484 57.1769 13.4795 56.9136 13.7428L52.0395 18.5001C51.8068 18.7282 51.6324 19.009 51.5312 19.3188C51.43 19.6286 51.4049 19.9583 51.458 20.2798L52.6124 26.9965C52.6741 27.3669 52.6314 27.7472 52.489 28.0945C52.3466 28.4419 52.1103 28.7427 51.8065 28.9632C51.5027 29.1836 51.1436 29.3149 50.7693 29.3423C50.3951 29.3698 50.0206 29.2923 49.688 29.1185L43.6595 25.9527C43.3706 25.8013 43.0493 25.7222 42.7231 25.7222C42.397 25.7222 42.0757 25.8013 41.7868 25.9527L35.7583 29.1185C35.4256 29.2923 35.0512 29.3698 34.677 29.3423C34.3027 29.3149 33.9435 29.1836 33.6398 28.9632C33.336 28.7427 33.0996 28.4419 32.9573 28.0945C32.8149 27.7472 32.7722 27.3669 32.8338 26.9965L33.9882 20.2798C34.0414 19.9583 34.0163 19.6286 33.9151 19.3188C33.8138 19.009 33.6395 18.7282 33.4067 18.5001L28.5327 13.7428C28.2694 13.4795 28.0841 13.1484 27.9972 12.7863C27.9103 12.4241 27.9252 12.0449 28.0402 11.6907C28.1553 11.3365 28.366 11.021 28.6491 10.7791C28.9322 10.5373 29.2766 10.3785 29.6443 10.3203L36.3825 9.33635C36.7072 9.29119 37.0158 9.1669 37.2812 8.97444C37.5466 8.78198 37.7607 8.52723 37.9046 8.23258L40.9146 2.12338C41.0815 1.78609 41.3392 1.50218 41.6588 1.30368C41.9784 1.10518 42.347 1 42.7231 1C43.0993 1 43.4679 1.10518 43.7875 1.30368C44.107 1.50218 44.3648 1.78609 44.5317 2.12338V2.12338Z" stroke="#8DA385" stroke-width="1.3" stroke-miterlimit="10"/>
<path d="M36.1814 6.80152L32.0615 3.05615" stroke="#8DA385" stroke-width="1.3" stroke-miterlimit="10"/>
<path d="M50.0391 6.80152L53.7844 3.05615" stroke="#8DA385" stroke-width="1.3" stroke-miterlimit="10"/>
</svg>
