<svg width="107" height="184" viewBox="0 0 107 184" fill="none" xmlns="http://www.w3.org/2000/svg">
<path d="M92.056 176.132C93.3085 172.788 93.7313 169.2 93.2892 165.664C92.8472 162.127 91.5531 158.746 89.5141 155.798L62.0931 116.096V80.1997H34.6721V116.096L6.07545 157.7C4.44414 160.061 3.40884 162.768 3.05522 165.599C2.70161 168.43 3.03979 171.303 4.04186 173.98V173.98C4.96665 176.459 6.64525 178.6 8.85034 180.111C11.0554 181.623 13.6805 182.433 16.3702 182.432H83.0957C85.0611 182.387 86.9672 181.762 88.5654 180.638C90.1636 179.514 91.38 177.944 92.056 176.132V176.132Z" stroke="#8DA385" stroke-width="2.41897" stroke-miterlimit="10"/>
<path d="M37.1512 53.9409C32.7706 43.5445 27.0811 33.7272 20.2156 24.7183" stroke="#8DA385" stroke-width="2.41897" stroke-miterlimit="10"/>
<path d="M37.2122 54.0635C39.5528 59.5878 41.5269 65.255 43.1221 71.0295C44.0436 74.1482 44.7744 77.2669 45.3781 80.1986C47.1892 88.2909 48.1053 96.5514 48.1107 104.837" stroke="#8DA385" stroke-width="2.41897" stroke-miterlimit="10"/>
<path d="M2.76855 1.7627C2.76855 1.7627 2.76855 1.7627 2.76855 2.01097" stroke="#8DA385" stroke-width="2.41897" stroke-miterlimit="10"/>
<path d="M37.6565 53.8767L37.2117 54.0638C37.2117 54.0638 -5.96927 59.8647 2.80037 2.13672C60.4703 17.2626 37.6565 53.8767 37.6565 53.8767Z" stroke="#8DA385" stroke-width="2.41897" stroke-miterlimit="10"/>
<path d="M82.6819 43.9277C73.4494 46.7498 64.8834 51.3514 57.4851 57.4631" stroke="#8DA385" stroke-width="2.41897" stroke-miterlimit="10"/>
<path d="M43.1201 71.0923C47.406 66.217 52.139 61.7384 57.2596 57.7129" stroke="#8DA385" stroke-width="2.41897" stroke-miterlimit="10"/>
<path d="M105.05 37.7539C80.933 83.693 60.5658 61.7995 57.3884 57.6515L57.6108 57.4956C57.6108 57.4956 50.9065 20.6008 105.05 37.7539Z" stroke="#8DA385" stroke-width="2.41897" stroke-miterlimit="10"/>
<path d="M105.938 38.0633L104.921 37.7529" stroke="#8DA385" stroke-width="2.41897" stroke-miterlimit="10"/>
<path d="M105.27 37.3457L105.048 37.7513" stroke="#8DA385" stroke-width="2.41897" stroke-miterlimit="10"/>
<path d="M57.2635 57.6212L56.7866 57.0278" stroke="#8DA385" stroke-width="2.41897" stroke-miterlimit="10"/>
<path d="M48.1419 116.129C49.2299 116.129 50.1119 115.262 50.1119 114.194C50.1119 113.126 49.2299 112.26 48.1419 112.26C47.0539 112.26 46.1719 113.126 46.1719 114.194C46.1719 115.262 47.0539 116.129 48.1419 116.129Z" stroke="#8DA385" stroke-width="2.41897" stroke-miterlimit="10"/>
</svg>
