<svg width="26" height="21" viewBox="0 0 26 21" fill="none" xmlns="http://www.w3.org/2000/svg">
<path d="M25.242 11.6381L17.2073 19.6724C16.799 20.0666 16.2132 20.2166 15.6658 20.0666C15.1187 19.9163 14.6911 19.4887 14.5408 18.9416C14.3908 18.3942 14.5408 17.8083 14.9351 17.4001L20.2272 12.1076H1.60713C1.03279 12.1076 0.502236 11.8013 0.215244 11.3041C-0.071748 10.8068 -0.071748 10.1941 0.215244 9.6969C0.502236 9.19969 1.03281 8.89332 1.60713 8.89332H20.2272L14.9347 3.60081C14.539 3.19293 14.3883 2.6064 14.5383 2.05822C14.6879 1.5097 15.1162 1.08134 15.6648 0.931742C16.2129 0.781789 16.7994 0.932459 17.2073 1.32851L25.2417 9.36282C25.5423 9.66488 25.7113 10.0738 25.7113 10.5004C25.7113 10.9266 25.5426 11.336 25.242 11.6381Z" fill="#959595"/>
</svg>
