<svg width="38" height="38" viewBox="0 0 38 38" fill="none" xmlns="http://www.w3.org/2000/svg">
<path d="M0.69763 12.9337H8.46053V37.8165H0.69763V12.9337ZM4.56537 0.574303C5.45512 0.574303 6.32488 0.837287 7.06467 1.33004C7.80447 1.82279 8.38105 2.52315 8.72154 3.34256C9.06203 4.16197 9.15115 5.06365 8.97757 5.93353C8.80399 6.80342 8.37553 7.60245 7.74638 8.2296C7.11724 8.85676 6.31566 9.28386 5.44301 9.45689C4.57036 9.62993 3.66581 9.54109 2.84379 9.20167C2.02178 8.86226 1.31919 8.28751 0.824872 7.55006C0.330555 6.81261 0.0667351 5.9456 0.0667351 5.05868C0.0630932 4.46877 0.176962 3.88397 0.40175 3.33826C0.626538 2.79255 0.957776 2.2968 1.37624 1.87966C1.7947 1.46252 2.29208 1.13233 2.83952 0.908256C3.38697 0.684181 3.97358 0.570673 4.56537 0.574303Z" fill="#5B5B5B"/>
<path d="M13.2891 12.9331H20.7502V16.3238C21.5017 15.0585 22.5806 14.0178 23.8739 13.3107C25.1672 12.6035 26.6274 12.2559 28.1017 12.3042C35.9469 12.3042 37.4007 17.4722 37.4007 24.1714V37.8433H29.6652V25.5933C29.6652 22.8589 29.6652 19.0034 25.6329 19.0034C21.6006 19.0034 20.9697 22.148 20.9697 25.4019V37.7066H13.2068L13.2891 12.9331Z" fill="#5C5D5F"/>
</svg>
