<svg width="113" height="204" viewBox="0 0 113 204" fill="none" xmlns="http://www.w3.org/2000/svg">
<path d="M56.5 202.887C41.6363 194.72 -0.520523 165.033 0.881016 100.545C2.28256 36.0579 56.5 1 56.5 1M0.844134 98.2278L16.7405 76.0453V44.6293M18.1421 42.2381L41.0831 28.5166L32.9689 22.1893M56.5 171.029L71.9907 148.332L84.5308 101.98L72.9128 57.2472L55.8361 35.359L69.9622 29.6938L56.5369 1M41.0831 28.4798L39.9766 57.5415L26.8833 99.6257L18.1421 127.768L13.8268 158.963L41.8945 176.4L56.4631 171.029L39.0176 148.332L41.8945 176.4L31.1985 183.058M41.9314 176.363L56.5 202.85C71.3637 194.683 113.521 164.996 112.119 100.509C110.717 36.0211 56.5 1 56.5 1L41.0831 28.4798L55.7992 35.359L39.9397 57.5415L16.7037 76.0821L26.8464 99.6257L39.0176 148.295L18.1052 127.731L0.807251 103.084M56.5 202.887L69.4458 175.811L56.5 171.029M80.0311 22.1525L69.9253 29.6938L72.9128 57.2472L95.0792 76.6339L96.2963 44.6293L69.9622 29.6938M112.156 102.716L94.194 126.738L71.9907 148.332L69.4458 175.848L81.3589 183.537M112.119 100.545L95.0792 76.6707L84.5308 101.98L94.194 126.774L98.3249 160.508L69.4458 175.848" stroke="url(#paint0_radial_396_1193)" stroke-miterlimit="10"/>
<defs>
<radialGradient id="paint0_radial_396_1193" cx="0" cy="0" r="1" gradientUnits="userSpaceOnUse" gradientTransform="translate(56.5054 101.897) scale(72.2285 88.1345)">
<stop offset="0.4078" stop-color="#D7D6D8"/>
<stop offset="1" stop-color="#838282"/>
</radialGradient>
</defs>
</svg>
