<svg width="137" height="195" viewBox="0 0 137 195" fill="none" xmlns="http://www.w3.org/2000/svg">
<path d="M68.4969 194.452C105.781 194.452 135.994 151.154 135.994 97.7438C135.994 44.3339 105.781 1 68.4969 1M68.4969 194.452C31.2126 194.452 1 151.154 1 97.7438C1 44.3339 31.2126 1 68.4969 1M68.4969 194.452L46.8615 168.452M68.4969 194.452V163.097M68.4969 194.452L90.1323 168.452L101.265 182.298M68.4969 1L46.8615 26.2253M68.4969 1V31.7213M68.4969 1L90.1323 26.2253M68.4969 31.7213L46.8615 26.2253M68.4969 31.7213L1 96.8279L68.4969 163.097M68.4969 31.7213L90.0973 26.2253M68.4969 31.7213L135.994 96.8279L68.4969 163.097M46.8615 26.2253L35.9737 12.9432M46.8615 26.2253L14.4084 39.8244L46.8615 168.452M46.8615 26.2253L14.4084 155.628L46.8615 168.452M46.8615 168.452L68.4969 163.097M46.8615 168.452L35.7287 182.298M68.4969 163.097L90.0973 168.452M23.3706 75.2666L3.94073 66.8112M23.6157 119.023L4.25581 127.443M90.0973 26.2253L100.985 12.9432M90.0973 26.2253L122.55 39.8244L90.0973 168.452M90.0973 26.2253L122.55 155.628L90.0973 168.452M113.623 75.2666L133.053 66.8112M132.738 127.443L113.378 119.023" stroke="url(#paint0_radial_396_1170)" stroke-miterlimit="10"/>
<defs>
<radialGradient id="paint0_radial_396_1170" cx="0" cy="0" r="1" gradientUnits="userSpaceOnUse" gradientTransform="translate(74.4878 97.7875) scale(86.8206 87.3714)">
<stop offset="0.4078" stop-color="#D7D6D8"/>
<stop offset="1" stop-color="#838282"/>
</radialGradient>
</defs>
</svg>
