<svg width="125" height="195" viewBox="0 0 125 195" fill="none" xmlns="http://www.w3.org/2000/svg">
<path d="M47.2826 70.3157L32.253 107.504M35.6722 145.881L32.2154 107.542M35.6722 145.881L62.5 161.32M122.844 102.086L122.881 102.049L122.844 102.012M62.5 51.4245L47.245 70.3157V33.4239L62.5 51.4245ZM39.3169 17.3163L47.2826 33.4239L62.5 -9.96289C61.8613 -9.36905 51.4157 0.763202 39.3169 17.3163ZM39.3169 17.3163C33.4554 25.333 27.2181 34.8343 21.5444 45.4861L47.2826 33.4239L39.3169 17.3163ZM21.5444 45.4861C16.6974 54.505 12.2636 64.3403 8.73169 74.8437L25.8278 82.9347L21.5444 45.4861ZM8.73169 74.8066C5.80092 83.4914 3.50891 92.5844 2.19382 102.012L25.8654 82.9347L8.73169 74.8066ZM2.19382 102.049C0.690864 112.626 0.427846 123.575 1.78051 134.746L2.19382 134.709L18.05 130.441L2.19382 102.049ZM2.19382 134.709L1.78051 134.746C2.0811 137.122 2.41927 139.46 2.87015 141.835C2.87015 141.872 2.90773 141.872 2.90773 141.947C3.69678 146.141 4.6737 150.335 5.98879 154.566C7.60447 159.019 9.78376 163.25 12.3764 167.147L18.05 130.441L2.19382 134.709ZM12.3388 167.147C18.0876 175.758 26.0533 182.81 35.4468 187.449L42.3228 169.337L12.3388 167.147ZM42.3228 169.337L35.4844 187.449C43.6003 191.495 52.8435 193.758 62.5376 193.758L42.3228 169.337ZM82.7148 169.337L62.5 193.758C72.1941 193.758 81.3997 191.495 89.5533 187.449L82.7148 169.337ZM82.7148 169.337L89.5909 187.449C92.3338 186.076 95.0015 184.48 97.4814 182.736C103.456 178.504 108.641 173.234 112.736 167.147L82.7148 169.337ZM122.844 134.709L106.988 130.441L112.661 167.147C115.254 163.288 117.433 159.056 119.049 154.566C120.326 150.335 121.341 146.141 122.13 141.947V141.835C122.581 139.46 122.919 137.122 123.22 134.746L122.844 134.709ZM122.844 102.086L107.025 130.441L122.881 134.709L123.257 134.746C124.61 123.575 124.347 112.626 122.844 102.086ZM92.8222 107.542L89.3654 145.881L107.025 130.441L92.8222 107.542ZM116.268 74.8066L99.1722 82.8975L122.806 101.974C121.491 92.5844 119.237 83.4914 116.268 74.8066ZM103.493 45.4861L99.1722 82.9347L116.268 74.8437C112.774 64.3403 108.34 54.505 103.493 45.4861ZM77.7551 70.3157L92.7846 107.504L99.1722 82.8975L77.7551 70.3157ZM62.5 51.4245L77.7551 70.3157V33.4239L62.5 51.4245ZM77.7551 70.3157L62.5 51.4245L47.245 70.3157L25.8278 82.8975L32.2154 107.504L18.0125 130.404L35.6722 145.844L42.3228 169.3L62.5 161.283L89.3279 145.844L92.7846 107.504L77.7551 70.3157ZM85.7207 17.3163L77.7551 33.3868L103.493 45.449C97.782 34.8343 91.5447 25.333 85.7207 17.3163ZM21.5444 45.4861L25.8654 82.9347L47.2826 70.3529V33.4239L21.5444 45.4861ZM25.8278 82.9347L2.15625 102.012V102.049L18.0125 130.441L32.2154 107.542L25.8278 82.9347ZM35.6722 145.881L18.0125 130.441L12.3388 167.147L42.3228 169.337L35.6722 145.881ZM62.5376 -9.96289L62.5 -10V-9.96289L47.2826 33.4239L62.5376 51.4616L77.7926 33.4239L62.5376 -9.96289ZM62.5376 -9.96289L77.7551 33.3868L85.7207 17.3163C73.6219 0.763202 63.1764 -9.36905 62.5376 -9.96289ZM77.7551 33.4239V70.3529L99.1722 82.9347L103.493 45.4861L77.7551 33.4239ZM122.806 102.012L99.1722 82.9347L92.7846 107.542L106.988 130.441L122.806 102.086C122.844 102.049 122.844 102.012 122.806 102.012ZM62.5 161.32L82.6773 169.337L89.3279 145.881L62.5 161.32ZM107.025 130.404L89.3654 145.844L82.7148 169.3L112.699 167.11L107.025 130.404ZM62.5 161.32L42.3228 169.337L62.5 193.796L82.6773 169.337L62.5 161.32Z" stroke="url(#paint0_radial_396_1191)" stroke-miterlimit="10"/>
<defs>
<radialGradient id="paint0_radial_396_1191" cx="0" cy="0" r="1" gradientUnits="userSpaceOnUse" gradientTransform="translate(62.5053 90.1991) scale(88.4863 87.4042)">
<stop offset="0.4078" stop-color="#D7D6D8"/>
<stop offset="1" stop-color="#838282"/>
</radialGradient>
</defs>
</svg>
