<svg width="176" height="171" viewBox="0 0 176 171" fill="none" xmlns="http://www.w3.org/2000/svg">
<path d="M44.507 128.468L22.6368 128.891V43.0967H44.507L87.9647 32.443M131.175 21.7539C102.274 21.7539 73.4081 21.7539 44.507 21.7539M131.458 128.468C138.736 128.609 146.05 128.75 153.328 128.891C153.328 100.281 153.328 71.7066 153.328 43.0967M44.507 128.468L87.9647 139.122L131.422 128.468M44.507 21.7539L87.9647 32.4077L131.422 21.7539M88 32.443L131.458 43.0967H153.328M1.47323 169.848C1.26124 169.954 1.01392 169.707 1.11992 169.495L22.6368 128.891L44.507 43.0967V21.7539L1.50856 1.11669C1.26124 1.01086 1.01392 1.2578 1.15525 1.46946L22.6721 43.0967L44.5423 128.468V150.234L1.47323 169.848ZM173.926 170.166C174.668 170.518 175.445 169.707 175.057 168.966L153.328 128.891L131.458 43.0967V21.7539L175.057 0.834471C175.092 0.799193 175.163 0.869748 175.127 0.905025L153.328 43.0967L131.458 128.468V150.234L173.926 170.166ZM175.233 170.166V0.763916H0.766602V170.166H175.233ZM130.963 150.093L88 139.122L44.613 150.163C44.613 150.163 44.613 150.163 44.613 150.199H130.963C130.963 150.199 130.963 150.128 130.963 150.093Z" stroke="url(#paint0_radial_396_1168)" stroke-miterlimit="10"/>
<defs>
<radialGradient id="paint0_radial_396_1168" cx="0" cy="0" r="1" gradientUnits="userSpaceOnUse" gradientTransform="translate(87.9926 85.4976) scale(87.8192 87.6846)">
<stop offset="0.4078" stop-color="#D7D6D8"/>
<stop offset="1" stop-color="#838282"/>
</radialGradient>
</defs>
</svg>
