<svg width="26" height="20" viewBox="0 0 26 20" fill="none" xmlns="http://www.w3.org/2000/svg">
<path d="M0.469456 10.7633L8.50413 18.7976C8.91238 19.1919 9.49818 19.3418 10.0456 19.1919C10.5927 19.0416 11.0203 18.6139 11.1706 18.0669C11.3206 17.5194 11.1706 16.9336 10.7764 16.5254L5.48424 11.2329H24.1043C24.6786 11.2329 25.2092 10.9265 25.4962 10.4293C25.7832 9.93208 25.7832 9.31935 25.4962 8.82214C25.2092 8.32493 24.6786 8.01856 24.1043 8.01856H5.48424L10.7767 2.72606C11.1724 2.31817 11.3231 1.73164 11.1731 1.18346C11.0236 0.634947 10.5952 0.206589 10.0467 0.0569858C9.49851 -0.0929664 8.91202 0.057703 8.50408 0.453751L0.469765 8.48806C0.169144 8.79012 0.000175476 9.19909 0.000175476 9.62565C0.000175476 10.0518 0.168826 10.4612 0.469456 10.7633Z" fill="#959595"/>
</svg>
