<svg width="21" height="14" viewBox="0 0 21 14" fill="none" xmlns="http://www.w3.org/2000/svg">
<path d="M18.6772 0.931485C18.5441 1.00032 16.0982 3.23062 7.85613 10.7889L7.42935 11.1835L4.78144 8.54021C3.32669 7.08546 2.0601 5.86018 1.97291 5.81428C1.86736 5.75921 1.71133 5.73168 1.514 5.72709C0.922006 5.72709 0.527344 6.12175 0.527344 6.71375C0.531933 6.91108 0.559467 7.06711 0.614537 7.17266C0.729264 7.39293 6.62167 13.2991 6.88324 13.4505C7.17236 13.6203 7.60373 13.6249 7.87449 13.4597C7.98004 13.3955 10.7381 10.8944 14.0055 7.89773C18.1082 4.13009 19.9713 2.39541 20.0218 2.28068C20.2742 1.75293 20.0769 1.17471 19.5629 0.913129C19.3564 0.812169 18.8837 0.816758 18.6772 0.931485Z" fill="white"/>
</svg>
