<svg width="59" height="61" viewBox="0 0 59 61" fill="none" xmlns="http://www.w3.org/2000/svg">
<path d="M13.5791 11.1743H48.0614" stroke="#8DA385" stroke-width="1.3" stroke-miterlimit="10"/>
<path d="M19.3535 1L25.0252 11.1739L31.2517 1" stroke="#8DA385" stroke-width="1.3" stroke-miterlimit="10"/>
<path d="M30.8203 1L36.492 11.1739L42.7185 1" stroke="#8DA385" stroke-width="1.3" stroke-miterlimit="10"/>
<path d="M25.0252 11.1739L30.9435 28.9074L48.0614 11.1739L42.2869 1H19.3535L13.5791 11.1739L31.1696 29.3938" stroke="#8DA385" stroke-width="1.3" stroke-miterlimit="10"/>
<path d="M36.4918 11.1743L30.9434 28.9078" stroke="#8DA385" stroke-width="1.3" stroke-miterlimit="10"/>
<path d="M14.2577 60.3414V54.2614C14.2578 52.3809 13.5216 50.573 12.2028 49.2149L3.51029 40.2165C2.11407 38.7835 1.33359 36.8737 1.33203 34.8863V5.66162C1.33203 5.66162 6.88042 6.53309 6.88042 9.43124V22.706C6.88886 24.1263 7.26368 25.5212 7.96956 26.7593L14.2577 37.9061" stroke="#8DA385" stroke-width="1.3" stroke-miterlimit="10"/>
<path d="M29.2593 60.3415C29.2593 60.3415 29.5881 46.4993 28.1291 42.6283C27.1016 39.9734 22.6218 35.7984 19.9092 33.4475C18.5955 32.3235 17.532 30.9434 16.7857 29.3941C15.1211 25.8069 11.5455 19.5647 7.41504 20.9429" stroke="#8DA385" stroke-width="1.3" stroke-miterlimit="10"/>
<path d="M44.8145 60.3414V54.2614C44.8144 52.3809 45.5506 50.573 46.8694 49.2149L55.5619 40.2165C57.0106 38.7846 57.8299 36.8482 57.8429 34.8255V5.66162C57.8429 5.66162 52.2945 6.53309 52.2945 9.43124V22.706C52.2861 24.1263 51.9113 25.5212 51.2054 26.7593L44.9172 37.9061" stroke="#8DA385" stroke-width="1.3" stroke-miterlimit="10"/>
<path d="M29.8149 60.3415C29.8149 60.3415 29.4861 46.4993 30.9452 42.6283C31.9727 39.9734 36.4525 35.7984 39.165 33.4475C40.4787 32.3235 41.5422 30.9434 42.2886 29.3941C43.9531 25.8069 47.5287 19.5647 51.6592 20.9429" stroke="#8DA385" stroke-width="1.3" stroke-miterlimit="10"/>
</svg>
