<svg width="159" height="164" viewBox="0 0 159 164" fill="none" xmlns="http://www.w3.org/2000/svg">
<path d="M35.1797 29.186H129.918" stroke="#8DA385" stroke-width="2.41897" stroke-miterlimit="10"/>
<path d="M51.0464 1.32129L66.629 29.185L83.7361 1.32129" stroke="#8DA385" stroke-width="2.41897" stroke-miterlimit="10"/>
<path d="M82.5518 1.32129L98.1344 29.185L115.241 1.32129" stroke="#8DA385" stroke-width="2.41897" stroke-miterlimit="10"/>
<path d="M66.6273 29.185L82.8875 77.7521L129.918 29.185L114.053 1.32129H51.0446L35.1797 29.185L83.5085 79.0843" stroke="#8DA385" stroke-width="2.41897" stroke-miterlimit="10"/>
<path d="M98.1343 29.186L82.8904 77.7532" stroke="#8DA385" stroke-width="2.41897" stroke-miterlimit="10"/>
<path d="M37.0446 163.841V147.19C37.0447 142.04 35.0221 137.088 31.3988 133.369L7.51661 108.724C3.68059 104.8 1.53627 99.5694 1.53198 94.1266V14.0879C1.53198 14.0879 16.7759 16.4746 16.7759 24.4119V60.7679C16.7991 64.6579 17.8289 68.4781 19.7682 71.8689L37.0446 102.397" stroke="#8DA385" stroke-width="2.41897" stroke-miterlimit="10"/>
<path d="M78.2607 163.843C78.2607 163.843 79.1641 125.932 75.1555 115.331C72.3325 108.06 60.0245 96.6256 52.5719 90.187C48.9625 87.1087 46.0406 83.329 43.9901 79.0859C39.417 69.2615 29.5931 52.1658 18.2449 55.9402" stroke="#8DA385" stroke-width="2.41897" stroke-miterlimit="10"/>
<path d="M120.997 163.841V147.19C120.997 142.04 123.02 137.088 126.643 133.369L150.525 108.724C154.505 104.803 156.756 99.4997 156.792 93.9601V14.0879C156.792 14.0879 141.548 16.4746 141.548 24.4119V60.7679C141.525 64.6579 140.495 68.4781 138.556 71.8689L121.279 102.397" stroke="#8DA385" stroke-width="2.41897" stroke-miterlimit="10"/>
<path d="M79.7835 163.843C79.7835 163.843 78.8802 125.932 82.8887 115.331C85.7117 108.06 98.0197 96.6256 105.472 90.187C109.082 87.1087 112.004 83.329 114.054 79.0859C118.627 69.2615 128.451 52.1658 139.799 55.9402" stroke="#8DA385" stroke-width="2.41897" stroke-miterlimit="10"/>
</svg>
