<svg width="46" height="38" viewBox="0 0 46 38" fill="none" xmlns="http://www.w3.org/2000/svg">
<path d="M44.9403 4.94724C43.4439 5.56944 41.8743 5.99971 40.2692 6.22771C40.9932 6.11131 42.0676 4.78427 42.6047 4.2488C43.2717 3.43107 43.786 2.50059 44.1229 1.50163C44.1229 1.50163 44.1229 1.31537 44.1229 1.26881C44.0883 1.24579 44.0476 1.2335 44.006 1.2335C43.9644 1.2335 43.9238 1.24579 43.8892 1.26881C42.1754 2.17331 40.3553 2.86153 38.4708 3.31756C38.414 3.35026 38.3497 3.36748 38.2841 3.36748C38.2185 3.36748 38.154 3.35026 38.0972 3.31756C37.9597 3.13823 37.803 2.97429 37.6301 2.82864C36.8477 2.16619 35.9648 1.63184 35.0143 1.24554C33.7424 0.726643 32.3686 0.503703 30.9973 0.59367C29.669 0.691804 28.3741 1.05603 27.1903 1.66458C26.0064 2.28188 24.9645 3.13819 24.1308 4.17896C23.2516 5.24592 22.6212 6.49445 22.2857 7.83412C22.0402 9.11073 22.0402 10.4222 22.2857 11.6988C22.2857 11.9083 22.2856 11.9549 22.0988 11.9083C14.9644 11.21 8.34594 7.8905 3.5315 2.59585C3.3213 2.33976 3.20445 2.33976 3.01761 2.59585C2.03862 4.36989 1.6664 6.41362 1.95719 8.4175C2.24798 10.4214 3.18594 12.2762 4.62912 13.701C4.98917 14.0582 5.37137 14.3926 5.77351 14.7021C4.52032 14.6069 3.29823 14.2667 2.17685 13.701C1.96666 13.5613 1.84985 13.701 1.84985 13.8872C1.81549 14.2356 1.81549 14.5865 1.84985 14.9349C2.0664 16.6008 2.72335 18.1795 3.75345 19.5091C4.78354 20.8386 6.14976 21.8713 7.71203 22.5012C8.09335 22.6707 8.49306 22.7957 8.90317 22.8737C7.74944 23.1014 6.56627 23.1407 5.39989 22.9902C5.14298 22.9902 5.04959 22.9902 5.14301 23.2928C5.73897 24.8659 6.73085 26.2596 8.02336 27.3401C9.31586 28.4206 10.8655 29.1514 12.5232 29.4623C12.8502 29.4623 13.2005 29.4623 13.5275 29.602C13.8544 29.7417 13.5275 29.602 13.5275 29.602C12.0985 30.8854 10.3737 31.7971 8.50617 32.2561C6.05212 33.124 3.43985 33.4574 0.84559 33.2339C0.425196 33.2339 0.331753 33.2339 0.238332 33.2339C0.144911 33.2339 0.238303 33.3969 0.35508 33.5133C0.868894 33.8392 1.40619 34.1651 1.94336 34.4445C3.56888 35.3099 5.28386 35.9969 7.05816 36.4933C11.6243 37.8671 16.4726 38.0203 21.1169 36.9375C25.7612 35.8546 30.0383 33.5738 33.5195 30.3237C36.0337 27.6142 37.978 24.4301 39.2376 20.9594C40.4971 17.4886 41.0464 13.8015 40.8531 10.1157C40.8531 9.83629 41.2034 9.67334 41.3902 9.51037C42.7798 8.45926 44.0006 7.20316 45.0104 5.78536C45.1669 5.57752 45.249 5.32347 45.2439 5.06365C45.1271 4.73772 45.1271 4.78427 44.9403 4.94724Z" fill="#5C5D5F"/>
</svg>
