<svg width="30" height="30" viewBox="0 0 30 30" fill="none" xmlns="http://www.w3.org/2000/svg">
<path d="M26.5716 14.4525C27.1641 15.2275 27.1641 16.2738 26.5716 17.0475C24.7054 19.4838 20.2279 24.5 15.0004 24.5C9.77288 24.5 5.29538 19.4838 3.42913 17.0475C3.14086 16.6764 2.98438 16.2199 2.98438 15.75C2.98438 15.2801 3.14086 14.8236 3.42913 14.4525C5.29538 12.0163 9.77288 7 15.0004 7C20.2279 7 24.7054 12.0163 26.5716 14.4525V14.4525Z" stroke="#1877F2" stroke-width="1.3125" stroke-linecap="round" stroke-linejoin="round"/>
<path d="M15.002 19.5039C17.073 19.5039 18.752 17.825 18.752 15.7539C18.752 13.6828 17.073 12.0039 15.002 12.0039C12.9309 12.0039 11.252 13.6828 11.252 15.7539C11.252 17.825 12.9309 19.5039 15.002 19.5039Z" stroke="#1877F2" stroke-width="1.3125" stroke-linecap="round" stroke-linejoin="round"/>
</svg>
