<svg width="10" height="6" viewBox="0 0 10 6" fill="none" xmlns="http://www.w3.org/2000/svg">
<path d="M9.40754 0.454641C9.33045 0.377388 9.23887 0.316098 9.13806 0.274281C9.03725 0.232463 8.92918 0.210937 8.82004 0.210937C8.7109 0.210937 8.60283 0.232463 8.50202 0.274281C8.40121 0.316098 8.30964 0.377388 8.23254 0.454641L4.99921 3.68797L1.76587 0.454641C1.61006 0.298826 1.39873 0.21129 1.17837 0.21129C0.958018 0.21129 0.746687 0.298826 0.590872 0.454641C0.435058 0.610455 0.347523 0.821786 0.347523 1.04214C0.347523 1.2625 0.435058 1.47383 0.590872 1.62964L4.41587 5.45464C4.49297 5.5319 4.58454 5.59319 4.68535 5.635C4.78616 5.67682 4.89423 5.69835 5.00337 5.69835C5.11251 5.69835 5.22058 5.67682 5.32139 5.635C5.42221 5.59319 5.51378 5.5319 5.59087 5.45464L9.41588 1.62964C9.73254 1.31297 9.73254 0.779641 9.40754 0.454641Z" fill="#C5C5C5"/>
</svg>
