<svg width="21" height="20" viewBox="0 0 21 20" fill="none" xmlns="http://www.w3.org/2000/svg">
<path d="M12.7358 9.63343L19.5442 2.84093C19.8423 2.54278 20.0098 2.13841 20.0098 1.71676C20.0098 1.29512 19.8423 0.890746 19.5442 0.592598C19.246 0.294451 18.8416 0.126953 18.42 0.126953C17.9983 0.126953 17.594 0.294451 17.2958 0.592598L10.5033 7.40093L3.71082 0.592598C3.41267 0.294451 3.0083 0.126953 2.58665 0.126953C2.16501 0.126953 1.76064 0.294451 1.46249 0.592598C1.16434 0.890746 0.996843 1.29512 0.996843 1.71676C0.996843 2.13841 1.16434 2.54278 1.46249 2.84093L8.27082 9.63343L1.46249 16.4259C1.31408 16.5731 1.19629 16.7482 1.11591 16.9412C1.03553 17.1341 0.994141 17.3411 0.994141 17.5501C0.994141 17.7591 1.03553 17.9661 1.11591 18.159C1.19629 18.352 1.31408 18.5271 1.46249 18.6743C1.60968 18.8227 1.7848 18.9405 1.97774 19.0208C2.17069 19.1012 2.37764 19.1426 2.58665 19.1426C2.79567 19.1426 3.00262 19.1012 3.19557 19.0208C3.38851 18.9405 3.56363 18.8227 3.71082 18.6743L10.5033 11.8659L17.2958 18.6743C17.443 18.8227 17.6181 18.9405 17.8111 19.0208C18.004 19.1012 18.211 19.1426 18.42 19.1426C18.629 19.1426 18.836 19.1012 19.0289 19.0208C19.2218 18.9405 19.397 18.8227 19.5442 18.6743C19.6926 18.5271 19.8103 18.352 19.8907 18.159C19.9711 17.9661 20.0125 17.7591 20.0125 17.5501C20.0125 17.3411 19.9711 17.1341 19.8907 16.9412C19.8103 16.7482 19.6926 16.5731 19.5442 16.4259L12.7358 9.63343Z" fill="#2B1F0C"/>
</svg>
