<svg width="21" height="21" viewBox="0 0 21 21" fill="none" xmlns="http://www.w3.org/2000/svg">
<path d="M7.0552 0H2.3628C1.05996 0 0 1.05996 0 2.3628V7.0552C0 8.35804 1.05996 9.418 2.3628 9.418H7.0552C8.35804 9.418 9.418 8.35804 9.418 7.0552V2.3628C9.418 1.05996 8.35804 0 7.0552 0ZM7.82173 7.0552C7.82173 7.47786 7.47786 7.82173 7.0552 7.82173H2.3628C1.94015 7.82173 1.59627 7.47786 1.59627 7.0552V2.3628C1.59627 1.94015 1.94015 1.59627 2.3628 1.59627H7.0552C7.47786 1.59627 7.82173 1.94015 7.82173 2.3628V7.0552Z" fill="#2B1F0C"/>
<path d="M18.0382 0H13.4091C12.0888 0 11.0146 1.07413 11.0146 2.39441V7.0236C11.0146 8.34387 12.0888 9.418 13.4091 9.418H18.0382C19.3585 9.418 20.4327 8.34387 20.4327 7.0236V2.39441C20.4327 1.07413 19.3585 0 18.0382 0ZM18.8364 7.0236C18.8364 7.46369 18.4783 7.82173 18.0382 7.82173H13.4091C12.969 7.82173 12.6109 7.46369 12.6109 7.0236V2.39441C12.6109 1.95432 12.969 1.59627 13.4091 1.59627H18.0382C18.4783 1.59627 18.8364 1.95432 18.8364 2.39441V7.0236Z" fill="#2B1F0C"/>
<path d="M7.0552 11.0142H2.3628C1.05996 11.0142 0 12.0741 0 13.377V18.0694C0 19.3722 1.05996 20.4322 2.3628 20.4322H7.0552C8.35804 20.4322 9.418 19.3722 9.418 18.0694V13.377C9.418 12.0741 8.35804 11.0142 7.0552 11.0142ZM7.82173 18.0694C7.82173 18.492 7.47786 18.8359 7.0552 18.8359H2.3628C1.94015 18.8359 1.59627 18.492 1.59627 18.0694V13.377C1.59627 12.9543 1.94015 12.6104 2.3628 12.6104H7.0552C7.47786 12.6104 7.82173 12.9543 7.82173 13.377V18.0694Z" fill="#2B1F0C"/>
<path d="M18.0382 11.0142H13.4091C12.0888 11.0142 11.0146 12.0883 11.0146 13.4086V18.0378C11.0146 19.358 12.0888 20.4322 13.4091 20.4322H18.0382C19.3585 20.4322 20.4327 19.358 20.4327 18.0378V13.4086C20.4327 12.0883 19.3585 11.0142 18.0382 11.0142ZM18.8364 18.0378C18.8364 18.4778 18.4783 18.8359 18.0382 18.8359H13.4091C12.969 18.8359 12.6109 18.4778 12.6109 18.0378V13.4086C12.6109 12.9685 12.969 12.6104 13.4091 12.6104H18.0382C18.4783 12.6104 18.8364 12.9685 18.8364 13.4086V18.0378Z" fill="#2B1F0C"/>
<rect x="1" y="1" width="7" height="7" fill="#2B1F0C"/>
<rect x="1" y="12" width="7" height="7" fill="#2B1F0C"/>
<rect x="12" y="1" width="7" height="7" fill="#2B1F0C"/>
<rect x="12" y="12" width="7" height="7" fill="#2B1F0C"/>
</svg>
