<svg width="7" height="11" viewBox="0 0 7 11" fill="none" xmlns="http://www.w3.org/2000/svg">
<path d="M6.46435 10.57C6.54933 10.4814 6.61674 10.3761 6.66274 10.2601C6.70874 10.1442 6.73242 10.0199 6.73242 9.89442C6.73242 9.7689 6.70874 9.64463 6.66274 9.52869C6.61674 9.41276 6.54933 9.30745 6.46435 9.21879L2.90768 5.50046L6.46435 1.78212C6.63574 1.60294 6.73203 1.35991 6.73203 1.1065C6.73203 0.853092 6.63575 0.610062 6.46435 0.430875C6.29295 0.251687 6.06049 0.151023 5.8181 0.151023C5.57571 0.151023 5.34324 0.251687 5.17185 0.430875L0.964346 4.82962C0.879368 4.91828 0.811949 5.02359 0.76595 5.13953C0.71995 5.25546 0.696273 5.37974 0.696273 5.50525C0.696273 5.63076 0.71995 5.75504 0.76595 5.87097C0.811949 5.98691 0.879368 6.09222 0.964346 6.18087L5.17185 10.5796C5.52018 10.9438 6.10685 10.9438 6.46435 10.57Z" fill="#5C5D5F"/>
</svg>
