<svg width="24" height="24" viewBox="0 0 24 24" fill="none" xmlns="http://www.w3.org/2000/svg">
<path d="M20.9595 10.8734C21.411 11.4639 21.411 12.261 20.9595 12.8506C19.5376 14.7067 16.1262 18.5286 12.1433 18.5286C8.16048 18.5286 4.74905 14.7067 3.32714 12.8506C3.10751 12.5678 2.98828 12.22 2.98828 11.862C2.98828 11.504 3.10751 11.1561 3.32714 10.8734C4.74905 9.01722 8.16048 5.19531 12.1433 5.19531C16.1262 5.19531 19.5376 9.01722 20.9595 10.8734V10.8734Z" stroke="#434343" stroke-width="1.42857" stroke-linecap="round" stroke-linejoin="round"/>
<path d="M12.1443 14.7221C13.7222 14.7221 15.0014 13.4429 15.0014 11.865C15.0014 10.287 13.7222 9.00781 12.1443 9.00781C10.5663 9.00781 9.28711 10.287 9.28711 11.865C9.28711 13.4429 10.5663 14.7221 12.1443 14.7221Z" stroke="#434343" stroke-width="1.42857" stroke-linecap="round" stroke-linejoin="round"/>
</svg>
