<svg width="24" height="25" viewBox="0 0 24 25" fill="none" xmlns="http://www.w3.org/2000/svg">
<path d="M5 7.76562H18.79C19.0694 7.76564 19.3457 7.8242 19.6011 7.93753C19.8565 8.05087 20.0854 8.21646 20.2729 8.42364C20.4603 8.63082 20.6023 8.87499 20.6897 9.1404C20.777 9.40582 20.8078 9.68659 20.78 9.96463L20.18 15.9646C20.1307 16.4581 19.8997 16.9157 19.532 17.2485C19.1642 17.5813 18.686 17.7656 18.19 17.7656H8.64C8.17747 17.7658 7.72918 17.6057 7.37144 17.3125C7.01371 17.0193 6.76866 16.6112 6.678 16.1576L5 7.76562Z" stroke="#656565" stroke-width="1.95495" stroke-linejoin="round"/>
<path d="M5.00391 7.76563L4.19391 4.52263C4.13973 4.30638 4.01486 4.11443 3.83911 3.97728C3.66337 3.84013 3.44683 3.76563 3.22391 3.76562H2.00391M8.00391 21.7656H10.0039M16.0039 21.7656H18.0039" stroke="#656565" stroke-width="1.95495" stroke-linecap="round" stroke-linejoin="round"/>
</svg>
