<svg width="23" height="20" viewBox="0 0 23 20" fill="none" xmlns="http://www.w3.org/2000/svg">
<path d="M21.4987 4.83098C21.1719 4.07443 20.7008 3.38884 20.1116 2.8126C19.522 2.23465 18.8269 1.77536 18.064 1.45971C17.2729 1.13109 16.4245 0.962889 15.5678 0.964861C14.3661 0.964861 13.1936 1.29394 12.1746 1.91555C11.9309 2.06424 11.6993 2.22757 11.4799 2.40552C11.2605 2.22757 11.0289 2.06424 10.7852 1.91555C9.76622 1.29394 8.59371 0.964861 7.39195 0.964861C6.52658 0.964861 5.68802 1.13062 4.89578 1.45971C4.13036 1.7766 3.4405 2.23244 2.84815 2.8126C2.25823 3.38819 1.78699 4.07394 1.46113 4.83098C1.12229 5.61835 0.949219 6.45446 0.949219 7.31496C0.949219 8.1267 1.11498 8.97256 1.44406 9.83305C1.71952 10.5522 2.11442 11.2981 2.61901 12.0513C3.41857 13.2433 4.51795 14.4865 5.88304 15.7468C8.14518 17.8359 10.3854 19.279 10.4805 19.3375L11.0582 19.708C11.3141 19.8713 11.6432 19.8713 11.8992 19.708L12.4769 19.3375C12.572 19.2765 14.8097 17.8359 17.0743 15.7468C18.4394 14.4865 19.5388 13.2433 20.3383 12.0513C20.8429 11.2981 21.2403 10.5522 21.5133 9.83305C21.8424 8.97256 22.0081 8.1267 22.0081 7.31496C22.0106 6.45446 21.8375 5.61835 21.4987 4.83098V4.83098ZM11.4799 17.7798C11.4799 17.7798 2.80184 12.2195 2.80184 7.31496C2.80184 4.83098 4.85678 2.81748 7.39195 2.81748C9.17387 2.81748 10.7193 3.81204 11.4799 5.26489C12.2404 3.81204 13.7859 2.81748 15.5678 2.81748C18.103 2.81748 20.158 4.83098 20.158 7.31496C20.158 12.2195 11.4799 17.7798 11.4799 17.7798Z" fill="#EDEDED"/>
</svg>
