<svg width="20" height="20" viewBox="0 0 20 20" fill="none" xmlns="http://www.w3.org/2000/svg">
<g clip-path="url(#clip0_560_5347)">
<path d="M12.79 0.566406H17.1775C18.3956 0.566406 19.3867 1.55748 19.3867 2.77565V7.16308C19.3867 8.38124 18.3956 9.37232 17.1775 9.37232H12.79C11.5719 9.37232 10.5808 8.38124 10.5808 7.16308V2.77565C10.5808 1.55748 11.5719 0.566406 12.79 0.566406ZM12.0733 7.16308C12.0733 7.55826 12.3949 7.87979 12.79 7.87979H17.1775C17.5727 7.87979 17.8942 7.55826 17.8942 7.16308V2.77565C17.8942 2.38046 17.5727 2.05893 17.1775 2.05893H12.79C12.3949 2.05893 12.0733 2.38046 12.0733 2.77565V7.16308Z" fill="#CBCBCB"/>
<path d="M2.51882 0.566406H6.84715C8.08162 0.566406 9.08594 1.57073 9.08594 2.8052V7.13353C9.08594 8.368 8.08162 9.37232 6.84715 9.37232H2.51882C1.28435 9.37232 0.280025 8.368 0.280025 7.13353V2.8052C0.280025 1.57073 1.28435 0.566406 2.51882 0.566406ZM1.77255 7.13353C1.77255 7.54502 2.10733 7.87979 2.51882 7.87979H6.84715C7.25864 7.87979 7.59341 7.54502 7.59341 7.13353V2.8052C7.59341 2.39371 7.25864 2.05893 6.84715 2.05893H2.51882C2.10733 2.05893 1.77255 2.39371 1.77255 2.8052V7.13353Z" fill="#CBCBCB"/>
<path d="M12.79 10.8789H17.1775C18.3956 10.8789 19.3867 11.87 19.3867 13.0881V17.4756C19.3867 18.6937 18.3956 19.6848 17.1775 19.6848H12.79C11.5719 19.6848 10.5808 18.6937 10.5808 17.4756V13.0881C10.5808 11.87 11.5719 10.8789 12.79 10.8789ZM12.0733 17.4756C12.0733 17.8708 12.3949 18.1923 12.79 18.1923H17.1775C17.5727 18.1923 17.8942 17.8708 17.8942 17.4756V13.0881C17.8942 12.693 17.5727 12.3714 17.1775 12.3714H12.79C12.3949 12.3714 12.0733 12.693 12.0733 13.0881V17.4756Z" fill="#CBCBCB"/>
<path d="M2.51882 10.8789H6.84715C8.08162 10.8789 9.08594 11.8832 9.08594 13.1177V17.446C9.08594 18.6805 8.08162 19.6848 6.84715 19.6848H2.51882C1.28435 19.6848 0.280025 18.6805 0.280025 17.446V13.1177C0.280025 11.8832 1.28435 10.8789 2.51882 10.8789ZM1.77255 17.446C1.77255 17.8575 2.10733 18.1923 2.51882 18.1923H6.84715C7.25864 18.1923 7.59341 17.8575 7.59341 17.446V13.1177C7.59341 12.7062 7.25864 12.3714 6.84715 12.3714H2.51882C2.10733 12.3714 1.77255 12.7062 1.77255 13.1177V17.446Z" fill="#CBCBCB"/>
</g>
<defs>
<clipPath id="clip0_560_5347">
<rect width="19.1044" height="19.1044" fill="white" transform="matrix(-1 0 0 1 19.3867 0.570312)"/>
</clipPath>
</defs>
</svg>
