<svg width="24" height="25" viewBox="0 0 24 25" fill="none" xmlns="http://www.w3.org/2000/svg">
<path d="M5 7.87891H18.79C19.0694 7.87892 19.3457 7.93748 19.6011 8.05081C19.8565 8.16415 20.0854 8.32974 20.2729 8.53692C20.4603 8.7441 20.6023 8.98827 20.6897 9.25368C20.777 9.5191 20.8078 9.79987 20.78 10.0779L20.18 16.0779C20.1307 16.5714 19.8997 17.029 19.532 17.3618C19.1642 17.6946 18.686 17.8789 18.19 17.8789H8.64C8.17747 17.8791 7.72918 17.719 7.37144 17.4258C7.01371 17.1326 6.76866 16.7245 6.678 16.2709L5 7.87891Z" stroke="#EDEDED" stroke-width="1.95495" stroke-linejoin="round"/>
<path d="M5.00391 7.87891L4.19391 4.63591C4.13973 4.41966 4.01486 4.22771 3.83911 4.09056C3.66337 3.95341 3.44683 3.87891 3.22391 3.87891H2.00391M8.00391 21.8789H10.0039M16.0039 21.8789H18.0039" stroke="#EDEDED" stroke-width="1.95495" stroke-linecap="round" stroke-linejoin="round"/>
</svg>
