<svg width="270" height="95" viewBox="0 0 270 95" fill="none" xmlns="http://www.w3.org/2000/svg">
<path d="M40.8842 70.7599C38.0893 68.7359 35.7452 65.6188 34.1207 61.8028C32.4629 57.7961 31.6247 53.5015 31.6551 49.1695C31.6551 42.5891 33.4779 36.6124 36.4296 32.2657C39.4804 27.7665 43.7495 24.9863 48.5112 24.9863C53.2728 24.9863 57.5356 27.7665 60.5896 32.2657C63.538 36.6124 65.3608 42.5891 65.3608 49.1695C65.3966 53.5004 64.5639 57.7951 62.9111 61.8028C61.2834 65.6157 58.9298 68.7581 56.1221 70.7821C55.8927 70.9459 55.6179 71.0351 55.3354 71.0376C55.0529 71.0401 54.7765 70.9556 54.5443 70.7959C54.312 70.6361 54.1352 70.4088 54.0381 70.1452C53.941 69.8817 53.9284 69.5947 54.0019 69.3237C54.5552 67.5599 54.8777 65.7327 54.9613 63.8872C55.0672 62.4502 54.8968 61.0063 54.4592 59.6326C53.9421 58.243 53.0585 57.0172 51.9009 56.0835C50.9508 55.2671 49.7368 54.8179 48.4807 54.8179C47.2247 54.8179 46.0107 55.2671 45.0607 56.0835C43.9181 57.0123 43.055 58.2358 42.5663 59.6199C41.6549 62.1618 42.205 64.9961 42.7486 67.7763C42.8669 68.3768 42.982 68.9805 43.0684 69.5429C43.1103 69.8124 43.0694 70.0881 42.9513 70.3342C42.8331 70.5803 42.6431 70.7853 42.4059 70.9225C42.1688 71.0597 41.8956 71.1227 41.6218 71.1034C41.3481 71.084 41.0866 70.9831 40.8714 70.8139L40.8842 70.7599ZM34.3574 49.1695C34.3484 51.9703 34.7184 54.7596 35.4574 57.4625C35.3806 55.6574 35.5342 53.8499 35.9147 52.0831C36.608 48.6253 38.2226 45.4157 40.59 42.7893C42.7678 40.4602 45.4988 38.9605 48.5016 38.9605C51.5044 38.9605 54.2577 40.4539 56.4354 42.7734C58.7994 45.398 60.4068 48.6077 61.0884 52.0641C61.4752 53.8589 61.6289 55.6956 61.5457 57.5292C62.2977 54.8003 62.6742 51.9829 62.665 49.1536C62.665 43.1165 61.0148 37.6768 58.3574 33.7496C55.7991 29.978 52.3167 27.649 48.5144 27.649C44.7121 27.649 41.2168 29.978 38.6745 33.7496C36.0107 37.6673 34.3638 43.1102 34.3638 49.1536L34.3574 49.1695ZM38.8056 61.072C38.9655 61.6026 39.1574 62.1332 39.3748 62.6607C39.3564 61.3163 39.5728 59.9789 40.0144 58.708C40.6722 56.8504 41.8357 55.2105 43.3754 53.9705C44.801 52.7702 46.609 52.1115 48.4776 52.1115C50.3462 52.1115 52.1541 52.7702 53.5798 53.9705C55.1194 55.2121 56.292 56.8448 56.9727 58.6953C57.4009 59.9377 57.6286 61.2396 57.6475 62.5526C57.8457 62.0538 58.0185 61.5581 58.172 61.0593C58.9836 58.306 59.0738 55.3923 58.4341 52.5947C57.855 49.6232 56.477 46.8629 54.4464 44.6067C52.7611 42.7956 50.6953 41.6454 48.492 41.6454C46.2886 41.6454 44.2452 42.8052 42.5631 44.6131C40.5322 46.8769 39.1476 49.6393 38.5529 52.6138C37.8814 55.9214 38.0349 58.5619 38.8024 61.072H38.8056Z" fill="#6E8B3D"/>
<path d="M0 70.5942V43.9041C0 41.7159 0.572458 40.1326 1.7173 39.1539C2.8605 38.2157 4.30951 37.7253 5.79139 37.7749H6.07917C15.0972 38.1732 19.878 38.3998 20.4217 38.4549V41.7594H6.4757C5.89443 41.7191 5.3165 41.8747 4.83523 42.201C4.51713 42.4029 4.28842 42.7176 4.19565 43.0812C4.1465 43.503 4.12515 43.9275 4.13171 44.3521V52.4926L18.5222 52.6674V56.0195L4.13171 56.4802V70.5974L0 70.5942Z" fill="#FEC260"/>
<path d="M76.5898 70.5942V37.7812H90.7277C96.0319 37.7812 98.6851 41.108 98.6872 47.7614C98.7083 49.2103 98.5504 50.6562 98.2171 52.0668C98.0054 53.0351 97.66 53.9696 97.1906 54.8438C96.8043 55.4751 96.2863 56.0168 95.6716 56.4325C95.2476 56.7572 94.7805 57.0224 94.2837 57.2205C93.9991 57.3032 93.6153 57.4048 93.1357 57.5383L99.912 70.6132H95.3518L88.8185 57.7512L80.7312 57.1157V70.6005L76.5898 70.5942ZM80.7312 53.3441H90.5806C91.1013 53.3589 91.622 53.312 92.1316 53.2043C92.5693 53.0772 92.9755 52.8607 93.3244 52.5688C93.8107 52.1213 94.1354 51.5274 94.2486 50.8785C94.4698 49.8535 94.5696 48.8063 94.546 47.7583C94.546 45.3752 94.1856 43.7802 93.465 42.9731C93.1048 42.573 92.66 42.257 92.1624 42.0477C91.6648 41.8384 91.1268 41.741 90.587 41.7625H80.7376L80.7312 53.3441Z" fill="#FEC260"/>
<path d="M112.402 64.8151V43.8665C112.402 41.6487 112.976 40.06 114.123 39.1004C115.228 38.2089 116.62 37.7431 118.043 37.7881H118.485C127.503 38.1864 132.284 38.413 132.827 38.4681V41.7726H118.881C118.3 41.7323 117.722 41.8879 117.241 42.2143C116.922 42.4152 116.693 42.7303 116.601 43.0944C116.549 43.516 116.527 43.9407 116.534 44.3654V52.4931L130.924 52.6679V56.02L116.534 56.4808V64.4242C116.487 65.0244 116.665 65.6205 117.033 66.0987C117.271 66.4081 117.61 66.6259 117.992 66.7151C118.441 66.7678 118.893 66.7901 119.345 66.7819H132.83V70.0419L118.948 70.7441C118.686 70.7441 118.421 70.7631 118.155 70.7631C114.322 70.7526 112.404 68.7699 112.402 64.8151Z" fill="#FEC260"/>
<path d="M142.795 37.7812H147.272L156.328 64.4713L165.8 37.7812H170.277L158.503 70.5942H154.09L142.795 37.7812Z" fill="#FEC260"/>
<path d="M179.812 64.8151V43.8665C179.812 41.6487 180.386 40.06 181.533 39.1004C182.639 38.2089 184.03 37.7431 185.454 37.7881H185.895C194.913 38.1864 199.694 38.413 200.237 38.4681V41.7726H186.291C185.709 41.7331 185.131 41.8886 184.648 42.2143C184.329 42.4157 184.1 42.7306 184.008 43.0944C183.956 43.516 183.934 43.9407 183.941 44.3654V52.4931L198.331 52.6679V56.02L183.941 56.4808V64.4242C183.895 65.0238 184.071 65.6194 184.437 66.0987C184.676 66.4071 185.015 66.6247 185.396 66.7151C185.845 66.7678 186.297 66.7901 186.749 66.7819H200.234V70.0419L186.352 70.7441C186.09 70.7441 185.825 70.7631 185.559 70.7631C181.73 70.7526 179.815 68.7699 179.812 64.8151Z" fill="#FEC260"/>
<path d="M214.35 71.9074V39.0977H228.487C233.792 39.0977 236.445 42.4244 236.447 49.0779C236.468 50.5267 236.31 51.9726 235.977 53.3832C235.767 54.3513 235.42 55.2851 234.947 56.1571C234.562 56.7896 234.044 57.3316 233.428 57.7458C233.004 58.0698 232.537 58.3349 232.04 58.5338C231.756 58.6164 231.375 58.7181 230.892 58.8515L237.672 71.9297H233.112L226.575 59.0676L218.491 58.4321V71.9074H214.35ZM218.491 54.6574H228.337C228.859 54.6713 229.381 54.6233 229.891 54.5144C230.328 54.3877 230.734 54.1712 231.081 53.8789C231.5 53.5612 231.807 52.9892 232.005 52.1885C232.226 51.1646 232.326 50.1185 232.303 49.0715C232.303 46.6885 231.943 45.0934 231.225 44.2863C230.865 43.8862 230.42 43.5702 229.922 43.3609C229.425 43.1516 228.887 43.0543 228.347 43.0758H218.5L218.491 54.6574Z" fill="#FEC260"/>
<path d="M244.199 37.7812H248.718L256.693 54.5928L265.503 37.7812H270L258.718 59.343V70.5942H254.576V59.343L244.199 37.7812Z" fill="#FEC260"/>
<path d="M228.368 21.8967V21.8395L228.262 21.8205C225.726 21.5218 223.187 21.2612 220.658 20.9181C218.924 20.6938 217.222 20.2672 215.589 19.6471C214.402 19.2163 213.321 18.5385 212.419 17.659C211.516 16.7795 210.813 15.7186 210.357 14.5474C209.811 13.1576 209.408 11.7161 209.155 10.2452C208.637 7.47135 208.362 4.66253 208.1 1.85689C208.092 1.79573 208.081 1.73518 208.064 1.67578C208.047 1.68968 208.032 1.70701 208.022 1.72669C208.012 1.74637 208.005 1.76797 208.004 1.79016C207.725 4.18274 207.479 6.58167 207.159 8.97107C206.935 10.778 206.499 12.5526 205.858 14.2583C205.087 16.2473 203.875 17.871 201.979 18.9417C200.478 19.7437 198.859 20.3056 197.182 20.6067C194.131 21.2422 191.029 21.5281 187.931 21.8205C187.86 21.8205 187.793 21.8427 187.723 21.8522C187.736 21.8712 187.753 21.8871 187.773 21.8987C187.792 21.9102 187.815 21.9171 187.838 21.9189C190.374 22.2144 192.913 22.4782 195.442 22.8182C197.186 23.0454 198.896 23.4785 200.537 24.1082C201.706 24.535 202.771 25.2023 203.662 26.0663C204.554 26.9303 205.252 27.9716 205.711 29.1221C206.239 30.4397 206.633 31.8064 206.888 33.2019C207.444 36.0615 207.722 38.9434 207.994 41.8348C207.994 41.9111 208.016 41.9905 208.026 42.07C208.046 42.0577 208.063 42.0409 208.075 42.0211C208.087 42.0012 208.094 41.9788 208.096 41.9556C208.375 39.5598 208.621 37.1641 208.941 34.7747C209.167 32.9682 209.604 31.194 210.242 29.4875C211.09 27.2633 212.506 25.5571 214.674 24.5022C215.95 23.905 217.293 23.4633 218.675 23.1867C221.394 22.6442 224.143 22.2549 226.906 22.0206L228.368 21.8967Z" fill="url(#paint0_radial_1339_99)"/>
<path d="M228.367 21.8972L226.906 22.0338C224.141 22.2617 221.392 22.6446 218.671 23.1809C217.289 23.4575 215.946 23.8992 214.67 24.4963C212.502 25.5512 211.086 27.2638 210.238 29.4816C209.6 31.1881 209.163 32.9624 208.937 34.7688C208.617 37.1582 208.371 39.554 208.093 41.9497C208.091 41.9729 208.083 41.9953 208.071 42.0152C208.059 42.0351 208.042 42.0518 208.022 42.0641C208.022 41.9847 208 41.9052 207.99 41.829C207.718 38.9376 207.44 36.0493 206.884 33.196C206.629 31.8005 206.235 30.4338 205.707 29.1162C205.248 27.9657 204.55 26.9245 203.658 26.0604C202.767 25.1964 201.702 24.5292 200.533 24.1023C198.892 23.4726 197.182 23.0395 195.438 22.8123C192.909 22.4723 190.37 22.2086 187.834 21.9131C187.811 21.9113 187.789 21.9043 187.769 21.8928C187.749 21.8812 187.732 21.8654 187.719 21.8464C187.789 21.8464 187.856 21.8209 187.927 21.8146C191.025 21.5223 194.127 21.2363 197.178 20.6008C198.855 20.2997 200.474 19.7378 201.975 18.9359C203.871 17.8651 205.083 16.2414 205.854 14.2524C206.495 12.5467 206.931 10.7722 207.155 8.96521C207.475 6.57581 207.722 4.17688 208 1.7843C208.001 1.76211 208.008 1.74051 208.018 1.72083C208.029 1.70115 208.043 1.68382 208.06 1.66992C208.077 1.72932 208.089 1.78986 208.096 1.85103C208.358 4.65666 208.633 7.46549 209.151 10.2393C209.404 11.7102 209.807 13.1517 210.353 14.5415C210.81 15.7127 211.512 16.7736 212.415 17.6531C213.317 18.5326 214.398 19.2104 215.585 19.6413C217.219 20.2613 218.92 20.6879 220.654 20.9122C223.183 21.2554 225.722 21.5159 228.258 21.8146L228.364 21.8337L228.367 21.8972Z" fill="#DBDBDB"/>
<path d="M231.459 7.86004V7.83779H231.421C230.5 7.72976 229.576 7.63444 228.655 7.52005C228.025 7.43651 227.407 7.28084 226.813 7.05616C226.381 6.89993 225.989 6.6538 225.661 6.33429C225.334 6.01478 225.079 5.6293 224.913 5.20374C224.715 4.69841 224.569 4.17472 224.475 3.64046C224.287 2.63005 224.187 1.6101 224.091 0.59016C224.094 0.56802 224.094 0.545578 224.091 0.523438C224.08 0.534527 224.072 0.548981 224.069 0.564745C223.97 1.43535 223.88 2.30596 223.749 3.17656C223.669 3.8286 223.51 4.46868 223.276 5.083C223.027 5.79086 222.534 6.38849 221.885 6.77019C221.338 7.06134 220.749 7.26609 220.139 7.37708C219.028 7.58611 217.906 7.73355 216.778 7.81873H216.701C216.711 7.83208 216.726 7.84116 216.743 7.84415C217.664 7.95219 218.588 8.04751 219.509 8.16189C220.143 8.24421 220.764 8.401 221.36 8.62897C221.785 8.78472 222.172 9.02762 222.496 9.34186C222.82 9.6561 223.074 10.0346 223.241 10.4528C223.433 10.932 223.576 11.4291 223.669 11.9366C223.871 12.9725 223.97 14.0242 224.069 15.0727C224.069 15.1013 224.069 15.1299 224.069 15.1585C224.083 15.1484 224.092 15.1337 224.095 15.1172C224.197 14.2466 224.286 13.376 224.414 12.5054C224.496 11.8536 224.655 11.2137 224.888 10.5989C225.16 9.80891 225.734 9.15716 226.487 8.78466C226.95 8.5691 227.437 8.40911 227.938 8.30805C228.928 8.114 229.927 7.97504 230.932 7.89181L231.459 7.86004Z" fill="url(#paint1_radial_1339_99)"/>
<path d="M231.459 7.8603L230.928 7.91114C229.923 7.99436 228.924 8.13332 227.935 8.32737C227.433 8.42843 226.946 8.58842 226.483 8.80398C225.731 9.17648 225.156 9.82823 224.884 10.6183C224.651 11.233 224.492 11.8729 224.411 12.5247C224.295 13.3953 224.206 14.2659 224.091 15.1365C224.088 15.153 224.079 15.1677 224.065 15.1778C224.065 15.1492 224.065 15.1206 224.065 15.092C223.966 14.0435 223.867 12.9918 223.665 11.956C223.573 11.4484 223.429 10.9514 223.237 10.4721C223.07 10.054 222.816 9.67542 222.492 9.36118C222.168 9.04694 221.781 8.80404 221.357 8.64829C220.76 8.42032 220.139 8.26353 219.505 8.18122C218.584 8.0573 217.66 7.96198 216.739 7.86348C216.722 7.86048 216.707 7.85141 216.697 7.83805H216.774C217.902 7.75287 219.024 7.60543 220.135 7.3964C220.747 7.27974 221.338 7.06853 221.884 6.77045C222.543 6.38769 223.042 5.78365 223.291 5.06737C223.525 4.45306 223.684 3.81298 223.765 3.16094C223.883 2.29033 223.972 1.41973 224.084 0.54912C224.087 0.533356 224.095 0.518902 224.107 0.507812C224.11 0.529953 224.11 0.552395 224.107 0.574535C224.203 1.59448 224.302 2.61442 224.49 3.62483C224.584 4.1591 224.731 4.68277 224.929 5.18811C225.094 5.61366 225.349 5.99915 225.677 6.31866C226.004 6.63817 226.397 6.88431 226.828 7.04053C227.422 7.26522 228.04 7.42088 228.67 7.50443C229.591 7.62835 230.515 7.72367 231.436 7.82217H231.475L231.459 7.8603Z" fill="#DBDBDB"/>
<path d="M0.912109 93.6376V84.7409H4.35623C4.82846 84.731 5.2967 84.8288 5.72493 85.0269C6.08449 85.1939 6.39817 85.4446 6.63948 85.7577C6.87137 86.0848 7.05253 86.4447 7.17678 86.8253C7.3085 87.2134 7.40059 87.6136 7.45175 88.02C7.50066 88.4238 7.52415 88.8302 7.5221 89.2369C7.52441 89.7768 7.46438 90.3152 7.34308 90.8415C7.23019 91.3305 7.04818 91.8012 6.80257 92.2396C6.57078 92.6613 6.22821 93.0127 5.81128 93.2563C5.37072 93.5135 4.86708 93.6443 4.35623 93.6344L0.912109 93.6376ZM2.03457 92.5573H4.32102C4.64361 92.5692 4.96284 92.4883 5.24025 92.3243C5.51767 92.1602 5.7415 91.9201 5.88482 91.6327C6.2564 90.8875 6.43341 90.0615 6.39964 89.2306C6.39964 88.0168 6.22379 87.143 5.87522 86.6156C5.70886 86.3597 5.47762 86.152 5.20481 86.0131C4.93199 85.8742 4.62717 85.8091 4.32102 85.8244H2.03457V92.5573Z" fill="#6E8B3D" stroke="#6E8B3D" stroke-width="0.3"/>
<path d="M11.4004 93.6369V84.7402H12.5228V93.6369H11.4004Z" fill="#6E8B3D" stroke="#6E8B3D" stroke-width="0.3"/>
<path d="M16.1523 93.6369L19.3694 84.7402H20.5494L23.629 93.6369H22.3499L21.6175 91.2825H18.231L17.4603 93.6369H16.1523ZM18.586 90.2371H21.2721L19.9547 86.3448L18.586 90.2371Z" fill="#6E8B3D" stroke="#6E8B3D" stroke-width="0.3"/>
<path d="M26.9648 93.6369L27.6044 84.7402H29.1522L31.2916 91.7781L33.3894 84.7402H34.9339L35.6567 93.6369H34.5342L33.9714 86.7134L31.8959 93.6369H30.7063L28.5766 86.7261L28.0937 93.6369H26.9648Z" fill="#6E8B3D" stroke="#6E8B3D" stroke-width="0.3"/>
<path d="M39.2315 89.2514C39.2258 88.6544 39.262 88.0577 39.3402 87.4657C39.391 87.0269 39.5085 86.5984 39.6888 86.1947C39.8236 85.9047 39.9991 85.6352 40.21 85.394C40.4033 85.1793 40.6489 85.0173 40.9232 84.9238C41.1925 84.8239 41.4726 84.7557 41.7578 84.7204C42.0838 84.6857 42.4117 84.6698 42.7396 84.6728C43.1362 84.6669 43.5328 84.6903 43.926 84.7427C44.2555 84.7937 44.5736 84.9012 44.8661 85.0604C45.1823 85.232 45.4413 85.4915 45.6113 85.8071C45.8239 86.2287 45.9716 86.6796 46.0493 87.1448C46.1737 87.8303 46.2305 88.5263 46.2188 89.2228C46.2286 89.8829 46.1762 90.5424 46.0621 91.1928C45.9873 91.6422 45.8428 92.0774 45.6337 92.4828C45.4632 92.7921 45.2097 93.0484 44.9013 93.2232C44.6052 93.3952 44.2802 93.5126 43.942 93.5695C43.5401 93.6328 43.1336 93.6615 42.7268 93.6553C42.384 93.6584 42.0413 93.6425 41.7003 93.6076C41.408 93.5725 41.1206 93.5053 40.8432 93.4074C40.571 93.3179 40.3265 93.1603 40.1332 92.9499C39.9306 92.7135 39.7637 92.4492 39.6376 92.1651C39.4714 91.7783 39.3637 91.3693 39.3179 90.9513C39.2533 90.387 39.2245 89.8193 39.2315 89.2514ZM40.3508 89.2514C40.3453 89.7452 40.3731 90.2388 40.4339 90.7289C40.4732 91.0544 40.5505 91.3743 40.6641 91.6821C40.7489 91.9159 40.9084 92.1157 41.1182 92.2509C41.3218 92.3778 41.5474 92.4661 41.7834 92.5114C42.0998 92.5686 42.4212 92.5941 42.7428 92.5877C43.2276 92.614 43.712 92.5304 44.1594 92.343C44.5138 92.1313 44.7691 91.7884 44.8693 91.3898C45.0492 90.6885 45.1267 89.9651 45.0996 89.2419C45.0996 88.7557 45.0836 88.3331 45.0484 87.9709C45.0132 87.6087 44.9653 87.31 44.9141 87.059C44.8732 86.8326 44.7873 86.6166 44.6615 86.4235C44.5706 86.2823 44.4632 86.1522 44.3417 86.0359C44.2112 85.9319 44.0577 85.86 43.894 85.8262C43.7226 85.7859 43.5483 85.7593 43.3727 85.7467C43.2224 85.7467 43.0114 85.7467 42.7332 85.7467C42.4549 85.7467 42.3143 85.7467 42.1831 85.7467C42.052 85.7467 41.8953 85.7721 41.7131 85.8007C41.5629 85.8169 41.4179 85.8646 41.2877 85.9405C41.1748 86.0194 41.0679 86.1065 40.9679 86.2011C40.8418 86.3153 40.7471 86.4597 40.6929 86.6205C40.622 86.8213 40.5633 87.026 40.5171 87.2337C40.454 87.5172 40.4133 87.8051 40.3955 88.0948C40.3635 88.457 40.3508 88.832 40.3508 89.2514Z" fill="#6E8B3D" stroke="#6E8B3D" stroke-width="0.3"/>
<path d="M50.0859 93.6369V84.7402H51.2212L55.6694 91.5557V84.7434H56.7919V93.6401H55.6694L51.2084 86.8405V93.6465L50.0859 93.6369Z" fill="#6E8B3D" stroke="#6E8B3D" stroke-width="0.3"/>
<path d="M60.8301 93.6376V84.7409H64.2709C64.7431 84.731 65.2114 84.8288 65.6396 85.0269C65.9997 85.193 66.3137 85.4439 66.5542 85.7577C66.7932 86.0887 66.9797 86.4541 67.1075 86.8412C67.2392 87.2292 67.3314 87.6295 67.3825 88.0359C67.4314 88.4397 67.4549 88.8461 67.4529 89.2528C67.4552 89.7927 67.3951 90.3311 67.2738 90.8574C67.1609 91.3464 66.9789 91.8171 66.7333 92.2554C66.5018 92.6763 66.1604 93.0276 65.7452 93.2722C65.3033 93.529 64.7987 93.6598 64.2869 93.6503L60.8301 93.6376ZM61.9493 92.5573H64.2294C64.552 92.5692 64.8712 92.4883 65.1486 92.3243C65.426 92.1602 65.6498 91.9201 65.7931 91.6327C66.1647 90.8875 66.3418 90.0615 66.308 89.2306C66.308 88.0168 66.1322 87.143 65.7836 86.6156C65.6172 86.3597 65.386 86.152 65.1132 86.0131C64.8404 85.8742 64.5355 85.8091 64.2294 85.8244H61.9429L61.9493 92.5573Z" fill="#6E8B3D" stroke="#6E8B3D" stroke-width="0.3"/>
<path d="M71.1406 87.6357V86.8414C71.1406 86.028 71.3549 85.4624 71.7802 85.1415C72.3048 84.7916 72.9307 84.623 73.5614 84.6617H73.6701C74.0347 84.6617 74.5367 84.6966 75.1731 84.7634C75.883 84.8396 76.4011 84.9063 76.7337 84.9667V85.8882C75.4247 85.8098 74.4099 85.7706 73.6893 85.7706C73.619 85.7706 73.555 85.7706 73.491 85.7706C73.1883 85.7531 72.8865 85.8179 72.618 85.958C72.3878 86.101 72.2726 86.4219 72.2662 86.9113V87.6167C72.2662 88.0774 72.3558 88.3761 72.5349 88.5095C72.8056 88.6658 73.1182 88.7357 73.4303 88.7097H75.0804C76.3915 88.7097 77.0482 89.4299 77.0503 90.8703V91.6361C77.0611 92.0093 76.989 92.3803 76.8392 92.7227C76.7174 92.9912 76.5124 93.2139 76.254 93.3582C76.0137 93.4922 75.7536 93.5877 75.4833 93.641C75.1848 93.6951 74.8818 93.7206 74.5783 93.7173C74.1562 93.7173 73.6189 93.6855 72.9314 93.6188C72.4215 93.5752 71.9145 93.5041 71.4124 93.4059V92.5067C72.3848 92.6009 73.3615 92.6455 74.3385 92.6401H74.4824C74.6363 92.641 74.79 92.6325 74.9429 92.6147C75.0953 92.5916 75.2451 92.5544 75.3905 92.5035C75.5567 92.4481 75.6974 92.3354 75.7871 92.1858C75.8859 92.0115 75.9346 91.8137 75.9278 91.6138V90.8767C75.9477 90.587 75.8737 90.2986 75.7167 90.0537C75.6244 89.9507 75.5086 89.8713 75.3789 89.8221C75.2492 89.7729 75.1096 89.7553 74.9717 89.7709H73.3727C73.0329 89.7775 72.6941 89.7314 72.3686 89.6343C72.1297 89.5649 71.9069 89.4494 71.713 89.2943C71.5581 89.1544 71.4368 88.9818 71.3581 88.7891C71.2785 88.6076 71.2236 88.4163 71.195 88.2204C71.1632 88.027 71.145 87.8316 71.1406 87.6357Z" fill="#6E8B3D" stroke="#6E8B3D" stroke-width="0.3"/>
<path d="M86.4707 94.5078V84.2988H87.5932V94.5237L86.4707 94.5078Z" fill="#6E8B3D" stroke="#6E8B3D" stroke-width="0.3"/>
<path d="M97.3496 93.6369V84.7402H98.4721V88.7978H102.421V84.7434H103.544V93.6401H102.421V89.8813H98.4721V93.6369H97.3496Z" fill="#6E8B3D" stroke="#6E8B3D" stroke-width="0.3"/>
<path d="M107.174 93.6369L110.391 84.7402H111.558L114.641 93.6369H113.362L112.629 91.2825H109.243L108.472 93.6369H107.174ZM109.607 90.2371H112.294L110.976 86.3448L109.607 90.2371Z" fill="#6E8B3D" stroke="#6E8B3D" stroke-width="0.3"/>
<path d="M118.074 93.6369V84.7402H121.79C123.283 84.7402 124.029 85.6161 124.029 87.3679C124.034 87.7961 123.985 88.2232 123.882 88.6389C123.814 88.9313 123.692 89.2085 123.52 89.4555C123.378 89.6429 123.193 89.7934 122.98 89.894C122.797 89.9886 122.599 90.052 122.395 90.0814C122.195 90.102 121.994 90.1115 121.793 90.11C121.57 90.11 121.09 90.0624 120.358 89.9893C119.625 89.9162 119.241 89.8717 119.209 89.8558V93.6242L118.074 93.6369ZM119.197 89.0456H121.755C121.912 89.0557 122.069 89.0311 122.215 88.9734C122.361 88.9156 122.492 88.8264 122.599 88.712C122.798 88.4896 122.897 88.0415 122.897 87.3711C122.895 87.085 122.853 86.8005 122.772 86.5259C122.722 86.3406 122.617 86.1745 122.471 86.0493C122.368 85.9668 122.25 85.9043 122.123 85.865C122.003 85.8352 121.879 85.8213 121.755 85.8237H119.197V89.0456Z" fill="#6E8B3D" stroke="#6E8B3D" stroke-width="0.3"/>
<path d="M127.686 93.6369V84.7402H131.386C132.878 84.7402 133.624 85.6161 133.624 87.3679C133.631 87.7959 133.582 88.223 133.48 88.6389C133.411 88.9309 133.289 89.2077 133.119 89.4555C132.976 89.6422 132.791 89.7926 132.578 89.894C132.395 89.9877 132.197 90.051 131.993 90.0814C131.793 90.102 131.593 90.1115 131.392 90.11C131.165 90.11 130.685 90.0624 129.953 89.9893C129.221 89.9162 128.84 89.8717 128.808 89.8558V93.6242L127.686 93.6369ZM128.808 89.0456H131.366C131.523 89.0551 131.68 89.0301 131.826 88.9724C131.972 88.9148 132.103 88.8258 132.211 88.712C132.409 88.4896 132.505 88.0415 132.505 87.3711C132.506 87.085 132.465 86.8004 132.383 86.5259C132.334 86.3406 132.229 86.1745 132.083 86.0493C131.979 85.9668 131.861 85.9043 131.734 85.865C131.614 85.8354 131.49 85.8215 131.366 85.8237H128.808V89.0456Z" fill="#6E8B3D" stroke="#6E8B3D" stroke-width="0.3"/>
<path d="M137.502 93.6369V84.7402H138.624V93.6369H137.502Z" fill="#6E8B3D" stroke="#6E8B3D" stroke-width="0.3"/>
<path d="M142.658 93.6369V84.7402H143.793L148.238 91.5557V84.7434H149.361V93.6401H148.238L143.781 86.8405V93.6465L142.658 93.6369Z" fill="#6E8B3D" stroke="#6E8B3D" stroke-width="0.3"/>
<path d="M153.389 92.0713V86.3933C153.355 86.1805 153.369 85.9627 153.432 85.7563C153.494 85.5499 153.603 85.3602 153.75 85.2015C153.897 85.0428 154.078 84.9192 154.279 84.84C154.481 84.7608 154.698 84.7281 154.915 84.7443H155.036C157.479 84.8523 158.775 84.9137 158.922 84.9285V85.8246H155.142C154.984 85.8143 154.828 85.8568 154.697 85.9453C154.612 86.0005 154.552 86.0857 154.528 86.1836C154.513 86.2984 154.506 86.4142 154.509 86.5299V88.7478L158.407 88.7954V89.701L154.509 89.8281V91.976C154.496 92.1386 154.544 92.3002 154.643 92.4304C154.707 92.5143 154.798 92.5729 154.902 92.5956C155.023 92.6107 155.145 92.6171 155.266 92.6146H158.922V93.498L155.161 93.6886H154.947C153.908 93.6822 153.389 93.1432 153.389 92.0713Z" fill="#6E8B3D" stroke="#6E8B3D" stroke-width="0.3"/>
<path d="M162.602 87.6357V86.8414C162.602 86.028 162.815 85.4613 163.241 85.1415C163.766 84.7916 164.392 84.623 165.022 84.6617H165.131C165.496 84.6617 165.998 84.6966 166.634 84.7634C167.341 84.8396 167.862 84.9063 168.191 84.9667V85.8882C166.887 85.8098 165.872 85.7706 165.147 85.7706C165.08 85.7706 165.013 85.7706 164.949 85.7706C164.647 85.7527 164.346 85.8176 164.079 85.958C163.849 86.101 163.73 86.4219 163.727 86.9113V87.6167C163.727 88.0774 163.817 88.3761 163.996 88.5095C164.266 88.6662 164.579 88.7361 164.891 88.7097H166.538C167.851 88.7097 168.508 89.4299 168.508 90.8703V91.6361C168.519 92.009 168.448 92.3797 168.3 92.7227C168.177 92.99 167.972 93.2122 167.715 93.3582C167.474 93.4912 167.214 93.5866 166.944 93.641C166.645 93.695 166.341 93.7205 166.036 93.7173C165.614 93.7173 165.077 93.6855 164.389 93.6188C163.88 93.5755 163.374 93.5044 162.873 93.4059V92.5067C163.846 92.6009 164.822 92.6455 165.799 92.6401H165.94C166.094 92.641 166.248 92.6325 166.401 92.6147C166.553 92.5924 166.703 92.5551 166.848 92.5035C167.015 92.45 167.157 92.3368 167.245 92.1858C167.344 92.0115 167.392 91.8137 167.386 91.6138V90.8767C167.405 90.5875 167.332 90.2997 167.178 90.0537C167.085 89.9509 166.968 89.8716 166.838 89.8224C166.708 89.7733 166.568 89.7556 166.429 89.7709H164.83C164.492 89.7775 164.154 89.7314 163.83 89.6343C163.59 89.5647 163.366 89.4492 163.171 89.2943C163.016 89.1544 162.895 88.9818 162.816 88.7891C162.739 88.6065 162.684 88.4157 162.653 88.2204C162.624 88.0267 162.607 87.8315 162.602 87.6357Z" fill="#6E8B3D" stroke="#6E8B3D" stroke-width="0.3"/>
<path d="M172.014 87.6357V86.8414C172.014 86.028 172.227 85.4613 172.653 85.1415C173.178 84.7916 173.804 84.623 174.434 84.6617H174.543C174.908 84.6617 175.41 84.6966 176.046 84.7634C176.753 84.8396 177.274 84.9063 177.604 84.9667V85.8882C176.299 85.8098 175.284 85.7706 174.559 85.7706C174.492 85.7706 174.425 85.7706 174.364 85.7706C174.061 85.7523 173.759 85.8172 173.491 85.958C173.261 86.101 173.143 86.4219 173.139 86.9113V87.6167C173.139 88.0774 173.229 88.3761 173.408 88.5095C173.679 88.6662 173.991 88.7361 174.303 88.7097H175.95C177.266 88.7097 177.922 89.4299 177.92 90.8703V91.6361C177.931 92.009 177.86 92.3797 177.712 92.7227C177.589 92.99 177.384 93.2122 177.127 93.3582C176.886 93.4912 176.626 93.5866 176.356 93.641C176.057 93.695 175.753 93.7205 175.448 93.7173C175.026 93.7173 174.489 93.6855 173.801 93.6188C173.292 93.5755 172.786 93.5044 172.285 93.4059V92.5067C173.258 92.6009 174.235 92.6455 175.212 92.6401H175.352C175.506 92.641 175.66 92.6325 175.813 92.6147C175.965 92.5924 176.115 92.5551 176.26 92.5035C176.428 92.45 176.569 92.3368 176.657 92.1858C176.756 92.0115 176.804 91.8137 176.798 91.6138V90.8767C176.817 90.5875 176.744 90.2997 176.59 90.0537C176.497 89.9509 176.38 89.8716 176.25 89.8224C176.12 89.7733 175.98 89.7556 175.842 89.7709H174.243C173.904 89.7775 173.566 89.7314 173.242 89.6343C173.002 89.5656 172.78 89.45 172.586 89.2943C172.429 89.1554 172.307 88.9826 172.228 88.7891C172.151 88.6065 172.097 88.4157 172.065 88.2204C172.036 88.0267 172.019 87.8315 172.014 87.6357Z" fill="#6E8B3D" stroke="#6E8B3D" stroke-width="0.3"/>
<path d="M187.348 94.5078V84.2988H188.47V94.5237L187.348 94.5078Z" fill="#6E8B3D" stroke="#6E8B3D" stroke-width="0.3"/>
<path d="M197.709 93.3739L197.744 92.551L198.064 92.6145C198.169 92.6391 198.276 92.6572 198.384 92.6686C198.496 92.6887 198.609 92.6993 198.723 92.7003C198.78 92.7003 198.876 92.7003 199.011 92.7003C199.111 92.7067 199.211 92.6835 199.298 92.6336L199.516 92.4843C199.601 92.4268 199.667 92.3463 199.708 92.2523C199.751 92.1406 199.786 92.0259 199.813 91.9092C199.847 91.759 199.863 91.6055 199.861 91.4516V84.7441H200.98V91.6327C200.98 92.5542 200.773 93.1483 200.341 93.4184C199.962 93.6239 199.534 93.7217 199.103 93.7012H199.014C198.557 93.7098 198.107 93.5967 197.709 93.3739Z" fill="#6E8B3D" stroke="#6E8B3D" stroke-width="0.3"/>
<path d="M205.029 92.0713V86.3933C204.995 86.1803 205.011 85.9624 205.073 85.756C205.136 85.5496 205.245 85.36 205.392 85.2014C205.539 85.0428 205.72 84.9193 205.922 84.8401C206.124 84.7609 206.342 84.7281 206.558 84.7442H206.679C209.123 84.8522 210.418 84.9137 210.565 84.9285V85.8245H206.785C206.627 85.8143 206.471 85.8568 206.34 85.9453C206.256 86.0004 206.195 86.0856 206.171 86.1836C206.156 86.2984 206.15 86.4141 206.152 86.5299V88.7477L210.05 88.7954V89.7009L206.152 89.828V91.9759C206.139 92.1386 206.187 92.3001 206.286 92.4303C206.35 92.5143 206.442 92.5729 206.545 92.5955C206.666 92.6106 206.788 92.617 206.91 92.6146H210.565V93.4979L206.804 93.6886H206.59C205.552 93.6822 205.031 93.1431 205.029 92.0713Z" fill="#6E8B3D" stroke="#6E8B3D" stroke-width="0.3"/>
<path d="M214.012 84.7441H215.224L217.664 91.8742L219.707 84.7441H220.954L220.139 87.4354L221.738 91.9346L223.858 84.7441H225.083L222.381 93.6408H221.165L219.566 89.3291L218.262 93.6408H217.066L214.012 84.7441Z" fill="#6E8B3D" stroke="#6E8B3D" stroke-width="0.3"/>
<path d="M228.341 92.0701V86.3921C228.319 86.1557 228.349 85.9172 228.429 85.6937C228.51 85.4701 228.639 85.2671 228.808 85.0989C229.107 84.8569 229.484 84.7305 229.87 84.743H229.988C232.434 84.8511 233.73 84.9125 233.877 84.9273V85.8233H230.097C229.939 85.8131 229.783 85.8556 229.653 85.9441C229.567 85.9983 229.506 86.0839 229.483 86.1824C229.468 86.2972 229.462 86.413 229.464 86.5287V88.7465L233.362 88.7942V89.6998L229.464 89.8269V91.9748C229.451 92.1374 229.499 92.299 229.598 92.4292C229.661 92.5123 229.752 92.5708 229.854 92.5944C229.976 92.6093 230.099 92.6157 230.222 92.6134H233.877V93.4968L230.116 93.6874H229.899C228.863 93.6779 228.341 93.1409 228.341 92.0701Z" fill="#6E8B3D" stroke="#6E8B3D" stroke-width="0.3"/>
<path d="M237.73 92.058V84.75H238.853V91.9246C238.848 92.051 238.868 92.1772 238.91 92.2963C238.927 92.3402 238.954 92.3798 238.988 92.4122C239.023 92.4446 239.064 92.4691 239.109 92.4838C239.182 92.5142 239.258 92.5355 239.336 92.5473C239.427 92.5538 239.519 92.5538 239.611 92.5473H243.167V93.6276H239.438C239.001 93.6506 238.568 93.5397 238.197 93.3099C237.874 93.0907 237.73 92.6744 237.73 92.058Z" fill="#6E8B3D" stroke="#6E8B3D" stroke-width="0.3"/>
<path d="M246.709 93.6369V84.7402H250.546C251.985 84.7402 252.705 85.6426 252.705 87.4474C252.709 87.8397 252.667 88.2313 252.577 88.6135C252.519 88.8747 252.425 89.1269 252.299 89.3633C252.194 89.5342 252.053 89.6806 251.886 89.7923C251.772 89.8819 251.645 89.9546 251.509 90.0083L251.189 90.0878L253.025 93.6338H251.79L250.019 90.1386L247.828 89.9702V93.6242L246.709 93.6369ZM247.831 88.963H250.502C250.642 88.9668 250.783 88.9541 250.921 88.9249C251.038 88.8895 251.146 88.8312 251.24 88.7533C251.373 88.6332 251.461 88.4719 251.49 88.2957C251.551 88.0182 251.579 87.7345 251.573 87.4505C251.573 86.8151 251.474 86.3702 251.279 86.151C251.18 86.0446 251.059 85.9611 250.924 85.9062C250.789 85.8513 250.644 85.8264 250.499 85.8333H247.828L247.831 88.963Z" fill="#6E8B3D" stroke="#6E8B3D" stroke-width="0.3"/>
<path d="M255.879 84.7441H257.101L259.262 89.3005L261.651 84.7441H262.869L259.812 90.5873V93.6377H258.69V90.5873L255.879 84.7441Z" fill="#6E8B3D" stroke="#6E8B3D" stroke-width="0.3"/>
<defs>
<radialGradient id="paint0_radial_1339_99" cx="0" cy="0" r="1" gradientUnits="userSpaceOnUse" gradientTransform="translate(208.045 22.0066) scale(24.4734 29.6662)">
<stop offset="0.02" stop-color="#FFF0D9"/>
<stop offset="1" stop-color="white"/>
</radialGradient>
<radialGradient id="paint1_radial_1339_99" cx="0" cy="0" r="1" gradientUnits="userSpaceOnUse" gradientTransform="translate(224.072 7.57318) scale(8.89646 10.7842)">
<stop offset="0.02" stop-color="#FFF0D9"/>
<stop offset="1" stop-color="white"/>
</radialGradient>
</defs>
</svg>
