<svg width="30" height="20" viewBox="0 0 30 20" fill="none" xmlns="http://www.w3.org/2000/svg">
<path d="M22.9173 0.703125H27.2864C28.4994 0.703125 29.4863 1.69004 29.4863 2.90309V7.27211C29.4863 8.48516 28.4994 9.47208 27.2864 9.47208H22.9173C21.7043 9.47208 20.7174 8.48516 20.7174 7.27211V2.90309C20.7174 1.69004 21.7043 0.703125 22.9173 0.703125ZM22.2036 7.27211C22.2036 7.66564 22.5238 7.98582 22.9173 7.98582H27.2864C27.6799 7.98582 28.0001 7.66564 28.0001 7.27211V2.90309C28.0001 2.50957 27.6799 2.18939 27.2864 2.18939H22.9173C22.5238 2.18939 22.2036 2.50957 22.2036 2.90309V7.27211Z" fill="#CBCBCB"/>
<path d="M12.685 0.703125H16.9952C18.2245 0.703125 19.2246 1.70323 19.2246 2.93252V7.24269C19.2246 8.47197 18.2245 9.47208 16.9952 9.47208H12.685C11.4558 9.47208 10.4557 8.47197 10.4557 7.24269V2.93252C10.4557 1.70323 11.4558 0.703125 12.685 0.703125ZM11.9419 7.24269C11.9419 7.65245 12.2753 7.98582 12.685 7.98582H16.9952C17.405 7.98582 17.7383 7.65245 17.7383 7.24269V2.93252C17.7383 2.52276 17.405 2.18939 16.9952 2.18939H12.685C12.2753 2.18939 11.9419 2.52276 11.9419 2.93252V7.24269Z" fill="#CBCBCB"/>
<path d="M22.9173 10.9609H27.2864C28.4994 10.9609 29.4863 11.9479 29.4863 13.1609V17.5299C29.4863 18.743 28.4994 19.7299 27.2864 19.7299H22.9173C21.7043 19.7299 20.7174 18.743 20.7174 17.5299V13.1609C20.7174 11.9479 21.7043 10.9609 22.9173 10.9609ZM22.2036 17.5299C22.2036 17.9235 22.5238 18.2436 22.9173 18.2436H27.2864C27.6799 18.2436 28.0001 17.9235 28.0001 17.5299V13.1609C28.0001 12.7674 27.6799 12.4472 27.2864 12.4472H22.9173C22.5238 12.4472 22.2036 12.7674 22.2036 13.1609V17.5299Z" fill="#CBCBCB"/>
<path d="M12.685 10.9609H16.9952C18.2245 10.9609 19.2246 11.961 19.2246 13.1903V17.5005C19.2246 18.7298 18.2245 19.7299 16.9952 19.7299H12.685C11.4558 19.7299 10.4557 18.7298 10.4557 17.5005V13.1903C10.4557 11.961 11.4558 10.9609 12.685 10.9609ZM11.9419 17.5005C11.9419 17.9103 12.2753 18.2436 12.685 18.2436H16.9952C17.405 18.2436 17.7383 17.9103 17.7383 17.5005V13.1903C17.7383 12.7806 17.405 12.4472 16.9952 12.4472H12.685C12.2753 12.4472 11.9419 12.7806 11.9419 13.1903V17.5005Z" fill="#CBCBCB"/>
<path d="M2.20054 0.703125H6.56956C7.78261 0.703125 8.76953 1.69004 8.76953 2.90309V7.27211C8.76953 8.48516 7.78261 9.47208 6.56956 9.47208H2.20054C0.987491 9.47208 0.000575289 8.48516 0.000575289 7.27211V2.90309C0.000575289 1.69004 0.987491 0.703125 2.20054 0.703125ZM1.48684 7.27211C1.48684 7.66564 1.80702 7.98582 2.20054 7.98582H6.56956C6.96309 7.98582 7.28327 7.66564 7.28327 7.27211V2.90309C7.28327 2.50957 6.96309 2.18939 6.56956 2.18939H2.20054C1.80702 2.18939 1.48684 2.50957 1.48684 2.90309V7.27211Z" fill="#CBCBCB"/>
<path d="M2.20054 10.9609H6.56956C7.78261 10.9609 8.76953 11.9479 8.76953 13.1609V17.5299C8.76953 18.743 7.78261 19.7299 6.56956 19.7299H2.20054C0.987491 19.7299 0.000575289 18.743 0.000575289 17.5299V13.1609C0.000575289 11.9479 0.987491 10.9609 2.20054 10.9609ZM1.48684 17.5299C1.48684 17.9235 1.80702 18.2436 2.20054 18.2436H6.56956C6.96309 18.2436 7.28327 17.9235 7.28327 17.5299V13.1609C7.28327 12.7674 6.96309 12.4472 6.56956 12.4472H2.20054C1.80702 12.4472 1.48684 12.7674 1.48684 13.1609V17.5299Z" fill="#CBCBCB"/>
</svg>
