<svg width="20" height="15" viewBox="0 0 20 15" fill="none" xmlns="http://www.w3.org/2000/svg">
<path fill-rule="evenodd" clip-rule="evenodd" d="M6.18359 7.67163C6.18359 5.51427 7.79257 3.76538 9.77734 3.76538C11.7621 3.76538 13.3711 5.51427 13.3711 7.67163C13.3711 9.82899 11.7621 11.5779 9.77734 11.5779C7.79257 11.5779 6.18359 9.82899 6.18359 7.67163ZM9.77734 5.32788C8.58648 5.32788 7.62109 6.37721 7.62109 7.67163C7.62109 8.96605 8.58648 10.0154 9.77734 10.0154C10.9682 10.0154 11.9336 8.96605 11.9336 7.67163C11.9336 6.37721 10.9682 5.32788 9.77734 5.32788Z" fill="#FFFDFB"/>
<path fill-rule="evenodd" clip-rule="evenodd" d="M2.42063 6.26158C2.01897 6.89068 1.87109 7.38278 1.87109 7.67163C1.87109 7.96048 2.01897 8.45258 2.42063 9.08168C2.80889 9.6898 3.386 10.349 4.11615 10.9581C5.57964 12.179 7.58607 13.1404 9.77734 13.1404C11.9686 13.1404 13.9751 12.179 15.4385 10.9581C16.1687 10.349 16.7458 9.6898 17.1341 9.08168C17.5357 8.45258 17.6836 7.96048 17.6836 7.67163C17.6836 7.38278 17.5357 6.89068 17.1341 6.26158C16.7458 5.65346 16.1687 4.99425 15.4385 4.38514C13.9751 3.16426 11.9686 2.20288 9.77734 2.20288C7.58607 2.20288 5.57964 3.16426 4.11615 4.38514C3.386 4.99425 2.80889 5.65346 2.42063 6.26158ZM3.24094 3.14562C4.8991 1.76234 7.20516 0.640381 9.77734 0.640381C12.3495 0.640381 14.6556 1.76234 16.3137 3.14562C17.1444 3.83859 17.8304 4.61168 18.315 5.37074C18.7863 6.10883 19.1211 6.91882 19.1211 7.67163C19.1211 8.42444 18.7863 9.23443 18.315 9.97252C17.8304 10.7316 17.1444 11.5047 16.3137 12.1976C14.6556 13.5809 12.3495 14.7029 9.77734 14.7029C7.20516 14.7029 4.8991 13.5809 3.24094 12.1976C2.41027 11.5047 1.72428 10.7316 1.23965 9.97252C0.768408 9.23443 0.433594 8.42444 0.433594 7.67163C0.433594 6.91882 0.768408 6.10883 1.23965 5.37074C1.72428 4.61168 2.41027 3.83859 3.24094 3.14562Z" fill="#FFFDFB"/>
</svg>
