<svg width="25" height="26" viewBox="0 0 25 26" fill="none" xmlns="http://www.w3.org/2000/svg">
<path d="M22.4987 7.67864C22.1719 6.92208 21.7008 6.2365 21.1116 5.66026C20.522 5.08231 19.8269 4.62302 19.064 4.30736C18.2729 3.97875 17.4245 3.81055 16.5678 3.81252C15.3661 3.81252 14.1936 4.1416 13.1746 4.7632C12.9309 4.9119 12.6993 5.07522 12.4799 5.25317C12.2605 5.07522 12.0289 4.9119 11.7852 4.7632C10.7662 4.1416 9.59371 3.81252 8.39195 3.81252C7.52658 3.81252 6.68802 3.97828 5.89578 4.30736C5.13036 4.62426 4.4405 5.0801 3.84815 5.66026C3.25823 6.23585 2.78699 6.92159 2.46113 7.67864C2.12229 8.466 1.94922 9.30212 1.94922 10.1626C1.94922 10.9744 2.11498 11.8202 2.44406 12.6807C2.71952 13.3998 3.11442 14.1457 3.61901 14.899C4.41857 16.091 5.51795 17.3342 6.88304 18.5945C9.14518 20.6835 11.3854 22.1266 11.4805 22.1851L12.0582 22.5557C12.3141 22.719 12.6432 22.719 12.8992 22.5557L13.4769 22.1851C13.572 22.1242 15.8097 20.6835 18.0743 18.5945C19.4394 17.3342 20.5388 16.091 21.3383 14.899C21.8429 14.1457 22.2403 13.3998 22.5133 12.6807C22.8424 11.8202 23.0081 10.9744 23.0081 10.1626C23.0106 9.30212 22.8375 8.466 22.4987 7.67864ZM12.4799 20.6275C12.4799 20.6275 3.80184 15.0672 3.80184 10.1626C3.80184 7.67864 5.85678 5.66514 8.39195 5.66514C10.1739 5.66514 11.7193 6.6597 12.4799 8.11254C13.2404 6.6597 14.7859 5.66514 16.5678 5.66514C19.103 5.66514 21.158 7.67864 21.158 10.1626C21.158 15.0672 12.4799 20.6275 12.4799 20.6275Z" fill="#656565"/>
</svg>
