<svg xmlns="http://www.w3.org/2000/svg" viewBox="0 0 690.17 458.38"><defs><style>.cls-1{fill:#f5f5f5;}.cls-2{fill:#ebebeb;}.cls-3{fill:#e0e0e0;}.cls-4{fill:#fff;}.cls-5{fill:#263238;}.cls-6{fill:#fec260;}.cls-7{fill:#455a64;}.cls-16,.cls-8{opacity:0.3;}.cls-9{fill:#fafafa;}.cls-10{fill:#6e8b3d;}.cls-11{fill:#ffbf9d;}.cls-12{fill:#ff9a6c;}.cls-13{opacity:0.6;}.cls-14{fill:#9f7362;}.cls-15{fill:#65463c;}</style></defs><g id="Layer_2" data-name="Layer 2"><g id="Character_1" data-name="Character 1"><rect class="cls-1" x="148.49" y="231.93" width="49.67" height="13.14"/><path class="cls-2" d="M670.5,158.72a11.5,11.5,0,0,0,4.38-11.87c-1.35-6.21-7.17-10.21-13-8.95s-9.44,7.32-8.09,13.53a11.49,11.49,0,0,0,9,9c-15.66,6-11,23.48-11,23.48l38.35-8.33S687.09,157.58,670.5,158.72Z"/><path class="cls-2" d="M670.49,286.25a1.41,1.41,0,0,1,0-.25c0-.19,0-.42,0-.7,0-.64,0-1.52-.05-2.63,0-2.3,0-5.56-.1-9.56l.19.19-31.66.07.26-.26h0v6.75q0,3.3,0,6.38l-.25-.25,22.64.12,6.6.07,1.78,0,.64,0a4,4,0,0,1-.58,0l-1.73,0-6.55.07-22.8.12h-.25v-.25q0-3.08,0-6.38v-6.75h0l.26-.26,31.66.08h.19v.18c0,4.05-.07,7.34-.1,9.67,0,1.09,0,2,0,2.59S670.5,286.26,670.49,286.25Z"/><path class="cls-3" d="M665.66,299.67s0-.09,0-.24l0-.68c0-.61,0-1.48,0-2.58,0-2.27,0-5.53-.08-9.64l.15.15-49.66.1.25-.25h0v6.65c0,2.2,0,4.35,0,6.47l-.24-.25,35.39.11,10.45.07,2.82,0,.74,0,.26,0h-.23l-.71,0-2.77,0-10.39.07-35.56.11h-.25v-.24c0-2.12,0-4.27,0-6.47v-6.65h0l.26-.26,49.66.1h.16v.16c0,4.15-.07,7.44-.09,9.73,0,1.09,0,1.94,0,2.55,0,.27,0,.48,0,.65A.85.85,0,0,1,665.66,299.67Z"/><rect class="cls-1" x="21.25" y="304.55" width="49.67" height="13.14"/><path class="cls-3" d="M49.92,331.53a1.35,1.35,0,0,1,0-.24v-.67c0-.62,0-1.49,0-2.59,0-2.27-.05-5.53-.08-9.64l.15.15-49.66.1.25-.25h0v3.34c0,1.11,0,2.22,0,3.32v6.46l-.25-.25,35.4.11,10.44.07,2.83,0h.74l.26,0h-.23l-.71,0-2.77,0-10.39.07-35.57.12H0v-.25c0-2.11,0-4.27,0-6.46v-6.66H0c.51-.51.14-.14.26-.25l49.66.09h.16v.15c0,4.15-.06,7.44-.08,9.73,0,1.09,0,1.94,0,2.55,0,.27,0,.48,0,.65A.85.85,0,0,1,49.92,331.53Z"/><rect class="cls-1" x="476.47" y="319.9" width="49.67" height="13.14"/><path class="cls-3" d="M505.14,346.88a1.35,1.35,0,0,1,0-.24l0-.67c0-.62,0-1.48,0-2.59,0-2.27-.05-5.53-.09-9.64l.16.15-49.67.1.25-.25h0v13.12l-.25-.25,35.39.11,10.45.07,2.82,0h.74l.27,0-.23,0h-.71l-2.77,0L491,347l-35.57.12h-.25V333.76h0l.25-.25,49.67.1h.15v.15c0,4.15-.07,7.44-.09,9.73q0,1.63,0,2.55c0,.27,0,.48,0,.65A1.66,1.66,0,0,1,505.14,346.88Z"/><path class="cls-2" d="M353,383.75s0-.1,0-.25,0-.42,0-.7c0-.65,0-1.53,0-2.64,0-2.3-.06-5.55-.1-9.55l.18.18-31.65.08c-.24.23.31-.32.26-.26h0v6.74c0,2.19,0,4.33,0,6.38l-.25-.25,22.64.11,6.6.07,1.79,0,.63,0a3.75,3.75,0,0,1-.57,0l-1.73,0-6.55.07-22.81.11h-.24v-.25c0-2.05,0-4.19,0-6.38V374c0-.56,0-1.13,0-1.7v-1.69h0c-.05.05.5-.5.27-.26l31.65.07h.19v.19c0,4-.08,7.33-.1,9.67,0,1.09,0,2-.05,2.59A5.15,5.15,0,0,1,353,383.75Z"/><path class="cls-3" d="M348.17,397.16a1.1,1.1,0,0,1,0-.24v-.67c0-.62,0-1.48,0-2.59,0-2.27-.05-5.53-.09-9.64l.16.16-49.67.1.25-.26h0v13.13l-.25-.25,35.39.12,10.45.07,2.83,0,.74,0h.26l-.23,0h-.71l-2.77,0-10.39.07-35.57.11h-.25V384h0l.25-.25,49.67.1h.15V384c0,4.15-.06,7.44-.08,9.73,0,1.1,0,1.95,0,2.56,0,.26,0,.47,0,.64A1.31,1.31,0,0,1,348.17,397.16Z"/><rect class="cls-1" x="393.16" y="246.17" width="49.67" height="13.14"/><circle class="cls-3" cx="600.06" cy="33.28" r="33.28"/><path class="cls-4" d="M570,31.24a30.3,30.3,0,1,1,28.24,32.22A30.29,30.29,0,0,1,570,31.24Z"/><path class="cls-3" d="M614.13,33.77a5.37,5.37,0,0,1-1.07.07l-2.95.06c-2.5,0-6,.06-9.91.07H600V31.81c0-4.39,0-8.36,0-11.24,0-1.39.05-2.53.06-3.41a7.69,7.69,0,0,1,.08-1.24,7.69,7.69,0,0,1,.08,1.24c0,.88,0,2,.06,3.41,0,2.88.06,6.85.06,11.24v2l-.2-.19c3.93,0,7.41,0,9.91.06l2.95.06A6.55,6.55,0,0,1,614.13,33.77Z"/><path class="cls-3" d="M600.29,7.52a8.27,8.27,0,0,1,.2,2.54,8.31,8.31,0,0,1-.2,2.55,8.92,8.92,0,0,1-.19-2.55A8.88,8.88,0,0,1,600.29,7.52Z"/><path class="cls-3" d="M614.1,11.61a8.36,8.36,0,0,1-1.64,1.91,7.93,7.93,0,0,1-1.91,1.63,8.36,8.36,0,0,1,1.64-1.91A7.93,7.93,0,0,1,614.1,11.61Z"/><path class="cls-3" d="M622.17,20.42a10.43,10.43,0,0,1-2.09,1.4,10.62,10.62,0,0,1-2.2,1.21,6.74,6.74,0,0,1,2-1.55A7,7,0,0,1,622.17,20.42Z"/><path class="cls-3" d="M626.9,33.51a31.78,31.78,0,0,1-6.94,0,30.2,30.2,0,0,1,6.94,0Z"/><path class="cls-3" d="M578.78,33.05a28.41,28.41,0,0,1-6.56,0,27,27,0,0,1,6.56,0Z"/><path class="cls-3" d="M582.18,42.79A14.7,14.7,0,0,1,579.7,45,14.48,14.48,0,0,1,577,47a14.49,14.49,0,0,1,2.48-2.25A14.14,14.14,0,0,1,582.18,42.79Z"/><path class="cls-3" d="M590.58,50.32a21.47,21.47,0,0,1-1.69,2.92,22.4,22.4,0,0,1-1.79,2.86A11.38,11.38,0,0,1,588.56,53,10.77,10.77,0,0,1,590.58,50.32Z"/><path class="cls-3" d="M600.29,60a16.44,16.44,0,0,1-.19-3.47,16.36,16.36,0,0,1,.19-3.47,15.23,15.23,0,0,1,.2,3.47A15.3,15.3,0,0,1,600.29,60Z"/><path class="cls-3" d="M615.25,55.41a10.12,10.12,0,0,1-2.86-2,10.29,10.29,0,0,1-2.33-2.56,32,32,0,0,1,2.59,2.27A31.13,31.13,0,0,1,615.25,55.41Z"/><path class="cls-3" d="M622.27,47.85a12.25,12.25,0,0,1-2.29-2,12.06,12.06,0,0,1-2-2.3,12.21,12.21,0,0,1,2.3,2A12.47,12.47,0,0,1,622.27,47.85Z"/><path class="cls-3" d="M581.86,23.71a9.24,9.24,0,0,1-2-1.75,9.78,9.78,0,0,1-1.75-2,8.76,8.76,0,0,1,2,1.75A9.08,9.08,0,0,1,581.86,23.71Z"/><path class="cls-3" d="M590.53,14.59a9.17,9.17,0,0,1-2-1.71,8.68,8.68,0,0,1-1.71-2,9.26,9.26,0,0,1,2,1.71A9.23,9.23,0,0,1,590.53,14.59Z"/><path class="cls-1" d="M573.44,33.24A30.12,30.12,0,0,1,601.77,3.18c-.6,0-1.19-.06-1.79-.06a30.12,30.12,0,0,0,0,60.24c.6,0,1.19,0,1.79-.06A30.11,30.11,0,0,1,573.44,33.24Z"/><path class="cls-3" d="M570,31.24s0,.17,0,.49,0,.82,0,1.45c0,.31,0,.67,0,1.06s.07.81.11,1.27.09,1,.14,1.49a13.85,13.85,0,0,0,.28,1.67,28.92,28.92,0,0,0,2.82,8.25,30,30,0,0,0,7.1,9L581.69,57c.44.33.91.64,1.36,1s.91.68,1.41,1l1.52.85.77.43.81.36,1.66.73c.56.23,1.15.39,1.74.59a13.65,13.65,0,0,0,1.79.53,27.4,27.4,0,0,0,3.78.69c.64.07,1.29.17,2,.21l2,0c.34,0,.67,0,1,0l1-.09c.68-.07,1.37-.1,2-.2a31.59,31.59,0,0,0,4.09-.91l1-.3.51-.16.5-.2,2-.81c.66-.3,1.3-.66,2-1,.32-.18.66-.33,1-.53l.93-.6a35,35,0,0,0,3.6-2.68l1.64-1.58.41-.4.37-.43.75-.88.75-.88.67-1,.67-1,.34-.48c.1-.16.2-.33.29-.5l1.16-2.06,1-2.17a32.17,32.17,0,0,0,2.18-9.38,32.28,32.28,0,0,0-.93-9.59c-.22-.77-.44-1.53-.67-2.28s-.59-1.47-.88-2.19l-.22-.55-.27-.52-.54-1-.54-1-.63-1-.63-1-.32-.48-.35-.45c-.48-.59-1-1.19-1.42-1.78a31.53,31.53,0,0,0-3.22-3.12l-.84-.73c-.28-.24-.6-.43-.89-.64-.61-.42-1.19-.86-1.8-1.25l-1.89-1.06-.46-.27-.49-.22-1-.43a32.74,32.74,0,0,0-3.94-1.44c-.66-.18-1.34-.3-2-.46l-1-.22c-.33-.06-.67-.08-1-.13l-2-.23c-.66-.06-1.31,0-2-.06a30.39,30.39,0,0,0-3.84.19,16.21,16.21,0,0,0-1.85.3c-.6.12-1.21.2-1.8.36l-1.73.5-.86.25-.82.33L588,5.68c-.54.21-1,.51-1.52.76s-1,.5-1.48.77l-1.36.89a30.05,30.05,0,0,0-8.22,8,28.54,28.54,0,0,0-3.87,7.8,13.57,13.57,0,0,0-.5,1.63c-.12.52-.23,1-.33,1.45s-.21.87-.28,1.25-.09.74-.13,1.06c-.08.62-.14,1.09-.18,1.43s-.07.48-.07.48a4.6,4.6,0,0,1,0-.49c0-.33.08-.81.15-1.43,0-.32.07-.67.11-1.06s.17-.8.26-1.26.2-.94.31-1.46.32-1.06.49-1.64A29.07,29.07,0,0,1,575.22,16a30.28,30.28,0,0,1,8.25-8.13l1.37-.9c.48-.27,1-.52,1.48-.78s1-.56,1.54-.77l1.62-.66.82-.33.87-.25,1.74-.52c.6-.15,1.21-.24,1.82-.36A14.57,14.57,0,0,1,596.6,3a27.48,27.48,0,0,1,3.87-.2c.65,0,1.32,0,2,0l2,.23c.33,0,.67.06,1,.13l1,.22c.67.15,1.35.28,2,.46a31.71,31.71,0,0,1,4,1.45l1,.43L614,6l.47.26,1.9,1.08c.62.39,1.21.83,1.82,1.25.3.22.62.41.9.65l.86.73a35.81,35.81,0,0,1,3.26,3.15L624.59,15l.36.45.32.48.64,1,.63,1,.55,1,.55,1.05.27.52.23.55c.29.74.59,1.47.89,2.22s.45,1.53.68,2.3a32.72,32.72,0,0,1,.94,9.7,32.67,32.67,0,0,1-2.2,9.49c-.33.73-.66,1.46-1,2.19L626.3,49c-.1.17-.19.35-.3.51l-.34.49L625,51l-.67,1-.77.89-.75.89-.38.44-.42.4-1.66,1.6a36,36,0,0,1-3.64,2.7l-.94.61c-.31.2-.65.35-1,.53-.66.33-1.3.7-2,1l-2,.82-.51.2c-.17.06-.34.1-.51.15l-1,.31a31.44,31.44,0,0,1-4.13.91c-.69.1-1.38.13-2.06.2l-1,.08c-.34,0-.68,0-1,0l-2,0c-.67,0-1.32-.14-2-.21a28.14,28.14,0,0,1-3.81-.71,15.73,15.73,0,0,1-1.81-.54c-.59-.2-1.19-.37-1.75-.6l-1.67-.74-.82-.36-.77-.44-1.53-.86c-.51-.28-1-.65-1.42-1s-.93-.64-1.37-1l-1.24-1.06A30.28,30.28,0,0,1,573.19,47a28.84,28.84,0,0,1-2.78-8.3,16.36,16.36,0,0,1-.27-1.69c0-.53-.08-1-.12-1.49s-.08-.89-.09-1.28,0-.75,0-1.06c0-.63,0-1.11,0-1.45S570,31.24,570,31.24Z"/><path class="cls-2" d="M336,311.91l-41.12-20a5.73,5.73,0,0,1-2.64-7.65l27.72-56.91a5.73,5.73,0,0,1,7.65-2.64l26.07,12.7L363.7,268l-20.09,41.25A5.73,5.73,0,0,1,336,311.91Z"/><path class="cls-3" d="M353.64,237.39l-7.8,16a5.33,5.33,0,0,0,2.46,7.12l15.4,7.5Z"/><path class="cls-4" d="M342.71,251.07c-.1.21-4.44-1.7-9.69-4.26s-9.43-4.8-9.33-5,4.44,1.7,9.69,4.26S342.81,250.87,342.71,251.07Z"/><path class="cls-4" d="M350.59,266.11c-.1.21-7.19-3-15.84-7.25s-15.57-7.79-15.47-8,7.19,3,15.84,7.25S350.69,265.9,350.59,266.11Z"/><path class="cls-4" d="M349.73,275.05c-.1.2-7.83-3.35-17.25-7.94s-17-8.48-16.88-8.68,7.82,3.34,17.24,7.93S349.83,274.84,349.73,275.05Z"/><path class="cls-4" d="M346.25,282.18c-.1.21-7.82-3.35-17.24-7.94s-17-8.47-16.89-8.68,7.82,3.35,17.25,7.94S346.35,282,346.25,282.18Z"/><path class="cls-4" d="M342.78,289.31c-.1.21-7.82-3.34-17.25-7.93s-17-8.48-16.88-8.68,7.82,3.34,17.25,7.93S342.88,289.11,342.78,289.31Z"/><path class="cls-4" d="M339.3,296.45c-.1.2-7.82-3.35-17.24-7.94s-17-8.47-16.88-8.68,7.82,3.35,17.24,7.94S339.4,296.24,339.3,296.45Z"/><rect class="cls-3" x="29.98" y="1.17" width="118.84" height="153.48" transform="translate(178.8 155.83) rotate(180)"/><path class="cls-2" d="M30,154.65a2.89,2.89,0,0,1,.33-.41l1-1.15q1.44-1.56,4-4.4l0-.05h.07c10.33-.1,30.63-.18,53.94-.18s43.61.08,53.94.18h.07l.05.05,4,4.4,1,1.15a2.89,2.89,0,0,1,.33.41s-.15-.1-.39-.35l-1.09-1.09-4.13-4.29.13.06c-10.33.1-30.63.17-53.94.17s-43.61-.07-53.94-.17l.12-.06-4.13,4.29-1.08,1.09A2.07,2.07,0,0,1,30,154.65Z"/><path class="cls-2" d="M148.82,1.17a2.33,2.33,0,0,1-.33.41l-1,1.15-4,4.4-.05,0h-.07c-10.34.11-30.64.18-53.94.18s-43.61-.07-53.94-.18h-.07l0,0-4-4.4-1-1.15A2.33,2.33,0,0,1,30,1.17a2.69,2.69,0,0,1,.39.35l1.08,1.09L35.58,6.9l-.12-.05c10.33-.1,30.63-.18,53.94-.18s43.6.08,53.94.18l-.13.05,4.13-4.29,1.09-1.09C148.67,1.28,148.8,1.16,148.82,1.17Z"/><rect class="cls-4" x="35.46" y="7.02" width="107.88" height="141.79" transform="translate(178.8 155.83) rotate(180)"/><path class="cls-3" d="M125,24.41c.19,0,.35,23.85.35,53.27S125.15,131,125,131s-.34-23.85-.34-53.28S124.77,24.41,125,24.41Z"/><path class="cls-3" d="M121.59,24.41c.19,0,.34,23.85.34,53.27s-.15,53.28-.34,53.28-.35-23.85-.35-53.28S121.4,24.41,121.59,24.41Z"/><path class="cls-3" d="M118.21,24.41c.19,0,.35,23.85.35,53.27S118.4,131,118.21,131s-.34-23.85-.34-53.28S118,24.41,118.21,24.41Z"/><path class="cls-3" d="M114.84,24.41c.19,0,.34,23.85.34,53.27S115,131,114.84,131s-.34-23.85-.34-53.28S114.65,24.41,114.84,24.41Z"/><path class="cls-3" d="M111.47,24.41c.19,0,.34,23.85.34,53.27s-.15,53.28-.34,53.28-.35-23.85-.35-53.28S111.28,24.41,111.47,24.41Z"/><path class="cls-3" d="M108.09,24.41c.19,0,.35,23.85.35,53.27s-.16,53.28-.35,53.28-.34-23.85-.34-53.28S107.9,24.41,108.09,24.41Z"/><path class="cls-3" d="M104.72,24.41c.19,0,.34,23.85.34,53.27s-.15,53.28-.34,53.28-.35-23.85-.35-53.28S104.53,24.41,104.72,24.41Z"/><path class="cls-3" d="M101.34,24.41c.19,0,.35,23.85.35,53.27s-.16,53.28-.35,53.28S101,107.11,101,77.68,101.15,24.41,101.34,24.41Z"/><path class="cls-3" d="M98,24.41c.19,0,.34,23.85.34,53.27S98.16,131,98,131s-.35-23.85-.35-53.28S97.78,24.41,98,24.41Z"/><path class="cls-3" d="M94.59,24.41c.19,0,.35,23.85.35,53.27S94.78,131,94.59,131s-.34-23.85-.34-53.28S94.4,24.41,94.59,24.41Z"/><path class="cls-3" d="M91.22,24.41c.19,0,.34,23.85.34,53.27S91.41,131,91.22,131s-.34-23.85-.34-53.28S91,24.41,91.22,24.41Z"/><path class="cls-3" d="M87.85,24.41c.19,0,.34,23.85.34,53.27S88,131,87.85,131s-.35-23.85-.35-53.28S87.66,24.41,87.85,24.41Z"/><path class="cls-3" d="M84.47,24.41c.19,0,.35,23.85.35,53.27S84.66,131,84.47,131s-.34-23.85-.34-53.28S84.28,24.41,84.47,24.41Z"/><path class="cls-3" d="M81.1,24.41c.19,0,.34,23.85.34,53.27S81.29,131,81.1,131s-.35-23.85-.35-53.28S80.91,24.41,81.1,24.41Z"/><path class="cls-3" d="M77.72,24.41c.19,0,.35,23.85.35,53.27S77.91,131,77.72,131s-.34-23.85-.34-53.28S77.53,24.41,77.72,24.41Z"/><path class="cls-3" d="M74.35,24.41c.19,0,.34,23.85.34,53.27S74.54,131,74.35,131,74,107.11,74,77.68,74.16,24.41,74.35,24.41Z"/><path class="cls-3" d="M71,24.41c.19,0,.35,23.85.35,53.27S71.16,131,71,131s-.34-23.85-.34-53.28S70.78,24.41,71,24.41Z"/><path class="cls-3" d="M67.6,24.41c.19,0,.34,23.85.34,53.27S67.79,131,67.6,131s-.35-23.85-.35-53.28S67.41,24.41,67.6,24.41Z"/><path class="cls-3" d="M64.22,24.41c.19,0,.35,23.85.35,53.27S64.41,131,64.22,131s-.34-23.85-.34-53.28S64,24.41,64.22,24.41Z"/><path class="cls-3" d="M60.85,24.41c.19,0,.34,23.85.34,53.27S61,131,60.85,131s-.34-23.85-.34-53.28S60.66,24.41,60.85,24.41Z"/><path class="cls-3" d="M57.48,24.41c.19,0,.34,23.85.34,53.27S57.67,131,57.48,131s-.35-23.85-.35-53.28S57.29,24.41,57.48,24.41Z"/><path class="cls-3" d="M54.1,24.41c.19,0,.35,23.85.35,53.27S54.29,131,54.1,131s-.34-23.85-.34-53.28S53.91,24.41,54.1,24.41Z"/><path class="cls-1" d="M507,276.47l-.05-2.2c-.35-18.56-10.61-35.57-27.06-43.79a48.58,48.58,0,0,0-6.56-2.69,52.24,52.24,0,0,0-48.45,9.28c-7.84,6.44-14.19,15.41-23.79,18.56-12.49,4.1-25.48-3.08-36.56-10s-24.1-14.07-36.58-9.91c-7.81,2.6-13.72,9.33-17.49,16.7-10,19.51-6.63,44.1,5.26,62.26s31.21,30.38,51.72,37.34c28.73,9.76,61.46,9.72,88.94-3.73S504.92,307,507,276.47Z"/><circle class="cls-1" cx="65.83" cy="35.99" r="31.08"/><path class="cls-5" d="M654.77,443.3c0,.14-142.56.26-318.38.26S18,443.44,18,443.3,160.52,443,336.39,443,654.77,443.16,654.77,443.3Z"/><rect class="cls-4" x="271.93" y="12.7" width="241.03" height="199.52"/><path class="cls-5" d="M513,212.22c0-1.39-.07-79.28-.17-199.52l.17.16-241,0h0l.2-.2c0,72.23,0,140.39,0,199.52l-.18-.18,241,.18-241,.18h-.18v-.18c0-59.13,0-127.29,0-199.52v-.2H272l241,0h.16v.17C513,132.94,513,210.83,513,212.22Z"/><path class="cls-3" d="M485.26,66.57c0,.11-43.21.2-96.5.2s-96.51-.09-96.51-.2,43.2-.2,96.51-.2S485.26,66.46,485.26,66.57Z"/><path class="cls-3" d="M485.26,87.88c0,.11-43.21.2-96.5.2s-96.51-.09-96.51-.2,43.2-.2,96.51-.2S485.26,87.77,485.26,87.88Z"/><path class="cls-3" d="M485.26,109.19c0,.11-43.21.2-96.5.2s-96.51-.09-96.51-.2,43.2-.2,96.51-.2S485.26,109.08,485.26,109.19Z"/><path class="cls-3" d="M485.26,130.5c0,.11-43.21.2-96.5.2s-96.51-.09-96.51-.2,43.2-.19,96.51-.19S485.26,130.39,485.26,130.5Z"/><path class="cls-3" d="M485.26,151.82c0,.11-43.21.2-96.5.2s-96.51-.09-96.51-.2,43.2-.2,96.51-.2S485.26,151.71,485.26,151.82Z"/><path class="cls-3" d="M485.26,173.13c0,.11-43.21.2-96.5.2s-96.51-.09-96.51-.2,43.2-.2,96.51-.2S485.26,173,485.26,173.13Z"/><rect class="cls-6" x="410.76" y="132.33" width="19.23" height="61.91"/><rect class="cls-6" x="447.07" y="111.88" width="19.23" height="82.37"/><rect class="cls-6" x="309.54" y="165.26" width="19.23" height="28.98"/><rect class="cls-6" x="341.35" y="156.61" width="19.23" height="37.63"/><rect class="cls-6" x="374.32" y="145.67" width="19.23" height="48.57"/><path class="cls-5" d="M513.07,23.76H271.9a7.35,7.35,0,0,1-7.35-7.35h0a7.36,7.36,0,0,1,7.35-7.36H513.07a7.36,7.36,0,0,1,7.35,7.36h0A7.35,7.35,0,0,1,513.07,23.76Z"/><path class="cls-5" d="M487,194.24l-.88,0-2.6,0-10,0-36.71.06-121.1.06H291.62v-.2c0-41.69.05-78.53.06-104.95,0-13.2.05-23.8.06-31.1,0-3.65,0-6.47,0-8.39,0-.95,0-1.68,0-2.17s0-.74,0-.74,0,.25,0,.74,0,1.22,0,2.17c0,1.92,0,4.74,0,8.39,0,7.3,0,17.9.06,31.1,0,26.42,0,63.26.07,105l-.2-.2h23.93l121.1.06,36.71.06,10,0,2.6,0Z"/><path class="cls-5" d="M301.36,58.09a57.1,57.1,0,0,1-9.55,0,57.1,57.1,0,0,1,9.55,0Z"/><path class="cls-5" d="M301.36,78.37a57.1,57.1,0,0,1-9.55,0,57.1,57.1,0,0,1,9.55,0Z"/><path class="cls-5" d="M301.36,98.64a57.1,57.1,0,0,1-9.55,0,60.1,60.1,0,0,1,9.55,0Z"/><path class="cls-5" d="M301.36,118.92a57.1,57.1,0,0,1-9.55,0,57.1,57.1,0,0,1,9.55,0Z"/><path class="cls-5" d="M301.36,139.19a57.1,57.1,0,0,1-9.55,0,60.1,60.1,0,0,1,9.55,0Z"/><path class="cls-5" d="M301.36,159.47a57.1,57.1,0,0,1-9.55,0,57.1,57.1,0,0,1,9.55,0Z"/><path class="cls-5" d="M400,406s-4.85-33.38-4.45-52.81,0-41.27,0-41.27h2.23s-1.51,38.55.14,61.8,6,32.28,6,32.28H400"/><path class="cls-7" d="M414.47,274.37a5.92,5.92,0,0,0-2-3c-1.42-.9-3.28-.53-4.87,0-6.76,2.39-12.75,15-15.48,21.63l9,30.24C417.26,308.26,420.07,288.55,414.47,274.37Z"/><path class="cls-5" d="M411.91,272.61a1.66,1.66,0,0,1-.13.4c-.11.29-.26.65-.44,1.1-.39.95-.94,2.33-1.6,4.05-1.33,3.44-3,8.24-4.51,13.65s-2.54,10.39-3.17,14c-.32,1.82-.56,3.29-.72,4.31-.07.47-.14.86-.19,1.17a2.39,2.39,0,0,1-.09.4,1.59,1.59,0,0,1,0-.41c0-.31.07-.7.12-1.18.11-1,.31-2.51.6-4.33a128.93,128.93,0,0,1,7.69-27.71c.7-1.71,1.29-3.08,1.72-4l.5-1.07A2,2,0,0,1,411.91,272.61Z"/><path class="cls-7" d="M397.07,330.54c-8.41-4.65-13.37-13.39-13.83-23-.32-6.71,1.74-13.3,4.07-19.6a2.63,2.63,0,0,1,.95-1.42,2.43,2.43,0,0,1,2.3.36c6.11,3.48,9.81,10.11,11.78,16.87a33.83,33.83,0,0,1,1.39,13.87,23.06,23.06,0,0,1-6.66,12.91"/><path class="cls-5" d="M397.07,330.54a2.18,2.18,0,0,1,0-.41c0-.3,0-.69,0-1.16,0-1,0-2.46-.13-4.26a115.85,115.85,0,0,0-1.56-14c-.93-5.42-2.07-10.27-2.9-13.77-.41-1.72-.75-3.12-1-4.15-.1-.46-.19-.84-.26-1.14a1.83,1.83,0,0,1-.06-.4,2,2,0,0,1,.14.39c.08.29.19.66.32,1.11.28,1,.66,2.38,1.11,4.13.9,3.49,2.08,8.34,3,13.77a101.45,101.45,0,0,1,1.46,14c.05,1.81.05,3.27,0,4.28,0,.47,0,.85-.05,1.16A1.6,1.6,0,0,1,397.07,330.54Z"/><g class="cls-8"><path d="M397.07,330.54c-8.41-4.65-13.37-13.39-13.83-23-.32-6.71,1.74-13.3,4.07-19.6a2.63,2.63,0,0,1,.95-1.42,2.43,2.43,0,0,1,2.3.36c6.11,3.48,9.81,10.11,11.78,16.87a33.83,33.83,0,0,1,1.39,13.87,23.06,23.06,0,0,1-6.66,12.91"/></g><path class="cls-7" d="M406.56,381.62c8.28,1.81,15.1,7.65,23.09,10.49,5.28,1.88,11.26,2.55,15.48,6.24-1-2.55-3.41-4.26-5.75-5.71a102.76,102.76,0,0,0-20.92-10c-3.76-1.3-7.83-2.38-11.66-1.31"/><path class="cls-7" d="M394.59,389c-10.37-.17-21.28-9-31.6-9.52,10.8-3.49,26.26-.64,31.6,9.52"/><path class="cls-7" d="M398.64,364.12A33.74,33.74,0,0,1,415.22,363a100.32,100.32,0,0,1,16.18,4.4c-.53-3.6-3.44-6.3-6.18-8.7a43,43,0,0,0-6.5-5,14.43,14.43,0,0,0-7.79-2.2,12.32,12.32,0,0,0-8.6,4.33,14.36,14.36,0,0,0-3.69,8.29"/><path class="cls-7" d="M377.36,352.67c-6.52-5.57-16.41-5-25-4.83A203.38,203.38,0,0,1,391.13,372C391.48,365.92,385.61,359.71,377.36,352.67Z"/><g class="cls-8"><path d="M377.36,352.67c-6.52-5.57-16.41-5-25-4.83A203.38,203.38,0,0,1,391.13,372C391.48,365.92,385.61,359.71,377.36,352.67Z"/></g><path class="cls-7" d="M401.58,345a72.06,72.06,0,0,1,10-5.84c3.43-1.56,6.64-4,10-5.84,4.3-2.33,8-5.57,12-8.46s8.28-5.49,13.12-6.26a25.84,25.84,0,0,0-11.94.69,77.11,77.11,0,0,0-11.24,4.37c-5.09,2.3-10.27,4.65-14.44,8.37s-7.92,7.4-7.48,13"/><path class="cls-5" d="M429.46,389a1.44,1.44,0,0,1-.33-.14l-.9-.47c-.79-.41-1.91-1-3.32-1.74-.7-.37-1.47-.75-2.31-1.15s-1.74-.82-2.69-1.23a40.15,40.15,0,0,0-6.39-2.23,13.69,13.69,0,0,0-6.65-.16,18,18,0,0,0-2.82.84,14.3,14.3,0,0,0-5.13,3.53c-.6.64-.9,1-.92,1a1.37,1.37,0,0,1,.18-.3,8.51,8.51,0,0,1,.63-.81,13.72,13.72,0,0,1,2.82-2.48,15,15,0,0,1,2.3-1.24,20.41,20.41,0,0,1,2.86-.89,13.88,13.88,0,0,1,6.82.14A38.67,38.67,0,0,1,420,384c1,.42,1.86.84,2.69,1.27s1.61.8,2.3,1.19c1.4.74,2.51,1.39,3.27,1.85l.87.53A1.88,1.88,0,0,1,429.46,389Z"/><path class="cls-5" d="M386.86,383.85a2.88,2.88,0,0,1,.65.19,14.63,14.63,0,0,1,1.69.74,20.52,20.52,0,0,1,8.66,8.32,13.73,13.73,0,0,1,.8,1.66,2.74,2.74,0,0,1,.22.64c-.06,0-.45-.85-1.25-2.17a23.09,23.09,0,0,0-8.55-8.22C387.73,384.27,386.83,383.91,386.86,383.85Z"/><path class="cls-5" d="M363.92,352.15a2.25,2.25,0,0,1,.44.13l1.24.44,2,.73c.76.28,1.59.7,2.53,1.11a60.34,60.34,0,0,1,13.5,8.6,66.16,66.16,0,0,1,6.29,6.2,67.12,67.12,0,0,1,4.47,5.66c1.19,1.68,2.08,3.08,2.7,4l.71,1.12a2,2,0,0,1,.23.4,3,3,0,0,1-.29-.36c-.18-.24-.45-.6-.77-1.08-.65-.94-1.58-2.31-2.79-4s-2.72-3.56-4.51-5.59a68.15,68.15,0,0,0-6.28-6.14A63.27,63.27,0,0,0,370,354.8c-.93-.43-1.75-.86-2.5-1.16l-1.94-.78-1.22-.51A2.2,2.2,0,0,1,363.92,352.15Z"/><path class="cls-5" d="M414.2,358.29a3.53,3.53,0,0,1-.82-.11l-1-.17c-.37-.07-.8-.08-1.27-.12a12.82,12.82,0,0,0-10.37,3.81,14.52,14.52,0,0,0-2.08,2.58,21,21,0,0,0-1.43,2.72,3.1,3.1,0,0,1,.21-.81,12.13,12.13,0,0,1,1-2.05,14.27,14.27,0,0,1,2.07-2.68,12.58,12.58,0,0,1,3.31-2.5,12.72,12.72,0,0,1,7.32-1.34c.48.07.92.09,1.29.18l1,.24A3.84,3.84,0,0,1,414.2,358.29Z"/><path class="cls-5" d="M424.62,326a1.74,1.74,0,0,1-.39.24l-1.16.63c-1,.54-2.45,1.34-4.21,2.38s-3.81,2.34-6,3.91a50.57,50.57,0,0,0-6.7,5.62,16.56,16.56,0,0,0-2.74,3.55c-.68,1.3-1.33,2.56-1.93,3.77a67.39,67.39,0,0,0-2.88,6.56,40.94,40.94,0,0,0-1.4,4.62c-.27,1.11-.36,1.73-.4,1.73a2.27,2.27,0,0,1,0-.46c0-.3.1-.74.22-1.3a33.8,33.8,0,0,1,1.29-4.68,66.08,66.08,0,0,1,2.82-6.62c.59-1.22,1.24-2.48,1.91-3.79a17.33,17.33,0,0,1,2.8-3.64,48.33,48.33,0,0,1,6.78-5.64c2.21-1.56,4.3-2.83,6.07-3.86s3.25-1.77,4.28-2.28l1.19-.56A2.35,2.35,0,0,1,424.62,326Z"/><path class="cls-5" d="M395.55,357.36a3.89,3.89,0,0,1-.21-.88l-.45-2.39A61.33,61.33,0,0,0,390,338.85c-.41-.89-.74-1.63-1-2.22a4.6,4.6,0,0,1-.34-.84,4.05,4.05,0,0,1,.47.77c.27.51.66,1.25,1.11,2.17A51.23,51.23,0,0,1,395.15,354c.16,1,.28,1.85.33,2.42A4.59,4.59,0,0,1,395.55,357.36Z"/><path class="cls-7" d="M394.8,333.77a28.23,28.23,0,0,0-3.37-11.2,37,37,0,0,0-25.05-18.68l23.19,34.56,3,6.17C394.61,341.27,395.06,337.68,394.8,333.77Z"/><rect class="cls-6" x="374.14" y="401.88" width="53.92" height="9.56"/><polygon class="cls-6" points="378.17 409.54 382.97 443.77 418.77 443.77 424.03 409.54 378.17 409.54"/><path class="cls-5" d="M428,411.45c0,.1-12.16.19-27.16.19s-27.17-.09-27.17-.19,12.16-.19,27.17-.19S428,411.34,428,411.45Z"/><path class="cls-4" d="M639.47,44a26.63,26.63,0,0,0-26.24,40h0l-3.66,9.82,9.91-2.58a26.62,26.62,0,1,0,20-47.18Z"/><path class="cls-5" d="M639.47,44l.46,0,1.34.22c.29,0,.62.09,1,.17l1.16.31,1.36.38,1.49.58a25.79,25.79,0,0,1,3.39,1.63l1.82,1.16c.62.42,1.21.93,1.85,1.42a26.67,26.67,0,0,1,9.6,21.37,28.34,28.34,0,0,1-.38,3.62c-.12.6-.19,1.23-.35,1.83s-.35,1.21-.52,1.83a26.35,26.35,0,0,1-3.43,7,26.52,26.52,0,0,1-13.15,10.13c-.7.22-1.38.51-2.1.66l-2.17.5-2.23.28c-.74.1-1.5.07-2.26.1a17.29,17.29,0,0,1-2.27-.08,22,22,0,0,1-2.28-.24,27.25,27.25,0,0,1-4.48-1.14,26.79,26.79,0,0,1-8-4.44l.22.05L609.62,94a.27.27,0,0,1-.31-.19.26.26,0,0,1,0-.15L613,83.86a.24.24,0,0,1,.31-.15.15.15,0,0,1,.09.06h0l-.38.3a26.57,26.57,0,0,1-3.65-12,24.28,24.28,0,0,1,.3-5.87,22.68,22.68,0,0,1,.59-2.77,20.56,20.56,0,0,1,.85-2.62,26.82,26.82,0,0,1,5.34-8.59A25.58,25.58,0,0,1,623.3,47l.85-.48.87-.38c.58-.24,1.12-.52,1.68-.71a25.52,25.52,0,0,1,3.18-1l1.45-.32c.47-.09.93-.12,1.37-.18l1.24-.15c.4,0,.78,0,1.14,0,.72,0,1.35,0,1.9,0l1.37.12.84.09.28,0h-.28l-.85,0L637,43.87c-.54,0-1.17,0-1.88.05-.36,0-.74,0-1.13,0l-1.24.17c-.43.06-.88.1-1.35.19l-1.44.34a27.08,27.08,0,0,0-3.14,1c-.55.19-1.08.48-1.65.72l-.86.39c-.28.14-.55.31-.84.47a25.3,25.3,0,0,0-6.72,5.31A26.37,26.37,0,0,0,611.5,61a19.88,19.88,0,0,0-.82,2.58,18.61,18.61,0,0,0-.57,2.73,24.51,24.51,0,0,0-.29,5.77,26.41,26.41,0,0,0,3.62,11.73.24.24,0,0,1-.09.33.24.24,0,0,1-.29,0h0l.4-.09-3.65,9.82-.3-.34,9.9-2.58a.26.26,0,0,1,.23,0,26.47,26.47,0,0,0,7.84,4.35,27,27,0,0,0,4.4,1.11,21.1,21.1,0,0,0,2.23.24,15.17,15.17,0,0,0,2.23.08c.74,0,1.48,0,2.21-.09l2.19-.28,2.13-.48c.7-.15,1.37-.44,2.06-.65a27.59,27.59,0,0,0,7.4-4,28.21,28.21,0,0,0,5.53-5.89,26.23,26.23,0,0,0,3.39-6.91l.51-1.79c.16-.6.23-1.21.35-1.81a29.12,29.12,0,0,0,.39-3.56,26.39,26.39,0,0,0-9.36-21.12c-.63-.49-1.2-1-1.81-1.43l-1.79-1.17a27.09,27.09,0,0,0-3.35-1.65l-1.47-.6-1.34-.4-1.15-.34-1-.19-1.33-.26Z"/><path class="cls-7" d="M628.42,65.14h4a3.36,3.36,0,0,1,3.44-3.38,3.2,3.2,0,0,1,3.1,2,3.56,3.56,0,0,1-.28,3.2c-.67,1.1-2.14,2.11-4.8,1.64v8.9h3.9V72.33a7.63,7.63,0,0,0,5.48-7.45c0-5.78-5.18-7.12-7.4-7.12C634.12,57.76,628.34,58.17,628.42,65.14Z"/><rect class="cls-7" x="633.82" y="79.38" width="3.96" height="3.7"/><path class="cls-9" d="M192.27,79.24,181.7,74.88a26.68,26.68,0,1,1,6.24-7.23h0Z"/><path class="cls-5" d="M192.27,79.24,188,67.61,188,67.5l-.09.08h0l.13.1a26.42,26.42,0,0,0,3.74-13.35,24.32,24.32,0,0,0-.32-4.21c-.13-.72-.24-1.45-.4-2.18s-.41-1.45-.62-2.19a26.88,26.88,0,0,0-12.67-15.18A26.73,26.73,0,0,0,167,27.4a27.18,27.18,0,0,0-11.71,1.8,26.13,26.13,0,0,0-10.13,7l-1,1.23c-.36.4-.63.87-1,1.3a14.67,14.67,0,0,0-.89,1.33l-.79,1.39a10.4,10.4,0,0,0-.7,1.42c-.22.48-.43,1-.64,1.44l-.51,1.49a13.56,13.56,0,0,0-.45,1.5,27.3,27.3,0,0,0-.32,12.08,26.19,26.19,0,0,0,4.59,10.46,26.93,26.93,0,0,0,17,10.6,28.45,28.45,0,0,0,8.73.06,26.45,26.45,0,0,0,7.25-2.23,27.23,27.23,0,0,0,5.34-3.37l-.08,0,10.6,4.28-10.54-4.43,0,0,0,0a27.55,27.55,0,0,1-5.33,3.32,26.31,26.31,0,0,1-7.2,2.18,28.6,28.6,0,0,1-8.65-.09,26.72,26.72,0,0,1-16.8-10.52,26.2,26.2,0,0,1-4.52-10.36,26.93,26.93,0,0,1,.33-11.93,13.18,13.18,0,0,1,.44-1.48l.5-1.47c.21-.47.42-.95.64-1.42a10.81,10.81,0,0,1,.69-1.41l.78-1.37a14.27,14.27,0,0,1,.88-1.31c.31-.43.58-.89.93-1.29l1-1.21a25.92,25.92,0,0,1,10-7A26.82,26.82,0,0,1,167,27.72a26.13,26.13,0,0,1,10.64,3.13,26.66,26.66,0,0,1,12.58,15c.21.73.41,1.45.62,2.17s.26,1.45.4,2.15a25,25,0,0,1,.33,4.18,27,27,0,0,1-1.11,7.45,27.53,27.53,0,0,1-2.54,5.82l-.31.54.44-.44h0l-.14,0Z"/><path class="cls-5" d="M156.87,54.89a2.71,2.71,0,1,0-2.7,2.7A2.7,2.7,0,0,0,156.87,54.89Z"/><path class="cls-5" d="M167.7,54.89a2.71,2.71,0,1,0-2.71,2.7A2.7,2.7,0,0,0,167.7,54.89Z"/><path class="cls-5" d="M178.49,56.24a2.7,2.7,0,1,0-3.69,1A2.69,2.69,0,0,0,178.49,56.24Z"/><path class="cls-4" d="M61.88,109.74l-4.24-7.68a28.19,28.19,0,1,0-4.7,9h0Z"/><path class="cls-5" d="M61.88,109.74l-.56.09-1.69.27-6.68,1a.1.1,0,0,1-.11-.08.07.07,0,0,1,0-.05v0l.17.1a28.15,28.15,0,0,1-15.06,10,31.92,31.92,0,0,1-4.63.8,28.22,28.22,0,0,1-20.25-6,28.45,28.45,0,0,1-7.68-9.44,28.16,28.16,0,0,1-3-12.58A27.81,27.81,0,0,1,5.59,80.63l.82-1.54,1-1.45.48-.72.54-.68L9.48,74.9c.38-.43.8-.82,1.19-1.23a13.65,13.65,0,0,1,1.23-1.18,26.25,26.25,0,0,1,2.66-2.09,28.77,28.77,0,0,1,12.09-4.8A28.34,28.34,0,0,1,55.41,79.76a29.78,29.78,0,0,1,2,4.28,36.39,36.39,0,0,1,1.16,4.24,27.93,27.93,0,0,1-.82,13.81V102l3.11,5.76.79,1.47.25.49-.3-.51-.84-1.47-3.18-5.65a.06.06,0,0,1,0-.07,28.11,28.11,0,0,0,.7-13.71,38.18,38.18,0,0,0-1.16-4.18,31.45,31.45,0,0,0-2-4.22A28.11,28.11,0,0,0,26.71,66a28.45,28.45,0,0,0-11.89,4.74,26.93,26.93,0,0,0-2.62,2.06A14.7,14.7,0,0,0,11,74c-.38.41-.8.79-1.17,1.22L8.76,76.53l-.54.66-.47.71-.94,1.43L6,80.85A27.48,27.48,0,0,0,2.86,93.78a27.84,27.84,0,0,0,2.93,12.39,28.08,28.08,0,0,0,17.44,14.41,27.85,27.85,0,0,0,10.06.93,30.11,30.11,0,0,0,4.59-.77,26.71,26.71,0,0,0,4.1-1.41A28.16,28.16,0,0,0,52.87,111a.09.09,0,0,1,.16.1h0l-.11-.13,6.63-.9,1.73-.22Z"/><polygon class="cls-10" points="18.86 94.74 22.33 90.92 29.65 96.82 42.79 82.9 46.34 86.38 29.47 103.87 18.86 94.74"/><path class="cls-11" d="M586.76,67.92l.56,44.75c.09,7.61-1.32,18.81-13.36,18.41h0c-10.42-1.13-13.19-11-13.27-18.1,0-3.37-.08-6.18-.1-6.52,0,0-11.41-.93-12.37-12.2-.47-5.44-.51-16.73-.44-26.95a21.07,21.07,0,0,1,19.54-20.83l1.09-.08C580.19,46.23,586.92,56.14,586.76,67.92Z"/><path class="cls-12" d="M560.59,106.46A27.3,27.3,0,0,0,575,101.05s-3,8.49-14.3,8.3Z"/><path class="cls-5" d="M567.05,71.93c.22.23,1.52-.82,3.41-.87s3.3.87,3.49.63-.13-.52-.75-1a4.71,4.71,0,0,0-2.8-.79,4.53,4.53,0,0,0-2.71,1C567.12,71.4,566.94,71.83,567.05,71.93Z"/><path class="cls-5" d="M566.24,77.27a1.54,1.54,0,0,0,1.59,1.43,1.46,1.46,0,0,0,1.46-1.49,1.52,1.52,0,0,0-1.58-1.43A1.46,1.46,0,0,0,566.24,77.27Z"/><path class="cls-5" d="M562.32,85.06a11.2,11.2,0,0,0-2.85-.3c-.45,0-.88-.08-1-.37a2.21,2.21,0,0,1,.2-1.33l1.06-3.47c1.47-4.93,2.49-9,2.3-9s-1.55,3.89-3,8.82c-.35,1.22-.69,2.38-1,3.48a2.62,2.62,0,0,0-.1,1.76,1.1,1.1,0,0,0,.78.59,2.89,2.89,0,0,0,.75.05A11.22,11.22,0,0,0,562.32,85.06Z"/><path class="cls-5" d="M567.85,63.9c.18.41,1.69.1,3.5.19s3.3.49,3.51.09c.09-.19-.19-.58-.81-1a5.89,5.89,0,0,0-5.34-.22C568.08,63.33,567.77,63.7,567.85,63.9Z"/><path class="cls-5" d="M549.92,66.72c.2.34,1.67,0,3.46-.09s3.26.17,3.45-.18c.09-.17-.21-.48-.83-.75a6.28,6.28,0,0,0-2.64-.44,6.57,6.57,0,0,0-2.63.65C550.12,66.23,549.83,66.56,549.92,66.72Z"/><path class="cls-11" d="M586.45,76.34c.19-.1,7.58-2.86,7.9,4.87s-7.51,6.45-7.53,6.23S586.45,76.34,586.45,76.34Z"/><path class="cls-12" d="M589.06,84.41s.14.09.37.18a1.31,1.31,0,0,0,1,0c.8-.33,1.43-1.65,1.41-3a4.37,4.37,0,0,0-.45-1.91,1.57,1.57,0,0,0-1.06-1,.69.69,0,0,0-.78.4c-.09.22,0,.37-.07.39s-.18-.12-.13-.45a.85.85,0,0,1,.29-.49,1,1,0,0,1,.73-.23,1.9,1.9,0,0,1,1.46,1.14,4.58,4.58,0,0,1,.55,2.13c0,1.56-.72,3-1.82,3.42a1.43,1.43,0,0,1-1.24-.15C589.08,84.6,589,84.43,589.06,84.41Z"/><path class="cls-5" d="M564.14,90.41c-.08-.2,1.43-.65,2.49-2.07a8.33,8.33,0,0,0,1.07-2c.23-.56.4-.91.48-.89s.06.41-.06,1a5.68,5.68,0,0,1-1,2.26,4.63,4.63,0,0,1-2,1.51C564.56,90.46,564.16,90.47,564.14,90.41Z"/><path class="cls-5" d="M532.82,57.2a1.87,1.87,0,0,1,.86-1.07,5.67,5.67,0,0,1,2.88-.47A16.21,16.21,0,0,0,545,53.09a37.7,37.7,0,0,1,4-4.78c3.41-3.52,6.22-5.92,9.13-7.09,3.76-1.51,10-2.12,14-1.1s7.45,4.21,8,8.23c2.2-1.86,5.5-1.84,8.18-.77l.06,0c3,1.07,4.68,4.22,5.56,7.26s1.25,6.29,2.86,9c.34.57.74,1.25.45,1.84a1.25,1.25,0,0,1-1.32.57,3.7,3.7,0,0,1-1.39-.62c.34.79.67,1.59,1,2.39a7.1,7.1,0,0,1-3.24-.22,71.41,71.41,0,0,1-2.12,8,4.57,4.57,0,0,0-3.16.77c-1,.94-1.51,2.71-3.25,2-.88-.34-1.69-2.2-2-3.1a44.12,44.12,0,0,1-1.91-18.61,14.19,14.19,0,0,0-4.36-3.15l.13.12c-3.15-1.09-6.71-2.17-9.69-.69-2.32,1.15-3.68,3.55-5.42,5.47a17.66,17.66,0,0,1-12.6,5.82c-.17,3.18.1,7.66-.07,10.83l-2.67-5.08v0c-.22-.37-.4-.75-.58-1.13l-.06-.11h0a17.81,17.81,0,0,0-.89-1.81l0,0a2,2,0,0,1-2.89-2.65,4.37,4.37,0,0,1,1-1,3.11,3.11,0,0,1-3,.78A2.46,2.46,0,0,1,536.9,62a2.08,2.08,0,0,1,1.24-1.68,7,7,0,0,1-4-.89C533.33,58.94,532.55,58.19,532.82,57.2Z"/><path class="cls-7" d="M576.51,49.64a8.88,8.88,0,0,1,1.13,1,7.9,7.9,0,0,1,1.73,3.74,14.05,14.05,0,0,1,.29,2.86c0,1-.08,2.15-.16,3.32a29.94,29.94,0,0,0-.08,3.7,13.17,13.17,0,0,0,.25,2,4.1,4.1,0,0,0,.8,1.89,1.68,1.68,0,0,0,1.59.53,2.59,2.59,0,0,0,1.43-.8A5.82,5.82,0,0,0,584.58,65l-.24,0a9.47,9.47,0,0,0,1.37,2.36,3.33,3.33,0,0,0,2.19,1.19,2.11,2.11,0,0,0,1.17-.2,1.83,1.83,0,0,0,.78-.78,1.87,1.87,0,0,0,.24-1,1.4,1.4,0,0,0-.36-.87l-.12.1A7.27,7.27,0,0,0,592,67.65a5.36,5.36,0,0,0,.75.29l.27.07a1.39,1.39,0,0,0-.25-.11c-.17-.07-.42-.17-.73-.33a7.58,7.58,0,0,1-2.34-1.84l-.12.11a1.43,1.43,0,0,1,.08,1.67,1.69,1.69,0,0,1-.71.69,2,2,0,0,1-1.06.17,3.13,3.13,0,0,1-2-1.13,9.1,9.1,0,0,1-1.32-2.31l-.17-.37-.07.39a5.63,5.63,0,0,1-1,2.74,2.3,2.3,0,0,1-1.28.73,1.45,1.45,0,0,1-1.36-.46,3.83,3.83,0,0,1-.73-1.77,12.33,12.33,0,0,1-.25-1.91,29.47,29.47,0,0,1,.07-3.66c.07-1.17.14-2.29.13-3.34a14.3,14.3,0,0,0-.32-2.9,8,8,0,0,0-1.84-3.77A4.51,4.51,0,0,0,576.51,49.64Z"/><path class="cls-7" d="M541.65,60.61l.09.08.28.2a4.05,4.05,0,0,0,.48.31,6.87,6.87,0,0,0,.68.36,10,10,0,0,0,4.83.87,12.8,12.8,0,0,0,6.8-2.52,21.94,21.94,0,0,0,5.84-6.73c.82-1.37,1.49-2.76,2.23-4.06a15.06,15.06,0,0,1,2.52-3.43,7.64,7.64,0,0,1,3.24-2,5.69,5.69,0,0,1,1.72-.2,6,6,0,0,1,1.56.31,6.35,6.35,0,0,1,2.35,1.41,6.72,6.72,0,0,1,1.28,1.65,7.92,7.92,0,0,1,.58,1.69,1.09,1.09,0,0,0,0-.12c0-.09,0-.21-.06-.34a5.45,5.45,0,0,0-.42-1.28,6.37,6.37,0,0,0-1.27-1.71A6.59,6.59,0,0,0,572,43.65a6.3,6.3,0,0,0-1.61-.33,5.81,5.81,0,0,0-1.79.19,7.86,7.86,0,0,0-3.35,2A14.78,14.78,0,0,0,562.65,49c-.74,1.3-1.41,2.69-2.22,4a22.3,22.3,0,0,1-5.76,6.68A12.74,12.74,0,0,1,548,62.24a10,10,0,0,1-4.77-.78A15.74,15.74,0,0,1,541.65,60.61Z"/><path class="cls-7" d="M540.62,55.66a2.44,2.44,0,0,0,.41.28,9,9,0,0,0,1.19.61,12.86,12.86,0,0,0,1.9.62,12.18,12.18,0,0,0,4.86.15,11,11,0,0,0,1.93-.5,8,8,0,0,0,1.24-.53c.28-.15.43-.23.42-.25s-.65.27-1.72.61a12.43,12.43,0,0,1-1.91.43,13.94,13.94,0,0,1-2.39.15,15.46,15.46,0,0,1-2.38-.3,12.18,12.18,0,0,1-1.88-.56C541.25,56,540.65,55.61,540.62,55.66Z"/><path class="cls-5" d="M549.84,71.93c.22.23,1.52-.82,3.41-.87s3.3.87,3.5.63-.14-.53-.76-1a4.71,4.71,0,0,0-2.8-.79,4.56,4.56,0,0,0-2.71,1C549.91,71.4,549.73,71.83,549.84,71.93Z"/><path class="cls-5" d="M550.24,77.27a1.53,1.53,0,0,0,1.58,1.43,1.46,1.46,0,0,0,1.47-1.49,1.52,1.52,0,0,0-1.58-1.43A1.45,1.45,0,0,0,550.24,77.27Z"/><path class="cls-5" d="M561.14,410.18,562,432s-21.92,8.18-22.16,12.23l42.41-.09.11-34.09Z"/><path class="cls-3" d="M575.09,430.16a1.74,1.74,0,0,1,1.2,2,1.68,1.68,0,0,1-1.95,1.21,1.84,1.84,0,0,1-1.26-2.1,1.73,1.73,0,0,1,2.16-1"/><path class="cls-7" d="M582.22,444.17l-.12-3.43-40.62,1.37s-1.89.82-1.67,2.15Z"/><path class="cls-4" d="M561.29,431.81c0,.21,1,.3,2.06,1s1.56,1.53,1.75,1.45-.12-1.28-1.37-2.06S561.24,431.62,561.29,431.81Z"/><path class="cls-4" d="M556.84,433.66c-.05.2.85.56,1.56,1.43s.91,1.8,1.11,1.79.34-1.18-.56-2.25S556.84,433.47,556.84,433.66Z"/><path class="cls-4" d="M554.33,439c.18.05.47-1-.06-2.12s-1.51-1.58-1.6-1.41.52.78.94,1.71S554.12,439,554.33,439Z"/><path class="cls-4" d="M561.65,426.82c.09.18,1-.1,2.21,0s2.08.45,2.19.27-.77-.92-2.15-1S561.55,426.65,561.65,426.82Z"/><path class="cls-5" d="M613.06,407.21l2.3,26.35-4.19,21.37a2.71,2.71,0,0,0,2.32,3.21h0a2.72,2.72,0,0,0,2.33-.85c3.78-4.13,17.61-19.36,17.33-21.27-.32-2.23-.58-28-.58-28Z"/><path class="cls-7" d="M613.49,458.14,633,434.23l.07,1.12a4.07,4.07,0,0,1-.8,2.7c-1.55,2.08-5.95,7.72-16.41,19.23a2.73,2.73,0,0,1-2.41.86Z"/><g class="cls-13"><path class="cls-4" d="M627.07,426.07a1.64,1.64,0,0,0-.31,2.16,1.58,1.58,0,0,0,2.15.33,1.74,1.74,0,0,0,.32-2.3,1.64,1.64,0,0,0-2.27-.09"/></g><path class="cls-4" d="M618.78,446.22a8.07,8.07,0,0,0-2.45-1.91,8.15,8.15,0,0,0-3.07-.38c0-.07.29-.29.9-.42a4.22,4.22,0,0,1,2.4.27,4.29,4.29,0,0,1,1.88,1.5C618.78,445.8,618.84,446.19,618.78,446.22Z"/><path class="cls-4" d="M617.13,449.87a21.54,21.54,0,0,0-2.41-1,20.87,20.87,0,0,0-2.6-.17c-.09-.13,1.15-.77,2.73-.4S617.26,449.79,617.13,449.87Z"/><path class="cls-4" d="M622,441.46c-.12.14-1.5-1.11-3.62-1.77a26.9,26.9,0,0,0-4-.66,7.42,7.42,0,0,1,7.59,2.43Z"/><path class="cls-4" d="M622,433.39c-.06.17-1.56-.35-3.46-.3s-3.38.61-3.44.45a5.22,5.22,0,0,1,3.43-1A5.3,5.3,0,0,1,622,433.39Z"/><path class="cls-4" d="M621.48,425.64a8.55,8.55,0,0,0-7,.7c-.05,0,.22-.4.8-.79a5.59,5.59,0,0,1,2.58-.89,5.77,5.77,0,0,1,2.71.36C621.19,425.29,621.52,425.58,621.48,425.64Z"/><path class="cls-4" d="M617.84,423.76a2.51,2.51,0,0,1-.1-1,6.88,6.88,0,0,1,.63-2.66,3.1,3.1,0,0,1,1.22-1.56,1.09,1.09,0,0,1,1.24.17,1.8,1.8,0,0,1,.5,1.16,3.83,3.83,0,0,1-3.13,3.75,4.43,4.43,0,0,1-4.5-2,1.55,1.55,0,0,1-.16-1.27,1.07,1.07,0,0,1,1.08-.64,3.84,3.84,0,0,1,1.8.79,7.71,7.71,0,0,1,1.93,1.94,2.38,2.38,0,0,1,.47.88,12.62,12.62,0,0,0-2.63-2.48,3.66,3.66,0,0,0-1.58-.65.57.57,0,0,0-.59.35,1,1,0,0,0,.15.83,4,4,0,0,0,3.93,1.72,3.33,3.33,0,0,0,2.69-3.15,1.26,1.26,0,0,0-.31-.82.57.57,0,0,0-.68-.1,2.75,2.75,0,0,0-1.06,1.29A10.34,10.34,0,0,0,617.84,423.76Z"/><path class="cls-5" d="M540.71,226a94.15,94.15,0,0,0-2.05,27.62c.45,5.87,20.26,168.25,20.26,168.25h26.75l-7.52-152.61,2.19.47s14.6,65.09,15.79,75.63c1.07,9.47,13.38,78.29,13.38,78.29L634,424l-7.81-91-9.08-87.35-3.42-25.42Z"/><path class="cls-7" d="M579.12,258.93s0,.08-.17.18a1.87,1.87,0,0,1-.65.31,3.05,3.05,0,0,1-2.54-.6,5,5,0,0,1-1.73-3.46c-.19-1.45-.22-3-.33-4.66-.18-3.31-.31-6.3-.38-8.47a22.56,22.56,0,0,1,0-3.51,23.43,23.43,0,0,1,.37,3.49c.17,2.17.36,5.15.54,8.46.11,1.64.12,3.24.28,4.63a4.79,4.79,0,0,0,1.48,3.23,3,3,0,0,0,2.27.69A5.37,5.37,0,0,0,579.12,258.93Z"/><path class="cls-7" d="M618.46,243.23a2.09,2.09,0,0,1-.75.27,12.8,12.8,0,0,1-2.13.36,15.37,15.37,0,0,1-12.87-5.17,13.47,13.47,0,0,1-1.3-1.74c-.26-.44-.38-.69-.35-.71s.67.91,1.92,2.2a16.44,16.44,0,0,0,12.58,5.05C617.35,243.42,618.44,243.14,618.46,243.23Z"/><path class="cls-7" d="M551.37,236.44a8.86,8.86,0,0,1-.41,2.68,20.14,20.14,0,0,1-7.16,10.78,8.32,8.32,0,0,1-2.32,1.41,24.35,24.35,0,0,0,9.89-14.87Z"/><path class="cls-3" d="M602,164.87l10,9.62-3.22-18.4L629,149.67s5.38,25.27,6.32,31.24c1.68,10.72-.39,26-10.38,27-10.81,1.16-19-9.5-24.16-16.5-4-5.38-10.44-14.78-10.44-14.78L602,164.87"/><path class="cls-3" d="M524.75,148.5c-3.25,10.24-7.8,11.79-9.59,41.13-.35,5.72.88,13.35,6.31,15.2,6,2,15.07-1.69,18-6.63l.18-20.21Z"/><path class="cls-5" d="M538.19,191.35a43.94,43.94,0,0,0-2-4.31,44.26,44.26,0,0,0-2.75-3.87,4.4,4.4,0,0,1,1,.94,16.18,16.18,0,0,1,3.4,5.86A4.5,4.5,0,0,1,538.19,191.35Z"/><path class="cls-3" d="M519.85,160.31c.17-.61,10.18-27.84,13.37-33.8,3.82-7.13,11.85-10.29,16.83-10.6s58.3,4,58.3,4,14.94,3.75,18,17.26c3.79,16.95,6.84,33.66,6.84,33.66l-26.73,5.77-3.14-7.92-50.21,11.21L540.8,161.7Z"/><path class="cls-3" d="M611.88,121.41l-20.83-9.18-2.34-9L564.4,114.74l-5.09-5.63-2.13,6.34-5.33,1.75-10.48,20.67-1.93,47.89L536.92,226l2.7,6.35,22.3,3.3a25.56,25.56,0,0,0,7.36,0l45.28-7.4,1.16-13.3-4.83-36.65Z"/><path class="cls-3" d="M588.71,103.25s-2.71.78-9.7,4.51c-6.83,3.65-14.61,7-14.61,7l.59,11,25.88-13"/><polyline class="cls-3" points="559.31 109.11 564.4 114.74 561.68 126.51 557.14 115.87"/><g class="cls-8"><path d="M564.31,116c-.23.17-1.64,13.58-1.64,13.58l25.93-15.67L565,125.72Z"/></g><path class="cls-7" d="M564.48,166c.39-10.26-1.22-36.43-1.22-36.43l-3.38-.54a381.67,381.67,0,0,0-8.68,56.61c-1,12.62-1,27.23-1,27.23L557,227.46l7.5-14.48S564,178.47,564.48,166Z"/><path class="cls-5" d="M605.72,145.6a6.36,6.36,0,0,1,.24,1.06c.13.75.31,1.73.52,2.91.44,2.52,1,5.89,1.66,9.61s1.21,7.17,1.58,9.64c.18,1.23.32,2.23.41,2.93a5.36,5.36,0,0,1,.1,1.08,8.56,8.56,0,0,1-.24-1.06c-.13-.75-.31-1.73-.53-2.91l-1.68-9.62c-.65-3.75-1.18-7.16-1.55-9.63-.16-1.19-.3-2.18-.41-2.93A5.44,5.44,0,0,1,605.72,145.6Z"/><path class="cls-5" d="M613.43,123s-.71.63-1.76,1.71a21.3,21.3,0,0,0-3.46,4.73,21.76,21.76,0,0,0-2,5.49c-.33,1.47-.4,2.41-.46,2.41a2.06,2.06,0,0,1,0-.67,15.43,15.43,0,0,1,.22-1.79,19.05,19.05,0,0,1,5.56-10.35,12.53,12.53,0,0,1,1.38-1.17A2.15,2.15,0,0,1,613.43,123Z"/><polygon class="cls-7" points="564.48 119.99 562.17 119.08 559.97 122.85 559.58 129.03 562.67 129.53 564.99 125.72 564.48 119.99"/><path class="cls-5" d="M539.44,138.39c.1,0,.18,13.39.18,29.9s-.08,29.91-.18,29.91-.18-13.39-.18-29.91S539.34,138.39,539.44,138.39Z"/><path class="cls-5" d="M564.65,114.64s-.5.87-1.32,2.24a62.43,62.43,0,0,0-3,5.51c-.08.19-.17.37-.24.53l-.17.35-.16-.34a42.14,42.14,0,0,1-2.16-5.48c-.23-.72-.39-1.3-.49-1.7a2.48,2.48,0,0,1-.12-.64c.05,0,.33.86.84,2.26s1.26,3.32,2.25,5.4h-.32l.25-.54a44.56,44.56,0,0,1,3.05-5.49c.44-.68.82-1.21,1.09-1.57A2.86,2.86,0,0,1,564.65,114.64Z"/><path class="cls-5" d="M591.05,112.23l-.36.21-1.05.55-3.86,2c-3.26,1.7-7.73,4.11-12.68,6.76-3,1.6-5.86,3.09-8.35,4.33l-.23.12v-.26c0-3.22-.06-5.93-.08-7.89,0-.92,0-1.67,0-2.23a5.45,5.45,0,0,1,0-.79,4.61,4.61,0,0,1,.07.79c0,.56.05,1.3.08,2.22,0,2,.12,4.68.21,7.9l-.23-.14c2.47-1.27,5.31-2.76,8.32-4.37,5-2.64,9.44-5,12.73-6.66,1.65-.83,3-1.47,3.92-1.91l1.08-.48A1.74,1.74,0,0,1,591.05,112.23Z"/><path class="cls-5" d="M542.57,120.69s-.36.72-.88,1.89a21.43,21.43,0,0,0-1.49,4.77,21.84,21.84,0,0,0-.31,5c.07,1.28.21,2.07.15,2.08a1.69,1.69,0,0,1-.16-.54,11.63,11.63,0,0,1-.24-1.52,18.13,18.13,0,0,1,1.82-9.89,12.63,12.63,0,0,1,.76-1.33C542.42,120.83,542.54,120.67,542.57,120.69Z"/><path class="cls-5" d="M562.1,129.93c-.05.09-.64-.19-1.31-.61s-1.17-.84-1.12-.92.64.19,1.31.61S562.16,129.85,562.1,129.93Z"/><path class="cls-5" d="M563.22,128.42a16.38,16.38,0,0,1-1.58-3.13A17.73,17.73,0,0,1,560.4,122a17,17,0,0,1,1.57,3.14A17.44,17.44,0,0,1,563.22,128.42Z"/><g class="cls-8"><path d="M571.23,175.73a2.34,2.34,0,0,0-.8-1.52c-.86-.55-1.93.18-2.82.71-2.31,1.38-5.18,1.33-7.87,1.21a199.1,199.1,0,0,1-24.27-2.3,36.83,36.83,0,0,1-11.4-3.4c-3.51-1.88-6.57-4.9-7.7-8.72l-1.88-1c1.46,3.1,1.31,11.89,1.83,15.28s2,5.8,5.28,6.85a11.5,11.5,0,0,0,4.1.29c13.37-.66,26.86-.06,40.24-.72,1.91-.1,4.12-.35,5.15-2C572,179.06,571.61,177.3,571.23,175.73Z"/></g><g class="cls-8"><path d="M592.74,180.47h0c1,5.62,2.93,13.22,5.71,18.21h8.13C603.5,194.83,592.74,180.47,592.74,180.47Z"/></g><path class="cls-11" d="M604.78,170.07,589.64,151l-9.7-2.56-11.26.62a2.4,2.4,0,0,0,1.22,2.81l-4.14-.05a2.35,2.35,0,0,0,1.32,3.17l-3,.31a4.24,4.24,0,0,0,4.42,2.75,63.32,63.32,0,0,1,8.76,0l5.55,3.58-8.58-1-6.32.74s-.94,1.54.45,2,6.83.48,6.83.48l7.62,3s2.74,4.53,3.72,5.79,5.89,3.79,5.89,3.79l2.33,2.41Z"/><path class="cls-12" d="M566.69,151.4a16.19,16.19,0,0,0,3.21.11c2,0,4.72-.08,7.74-.19l2.9-.12-.12,0c2.19.78,4.09,1.44,5.45,1.89a9.73,9.73,0,0,0,2.2.6,9.56,9.56,0,0,0-2.07-1c-1.32-.54-3.19-1.28-5.37-2.1l0,0h-.06l-2.91.1c-3,.11-5.75.25-7.73.38A15.93,15.93,0,0,0,566.69,151.4Z"/><path class="cls-12" d="M565.73,154.81a13.54,13.54,0,0,0,2.92,0c1.8-.08,4.28-.23,7-.44l2.72-.21-.15,0a49.62,49.62,0,0,0,6.61,2.86,50.61,50.61,0,0,0-6.35-3.42l-.07,0h-.08l-2.73.2c-2.73.2-5.21.42-7,.62A13.25,13.25,0,0,0,565.73,154.81Z"/><path class="cls-10" d="M573.38,137.51l-37.47.24h0l-6.7-6.6a2.9,2.9,0,0,0-2.05-.84H511.67a1.64,1.64,0,0,0-1.63,1.74l2.17,35.21,61.82,11,1-39.05A1.64,1.64,0,0,0,573.38,137.51Z"/><polygon class="cls-9" points="573.68 175.88 511.05 171.93 511.05 133.67 572.63 133.67 573.68 175.88"/><path class="cls-10" d="M504.31,138.66l6.3,37.33a2.71,2.71,0,0,0,2.67,2.25H574a.06.06,0,0,0,0-.06l-5.93-40.36a2.72,2.72,0,0,0-2.68-2.31H507A2.7,2.7,0,0,0,504.31,138.66Z"/><path class="cls-11" d="M500.83,152.15a2.82,2.82,0,0,1,0-3.47,4.29,4.29,0,0,1,3.29-1.55,9.3,9.3,0,0,1,3.66.76A23.84,23.84,0,0,1,511.9,150a4,4,0,0,1,2.07,2.42c.18,1.08-1,2.31-1.94,1.77a4.58,4.58,0,0,1,2.68,3.19c.2,1.36-.53,2.09-1.85,2.49a2,2,0,0,1,1.18,2.62,2.35,2.35,0,0,1-2.95.91,6.89,6.89,0,0,1-2.58-2.17,6.31,6.31,0,0,1,.73,4.33,8.45,8.45,0,0,1-5.53-6.8,3.92,3.92,0,0,1-1.07-4.81,4,4,0,0,1-2.41-3.39"/><path class="cls-12" d="M512.83,159.83a11.93,11.93,0,0,1-1.26-1,8.57,8.57,0,0,0-3.33-1.7,4.43,4.43,0,0,0-2,0,3.68,3.68,0,0,0-1.47.73,4.89,4.89,0,0,0-1,1.22,1,1,0,0,1,.12-.42,3,3,0,0,1,.7-1,3.82,3.82,0,0,1,1.55-.85,4.62,4.62,0,0,1,2.16,0,7.88,7.88,0,0,1,3.4,1.84A5.88,5.88,0,0,1,512.83,159.83Z"/><path class="cls-12" d="M512.51,154.27a6.71,6.71,0,0,1-1.53-.64,17.54,17.54,0,0,0-1.63-.71,14.58,14.58,0,0,0-2.1-.55,6.37,6.37,0,0,0-2.13,0,3.64,3.64,0,0,0-2.61,1.92s0-.17.12-.44a2.85,2.85,0,0,1,.77-1,3.84,3.84,0,0,1,1.66-.79,6,6,0,0,1,2.24,0,12.69,12.69,0,0,1,2.15.58,13.15,13.15,0,0,1,1.63.79A12.28,12.28,0,0,1,512.51,154.27Z"/><path class="cls-5" d="M626.77,186.36a2.94,2.94,0,0,1-.46-.3l-1.27-.92-4.67-3.49-15.74-12H605c-1.52,1.38-3.09,2.82-4.7,4.3l-7.35,6.71,0-.33c4.21,5.54,7.85,10.34,10.48,13.79,1.25,1.69,2.26,3,3,4l.78,1.08a1.69,1.69,0,0,1,.25.4,2.12,2.12,0,0,1-.32-.34l-.84-1c-.77-1-1.82-2.29-3.12-3.94l-10.63-13.68-.14-.18.17-.16,7.34-6.73,4.7-4.29.16-.15.17.13c6.21,4.83,11.67,9.07,15.64,12.14l4.57,3.62,1.22,1A2.64,2.64,0,0,1,626.77,186.36Z"/><path class="cls-5" d="M249.51,408.63l-1.21,22.25s22.21,8.71,22.38,12.85l-43.23-.82.47-34.75Z"/><path class="cls-3" d="M235,428.76a1.77,1.77,0,0,0-1.26,2,1.7,1.7,0,0,0,2,1.26A1.86,1.86,0,0,0,237,429.9a1.75,1.75,0,0,0-2.19-1.09"/><path class="cls-7" d="M227.45,442.91l.18-3.5L269,441.5s1.91.88,1.67,2.23Z"/><path class="cls-4" d="M249,430.67c0,.21-1.07.29-2.12.95s-1.62,1.54-1.81,1.45.14-1.3,1.43-2.08S249.05,430.48,249,430.67Z"/><path class="cls-4" d="M253.5,432.63c0,.21-.88.55-1.61,1.43s-1,1.82-1.17,1.81-.32-1.21.61-2.29S253.5,432.43,253.5,432.63Z"/><path class="cls-4" d="M256,438.11c-.19,0-.46-1,.1-2.16s1.56-1.59,1.65-1.41-.54.78-1,1.73S256.18,438.09,256,438.11Z"/><path class="cls-4" d="M248.72,425.57c-.1.19-1.06-.12-2.25-.06s-2.14.42-2.24.23.8-.91,2.21-1S248.82,425.41,248.72,425.57Z"/><path class="cls-5" d="M197.17,406.43l-2.34,26.87,4.27,21.78a2.75,2.75,0,0,1-2.36,3.27h0a2.77,2.77,0,0,1-2.38-.87c-3.85-4.2-18-19.73-17.67-21.68.33-2.27.59-28.5.59-28.5Z"/><path class="cls-7" d="M196.74,458.35,176.81,434l-.07,1.14a4.14,4.14,0,0,0,.81,2.76c1.58,2.11,6.07,7.87,16.73,19.6a2.77,2.77,0,0,0,2.46.87Z"/><g class="cls-13"><path class="cls-4" d="M182.89,425.66a1.66,1.66,0,0,1,.31,2.2,1.6,1.6,0,0,1-2.18.34,1.76,1.76,0,0,1-.32-2.34,1.66,1.66,0,0,1,2.31-.1"/></g><path class="cls-4" d="M191.34,446.2a8.36,8.36,0,0,1,2.5-1.94,8.5,8.5,0,0,1,3.13-.4c0-.06-.3-.29-.92-.42a4.36,4.36,0,0,0-2.44.27,4.32,4.32,0,0,0-1.91,1.53C191.35,445.78,191.28,446.17,191.34,446.2Z"/><path class="cls-4" d="M193,449.92a24.41,24.41,0,0,1,2.46-1,21.53,21.53,0,0,1,2.65-.17,3.09,3.09,0,0,0-2.79-.41C193.74,448.7,192.89,449.84,193,449.92Z"/><path class="cls-4" d="M188.07,441.35c.12.14,1.53-1.13,3.69-1.81s4-.49,4.05-.67a7.56,7.56,0,0,0-7.74,2.48Z"/><path class="cls-4" d="M188.1,433.13c.06.16,1.59-.36,3.53-.31s3.44.62,3.51.45a5.37,5.37,0,0,0-3.5-1C189.56,432.17,188,433,188.1,433.13Z"/><path class="cls-4" d="M188.59,425.22a13.33,13.33,0,0,1,3.66-.41c2,.18,3.41,1.27,3.51,1.12s-.22-.41-.82-.81a6.06,6.06,0,0,0-5.39-.53C188.89,424.86,188.55,425.16,188.59,425.22Z"/><path class="cls-4" d="M192.3,423.3a2.18,2.18,0,0,0,.1-1,6.94,6.94,0,0,0-.63-2.71,3.24,3.24,0,0,0-1.25-1.59,1.12,1.12,0,0,0-1.27.17,1.77,1.77,0,0,0-.5,1.19,3.9,3.9,0,0,0,3.18,3.82,4.5,4.5,0,0,0,4.59-2.08,1.54,1.54,0,0,0,.16-1.3,1.07,1.07,0,0,0-1.1-.64,3.77,3.77,0,0,0-1.83.8,7.86,7.86,0,0,0-2,2,2.36,2.36,0,0,0-.47.9,12.56,12.56,0,0,1,2.67-2.53,3.6,3.6,0,0,1,1.62-.66.57.57,0,0,1,.6.35,1,1,0,0,1-.16.84,4,4,0,0,1-4,1.76,3.39,3.39,0,0,1-2.75-3.21,1.3,1.3,0,0,1,.32-.84.6.6,0,0,1,.7-.1,2.82,2.82,0,0,1,1.08,1.32A10.58,10.58,0,0,1,192.3,423.3Z"/><path class="cls-5" d="M270.93,221.72A95.73,95.73,0,0,1,273,249.88c-.46,6-20.65,171.53-20.65,171.53H225.1l7.67-155.59-2.23.48s-14.89,66.36-16.1,77.11c-1.09,9.66-13.65,79.82-13.65,79.82l-24.92.28,8-92.8,9.26-89,3.49-25.92Z"/><path class="cls-5" d="M228.47,250a5.13,5.13,0,0,0,1.14.64,13.17,13.17,0,0,0,3.37,1.18,7.07,7.07,0,0,0,2.52,0,5.16,5.16,0,0,0,2.62-1.26,6.17,6.17,0,0,0,1.59-2.79,31.28,31.28,0,0,0,.73-3.28c.87-4.49,1.46-8.59,1.81-11.56.17-1.49.28-2.7.34-3.53a5.25,5.25,0,0,0,0-1.31,5.72,5.72,0,0,0-.26,1.28c-.14.95-.32,2.12-.53,3.5-.44,3-1.1,7-2,11.51-.44,2.22-.74,4.47-2.12,5.79a5.69,5.69,0,0,1-4.71,1.23,15.42,15.42,0,0,1-3.35-1A6.25,6.25,0,0,0,228.47,250Z"/><path class="cls-5" d="M236.68,228.84a.87.87,0,0,0-.56-.16,2.46,2.46,0,0,0-1.53.49,2.7,2.7,0,0,0-1.15,2.1A2.7,2.7,0,0,0,238,233a2.71,2.71,0,0,0,.52-2.34,2.4,2.4,0,0,0-.82-1.37c-.31-.24-.53-.27-.54-.25a3.08,3.08,0,0,1,1,1.7,2.34,2.34,0,0,1-.52,1.91,2,2,0,0,1-2.25.43,2.07,2.07,0,0,1-1.42-1.81,2.41,2.41,0,0,1,.87-1.78A3.11,3.11,0,0,1,236.68,228.84Z"/><path class="cls-5" d="M193.47,240.07a2.9,2.9,0,0,0,.93.14,17.08,17.08,0,0,0,2.56,0,24.68,24.68,0,0,0,15.3-6.45,16.43,16.43,0,0,0,1.77-1.85,2.83,2.83,0,0,0,.54-.76c-.07-.07-.95.93-2.58,2.31a27.5,27.5,0,0,1-15.07,6.35C194.8,240,193.48,240,193.47,240.07Z"/><path class="cls-5" d="M259.75,229.35a12,12,0,0,0,1.26,2.78,30.43,30.43,0,0,0,4.21,5.86,28.38,28.38,0,0,0,5.34,4.57,9.91,9.91,0,0,0,2.51,1.33,25.53,25.53,0,0,0-2.32-1.68,36.45,36.45,0,0,1-5.17-4.63,39.15,39.15,0,0,1-4.27-5.68C260.34,230.33,259.82,229.3,259.75,229.35Z"/><path class="cls-14" d="M327.66,153.16l3.46-2.11s4.52-4,5.75-4.91,6-3,6.66-3,7.21-.36,8.76-1.08,3.23-1.68,3.23-1.68a2.4,2.4,0,0,1,.17,2.81c-.94,1.61-5.71,4.64-5.71,4.64l1.79,11.68s-4.45,3.51-7.22,3.74-5.44-.32-6.22-.07-2.73.93-2.73.93Z"/><polygon class="cls-5" points="340.03 153.93 370.37 133.81 372.1 136.34 342.03 156.38 340.03 153.93"/><path class="cls-14" d="M357.07,148s2.34,1,1.1,3.07-2.82,1.45-2.82,1.45A3.17,3.17,0,0,1,353.3,156a3.93,3.93,0,0,1-1.53,3.52l-1.47.77-.94-1.82s-5.56-.51-6.39-2.72l-.05-1.15A1.64,1.64,0,0,1,342,153c.18-1.08.11-1.1,2.2-1.81s6.52-.24,6.52-.24-2.38-.91-2.34-2.14,1-2,3.54-1.83A25.64,25.64,0,0,1,357.07,148Z"/><path class="cls-15" d="M357.07,148a7.74,7.74,0,0,1-.92-.2c-.59-.14-1.47-.34-2.6-.5-.56-.08-1.19-.15-1.87-.18a5.19,5.19,0,0,0-2.14.28,1.6,1.6,0,0,0-.82.74,1.37,1.37,0,0,0-.06,1.12,2.52,2.52,0,0,0,.9.91,6.31,6.31,0,0,0,1.24.64l1.06.43-1.14-.09a24.25,24.25,0,0,0-5.45,0,8,8,0,0,0-1.4.37,5.33,5.33,0,0,0-1.32.59.85.85,0,0,0-.27.56l-.06.38a1.22,1.22,0,0,0,0,.33,1.51,1.51,0,0,0,.81,1.07l.1.06v.12c0,.36,0,.75,0,1.14l0-.06.14.26a3.33,3.33,0,0,0,1.25,1.06,9,9,0,0,0,1.58.63,18.89,18.89,0,0,0,3.25.65h.11l0,.09c.32.62.63,1.22.93,1.82l-.25-.08,1.48-.76h0a3.71,3.71,0,0,0,1.48-3.35v-.13l.1,0a3.61,3.61,0,0,0,1.65-1.42,2.86,2.86,0,0,0,.34-1.91l-.05-.25.24.09a1.86,1.86,0,0,0,1.43-.13,3.07,3.07,0,0,0,1-.91,3.29,3.29,0,0,0,.53-1.06,1.67,1.67,0,0,0,0-1,2.27,2.27,0,0,0-.87-1.05c-.26-.19-.41-.26-.41-.28a1.38,1.38,0,0,1,.46.21,2.23,2.23,0,0,1,1,1.07,1.87,1.87,0,0,1,.08,1.06,3.67,3.67,0,0,1-.55,1.15,3.2,3.2,0,0,1-1.06,1,2.1,2.1,0,0,1-1.66.16l.19-.16a3.16,3.16,0,0,1-.34,2.13,4,4,0,0,1-1.78,1.58l.1-.18a4.51,4.51,0,0,1-.28,2,3.84,3.84,0,0,1-1.31,1.69h0l-1.47.76-.16.09-.09-.17c-.31-.59-.63-1.19-.95-1.81l.16.1A18.07,18.07,0,0,1,346,158a9.63,9.63,0,0,1-1.65-.66,3.52,3.52,0,0,1-1.4-1.21l-.17-.32v-.06c0-.4,0-.79,0-1.15l.11.17a1.89,1.89,0,0,1-1-1.38,2.14,2.14,0,0,1,0-.44l.07-.39a1.23,1.23,0,0,1,.4-.8,6,6,0,0,1,1.45-.65,7.39,7.39,0,0,1,1.47-.38,24.46,24.46,0,0,1,5.55,0l-.08.34a7.74,7.74,0,0,1-1.31-.69,2.88,2.88,0,0,1-1-1.05,1.77,1.77,0,0,1,1.06-2.26,5.35,5.35,0,0,1,2.26-.27,16.22,16.22,0,0,1,1.9.23,22.52,22.52,0,0,1,2.59.6c.3.08.52.16.67.21A1.35,1.35,0,0,1,357.07,148Z"/><path class="cls-15" d="M352.66,156.08a26.92,26.92,0,0,0-4.79-1.41,26.49,26.49,0,0,0-5-.07,4.12,4.12,0,0,1,1.45-.36,12.7,12.7,0,0,1,7.05,1.07A4.37,4.37,0,0,1,352.66,156.08Z"/><path class="cls-15" d="M355.27,152.66c-.07.09-1.09-.59-2.55-1s-2.68-.5-2.67-.62a5.41,5.41,0,0,1,2.78.23A4.43,4.43,0,0,1,355.27,152.66Z"/><path class="cls-5" d="M222.91,35.17a5.21,5.21,0,0,1,5.36-2.76,7.1,7.1,0,0,1,8.77,0,6.34,6.34,0,0,1,9.67,5,5.29,5.29,0,0,1,4.8,8.82,5.09,5.09,0,0,1-1.93,9.94L224,41.1A5.22,5.22,0,0,1,222.91,35.17Z"/><path class="cls-14" d="M250.33,56.84A21.6,21.6,0,0,0,228.4,37.43l-1.12,0c-12,1-17.95,11.71-16.67,23.72l2.58,40.1,1.75,5,20.74,26,5.23-23.41L241,98s11.55-2,11.45-13.63C252.42,78.77,251.39,67.25,250.33,56.84Z"/><path class="cls-15" d="M241,98a28.11,28.11,0,0,1-15.17-4.17s3.72,8.29,15.15,7Z"/><path class="cls-5" d="M247.19,67.64a1.66,1.66,0,0,1-1.56,1.7,1.57,1.57,0,0,1-1.73-1.46,1.66,1.66,0,0,1,1.56-1.7A1.57,1.57,0,0,1,247.19,67.64Z"/><path class="cls-5" d="M248.1,63.14c-.2.22-1.48-.68-3.26-.64s-3.06,1-3.26.75.1-.49.66-.92a4.61,4.61,0,0,1,2.61-.86,4.34,4.34,0,0,1,2.6.78C248,62.66,248.2,63.05,248.1,63.14Z"/><path class="cls-5" d="M232,68.71a1.64,1.64,0,0,1-1.56,1.7A1.58,1.58,0,0,1,228.65,69a1.65,1.65,0,0,1,1.56-1.7A1.58,1.58,0,0,1,232,68.71Z"/><path class="cls-5" d="M231.06,63.25c-.2.22-1.47-.68-3.25-.64s-3.07,1-3.27.74.1-.49.67-.91a4.51,4.51,0,0,1,5.2-.09C231,62.76,231.16,63.15,231.06,63.25Z"/><path class="cls-5" d="M237.2,76.32a12.09,12.09,0,0,1,2.88-.58c.45-.06.88-.16.95-.47a2.31,2.31,0,0,0-.33-1.34l-1.42-3.43c-2-4.89-3.4-8.92-3.2-9S238,65.33,240,70.22l1.36,3.45a2.65,2.65,0,0,1,.27,1.78,1.14,1.14,0,0,1-.73.68,3,3,0,0,1-.77.13A11.72,11.72,0,0,1,237.2,76.32Z"/><path class="cls-5" d="M231,58.16c-.2.47-1.75.08-3.61.15s-3.4.49-3.61,0c-.08-.22.22-.65.87-1.06a5.63,5.63,0,0,1,2.74-.78,5.37,5.37,0,0,1,2.75.64C230.77,57.53,231.07,57.94,231,58.16Z"/><path class="cls-5" d="M247.59,58.27c-.27.43-1.53.14-3,.27s-2.68.55-3,.16c-.15-.19,0-.61.51-1.05a4.38,4.38,0,0,1,4.85-.35C247.5,57.66,247.71,58.06,247.59,58.27Z"/><path class="cls-5" d="M249.11,51.55s-3.21-7.19-6.74-8.82c-4.28-2-6,2.73-10.07,1.68s-8.14-2.92-12.2.28c-4.44,3.51-2.28,5.86-2.45,11-.7,20.86-4.39,26.83-5.67,17-.14-1.07-3.15-1.87-3.68-6.4-.7-5.88-1.07-13,.16-17.24,1-3.55,3-6,6.54-8.78,5.6-4.36,13.41-4.61,18.73-4.19S249.4,42.45,249.11,51.55Z"/><path class="cls-14" d="M212.71,72.41a3.14,3.14,0,0,0-3.46-3c-2.16.25-4.54,1.52-4.3,6,.42,7.91,8.28,5.86,8.28,5.63S212.91,75.72,212.71,72.41Z"/><path class="cls-15" d="M211.35,78.19s-.13.1-.36.22a1.38,1.38,0,0,1-1,.07c-.85-.26-1.63-1.55-1.74-3a4.63,4.63,0,0,1,.28-2,1.61,1.61,0,0,1,1-1.11.71.71,0,0,1,.84.33c.11.22.07.38.12.39s.16-.14.08-.46a.88.88,0,0,0-.34-.48,1,1,0,0,0-.77-.16,1.93,1.93,0,0,0-1.38,1.3,4.63,4.63,0,0,0-.36,2.23c.13,1.59,1,3,2.19,3.31a1.47,1.47,0,0,0,1.25-.27C211.35,78.38,211.38,78.2,211.35,78.19Z"/><path class="cls-5" d="M212.55,57.06a7.54,7.54,0,0,0,3.38,1.48,2.58,2.58,0,0,0,2.83-1.88c.08-.55-.06-1.19.29-1.62s1.22-.38,1.89-.32A5,5,0,0,0,226.11,51a2.12,2.12,0,0,0,2.85.21,11.3,11.3,0,0,0,2.11-2.35,3.26,3.26,0,0,1,2.69-1.42,7.67,7.67,0,0,0,1.73.34c1-.11,1.52-1.34,1.66-2.37s.23-2.25,1.1-2.83,1.87-.25,2.83-.13,2.2-.13,2.42-1.07a1.87,1.87,0,0,0-.38-1.43,5.14,5.14,0,0,0-6.1-1.82A6.95,6.95,0,0,0,224.22,37,7.06,7.06,0,0,0,213,39.84a5.12,5.12,0,0,0-5.61,7.56,4.83,4.83,0,0,0-2.59,3.92c0,1.64,1.63,3.24,3.21,2.78A2.83,2.83,0,0,0,213,56.82"/><path class="cls-15" d="M232.85,79.25a.68.68,0,0,0-.53-.09.62.62,0,0,0-.3.37,4,4,0,0,0,.45,3.82l0,0a2.65,2.65,0,0,0,4.48-.57l.62-1.33Z"/><path class="cls-5" d="M236.53,83.46c.07,0-.52.82-2,1a2.21,2.21,0,0,1-1.16-.19,2.52,2.52,0,0,1-1.1-.8,4.72,4.72,0,0,1-.79-2.89,5.59,5.59,0,0,1,.06-.8,1.15,1.15,0,0,1,.47-.79,1,1,0,0,1,.92,0l.61.31,2.09,1.09a9.47,9.47,0,0,1,1.87,1.12,8.4,8.4,0,0,1-2-.79l-2.14-1c-.39-.16-.9-.49-1.06-.35s-.27.69-.27,1.17a4.52,4.52,0,0,0,.65,2.6,2.22,2.22,0,0,0,.89.69,1.94,1.94,0,0,0,1,.21A4.54,4.54,0,0,0,236.53,83.46Z"/><path class="cls-7" d="M207.42,54.09a1.88,1.88,0,0,0,.52,1.52,2.51,2.51,0,0,0,1.61.91,2.74,2.74,0,0,0,2.24-.7l-.33,0a7.68,7.68,0,0,0,1.62,1.95,4.5,4.5,0,0,0,1.46.86,3,3,0,0,0,1.6.12,3.1,3.1,0,0,0,2.25-1.36,4.61,4.61,0,0,0,.61-1.66c.07-.41.08-.64.05-.64s-.1.21-.22.6a5.57,5.57,0,0,1-.7,1.52,3.24,3.24,0,0,1-4.76.21,7.89,7.89,0,0,1-1.54-1.82l-.15-.23-.19.19a2.42,2.42,0,0,1-1.9.64,2.34,2.34,0,0,1-1.45-.72A3.56,3.56,0,0,1,207.42,54.09Z"/><path class="cls-7" d="M222,35.7s.21,0,.56.19a2.64,2.64,0,0,1,1.25,1l.1.15.11-.15a9.84,9.84,0,0,1,3.76-3.18A7.7,7.7,0,0,1,230.9,33a6.36,6.36,0,0,1,3.37.89,6.62,6.62,0,0,1,2,1.85,5.48,5.48,0,0,1,.92,2.37l0,.25.24-.07a4.45,4.45,0,0,1,3.3.34,4.31,4.31,0,0,1,1.84,1.89,5.82,5.82,0,0,1,.54,2.33,1.48,1.48,0,0,0,.08-.65,4.31,4.31,0,0,0-.39-1.79A4.5,4.5,0,0,0,241,38.3a4.73,4.73,0,0,0-3.59-.43l.27.18a5.79,5.79,0,0,0-1-2.58,6.84,6.84,0,0,0-2.18-2,6.75,6.75,0,0,0-3.61-.94,8,8,0,0,0-3.27.83,9.7,9.7,0,0,0-3.8,3.4H224a2.64,2.64,0,0,0-1.41-1A1.15,1.15,0,0,0,222,35.7Z"/><path class="cls-1" d="M213,98l13.81,10.82L235.58,120l3.2-11.52,2.29-9,3.77,3.73,9.53,20.31,10.73,98.16s-18.71,5.48-28.4,6.14-25.14-2-25.14-2V174.12L206.06,123l6.64-19.6Z"/><path class="cls-5" d="M240.94,227.11a1.07,1.07,0,0,1,0-.28c0-.2,0-.47,0-.81,0-.73-.07-1.78-.12-3.11-.09-2.72-.22-6.62-.38-11.44-.34-9.65-.87-23-1.63-37.72s-1.61-28.05-2.27-37.69c-.34-4.8-.61-8.7-.8-11.42l-.21-3.1c0-.34,0-.61,0-.81a1,1,0,0,1,0-.28s0,.1,0,.28,0,.46.08.8c.07.73.16,1.77.29,3.1.24,2.69.55,6.59.92,11.41.74,9.64,1.63,23,2.4,37.69s1.24,28.07,1.5,37.74c.14,4.83.22,8.74.26,11.44,0,1.33,0,2.38,0,3.11v.81C241,227,240.94,227.11,240.94,227.11Z"/><path class="cls-10" d="M210.87,103.14l-3.2,4.41-26.16,13.77,14.56,44.4L200,190.63l-14.71,59.16s17.85,6.14,19.42,4.18c.66-.82,2.53-5.08,4.48-9.74a104.31,104.31,0,0,0,7.49-29c1.09-10.07,2.1-22.91,1.36-31.61-1.37-16.28-3.53-43.15-3.72-50.21s-1.45-33.71-1.45-33.71Z"/><path class="cls-10" d="M242.92,100.53l8.66,5,28,9.21-2.24,19.83-1.29,51.3,8.83,61.58s-9.42,3.34-13.14,2-8.83-9.8-9-14.9S255.29,180,255.29,180l-7.06-66.48Z"/><path class="cls-5" d="M252.11,105.55a4.32,4.32,0,0,1,.36.4l1,1.19,3.59,4.5.08.1-.1.08-3,2.31,0-.25L257.5,115l.11,0v.12c-.07,6.37-.15,14.4-.25,23.11-.15,10.62-.29,20.24-.39,27.24-.07,3.46-.13,6.27-.17,8.25,0,.95-.05,1.7-.07,2.24,0,.24,0,.43,0,.59a.55.55,0,0,1,0,.2s0-.07,0-.2,0-.35,0-.59c0-.54,0-1.29,0-2.24,0-2,0-4.8,0-8.26.07-7,.17-16.61.28-27.24.12-8.7.24-16.73.33-23.11l.11.16-3.57-1.17-.26-.08.22-.17,3.08-2.28,0,.17-3.51-4.57c-.38-.52-.69-.93-.92-1.23S252.11,105.56,252.11,105.55Z"/><path class="cls-5" d="M217.24,175.13s0-.06-.08-.19l-.18-.57c-.18-.53-.42-1.27-.72-2.2-.62-1.9-1.55-4.66-2.75-8l-2-5.53a62.81,62.81,0,0,1-2-6.44,144.15,144.15,0,0,1-2.81-15.2c-1-7.07-1.6-13.73-2-19.47v-.08l.06,0c1.08-1,2.11-2,3.08-3l0,.25L205,112.4l-.11-.08.08-.12,5.28-7.15,1.45-1.94.39-.49.14-.16s0,.06-.11.18l-.35.52-1.39,2-5.17,7.23,0-.2,2.94,2.2.15.11-.13.14-3.07,3,.06-.14c.41,5.72,1.06,12.38,2,19.44a149,149,0,0,0,2.77,15.16,66.91,66.91,0,0,0,2,6.42c.7,2,1.34,3.85,1.93,5.55,1.16,3.4,2.05,6.16,2.63,8.09.29,1,.51,1.71.64,2.22l.15.58C217.23,175.06,217.24,175.13,217.24,175.13Z"/><polygon class="cls-16" points="194.77 211.77 209.99 217.74 211 214.34 216.18 219.07 217.1 210.85 212.33 201.96 195.88 207.28 194.77 211.77"/><path class="cls-14" d="M246.48,211.65l-6.18-3.75L234.87,203a13.75,13.75,0,0,0,4.22,2.3,3.48,3.48,0,0,0,4-1.49s-2.22-1.4-3-1.83-8.46-6.17-10.41-6.59-14.83-3.05-14.83-3.05l-.2.67-6.37,13.56,5.66,1.52a37.22,37.22,0,0,1,2.88,4.75c1.27,2.54,7.45,5.05,9.82,6.3s5.06-.94,5.06-.94c2.73.63,3.41-2.31,3.41-2.31,3.14-.42,3.4-3.84,3.4-3.84a74.55,74.55,0,0,0,7.46,2.52,1.07,1.07,0,0,0,1.29-.68A1.81,1.81,0,0,0,246.48,211.65Z"/><path class="cls-15" d="M238.5,212a15.58,15.58,0,0,1-3.6-1.62,11.48,11.48,0,0,1-3.21-2.3c.07-.09,1.51.92,3.41,1.95A24.78,24.78,0,0,1,238.5,212Z"/><path class="cls-15" d="M228.49,211.53a15.92,15.92,0,0,1,3.55,2.1,33,33,0,0,1,3.34,2.41,15.68,15.68,0,0,1-3.57-2.08A31,31,0,0,1,228.49,211.53Z"/><path class="cls-15" d="M226,214.15c.08-.07,1.26.92,2.86,2a15.5,15.5,0,0,1,2.79,2.11,15.16,15.16,0,0,1-3-1.78A9.16,9.16,0,0,1,226,214.15Z"/><path class="cls-15" d="M227.62,197.57a3.57,3.57,0,0,1,1.38.3,10.32,10.32,0,0,1,3,1.66,13.64,13.64,0,0,1,2.38,2.41,4,4,0,0,1,.75,1.19,45.8,45.8,0,0,0-3.38-3.29A18.5,18.5,0,0,0,227.62,197.57Z"/><path class="cls-10" d="M168,195.73a5.78,5.78,0,0,1-2.73-4.71,53.33,53.33,0,0,1,.47-8c1.08-9,15.91-61.64,15.91-61.64l14.91,41-5.12,17.84,26.09,12.49-7.27,20.5S175.64,200.47,168,195.73Z"/><path class="cls-10" d="M279.61,114.79l23.95,45.53.64.93,26.11-13.33,8.6,17.39-35.14,21.34A8.75,8.75,0,0,1,292,184l-15.53-23.18-4.18-19Z"/><path class="cls-5" d="M276.63,127.78a2.6,2.6,0,0,1,.05.57c0,.42,0,1,.05,1.65,0,1.47.07,3.53.11,6.05.07,5.11.09,12.17,0,20s-.24,14.87-.4,20c-.1,2.52-.17,4.57-.23,6.05,0,.68-.06,1.22-.09,1.64a3.74,3.74,0,0,1-.05.57,2.12,2.12,0,0,1,0-.57c0-.42,0-1,0-1.65,0-1.47.06-3.53.1-6,.09-5.11.21-12.17.29-20s.09-14.86.1-20c0-2.52,0-4.58,0-6.05,0-.68,0-1.23,0-1.65A4.27,4.27,0,0,1,276.63,127.78Z"/><path class="cls-5" d="M187.47,132.72a2.66,2.66,0,0,1,.16.46c.11.35.24.79.4,1.34.35,1.22.82,2.89,1.4,4.94,1.17,4.18,2.76,9.95,4.39,16.36s2.9,12.28,3.71,16.54c.41,2.13.71,3.86.9,5.06.08.56.15,1,.2,1.38a2.22,2.22,0,0,1,.05.49,1.79,1.79,0,0,1-.13-.48c-.07-.35-.16-.8-.28-1.36-.25-1.24-.59-2.95-1-5-.88-4.25-2.2-10.08-3.82-16.5s-3.18-12.19-4.27-16.39c-.53-2.06-1-3.75-1.28-5-.13-.56-.24-1-.32-1.36A2.64,2.64,0,0,1,187.47,132.72Z"/><path class="cls-5" d="M176.68,200l.17,0,.48.18,1.88.7,7,2.7,24.15,9.4-.25.12c1.52-4.29,3.16-8.94,4.87-13.75.81-2.3,1.61-4.56,2.39-6.75l.1.24-25.79-12.44h0a15,15,0,0,0-10.59.45,18.86,18.86,0,0,0-2.62,1.38l-.64.42-.23.14s.06-.07.2-.17l.62-.46a17.4,17.4,0,0,1,2.6-1.45,14.94,14.94,0,0,1,10.75-.58h0l25.83,12.35.16.07-.06.17-2.38,6.75-4.88,13.75-.07.19-.19-.08-24.1-9.54-7-2.8-1.85-.76-.48-.2Z"/><path class="cls-5" d="M304.38,160.78a5.84,5.84,0,0,1,.06,1.8,26.66,26.66,0,0,1-.6,4.27c-.35,1.65-.7,3.13-.93,4.2a9.17,9.17,0,0,1-.44,1.73,6.89,6.89,0,0,1,.16-1.78c.16-1.09.47-2.59.81-4.23s.6-3.13.72-4.22A11.21,11.21,0,0,1,304.38,160.78Z"/><path class="cls-5" d="M304.38,161.88a18.54,18.54,0,0,1-1.26,4.14,31.13,31.13,0,0,1-1.64,4,18.71,18.71,0,0,1,1.26-4.13A31.69,31.69,0,0,1,304.38,161.88Z"/><path class="cls-5" d="M235.26,119.56a5.63,5.63,0,0,1-.74-.67L232.58,117,226,110.25h.28a8.45,8.45,0,0,0-1.85,5.71l0,.45-.35-.28c-3.32-2.69-6-5.33-8-7.14-1-.91-1.81-1.63-2.37-2.12a7.61,7.61,0,0,1-.86-.79,6,6,0,0,1,.95.68c.59.45,1.43,1.15,2.45,2,2.07,1.75,4.8,4.37,8.1,7L224,116a8.42,8.42,0,0,1,.17-2.22A8.26,8.26,0,0,1,226,110l.14-.16.15.15c2.56,2.71,4.81,5.07,6.46,6.81l1.87,2A5.48,5.48,0,0,1,235.26,119.56Z"/><path class="cls-5" d="M244,104.88a1.8,1.8,0,0,1,0,.62c0,.4,0,1-.08,1.72a36.54,36.54,0,0,1-1,5.93l-.12.48-.23-.45a14.5,14.5,0,0,0-2.54-3.51c-.29-.29-.6-.57-.89-.83l.33-.1a54.68,54.68,0,0,1-2.38,7.84c-.37,1-.7,1.73-.95,2.25a4.16,4.16,0,0,1-.41.79,3.76,3.76,0,0,1,.28-.84c.22-.62.5-1.38.83-2.29a70.63,70.63,0,0,0,2.24-7.84l.07-.33.25.22c.3.26.61.55.91.85A14.58,14.58,0,0,1,243,113l-.35,0a45.14,45.14,0,0,0,1.11-5.85C243.94,105.74,244,104.88,244,104.88Z"/><polygon class="cls-10" points="267.87 208.08 270.2 215.34 283.44 214.12 279.31 207.18 267.87 208.08"/><path class="cls-5" d="M267.87,208.08a5.27,5.27,0,0,1,.79-.1l2.31-.23c2-.19,4.89-.46,8.33-.75h.11l.06.1,4.14,6.93.16.27-.31,0-.68.07-12.56,1.11h-.13l0-.12c-.71-2.27-1.26-4.12-1.63-5.38-.18-.59-.32-1.07-.43-1.44a2.36,2.36,0,0,1-.12-.49s.08.19.2.53.3.87.51,1.46l1.77,5.23-.16-.11L282.74,214l.68-.06-.16.3c-1.47-2.48-2.86-4.84-4.1-6.95l.17.09c-3.35.25-6.19.43-8.21.55l-2.37.14C268.19,208.08,267.88,208.09,267.87,208.08Z"/><rect class="cls-10" x="259.63" y="150.47" width="14.22" height="4.59"/><path class="cls-5" d="M273.85,155.05a1.62,1.62,0,0,1,0-.33c0-.25,0-.56,0-.92,0-.84,0-2-.07-3.33l.13.13c-3.39,0-8.5.07-14.22.07l.2-.2h0v4.57l-.2-.19c4.05,0,7.58,0,10.11.09l3,.05c.7,0,1.09,0,1.11.05a5.8,5.8,0,0,1-1,0l-2.95.06c-2.53,0-6.11.08-10.25.09h-.19v-.2c0-.72,0-1.47,0-2.24v-2.33h0c.4-.41.11-.12.2-.21,5.72,0,10.83,0,14.22.07H274v.13c0,1.41-.05,2.55-.07,3.41A8.26,8.26,0,0,1,273.85,155.05Z"/><path class="cls-16" d="M257.45,115.16l2.18,3s-.61,45.65-2.93,57Z"/><path class="cls-3" d="M128.73,129s5.39,2.32,6,14.74,1.63,40.51,1.63,40.51,3.46,4.68,3.86,8.55,6.93,26.47,6.93,26.47l-14.66,4.88-3.76-6.92-3.17-68.61Z"/><path class="cls-11" d="M142.18,198.72s2.65-3,4.66-3c1.8,0,3.21,1,3.21,2.43v2.05Z"/><path class="cls-5" d="M129.93,144.52a3.46,3.46,0,0,1,.1.8c.05.6.1,1.37.18,2.33.15,2,.26,4.94.33,8.56.13,7.24-.21,17.24-.93,28.26s-1.35,21-1.48,28.21c-.09,3.61-.11,6.53-.09,8.56v2.32a4.7,4.7,0,0,1,0,.82,4.38,4.38,0,0,1-.09-.81c0-.6-.06-1.37-.11-2.33-.1-2-.14-5-.12-8.57,0-7.24.58-17.23,1.3-28.24s1.13-21,1.11-28.21c0-3.62-.05-6.54-.13-8.56,0-1,0-1.73-.05-2.33A3.88,3.88,0,0,1,129.93,144.52Z"/><path class="cls-5" d="M129.08,195.7c-.16,0,.35-2.65,1.9-5.5s3.45-4.72,3.56-4.61-1.51,2.12-3,4.91S129.26,195.75,129.08,195.7Z"/><path class="cls-11" d="M158.91,209.67s1.9,2.54,1.23,4.56-5.46,5.71-5.46,5.71-1.85,2.19-2.69,2.19-4.85.72-4.57-1.66,3.81-2.8,3.81-2.8.08-.86,1.6-1.94,3.36-2.38,3.36-2.38Z"/><path class="cls-12" d="M155.49,219.29c0,.06-.18.36-.72.67a2.88,2.88,0,0,1-2.4.21,2.27,2.27,0,0,1-1.11-.87,1.93,1.93,0,0,1-.31-1.1c0-.67.36-1,.41-.92s-.07.38,0,.89a1.83,1.83,0,0,0,1.21,1.43,3,3,0,0,0,2,0C155.12,219.39,155.44,219.21,155.49,219.29Z"/><path class="cls-5" d="M77.08,86.16A32.53,32.53,0,0,0,87.46,110.7q2.31-6.72,4.63-13.43Z"/><path class="cls-5" d="M112,59.44a19.68,19.68,0,0,0-13.24-1.6A41.64,41.64,0,0,0,86.28,63a20.5,20.5,0,0,0-6,4.66c-2.89,3.64-5.74,9.61-6,14.25-.23,3.75,1.21,13.13,2.79,16.54,1.46,3.12,8.26,5.5,11.62,6.27L119.51,68.9A15.56,15.56,0,0,0,112,59.44Z"/><path class="cls-5" d="M117.35,64.27,110,63c4,9.62,5.14,31.62,7.45,41.79,2.72-3.95,9-16,8.71-20.77S126.13,63.46,117.35,64.27Z"/><path class="cls-11" d="M82.32,80.29a12.64,12.64,0,0,1,9.5-11.63l17-4.34c7.36-.79,12.27,8.25,12.75,15.64.53,8.2.86,16.85-.1,23-1.92,12.31-11.35,13.9-11.35,13.9s0,5.85,0,9.45l.18,15.64L86.08,124.5l-3.8-44.07C82.27,80.22,82.3,80.57,82.32,80.29Z"/><path class="cls-5" d="M118.61,89.25a1.58,1.58,0,0,1-1.52,1.6,1.51,1.51,0,0,1-1.63-1.42,1.59,1.59,0,0,1,1.52-1.6A1.51,1.51,0,0,1,118.61,89.25Z"/><path class="cls-5" d="M119.73,84.78c-.19.2-1.39-.68-3.09-.67s-2.94.86-3.13.65.11-.46.65-.86a4.42,4.42,0,0,1,2.51-.78,4.29,4.29,0,0,1,2.46.79C119.65,84.31,119.83,84.68,119.73,84.78Z"/><path class="cls-5" d="M104,89.25a1.58,1.58,0,0,1-1.52,1.6,1.51,1.51,0,0,1-1.63-1.42,1.59,1.59,0,0,1,1.52-1.6A1.51,1.51,0,0,1,104,89.25Z"/><path class="cls-5" d="M103.6,84.78c-.19.2-1.39-.68-3.09-.67s-2.94.86-3.12.65.1-.46.65-.86a4.36,4.36,0,0,1,2.5-.78,4.24,4.24,0,0,1,2.46.79C103.52,84.31,103.7,84.68,103.6,84.78Z"/><path class="cls-5" d="M108.91,98.11a11.64,11.64,0,0,1,2.76-.5c.43,0,.84-.13.92-.43a2.15,2.15,0,0,0-.3-1.28L111,92.6c-1.79-4.7-3.08-8.56-2.9-8.63s1.8,3.68,3.59,8.37l1.24,3.32a2.54,2.54,0,0,1,.23,1.7,1.11,1.11,0,0,1-.72.64,2.55,2.55,0,0,1-.73.1A10.7,10.7,0,0,1,108.91,98.11Z"/><path class="cls-12" d="M93.81,112.45s4,8.45,16.32,7.27v-2.89A31,31,0,0,1,93.81,112.45Z"/><path class="cls-5" d="M103.07,78.64c-.17.46-1.86.25-3.85.49s-3.61.79-3.87.38c-.12-.2.16-.63.81-1.08a6.35,6.35,0,0,1,2.86-1,6.28,6.28,0,0,1,3,.35C102.77,78.06,103.14,78.42,103.07,78.64Z"/><path class="cls-5" d="M119.18,79.58c-.3.39-1.47,0-2.88,0s-2.6.27-2.87-.13c-.12-.2.07-.59.59-1a3.89,3.89,0,0,1,2.33-.64,4,4,0,0,1,2.3.77C119.14,79,119.31,79.39,119.18,79.58Z"/><path class="cls-5" d="M118.24,68.72a5.43,5.43,0,0,0-4.78-3.07,10.53,10.53,0,0,0-5.68,1.66c-7.33,4.23-11.1,14.46-18.34,18.85-1.78,1.08-4.1.09-5.61,1.52s-2.5,3.71-1.66,5.61A17.06,17.06,0,0,1,79.66,89a5.78,5.78,0,0,1,.2-4.8c.63-1.08,1.73-1.91,2-3.13.26-1.07-.16-2.18-.11-3.29a7.06,7.06,0,0,1,1.13-3.13A31.83,31.83,0,0,1,94.68,62.31a20.84,20.84,0,0,1,10.8-2.79,15.86,15.86,0,0,1,10.27,4.08c1.62,1.51,3.33,3.07,2.49,5.12"/><path class="cls-11" d="M84,89.2c-.13-.35-6.55-2.67-6.64,4.15C77.29,100,84,98.68,84,98.49S84,89.2,84,89.2Z"/><path class="cls-12" d="M82,96s-.12.08-.31.16a1.11,1.11,0,0,1-.87,0,2.86,2.86,0,0,1-1.29-2.57,3.77,3.77,0,0,1,.34-1.65,1.33,1.33,0,0,1,.87-.88.6.6,0,0,1,.68.32c.09.19,0,.32.08.33s.14-.11.09-.38a.73.73,0,0,0-.25-.42.87.87,0,0,0-.64-.17,1.62,1.62,0,0,0-1.22,1A3.94,3.94,0,0,0,79,93.57a3,3,0,0,0,1.66,2.87,1.24,1.24,0,0,0,1.06-.16C82,96.12,82,96,82,96Z"/><path class="cls-7" d="M81.37,85.79a2.18,2.18,0,0,0,.4-.22c.25-.16.64-.38,1.11-.71a23,23,0,0,0,3.58-3.25,64.79,64.79,0,0,0,4.38-5.69,51.81,51.81,0,0,1,5.47-6.81,20.83,20.83,0,0,1,3.52-2.79,17.54,17.54,0,0,1,3.82-1.73,18.85,18.85,0,0,1,7-.86,18.35,18.35,0,0,1,4.7.92c.55.17.95.35,1.23.46a2.46,2.46,0,0,0,.43.15,2.07,2.07,0,0,0-.41-.21,11.32,11.32,0,0,0-1.21-.51,17.05,17.05,0,0,0-4.73-1,18.68,18.68,0,0,0-7.12.81,17.28,17.28,0,0,0-3.88,1.74,20.67,20.67,0,0,0-3.59,2.83,50.47,50.47,0,0,0-5.48,6.86,68,68,0,0,1-4.31,5.71,25.13,25.13,0,0,1-3.49,3.3c-.45.34-.83.57-1.07.75A3.26,3.26,0,0,0,81.37,85.79Z"/><path class="cls-4" d="M81.22,97.13a1.31,1.31,0,1,0,.31.1"/><path class="cls-5" d="M81.53,97.23a1.79,1.79,0,0,1,.59.89,1.1,1.1,0,0,1-.26,1,1.24,1.24,0,0,1-1.23.35,1.23,1.23,0,0,1-.8-1,1.09,1.09,0,0,1,.39-1,1.76,1.76,0,0,1,1-.38s-.1-.07-.31-.07a1.32,1.32,0,0,0-.83.28,1.34,1.34,0,0,0-.53,1.2,1.42,1.42,0,0,0,2.52.8,1.31,1.31,0,0,0,.26-1.28,1.37,1.37,0,0,0-.51-.71C81.65,97.23,81.53,97.21,81.53,97.23Z"/><path class="cls-5" d="M83,87.67A10.12,10.12,0,0,0,83.69,93c.83,1.61,2.94,2.7,4.52,1.8,1.28-.73,1.66-2.37,1.88-3.84.63-4.22.92-8.49,1.58-12.7Z"/><path class="cls-7" d="M116.6,65.56s-.58-.11-1.64-.14a11.32,11.32,0,0,0-4.39.8,14.16,14.16,0,0,0-2.75,1.42A28.77,28.77,0,0,0,105,69.8a34.16,34.16,0,0,0-5.55,6c-.85,1.19-1.59,2.4-2.4,3.53a16.75,16.75,0,0,1-2.66,3A29.45,29.45,0,0,1,88.78,86c-1.69.9-3.11,1.53-4.09,2l-1.13.48a1.85,1.85,0,0,1-.41.15,2,2,0,0,1,.38-.21l1.1-.55c1-.47,2.36-1.14,4-2.06A30.8,30.8,0,0,0,94.16,82a16.49,16.49,0,0,0,2.58-3c.8-1.11,1.54-2.33,2.39-3.52a33.47,33.47,0,0,1,5.63-6,28.88,28.88,0,0,1,2.89-2.16A14.61,14.61,0,0,1,110.48,66a11,11,0,0,1,4.48-.7,7.49,7.49,0,0,1,1.23.18A1.86,1.86,0,0,1,116.6,65.56Z"/><path class="cls-7" d="M82.85,83.58a3.07,3.07,0,0,1-.58.39l-1.68,1-.57.32a1.66,1.66,0,0,1-.72.24.68.68,0,0,1-.45-.1A.61.61,0,0,1,78.6,85a1.5,1.5,0,0,1,.31-.84l2-3.12.27.24A7,7,0,0,1,79,82.33a7.22,7.22,0,0,1-2.38.28,2.18,2.18,0,0,1-.6-.11.81.81,0,0,1-.51-.44.7.7,0,0,1,.11-.67A2.61,2.61,0,0,1,76,81a13.9,13.9,0,0,0,2.25-2.85,22.8,22.8,0,0,0,1.44-3.05,3.7,3.7,0,0,1-.21.89,12.54,12.54,0,0,1-1,2.3,13.73,13.73,0,0,1-2.24,3c-.25.23-.5.5-.4.71s.46.31.8.31A6.67,6.67,0,0,0,80.91,81l.79-.58-.53.83-2,3.09a1.28,1.28,0,0,0-.28.65.31.31,0,0,0,.38.28,3.26,3.26,0,0,0,1.19-.49l1.74-.89A2.79,2.79,0,0,1,82.85,83.58Z"/><path class="cls-12" d="M102.45,101.25a2.22,2.22,0,0,1,2.29-1.69,2.31,2.31,0,0,1,1.78,1.27,2.85,2.85,0,0,1,.11,2.22l0,.16a2.54,2.54,0,0,1-2.84.6A2.36,2.36,0,0,1,102.45,101.25Z"/><path class="cls-5" d="M107.82,103.24c0-.26-1.71-.18-3-1.58s-1.19-3.25-1.43-3.25-.31.42-.3,1.2a4.27,4.27,0,0,0,1.1,2.71,3.73,3.73,0,0,0,2.52,1.22C107.42,103.57,107.84,103.36,107.82,103.24Z"/><path class="cls-7" d="M78.51,388.25,54.15,410.52,81.71,441c2.75-2.81-5.67-23.85-5.67-23.85l15.22-14.71Z"/><path class="cls-4" d="M68.84,406.51a1.68,1.68,0,0,0-2.2.43,1.61,1.61,0,0,0,.4,2.18,1.78,1.78,0,0,0,2.33-.46,1.67,1.67,0,0,0-.67-2.22"/><path class="cls-5" d="M54.15,410.52l2.54-2.35,25.39,30.29s.63,1.89-.47,2.6Z"/><path class="cls-4" d="M76.64,417.48c-.15.13-.89-.56-2-.86s-2.12-.12-2.18-.31,1-.74,2.36-.36S76.81,417.38,76.64,417.48Z"/><path class="cls-4" d="M78.21,421.86c-.11.17-.95-.25-2-.18s-1.89.52-2,.37.56-1,1.91-1.06S78.35,421.73,78.21,421.86Z"/><path class="cls-4" d="M76,427.14c-.19-.13.25-.94,1.56-1.34,1.16-.37,2.12,0,2,.22s-.89.14-1.84.44S76.18,427.27,76,427.14Z"/><path class="cls-4" d="M80,414c-.19.06-.61-.81-1.42-1.6S76.89,411.16,77,411s1.15-.05,2.1.9S80.17,413.93,80,414Z"/><path class="cls-4" d="M82.94,410c-.06.06-.68-.44-1.37-1.53a9,9,0,0,1-.95-2,8.39,8.39,0,0,1-.33-1.29,2.42,2.42,0,0,1-.06-.79.89.89,0,0,1,.73-.78,1.1,1.1,0,0,1,.93.34,2.83,2.83,0,0,1,.44.64,7.79,7.79,0,0,1,.53,1.25,7.13,7.13,0,0,1,.35,2.24,3.35,3.35,0,0,1-.43,2c-.11,0,0-.79-.06-2a8,8,0,0,0-1-3.17c-.21-.4-.45-.68-.67-.63s-.11,0-.14.19a2,2,0,0,0,0,.57,10.44,10.44,0,0,0,.27,1.22,12,12,0,0,0,.77,2C82.55,409.28,83,409.89,82.94,410Z"/><path class="cls-4" d="M82.55,410c-.07,0,.2-.81,1.11-1.73a6.92,6.92,0,0,1,1.86-1.31,7.7,7.7,0,0,1,1.28-.45,1.7,1.7,0,0,1,1.65.28,1,1,0,0,1,.15,1,2.34,2.34,0,0,1-.42.66A4.61,4.61,0,0,1,85,410.14a2.65,2.65,0,0,1-2-.4,18,18,0,0,0,2-.09,4.71,4.71,0,0,0,1.87-.81,4.48,4.48,0,0,0,.86-.83c.28-.34.43-.7.28-.79a1.18,1.18,0,0,0-1-.08,7.26,7.26,0,0,0-1.17.37A7.71,7.71,0,0,0,84,408.59C83.06,409.36,82.65,410,82.55,410Z"/><path class="cls-7" d="M72.63,409.72l.31,33,41.06-.17c-.25-3.92-21.53-11.71-21.53-11.71l.67-21.16Z"/><path class="cls-4" d="M79.76,429.12A1.67,1.67,0,0,0,78.61,431a1.6,1.6,0,0,0,1.89,1.15,1.76,1.76,0,0,0,1.21-2,1.68,1.68,0,0,0-2.1-1"/><path class="cls-5" d="M72.93,442.79l-.05-3.53,39.5,1.34s1.83.8,1.62,2.09Z"/><path class="cls-5" d="M93.13,430.63c0,.2-1,.3-2,.94s-1.51,1.5-1.69,1.42.11-1.24,1.31-2S93.17,430.45,93.13,430.63Z"/><path class="cls-5" d="M97.45,432.39c0,.2-.82.54-1.5,1.39s-.87,1.75-1.07,1.74-.33-1.14.53-2.18S97.44,432.2,97.45,432.39Z"/><path class="cls-5" d="M99.92,437.54c-.19,0-.47-1,0-2.06s1.45-1.54,1.53-1.37-.49.75-.9,1.66S100.11,437.52,99.92,437.54Z"/><path class="cls-5" d="M92.75,425.79c-.08.18-1-.09-2.14,0s-2,.45-2.12.28.74-.9,2.08-1S92.85,425.63,92.75,425.79Z"/><path class="cls-5" d="M74.69,221.43s-5.75,6.16-8.58,12.07S58.94,252,58.94,252s-5.41,19.22-4.2,28.27,9.3,71,9.3,71-1.59,49.1,5.33,70.95l1.28,5.8,23.15-4.11h0l5.13-121.56L113.06,222Z"/><path class="cls-7" d="M104.26,226.61c-.1,0-.06-.76-.89-1.33a1.74,1.74,0,0,0-1.59-.17,1.7,1.7,0,0,0-1,1.56,1.67,1.67,0,0,0,1.09,1.52,1.75,1.75,0,0,0,1.58-.22c.8-.6.74-1.39.84-1.36s.09.17.06.49a1.88,1.88,0,0,1-.66,1.18,2,2,0,0,1-2,.39,2.13,2.13,0,0,1-.07-4,2.09,2.09,0,0,1,2,.33,1.91,1.91,0,0,1,.69,1.16C104.35,226.44,104.29,226.61,104.26,226.61Z"/><path class="cls-5" d="M131.14,238.14s8.49,77.06,9.71,90.29S94,412.23,94,412.23L73.77,388.29l30.92-57.48L94.28,273.55,108,221.89l21.31.26Z"/><path class="cls-7" d="M65.83,403.65a16,16,0,0,0,.16,1.68c.14,1.11.41,2.73.8,4.83.77,4.19,2,10.28,3.69,17.87l0,.16.16,0,23.16-4.06.18,0v-.17c.65-15.9,1.42-34.89,2.24-55.26.86-21.91,1.65-42.23,2.3-58.9h0c1.73-13.39,3.17-24.46,4.17-32.21.49-3.85.87-6.88,1.13-9,.12-1,.21-1.8.28-2.35s.07-.81.07-.81,0,.27-.14.8-.19,1.33-.34,2.34c-.29,2.08-.71,5.1-1.24,8.94-1,7.75-2.55,18.81-4.36,32.2h0c-.68,16.67-1.5,37-2.39,58.9C94.94,389,94.2,408,93.58,423.88l.18-.21-23.14,4.16.2.13c-1.73-7.59-3-13.65-3.85-17.83-.41-2.09-.71-3.71-.89-4.81-.09-.55-.14-1-.18-1.25S65.83,403.65,65.83,403.65Z"/><path class="cls-7" d="M100.89,252.77a6.74,6.74,0,0,1,1.27.06,5.77,5.77,0,0,0,3.26-.56,3,3,0,0,0,1.31-1.75,12.32,12.32,0,0,0,.39-2.65c.17-1.92.33-4,.48-6.26.3-4.44.46-8.47.56-11.39,0-1.37.09-2.53.13-3.46a6.6,6.6,0,0,1,.1-1.27,5.28,5.28,0,0,1,.11,1.27c0,.82,0,2,0,3.47,0,2.92-.11,7-.4,11.42-.15,2.22-.33,4.34-.52,6.26a12.64,12.64,0,0,1-.47,2.75,3.42,3.42,0,0,1-1.55,2,4.4,4.4,0,0,1-2,.51,7.58,7.58,0,0,1-1.51-.08A4.45,4.45,0,0,1,100.89,252.77Z"/><path class="cls-7" d="M130.21,238.19A7.81,7.81,0,0,1,128,237a23,23,0,0,1-7.91-9,8.07,8.07,0,0,1-.87-2.34,40.84,40.84,0,0,0,4.64,7A40.57,40.57,0,0,0,130.21,238.19Z"/><polygon class="cls-4" points="72.17 146.63 80.14 221 124.28 224.25 127.8 221.24 110.72 125.08 105.08 135.37 85.36 121.17 72.17 146.63"/><path class="cls-3" d="M85.67,117.12l-7.28,8-23.67,8L69.5,204.55,58.24,232.22a69.94,69.94,0,0,0-3,8.95L48.36,268.3s23.88,6.51,30,3S92,233.2,94.32,225s5.69-32.55,4.1-45.52-4.33-32.09-5.69-38.69S85.67,117.12,85.67,117.12Z"/><path class="cls-3" d="M54.72,133.06s-6.21,8.12-8,15.92c-3,13.18-14.46,49.13-13.78,57.55s45.19,23.71,45.19,23.71L80,206.79l-20.7-10.91L65,173.79"/><path class="cls-5" d="M65,173.79a3,3,0,0,1-.07.39c-.07.27-.16.65-.27,1.12-.25,1-.6,2.48-1.07,4.35l-4.09,16.28-.1-.21L80.1,206.58l.14.07v.16c-.55,7.12-1.15,15-1.79,23.45l0,.36-.34-.12c-8.72-3.07-18.11-6.65-27.57-11-3.11-1.46-6.16-3-9.06-4.67s-5.77-3.45-7.83-6.1a6,6,0,0,1-.64-1.1,2.56,2.56,0,0,1-.19-.63,2,2,0,0,1-.09-.63,19.52,19.52,0,0,1,.09-2.43c.14-1.6.42-3.16.68-4.7q.9-4.59,2-8.93c2.87-11.55,5.91-21.83,8.3-30.5C45,155.44,46,151.51,46.83,148a38.4,38.4,0,0,1,3.59-8.44,53.24,53.24,0,0,1,3.08-4.91c.38-.55.68-1,.89-1.22s.33-.4.33-.4-.09.15-.28.43l-.85,1.25c-.72,1.11-1.78,2.75-3,5a38.82,38.82,0,0,0-3.48,8.42c-.82,3.47-1.81,7.43-3,11.76-2.34,8.69-5.34,19-8.18,30.52-.71,2.88-1.36,5.86-2,8.9-.25,1.53-.54,3.08-.67,4.65a18.3,18.3,0,0,0-.08,2.34,3.66,3.66,0,0,0,.81,2.06c1.93,2.49,4.83,4.24,7.66,5.94s5.91,3.18,9,4.64c9.43,4.38,18.82,8,27.51,11l-.37.25c.67-8.41,1.29-16.33,1.86-23.45l.13.24-20.68-11-.13-.07,0-.14c1.81-6.92,3.26-12.43,4.26-16.24l1.16-4.32c.14-.47.24-.84.32-1.12A1.91,1.91,0,0,1,65,173.79Z"/><path class="cls-3" d="M110.13,120.2l4.1,5.12,14.5,3.67s3.82,19.1,3.82,24.34-2.16,63.26-2.16,66,10.47,39.83,9.56,42.11-11.84,3.87-11.84,3.87-4.09-32.09-4.09-43-.46-37.78-2.74-51-11.16-46-11.16-46Z"/><path class="cls-5" d="M124.26,228.38a.8.8,0,0,1,0-.27v-.8c0-.75,0-1.77,0-3.06.06-2.72.15-6.55.26-11.27.22-9.52.6-22.66.84-37.18,0-1.81,0-3.61,0-5.37s-.19-3.48-.32-5.19c-.27-3.41-.54-6.7-.86-9.83s-.68-6.09-1.15-8.84a37.39,37.39,0,0,0-2.12-7.43A97.17,97.17,0,0,0,116.19,129l-1.46-2.69-.39-.7c-.08-.16-.12-.24-.11-.25a1.57,1.57,0,0,1,.17.22c.11.18.25.4.43.67.37.59.9,1.48,1.56,2.64a85.83,85.83,0,0,1,5,10.14,37.53,37.53,0,0,1,2.22,7.49c.49,2.77.87,5.74,1.2,8.87s.62,6.43.9,9.84c.13,1.7.33,3.44.33,5.23s0,3.57,0,5.39c-.23,14.52-.68,27.67-1,37.18-.19,4.72-.34,8.55-.44,11.26-.07,1.3-.12,2.32-.16,3.07,0,.32,0,.58,0,.79A1.14,1.14,0,0,1,124.26,228.38Z"/><path class="cls-5" d="M97.28,206.53a5.05,5.05,0,0,1-.13-.85c-.06-.56-.13-1.39-.2-2.46-.13-2.14-.26-5.25-.2-9.08,0-1.92.11-4,.26-6.28a28.64,28.64,0,0,0-.85-7,119.38,119.38,0,0,0-5.24-15.57c-2.19-5.42-4.46-10.5-6.56-15.11a60.86,60.86,0,0,1-2.8-6.65,56.66,56.66,0,0,1-1.49-6.11c-.73-3.77-1.13-6.85-1.38-9-.13-1.07-.21-1.89-.26-2.46a4.29,4.29,0,0,1,0-.86,5,5,0,0,1,.15.85c.1.61.22,1.42.37,2.44.33,2.11.79,5.18,1.56,8.93a59.88,59.88,0,0,0,1.55,6,63.45,63.45,0,0,0,2.82,6.58c2.13,4.6,4.42,9.68,6.62,15.11a115.47,115.47,0,0,1,5.22,15.67,28.51,28.51,0,0,1,.81,7.2c-.16,2.24-.27,4.33-.32,6.24-.12,3.83,0,6.93,0,9.07q.06,1.53.09,2.46A5.57,5.57,0,0,1,97.28,206.53Z"/><path class="cls-5" d="M162.57,204.74l-12.43,16.8a2.27,2.27,0,0,1-2.24.88L94.15,212.26a2.28,2.28,0,0,1-1.74-2.93l5.8-17.85a2.27,2.27,0,0,1,2.57-1.53l60.38,11.22A2.26,2.26,0,0,1,162.57,204.74Z"/><path class="cls-5" d="M46.75,197.35a5.27,5.27,0,0,1,1.81-1.46,11,11,0,0,1,10.85-.15,5.48,5.48,0,0,1,1.85,1.41c-.06.08-.76-.46-2-1a12,12,0,0,0-10.48.14C47.5,196.87,46.81,197.43,46.75,197.35Z"/><g class="cls-8"><polygon points="59.47 229.21 80.7 237.02 82.92 228.21 92.97 230.24 94.33 225.15 78.55 222.93 78.39 230.24 61.89 224.01 59.47 229.21"/></g><path class="cls-11" d="M79.84,208.67s4.24-3.59,5.56-4.4,5.76-3.74,7.79-3.44l2,.31-1.82,5.36s16.29-2.43,18.51.2-2.43,3.13-4.85,3.44-10.23,1.62-10.23,1.62,20.34-2.23,21.76,0-2,2.73-2,2.73l-13.47,5.36-1.55.61-1.54,2s-5.54,3.84-7.26,3.34-14.24-2.89-14.24-2.89Z"/><path class="cls-12" d="M94,217.86a16.86,16.86,0,0,1,3.16-1c2-.49,4.73-1.06,7.81-1.5a78.32,78.32,0,0,1,7.93-.7,15.31,15.31,0,0,1,3.3.06,22.68,22.68,0,0,1-3.27.35c-2,.17-4.81.44-7.88.87s-5.81.93-7.8,1.32A20.67,20.67,0,0,1,94,217.86Z"/><path class="cls-12" d="M95.83,221.78a8.41,8.41,0,0,1,2.92-1.06,8.23,8.23,0,0,1,3.06-.49,8.65,8.65,0,0,1-2.92,1.06A8.48,8.48,0,0,1,95.83,221.78Z"/><path class="cls-5" d="M132.18,145.36a3.58,3.58,0,0,1,.09.74l.16,2.15c.15,1.87.24,4.57.31,7.92.12,6.69-.19,15.93-.86,26.1s-1.24,19.39-1.37,26.07c-.07,3.34-.1,6-.07,7.91,0,.88,0,1.6,0,2.15a3.13,3.13,0,0,1,0,.75,4.07,4.07,0,0,1-.07-.75c0-.55-.07-1.26-.11-2.15-.09-1.87-.13-4.57-.11-7.92,0-6.69.53-15.92,1.2-26.09s1-19.39,1-26.07c0-3.34-.05-6-.12-7.91,0-.88,0-1.6-.05-2.15A3.33,3.33,0,0,1,132.18,145.36Z"/><path class="cls-5" d="M66.58,171.46a7.36,7.36,0,0,1-.09-1.49c0-1-.08-2.36-.19-4.07a71.71,71.71,0,0,0-2.2-13.21,71.51,71.51,0,0,0-4.69-12.55c-.75-1.54-1.4-2.78-1.86-3.62a8.1,8.1,0,0,1-.67-1.34,6.58,6.58,0,0,1,.86,1.23c.53.81,1.23,2,2,3.55a62.18,62.18,0,0,1,4.88,12.58,62.46,62.46,0,0,1,2,13.34c.06,1.72.06,3.12,0,4.09A6.79,6.79,0,0,1,66.58,171.46Z"/><path class="cls-5" d="M113.85,138.2a5.07,5.07,0,0,1-.56,1l-1.69,2.63c-.18.29-.37.58-.57.88a5.33,5.33,0,0,1-.71,1A1.17,1.17,0,0,1,109,144a2.28,2.28,0,0,1-.91-1.1l-2.81-5.25.46,0-1.65,4a17.32,17.32,0,0,1-.82,1.84,1.93,1.93,0,0,1-.79.76,1.66,1.66,0,0,1-1.09.12,4.07,4.07,0,0,1-1.69-1l-1.29-1.23c-1.67-1.61-3.12-3.11-4.32-4.38s-2.14-2.33-2.78-3.08a7.4,7.4,0,0,1-.94-1.19,10.59,10.59,0,0,1,1.09,1.06l2.89,2.95c1.23,1.24,2.71,2.7,4.39,4.29.86.74,1.67,1.79,2.76,2.08a1.19,1.19,0,0,0,1.33-.65c.3-.51.51-1.17.78-1.77l1.66-4,.21-.5.25.48c1,1.89,1.91,3.67,2.74,5.29a2,2,0,0,0,.71.92.74.74,0,0,0,.88-.24,16,16,0,0,0,1.28-1.73l1.82-2.55A6,6,0,0,1,113.85,138.2Z"/></g></g></svg>