<svg width="24" height="13" viewBox="0 0 24 13" fill="none" xmlns="http://www.w3.org/2000/svg">
<path d="M0.661419 0.0665522C0.438684 0.143827 0.193221 0.375653 0.0841265 0.612025C-0.0295137 0.862033 -0.0295137 1.28023 0.0932177 1.54387C0.22504 1.84388 10.8799 12.4988 11.18 12.6306C11.4481 12.7533 11.8209 12.7533 12.0891 12.6306C12.3891 12.4988 23.044 1.84388 23.1758 1.54387C23.294 1.28023 23.2985 0.862033 23.1849 0.612025C22.9485 0.0938258 22.2985 -0.147091 21.7712 0.0938258C21.6121 0.16201 20.4712 1.28023 16.6029 5.14854L11.6345 10.1123L6.67071 5.14854C2.79785 1.28023 1.65691 0.16201 1.49781 0.0938258C1.26144 -0.0152687 0.915972 -0.02436 0.661419 0.0665522Z" fill="#656565"/>
</svg>
