<svg width="34" height="25" viewBox="0 0 34 25" fill="none" xmlns="http://www.w3.org/2000/svg">
<path d="M1.88007 0.116965C1.22376 0.36389 0.762404 0.72778 0.418008 1.26712C-0.0368545 1.9754 -0.0108623 1.42307 0.00863176 9.81853L0.0281259 17.3822L0.236063 17.8176C0.463494 18.305 0.911858 18.7923 1.36022 19.0587C2.01652 19.4421 1.69812 19.4291 10.36 19.4291H18.2941L18.4111 19.7995C18.71 20.7547 19.3013 21.7424 20.0746 22.5677C21.1922 23.7633 22.7128 24.5821 24.3243 24.8615C25.208 25.0174 26.722 24.9589 27.5538 24.738C28.4245 24.5106 29.2693 24.1337 29.5812 23.8348C29.8281 23.6009 29.8346 23.5749 29.8021 23.2825C29.7761 23.042 29.7241 22.9316 29.5682 22.7951C29.3018 22.5547 29.0548 22.5612 28.522 22.8146C26.4686 23.8023 24.3373 23.7438 22.5178 22.6651C20.4125 21.411 19.1908 18.9678 19.4897 16.6285C19.8601 13.7498 22.063 11.547 24.9416 11.1766C26.4231 10.9882 28.1321 11.456 29.3667 12.3982C30.3414 13.1325 31.1537 14.2697 31.5111 15.3743C31.7645 16.1671 31.836 16.648 31.836 17.5447C31.836 18.4024 31.745 18.6818 31.3616 19.0197C30.7573 19.5461 29.8346 19.4291 29.3862 18.7598C29.1588 18.4284 29.1068 17.9736 29.1068 16.3945V14.9325L28.9184 14.744C28.7689 14.5946 28.6715 14.5556 28.457 14.5556C28.3076 14.5556 28.1321 14.5881 28.0606 14.6271C27.9567 14.6791 27.8917 14.6661 27.7227 14.5361C27.3913 14.2827 26.865 14.0422 26.4296 13.9383C25.234 13.6589 24.0644 13.9968 23.1871 14.874C21.8095 16.2516 21.803 18.4089 23.1676 19.7735C23.8759 20.4818 24.6297 20.7937 25.6304 20.7937C26.5271 20.7937 27.2809 20.5208 27.9372 19.9555L28.2231 19.7085L28.535 20.0204C28.7039 20.1894 29.0418 20.4233 29.2758 20.5403C29.6592 20.7287 29.7891 20.7612 30.3479 20.7807C31.0692 20.8132 31.4656 20.7157 31.9984 20.3713C32.5508 20.0139 32.9472 19.5071 33.1551 18.8833C33.2981 18.4544 33.3046 16.7584 33.1681 15.9592C32.7912 13.7953 31.4266 11.8524 29.4837 10.7153C28.8469 10.3449 27.8657 9.97448 27.1574 9.84452C26.8195 9.77954 26.5011 9.72106 26.4621 9.70806C26.3971 9.68857 26.3777 8.93479 26.3777 6.19263C26.3777 4.26921 26.3517 2.52773 26.3127 2.3198C26.1502 1.3061 25.4354 0.46136 24.4802 0.136459L24.0773 -6.9974e-08L13.1282 0.00649796C3.04971 0.00649796 2.14648 0.019494 1.88007 0.116965ZM23.512 1.45556C23.2001 1.74797 13.7455 9.46114 13.6155 9.53261C13.3946 9.64308 12.9332 9.65608 12.7318 9.55211C12.5888 9.47413 3.28364 1.86494 2.98473 1.58552L2.82228 1.42957H13.1801C18.8789 1.42957 23.525 1.44256 23.512 1.45556ZM7.15647 6.9204C9.89864 9.16872 11.9065 10.7672 12.1275 10.8842C12.4719 11.0597 12.5628 11.0791 13.1542 11.0791C13.7195 11.0791 13.8494 11.0597 14.1613 10.9102C14.4018 10.7997 16.2212 9.34417 19.6457 6.53702C23.486 3.37898 24.7856 2.34579 24.8441 2.40427C24.8961 2.45626 24.9156 3.46345 24.9156 6.09515V9.70806L24.3893 9.79254C20.7439 10.3579 17.9952 13.6004 17.9952 17.3238V17.9995L10.2105 17.9866L2.4324 17.9671L2.17248 17.8241C1.84758 17.6487 1.65263 17.4472 1.52267 17.1418C1.4382 16.9274 1.4252 16.0566 1.4252 9.73405C1.4252 5.78975 1.4447 2.50174 1.46419 2.42377C1.50318 2.28731 1.54217 2.3068 2.03602 2.71618C2.32843 2.9566 4.63523 4.84753 7.15647 6.9204ZM26.4881 15.4978C27.7747 16.0826 28.0736 17.7461 27.0664 18.7533C25.7798 20.0334 23.6095 19.1302 23.6225 17.3173C23.6355 15.8292 25.13 14.8805 26.4881 15.4978Z" fill="#656565"/>
</svg>
