<svg width="27" height="20" viewBox="0 0 27 20" fill="none" xmlns="http://www.w3.org/2000/svg">
<path d="M1.51117 0.0892067C0.985007 0.287169 0.615131 0.578903 0.339026 1.01129C-0.0256406 1.58434 0.000406994 0.896683 0.000406994 9.99772C0.000406994 19.104 -0.0256406 18.4163 0.339026 18.9841C0.62555 19.427 1.03189 19.7447 1.53201 19.9114C1.77164 19.9948 2.70415 20 13.3368 20C23.9486 20 24.9019 19.9948 25.1416 19.9114C25.8136 19.6874 26.3554 19.1456 26.5846 18.4684C26.668 18.234 26.6732 17.5203 26.6732 9.99772C26.6732 2.47517 26.668 1.76146 26.5846 1.52703C26.3554 0.849798 25.8136 0.308008 25.1416 0.0839977C24.9019 0.000644684 23.9538 -0.00456429 13.3159 0.000644684C2.63122 0.000644684 1.72997 0.0110645 1.51117 0.0892067ZM24.5894 1.16758C24.5894 1.19884 16.0145 9.03396 14.2224 10.6385C13.7796 11.0344 13.467 11.1386 13.0607 11.0188C12.8627 10.9615 12.6908 10.8521 12.4512 10.6385C10.6591 9.03396 2.08422 1.19884 2.08422 1.16758C2.08422 1.15195 7.14787 1.14153 13.3368 1.14153C19.5257 1.14153 24.5894 1.15195 24.5894 1.16758ZM5.56418 5.96034C7.93451 8.1275 9.87766 9.91437 9.88808 9.94041C9.89329 9.96125 9.40359 10.4249 8.79408 10.9667C7.34062 12.2534 5.02239 14.3893 2.91774 16.3742C1.98523 17.2494 1.20902 17.9683 1.18818 17.9683C1.16213 17.9683 1.1465 14.3789 1.1465 9.99772C1.1465 4.60065 1.16213 2.02715 1.1986 2.02715C1.22985 2.02715 3.19384 3.79839 5.56418 5.96034ZM25.5271 9.99772C25.5271 14.3789 25.5114 17.9683 25.4854 17.9683C25.4646 17.9683 24.6883 17.2494 23.7558 16.3742C21.6512 14.3893 19.3329 12.2534 17.8795 10.9667C17.27 10.4249 16.7803 9.96125 16.7855 9.94041C16.8167 9.85706 25.3968 2.03236 25.4646 2.03236C25.5114 2.02715 25.5271 3.65252 25.5271 9.99772ZM11.4093 11.2897C12.2063 12.0086 12.67 12.2378 13.3368 12.2378C14.0036 12.2378 14.4673 12.0086 15.2695 11.2897C15.629 10.9615 15.8634 10.7896 15.9051 10.8104C16.1864 10.9823 19.1871 13.7121 22.3909 16.7128L24.6467 18.8279L18.9943 18.8435C15.879 18.8487 10.7945 18.8487 7.68445 18.8435L2.02691 18.8279L3.97006 17.0045C7.04889 14.108 10.7112 10.7791 10.8154 10.7791C10.831 10.7791 11.0967 11.0084 11.4093 11.2897Z" fill="#656565"/>
</svg>
