<svg width="16" height="19" viewBox="0 0 16 19" fill="none" xmlns="http://www.w3.org/2000/svg">
<path d="M7.20287 0.948408L7.20263 0.94846C5.87001 1.24502 4.84058 2.21067 4.45775 3.52429L4.45774 3.52434C4.3956 3.73794 4.37349 3.95675 4.35884 4.35599L4.35882 4.35628L4.34382 4.80035H3.81213C3.04485 4.80035 2.77133 4.8404 2.40045 5.01038L2.39934 5.01089C1.89192 5.25105 1.50248 5.75248 1.39411 6.30595C1.38979 6.328 1.38509 6.38652 1.37966 6.46452C1.37386 6.54769 1.36665 6.66333 1.35823 6.80756C1.34137 7.09611 1.31955 7.50018 1.2942 7.99003C1.2435 8.96979 1.17864 10.2934 1.11105 11.7237L1.11105 11.7238C0.995987 14.1968 0.936578 15.5009 0.912803 16.2146C0.889202 16.9232 0.899779 17.0609 0.931168 17.1885L0.931195 17.1886C1.09603 17.8557 1.54719 18.356 2.17873 18.5498C2.31204 18.5914 2.41088 18.6091 3.13775 18.6182C3.86904 18.6273 5.24766 18.6273 7.95297 18.6273H7.95502H7.95708C10.6624 18.6273 12.041 18.6273 12.7723 18.6182C13.4991 18.6091 13.598 18.5914 13.7313 18.5498C14.1993 18.4066 14.6267 18.0412 14.8363 17.6107M7.20287 0.948408L14.5159 6.30589C14.5203 6.3279 14.5249 6.38645 14.5304 6.46452C14.5362 6.54769 14.5434 6.66333 14.5518 6.80756C14.5687 7.09611 14.5905 7.50018 14.6158 7.99003C14.6665 8.96979 14.7314 10.2934 14.799 11.7237L14.799 11.7238C14.9159 14.2186 14.9762 15.5219 15 16.2301C15.0236 16.9328 15.0121 17.061 14.9788 17.1925M7.20287 0.948408C7.39847 0.905376 7.7397 0.893116 8.06996 0.903193C8.40009 0.913265 8.73882 0.946253 8.92897 1.00114L8.92925 1.00122C10.1641 1.36154 11.092 2.29327 11.4523 3.52418L11.4523 3.52434L7.20287 0.948408ZM14.8363 17.6107C14.8847 17.5136 14.9451 17.3309 14.9788 17.1925M14.8363 17.6107C14.8362 17.6109 14.8361 17.6111 14.836 17.6112L14.7466 17.5665L14.8365 17.6103C14.8364 17.6104 14.8364 17.6106 14.8363 17.6107ZM14.9788 17.1925C14.9789 17.1923 14.9789 17.1921 14.9789 17.1919L14.8818 17.1683L14.9787 17.1929C14.9787 17.1928 14.9788 17.1926 14.9788 17.1925ZM13.2821 4.91202C13.2822 4.91206 13.2823 4.91209 13.2824 4.91213L13.2487 5.00628L13.2817 4.9119C13.2818 4.91194 13.2819 4.91198 13.2821 4.91202ZM8.2913 2.31456L8.29105 2.31453C8.1934 2.30368 8.06887 2.28905 8.01522 2.28144C7.93661 2.27247 7.79369 2.28313 7.63394 2.30968C7.47558 2.336 7.31358 2.37574 7.20132 2.41826L7.20101 2.41838C6.58533 2.64926 6.10971 3.12459 5.87499 3.74064C5.79609 3.95727 5.72053 4.43747 5.71688 4.76207V4.80035H7.95502H10.1932V4.76211C10.1895 4.43737 10.1139 3.95687 10.035 3.74036C9.7508 2.98316 9.02439 2.39409 8.2913 2.31456ZM12.8752 6.2502L12.8752 6.25025L12.8749 6.2501C12.8741 6.25 12.8651 6.24718 12.8408 6.24386C12.8102 6.23968 12.7641 6.23568 12.6953 6.23208C12.5581 6.22489 12.3391 6.21965 11.9914 6.216C11.2966 6.2087 10.0944 6.20779 8.02092 6.20961C6.70214 6.21144 5.49029 6.21509 4.6009 6.22011C4.15617 6.22263 3.79224 6.22548 3.53592 6.22861C3.40771 6.23018 3.30674 6.23182 3.23615 6.23351C3.20078 6.23436 3.17354 6.23521 3.1545 6.23605C3.14491 6.23647 3.13805 6.23686 3.13357 6.2372C3.13344 6.23721 3.13332 6.23722 3.1332 6.23723C2.98888 6.27469 2.88761 6.35726 2.82493 6.48817C2.81558 6.50862 2.80303 6.54679 2.78823 6.67486C2.77345 6.80272 2.75726 7.01088 2.73603 7.36549C2.6936 8.07389 2.63153 9.35816 2.52009 11.7332L2.52009 11.7332L2.28017 16.8369L2.34544 16.9705C2.38658 17.0526 2.45867 17.1345 2.51857 17.1699L2.51858 17.1699L2.52049 17.1711L2.63142 17.24H7.95502H13.2786L13.3896 17.1711L13.3895 17.171L13.3915 17.1699C13.4512 17.1346 13.523 17.0532 13.5642 16.9713L13.6263 16.8379L13.39 11.7697L13.3899 11.7696C13.326 10.3686 13.2648 9.08275 13.2183 8.13895C13.195 7.66704 13.1753 7.28073 13.1609 7.00834C13.1536 6.87212 13.1477 6.76454 13.1432 6.68904C13.1409 6.65126 13.1391 6.62176 13.1376 6.60081C13.1367 6.58755 13.136 6.57952 13.1357 6.57529C13.1355 6.573 13.1354 6.57182 13.1354 6.57154C13.1261 6.52389 13.0943 6.45923 13.0438 6.39543C12.9932 6.33148 12.9319 6.27854 12.8752 6.2502ZM11.4695 4.89305L11.4714 4.79307L11.5663 4.79486L11.5695 4.88965L11.4695 4.89305ZM11.5512 4.35323L11.4513 4.35601L11.5512 4.35261L11.5512 4.35289C11.5512 4.353 11.5512 4.35312 11.5512 4.35323Z" fill="#656565" stroke="#656565" stroke-width="0.2"/>
<path d="M4.40118 8.00037L4.40114 8.00006C4.36746 7.70114 4.50405 7.43701 4.76974 7.30405C5.08225 7.14583 5.41069 7.20354 5.63243 7.46367L5.63251 7.46361L5.63527 7.46715C5.66785 7.50905 5.70451 7.57567 5.73737 7.64609C5.77101 7.71817 5.80393 7.80127 5.82748 7.87976L5.82762 7.88024C5.89574 8.11148 5.96327 8.2811 6.05258 8.43267C6.14181 8.58412 6.25527 8.72175 6.41982 8.88629L6.42019 8.88666C6.75859 9.22859 7.06376 9.40132 7.4863 9.50266C7.64814 9.54008 7.86296 9.55372 8.07901 9.54394C8.29531 9.53415 8.50443 9.50127 8.65517 9.45048C9.35364 9.21296 9.91829 8.607 10.1179 7.88195L10.118 7.88173C10.1639 7.71661 10.2065 7.59601 10.2683 7.5039C10.3333 7.40692 10.4145 7.34853 10.521 7.29628L10.5217 7.29596C10.6307 7.24349 10.7354 7.21555 10.8437 7.21666C10.9518 7.21776 11.0559 7.2477 11.1638 7.29962L11.1638 7.29963C11.336 7.38263 11.4553 7.50713 11.5102 7.67842C11.5636 7.84525 11.5519 8.04394 11.491 8.27057L11.4908 8.27105C11.13 9.58646 10.0849 10.5667 8.7271 10.8667L8.72709 10.8667C8.55959 10.9037 8.27989 10.9238 8.00863 10.9275C7.73775 10.9312 7.46011 10.9187 7.29724 10.8853C6.7657 10.7768 6.24849 10.5559 5.8346 10.2624L5.83454 10.2624C5.70149 10.1679 5.52594 10.0088 5.36456 9.84511C5.20332 9.68156 5.0495 9.50665 4.96224 9.37867L4.96202 9.37835C4.82756 9.1795 4.69846 8.92642 4.59788 8.67964C4.49777 8.434 4.42278 8.18691 4.40118 8.00037Z" fill="#656565" stroke="#656565" stroke-width="0.2"/>
</svg>
