<svg width="21" height="21" viewBox="0 0 21 21" fill="none" xmlns="http://www.w3.org/2000/svg">
<path d="M4.31257 0.0281296C4.06955 0.106243 3.7571 0.301529 2.37708 1.23022C0.905936 2.224 0.623858 2.454 0.372157 2.86627C-0.0444506 3.55628 -0.100866 4.29836 0.150834 5.84762C0.263666 6.55933 0.328761 6.82405 0.537064 7.475C2.11236 12.3137 6.53448 17.057 11.4079 19.127C12.6404 19.6521 13.5647 19.9038 14.8276 20.06C16.238 20.2336 17.0148 20.0687 17.6744 19.4525C17.8914 19.2485 18.1778 18.8536 18.9806 17.6472C19.6316 16.6751 20.0395 16.0198 20.0873 15.8766C20.2001 15.5294 20.1654 14.9696 20.0048 14.6398C19.7661 14.1494 19.6837 14.0973 17.1406 12.7824C15.8604 12.1184 14.7278 11.5543 14.6193 11.5282C14.3372 11.4588 13.7947 11.4979 13.5474 11.6107C13.2002 11.7626 13.0353 11.9188 12.584 12.5307C12.124 13.1556 12.1023 13.1817 11.9808 13.1817C11.8723 13.1817 11.1258 12.7086 10.4836 12.2313C9.81527 11.7322 8.47865 10.4173 7.99695 9.77502C7.38506 8.96784 6.95977 8.29085 6.95977 8.13029C6.95977 8.04783 7.08996 7.93066 7.58034 7.57047C7.92751 7.31443 8.25299 7.03669 8.31808 6.94556C8.6479 6.46385 8.73903 5.878 8.55677 5.38762C8.50035 5.24441 7.94053 4.12043 7.30694 2.89665C6.04844 0.453417 6.0007 0.379642 5.4973 0.136621C5.28466 0.0324688 5.18919 0.0107708 4.83333 0.00209045C4.60767 -0.00224876 4.37333 0.00643158 4.31257 0.0281296ZM6.07882 3.65609C6.70807 4.87554 7.21581 5.90838 7.21147 5.95611C7.20279 6.00819 6.99015 6.19913 6.65599 6.4465C5.96165 6.96291 5.85749 7.06707 5.68825 7.4099C5.55806 7.67028 5.54938 7.72236 5.54938 8.12595C5.54938 8.54689 5.55806 8.57727 5.71862 8.90275C6.13523 9.75332 7.10732 11.0248 8.06638 11.9882C8.97337 12.8952 9.78923 13.5505 10.8004 14.1711C11.3689 14.5183 11.5468 14.579 11.9721 14.5834C12.6577 14.592 12.9832 14.3881 13.6081 13.5505C13.8381 13.2424 14.0681 12.9603 14.1159 12.93C14.194 12.8735 14.4023 12.9734 16.4289 14.0192C17.9391 14.8004 18.6682 15.1996 18.6942 15.2604C18.7203 15.3211 18.7159 15.3905 18.6855 15.4556C18.6595 15.5164 18.2212 16.1934 17.7091 16.9658C16.7067 18.4847 16.6502 18.5498 16.1946 18.667C15.9168 18.7364 15.3049 18.7017 14.4457 18.5585C12.7489 18.2808 10.5617 17.2826 8.70865 15.933C7.576 15.1041 6.13957 13.7762 5.2239 12.7043C3.28407 10.439 1.94312 7.84821 1.58292 5.67403C1.37462 4.42855 1.39198 3.93383 1.65236 3.54326C1.82161 3.28722 4.62069 1.41248 4.80729 1.42984C4.92881 1.44286 4.98956 1.55135 6.07882 3.65609Z" fill="#656565"/>
</svg>
