<svg width="26" height="18" viewBox="0 0 26 18" fill="none" xmlns="http://www.w3.org/2000/svg">
<path d="M2.72571 0.20331C2.31819 0.404556 2.15719 0.897608 2.3685 1.3001C2.4339 1.42588 2.54962 1.57178 2.62509 1.62712C2.76596 1.73278 2.79615 1.73278 9.28129 1.74787L15.7916 1.75793L15.8017 4.7414L15.8168 7.72991L15.9576 7.91103C16.2293 8.26321 16.0381 8.24811 19.6505 8.24811H22.9107L23.5043 9.00782L24.093 9.76752V11.8504V13.9383L23.3584 13.9232L22.6239 13.9082L22.5132 13.6013C22.3371 13.1233 22.1459 12.8365 21.7334 12.4189C20.4655 11.1511 18.4179 11.1511 17.15 12.424C16.7626 12.8063 16.4708 13.2742 16.34 13.717L16.2796 13.9333H13.9049H11.5352L11.4497 13.6667C11.2485 13.0378 10.6397 12.2781 10.046 11.9309C9.09011 11.3624 7.92792 11.3221 6.8915 11.8202C6.17204 12.1674 5.46265 12.9774 5.25134 13.7019L5.19097 13.9082L3.98853 13.9333C2.8213 13.9585 2.78105 13.9635 2.61502 14.0792C2.42887 14.2151 2.26284 14.532 2.25781 14.7634C2.25781 15.015 2.45906 15.3521 2.68546 15.4779C2.87664 15.5886 2.94205 15.5936 4.05896 15.5936C5.1155 15.5936 5.22619 15.6037 5.22619 15.6791C5.22619 15.7244 5.31675 15.9558 5.43247 16.1873C5.85005 17.0526 6.73553 17.7369 7.69145 17.9381C8.45619 18.0991 9.38695 17.9381 10.0712 17.5205C10.6548 17.1683 11.173 16.5394 11.4145 15.9005L11.5252 15.5936H13.9049H16.2796L16.3903 15.8955C16.5261 16.2678 16.9286 16.8765 17.2054 17.1281C17.7839 17.6463 18.4984 17.9482 19.2882 17.9934C19.8769 18.0287 20.3649 17.923 20.9183 17.6513C21.6378 17.2941 22.3321 16.5042 22.5384 15.8049L22.5987 15.5936H23.8565C25.0137 15.5936 25.1344 15.5835 25.3256 15.493C25.4564 15.4276 25.5721 15.3219 25.6426 15.1961C25.7533 14.9999 25.7533 14.9899 25.7533 12.112V9.22416L25.6074 8.99776C25.5269 8.87701 25.1546 8.37892 24.7772 7.89593L24.093 7.01548L22.8352 4.52003C22.1459 3.15156 21.5372 1.98937 21.4818 1.93906C21.2504 1.72775 21.0793 1.71265 19.2279 1.70762H17.4519V1.18438C17.4519 0.615864 17.3915 0.454868 17.0846 0.228466L16.9437 0.122812L9.94037 0.107718L2.93702 0.0976562L2.72571 0.20331ZM21.19 5.00302L21.9799 6.58784H19.7159H17.4519V5.00302V3.41821H18.926H20.3951L21.19 5.00302ZM8.65743 13.1837C9.16055 13.2893 9.60329 13.6415 9.8146 14.1094C9.96553 14.4515 9.97056 15.015 9.81963 15.3521C9.35173 16.3885 8.03357 16.6401 7.23865 15.8451C6.36323 14.9697 6.77075 13.5258 7.98829 13.1988C8.28513 13.1183 8.33544 13.1183 8.65743 13.1837ZM20.1536 13.3346C21.0995 13.7924 21.3208 15.0703 20.5913 15.82C19.9574 16.474 19.0015 16.4841 18.3525 15.8502C17.8443 15.3471 17.7236 14.7081 18.0154 14.0842C18.4078 13.244 19.3134 12.9271 20.1536 13.3346Z" fill="#656565"/>
<path d="M1.7759 3.51333C1.19229 3.77998 1.14198 4.6554 1.70043 4.96733L1.89665 5.07802H5.59957C9.68486 5.07802 9.47356 5.09311 9.72511 4.76609C10.0521 4.32838 9.85592 3.6693 9.33771 3.47308C9.24212 3.43283 8.01452 3.41774 5.58951 3.41774C2.17839 3.41774 1.97212 3.42277 1.7759 3.51333Z" fill="#656565"/>
<path d="M0.407494 6.72384C0.150906 6.84962 0.0251272 7.06596 0.00500263 7.41814C-0.0100908 7.6697 0.00500263 7.74517 0.105626 7.89107C0.165999 7.98666 0.286747 8.11244 0.362214 8.16778C0.503086 8.27344 0.528242 8.27344 4.27142 8.27344C8.01459 8.27344 8.03974 8.27344 8.18062 8.16778C8.25608 8.11244 8.37683 7.98666 8.43721 7.89107C8.53783 7.74517 8.55292 7.6697 8.53783 7.41814C8.5177 7.06093 8.38689 6.84459 8.12527 6.71881C7.97434 6.64838 7.56682 6.63831 4.26135 6.63831C0.965952 6.63831 0.553398 6.64838 0.407494 6.72384Z" fill="#656565"/>
<path d="M1.7759 9.90406C1.46397 10.0449 1.32812 10.2713 1.32812 10.6487C1.32812 10.9958 1.41365 11.1568 1.70546 11.353C1.87149 11.4688 1.87652 11.4688 3.98457 11.4688C6.04231 11.4688 6.09765 11.4637 6.2838 11.3631C6.78692 11.0814 6.82717 10.3367 6.35424 9.97953L6.16809 9.83363L4.07513 9.82356C2.11802 9.80847 1.96708 9.8135 1.7759 9.90406Z" fill="#656565"/>
</svg>
