<svg width="52" height="88" viewBox="0 0 52 88" fill="none" xmlns="http://www.w3.org/2000/svg">
<path d="M19.6758 35.2532L13.4295 50.9596M14.8506 67.152L13.4139 50.9596M14.8506 67.152L26.0001 73.6729M51.0788 48.6554L51.0944 48.6397L51.0788 48.624M26.0001 27.2746L19.6602 35.2532V19.6565L26.0001 27.2746ZM16.3653 12.8535L19.6758 19.6565L26.0001 1.34795C25.7346 1.58308 21.3935 5.86238 16.3653 12.8535ZM16.3653 12.8691C13.9292 16.255 11.3527 20.2521 8.97908 24.7509L19.6758 19.6565L16.3653 12.8691ZM8.97908 24.7509C6.96467 28.5599 5.12203 32.7138 3.65416 37.1499L10.7593 40.567L8.97908 24.7509ZM3.65416 37.1499C2.43614 40.8178 1.48359 44.6582 0.937042 48.6397L10.7749 40.5827L3.65416 37.1499ZM0.937042 48.6397C0.312418 53.1071 0.203108 57.7313 0.765271 62.4495L0.937042 62.4338L7.52683 60.6312L0.937042 48.6397ZM0.937042 62.4338L0.765271 62.4495C0.890196 63.4527 1.03074 64.4402 1.21812 65.4434C1.21812 65.4591 1.23374 65.4591 1.23374 65.4905C1.56167 67.2617 1.96767 69.033 2.51422 70.82C3.18569 72.701 4.0914 74.488 5.16887 76.1338L7.52683 60.6312L0.937042 62.4338ZM5.15326 76.1338C7.54245 79.7705 10.853 82.7487 14.7569 84.7081L17.6145 77.0587L5.15326 76.1338ZM17.6145 77.0587L14.7569 84.7081C18.1298 86.4167 21.9713 87.3729 26.0001 87.3729L17.6145 77.0587ZM34.4013 77.0587L26.0157 87.3886C30.0446 87.3886 33.8704 86.4324 37.259 84.7238L34.4013 77.0587ZM34.4013 77.0587L37.259 84.7081C38.3989 84.1281 39.5076 83.4541 40.5382 82.7174C43.0211 80.9304 45.1761 78.7046 46.8782 76.1338L34.4013 77.0587ZM51.0788 62.4338L44.489 60.6312L46.847 76.1338C47.9244 74.5036 48.8301 72.7167 49.5016 70.82C50.0325 69.033 50.4542 67.2617 50.7821 65.4905V65.4434C50.9695 64.4402 51.11 63.4527 51.2349 62.4495L51.0788 62.4338ZM51.0788 48.6554L44.5046 60.6312L51.0944 62.4338L51.2506 62.4495C51.8127 57.747 51.7034 53.1071 51.0788 48.6554ZM38.6019 50.9596L37.1653 67.152L44.5046 60.6312L38.6019 50.9596ZM48.3461 37.1499L41.2409 40.567L51.0632 48.624C50.5166 44.6426 49.5797 40.8022 48.3461 37.1499ZM43.0367 24.7509L41.2409 40.567L48.3461 37.1499C46.8938 32.7138 45.0512 28.5599 43.0367 24.7509ZM32.34 35.2532L38.5863 50.9596L41.2409 40.567L32.34 35.2532ZM26.0001 27.2746L32.34 35.2532V19.6565L26.0001 27.2746ZM32.34 35.2532L26.0001 27.2746L19.6602 35.2532L10.7593 40.567L13.4139 50.9596L7.51122 60.6312L14.8506 67.152L17.6145 77.0587L26.0001 73.6729L37.1497 67.152L38.5863 50.9596L32.34 35.2532ZM35.6506 12.8691L32.34 19.6565L43.0367 24.7509C40.6632 20.2521 38.071 16.2393 35.6506 12.8691ZM8.97908 24.7509L10.7749 40.567L19.6758 35.2532V19.6565L8.97908 24.7509ZM10.7593 40.567L0.921427 48.624V48.6397L7.51122 60.6312L13.4139 50.9596L10.7593 40.567ZM14.8506 67.152L7.51122 60.6312L5.15326 76.1338L17.6145 77.0587L14.8506 67.152ZM26.0157 1.34795L26.0001 1.33228L25.9845 1.34795L19.6758 19.6565L26.0157 27.2746L32.3557 19.6565L26.0157 1.34795ZM26.0157 1.34795L32.34 19.6565L35.6506 12.8691V12.8535C30.6223 5.86238 26.2812 1.58308 26.0157 1.34795ZM32.34 19.6565V35.2532L41.2409 40.567L43.0367 24.7509L32.34 19.6565ZM51.0632 48.624L41.2409 40.567L38.5863 50.9596L44.489 60.6312L51.0632 48.6554C51.0788 48.6397 51.0788 48.6397 51.0632 48.624ZM26.0001 73.6729L34.3857 77.0587L37.1497 67.152L26.0001 73.6729ZM44.5046 60.6312L37.1653 67.152L34.4013 77.0587L46.8626 76.1338L44.5046 60.6312ZM26.0001 73.6729L17.6145 77.0587L26.0001 87.3886L34.3857 77.0587L26.0001 73.6729Z" stroke="url(#paint0_radial_391_155)" stroke-width="0.5" stroke-miterlimit="10"/>
<defs>
<radialGradient id="paint0_radial_391_155" cx="0" cy="0" r="1" gradientUnits="userSpaceOnUse" gradientTransform="translate(26.0023 44.0018) scale(36.039 36.1762)">
<stop offset="0.4078" stop-color="#D7D6D8"/>
<stop offset="1" stop-color="#838282"/>
</radialGradient>
</defs>
</svg>
