<svg width="112" height="94" viewBox="0 0 112 94" fill="none" xmlns="http://www.w3.org/2000/svg">
<g clip-path="url(#clip0_181_4)">
<path d="M54.9596 92.9271L0 30.8492L18.3804 0H94.9903L95.1389 0.264091L112 30.5191L111.075 31.0307L94.3792 1.05637H18.9749L1.30463 30.7171L55.7523 92.2339L54.9596 92.9271Z" fill="url(#paint0_radial_181_4)"/>
<path d="M63.7946 66.8481L55.3558 90.9794L34.234 30.6016L33.2432 30.9482L54.8274 92.663L54.976 93.0426H55.7522L64.6203 67.6899C64.5497 67.5513 64.489 67.4079 64.4387 67.2607C64.2139 67.1396 63.9986 67.0016 63.7946 66.8481Z" fill="url(#paint1_radial_181_4)"/>
<path d="M94.2305 0.247559L76.5106 30.6016L69.0957 51.6959C69.3604 51.6184 69.631 51.5632 69.9049 51.5308H70.1526L77.3529 30.9482L95.0727 0.693245L94.2305 0.247559Z" fill="url(#paint2_radial_181_4)"/>
<path d="M33.6562 31.7241L18.2153 0.693373L19.1566 0.214694L33.8214 29.6939L55.0422 0.528306C55.1173 0.423828 55.2166 0.339152 55.3317 0.281637C55.4468 0.224123 55.5742 0.195478 55.7028 0.198172C55.9583 0.228117 56.1936 0.351589 56.3634 0.544778L77.3861 30.4696L76.5108 31.0803L55.6863 1.37006L33.6562 31.7241Z" fill="url(#paint3_radial_181_4)"/>
<path d="M93.025 49.8804C93.3415 50.0416 93.6404 50.2352 93.9168 50.4581L112.083 30.2881H0.644043V31.328H109.539L93.025 49.8804Z" fill="url(#paint4_radial_181_4)"/>
<path d="M68.3856 77.2632L55.042 92.2173L55.8182 92.9271L69.3929 77.8079C69.0474 77.6449 68.7111 77.463 68.3856 77.2632Z" fill="url(#paint5_radial_181_4)"/>
<path d="M83.6945 79.211C80.8667 79.1074 78.1318 78.1754 75.8298 76.5307C73.5278 74.8861 71.7602 72.6015 70.7468 69.9609C69.7335 67.3203 69.5191 64.4402 70.1302 61.6788C70.7414 58.9174 72.1512 56.3965 74.1844 54.4294C76.2175 52.4624 78.7843 51.136 81.5655 50.6153C84.3468 50.0946 87.2199 50.4024 89.8275 51.5006C92.4351 52.5987 94.6622 54.4388 96.232 56.7919C97.8017 59.145 98.6448 61.9073 98.6564 64.7355C98.5913 68.6375 96.9787 72.3541 94.1732 75.0685C91.3676 77.7828 87.5986 79.2727 83.6945 79.211ZM83.6945 51.4319C81.0747 51.5386 78.5441 52.4125 76.4172 53.945C74.2902 55.4775 72.6608 57.6009 71.7314 60.0513C70.802 62.5018 70.6136 65.1712 71.1897 67.7277C71.7657 70.2843 73.0808 72.6153 74.9715 74.431C76.8621 76.2466 79.2449 77.4669 81.8238 77.9402C84.4026 78.4134 87.0638 78.1188 89.4764 77.0928C91.8891 76.0668 93.9469 74.3548 95.394 72.1695C96.8412 69.9843 97.6138 67.4221 97.616 64.8015C97.538 61.1853 96.0288 57.7476 93.4193 55.2415C90.8098 52.7355 87.3128 51.3655 83.6945 51.4319Z" fill="url(#paint6_radial_181_4)"/>
<path d="M89.5407 84.6579C88.4676 84.5535 87.4305 84.2155 86.5021 83.6676C85.6749 83.1684 84.7524 82.8479 83.7938 82.7267C82.8351 82.8479 81.9126 83.1684 81.0854 83.6676C79.9678 84.4116 78.6193 84.7281 77.2871 84.5589C75.9825 84.1627 75.2559 82.9083 74.5292 81.5713C74.1324 80.7406 73.5705 79.9993 72.8778 79.3926C72.0398 78.9636 71.1247 78.7056 70.186 78.6333C68.8091 78.6245 67.487 78.0935 66.4868 77.1478C65.8289 75.9303 65.6577 74.5086 66.0078 73.1699C66.1835 72.2595 66.1835 71.3239 66.0078 70.4135C65.6077 69.6038 65.0457 68.8847 64.3564 68.3007C63.7226 67.9537 63.1938 67.4427 62.8254 66.8213C62.4571 66.1998 62.2627 65.4908 62.2627 64.7685C62.2627 64.0462 62.4571 63.3372 62.8254 62.7157C63.1938 62.0943 63.7226 61.5833 64.3564 61.2363C65.0457 60.6524 65.6077 59.9333 66.0078 59.1236C66.1835 58.2131 66.1835 57.2775 66.0078 56.3671C65.6577 55.0284 65.8289 53.6067 66.4868 52.3892C67.4911 51.4396 68.8199 50.9083 70.2025 50.9037C71.1345 50.8345 72.0436 50.5821 72.8778 50.161C73.5706 49.5479 74.1323 48.8012 74.5292 47.9657C75.2559 46.6948 75.9825 45.3908 77.2871 44.9947C78.6202 44.8067 79.9753 45.1247 81.0854 45.886C81.9133 46.3807 82.8361 46.6957 83.7938 46.8103C84.7514 46.6957 85.6743 46.3807 86.5021 45.886C87.6128 45.1261 88.9674 44.8083 90.3004 44.9947C91.605 45.3908 92.3482 46.6452 93.0583 47.9657C93.4487 48.8051 94.0113 49.553 94.7097 50.161C95.5423 50.5863 96.4523 50.8389 97.385 50.9037C98.0811 50.7969 98.793 50.879 99.4465 51.1414C100.1 51.4037 100.671 51.8367 101.1 52.3951C101.528 52.9534 101.799 53.6167 101.883 54.3154C101.968 55.0142 101.863 55.7228 101.58 56.3671C101.396 57.2768 101.396 58.2139 101.58 59.1236C101.987 59.929 102.548 60.6468 103.231 61.2363C103.865 61.5833 104.394 62.0943 104.762 62.7157C105.13 63.3372 105.325 64.0462 105.325 64.7685C105.325 65.4908 105.13 66.1998 104.762 66.8213C104.394 67.4427 103.865 67.9537 103.231 68.3007C102.548 68.8903 101.987 69.6081 101.58 70.4135C101.396 71.3232 101.396 72.2602 101.58 73.1699C101.863 73.8142 101.968 74.5229 101.883 75.2216C101.799 75.9204 101.528 76.5836 101.1 77.1419C100.671 77.7003 100.1 78.1333 99.4465 78.3957C98.793 78.658 98.0811 78.7401 97.385 78.6333C96.451 78.7029 95.5409 78.9611 94.7097 79.3926C94.0132 79.9957 93.4507 80.7379 93.0583 81.5713C92.3482 82.8423 91.605 84.1627 90.3004 84.5589C90.0526 84.6252 89.7972 84.6585 89.5407 84.6579ZM83.7938 81.6869C84.9134 81.7892 85.9964 82.1388 86.9645 82.7102C87.8544 83.3232 88.9245 83.6197 90.0031 83.552C90.8949 83.2714 91.5224 82.1491 92.1335 81.0597C92.5865 80.083 93.2456 79.2158 94.0656 78.5178C95.0309 77.9972 96.0937 77.6824 97.1868 77.5935C98.2933 77.5974 99.367 77.2183 100.225 76.5206C100.698 75.4852 100.792 74.3168 100.49 73.2195C100.265 72.1583 100.265 71.062 100.49 70.0008C100.93 69.0394 101.572 68.1838 102.372 67.492C103.248 66.6007 104.172 65.6598 104.172 64.7025C104.172 63.7452 103.248 62.8209 102.372 61.913C101.568 61.2249 100.926 60.3683 100.49 59.4041C100.265 58.343 100.265 57.2467 100.49 56.1856C100.777 55.1145 100.684 53.9768 100.225 52.9669C99.3627 52.2749 98.293 51.8914 97.1868 51.8776C96.0918 51.799 95.0268 51.4836 94.0656 50.9532C93.2456 50.2552 92.5865 49.388 92.1335 48.4113C91.5224 47.322 90.8949 46.1996 90.0031 45.9355C88.9252 45.851 87.8514 46.1427 86.9645 46.7608C85.9973 47.337 84.9145 47.6921 83.7938 47.8006C82.673 47.6921 81.5902 47.337 80.623 46.7608C79.7361 46.1427 78.6623 45.851 77.5844 45.9355C76.6926 46.1996 76.0651 47.322 75.454 48.4113C75.001 49.388 74.3419 50.2552 73.5219 50.9532C72.5615 51.4856 71.4961 51.8011 70.4007 51.8776C69.2945 51.8914 68.2248 52.2749 67.362 52.9669C66.9036 53.9768 66.8102 55.1145 67.0978 56.1856C67.3224 57.2467 67.3224 58.343 67.0978 59.4041C66.6622 60.3641 66.0259 61.2196 65.2317 61.913C64.3399 62.8209 63.4151 63.7452 63.4151 64.7025C63.4151 65.6598 64.3399 66.6007 65.2317 67.492C66.0222 68.1889 66.6579 69.0435 67.0978 70.0008C67.3224 71.062 67.3224 72.1583 67.0978 73.2195C66.8102 74.2905 66.9036 75.4282 67.362 76.438C68.2147 77.1479 69.291 77.5337 70.4007 77.5274C71.4947 77.6116 72.5585 77.9266 73.5219 78.4517C74.3419 79.1498 75.001 80.0169 75.454 80.9936C76.0651 82.083 76.6926 83.2054 77.5844 83.486C78.663 83.5536 79.7331 83.2572 80.623 82.6442C81.5966 82.0959 82.6793 81.769 83.7938 81.6869Z" fill="url(#paint7_radial_181_4)"/>
<path d="M76.6594 94L73.34 85.0539L65.3306 88.9988L69.5913 78.0225L70.5656 78.4186L67.2958 86.853L73.9345 83.5849L76.6759 91.029L79.5824 83.4198L80.5733 83.7995L76.6594 94Z" fill="url(#paint8_radial_181_4)"/>
<path d="M91.258 94L87.3276 83.7995L88.3185 83.4198L91.225 91.029L93.9829 83.5849L100.605 86.853L97.3353 78.4186L98.3096 78.0225L102.57 88.9988L94.5609 85.0539L91.258 94Z" fill="url(#paint9_radial_181_4)"/>
<path d="M80.5404 72.4104L73.1255 65.1809L73.8686 64.4217L80.6065 70.9909L93.6197 60.3943L94.2803 61.2196L80.5404 72.4104Z" fill="url(#paint10_radial_181_4)"/>
</g>
<defs>
<radialGradient id="paint0_radial_181_4" cx="0" cy="0" r="1" gradientUnits="userSpaceOnUse" gradientTransform="translate(56 46.4636) scale(51.4586 51.4318)">
<stop stop-color="#D7D6D8"/>
<stop offset="1" stop-color="#838282"/>
</radialGradient>
<radialGradient id="paint1_radial_181_4" cx="0" cy="0" r="1" gradientUnits="userSpaceOnUse" gradientTransform="translate(48.9318 61.8138) scale(24.7219 24.709)">
<stop stop-color="#D7D6D8"/>
<stop offset="1" stop-color="#838282"/>
</radialGradient>
<radialGradient id="paint2_radial_181_4" cx="0" cy="0" r="1" gradientUnits="userSpaceOnUse" gradientTransform="translate(82.109 25.9635) scale(20.3952 20.3846)">
<stop stop-color="#D7D6D8"/>
<stop offset="1" stop-color="#838282"/>
</radialGradient>
<radialGradient id="paint3_radial_181_4" cx="0" cy="0" r="1" gradientUnits="userSpaceOnUse" gradientTransform="translate(47.809 15.9941) scale(23.7145 23.7022)">
<stop stop-color="#D7D6D8"/>
<stop offset="1" stop-color="#838282"/>
</radialGradient>
<radialGradient id="paint4_radial_181_4" cx="0" cy="0" r="1" gradientUnits="userSpaceOnUse" gradientTransform="translate(56.3138 40.3401) scale(39.9976 39.9768)">
<stop stop-color="#D7D6D8"/>
<stop offset="1" stop-color="#838282"/>
</radialGradient>
<radialGradient id="paint5_radial_181_4" cx="0" cy="0" r="1" gradientUnits="userSpaceOnUse" gradientTransform="translate(62.1266 85.0869) scale(7.51401 7.51009)">
<stop stop-color="#D7D6D8"/>
<stop offset="1" stop-color="#838282"/>
</radialGradient>
<radialGradient id="paint6_radial_181_4" cx="0" cy="0" r="1" gradientUnits="userSpaceOnUse" gradientTransform="translate(83.6945 64.8015) scale(14.6977 14.6901)">
<stop stop-color="#D7D6D8"/>
<stop offset="1" stop-color="#838282"/>
</radialGradient>
<radialGradient id="paint7_radial_181_4" cx="0" cy="0" r="1" gradientUnits="userSpaceOnUse" gradientTransform="translate(83.7938 64.7685) scale(20.7255 20.7147)">
<stop stop-color="#D7D6D8"/>
<stop offset="1" stop-color="#838282"/>
</radialGradient>
<radialGradient id="paint8_radial_181_4" cx="0" cy="0" r="1" gradientUnits="userSpaceOnUse" gradientTransform="translate(72.9437 86.0112) scale(7.81126 7.8072)">
<stop stop-color="#D7D6D8"/>
<stop offset="1" stop-color="#838282"/>
</radialGradient>
<radialGradient id="paint9_radial_181_4" cx="0" cy="0" r="1" gradientUnits="userSpaceOnUse" gradientTransform="translate(94.9572 86.0112) scale(7.81126 7.8072)">
<stop stop-color="#D7D6D8"/>
<stop offset="1" stop-color="#838282"/>
</radialGradient>
<radialGradient id="paint10_radial_181_4" cx="0" cy="0" r="1" gradientUnits="userSpaceOnUse" gradientTransform="translate(83.7112 66.4024) scale(8.60395 8.59947)">
<stop stop-color="#D7D6D8"/>
<stop offset="1" stop-color="#838282"/>
</radialGradient>
<clipPath id="clip0_181_4">
<rect width="112" height="94" fill="white"/>
</clipPath>
</defs>
</svg>
