<svg width="26" height="26" viewBox="0 0 26 26" fill="none" xmlns="http://www.w3.org/2000/svg">
<path d="M21.6189 6.70483H5.82272L8.62642 3.89331L7.52217 2.78906L2.82324 7.48799L7.52217 12.1869L8.62642 11.0827L5.82272 8.27114H21.6189V20.8016H5.95586V15.3195H4.38955V20.8016C4.38955 21.217 4.55457 21.6154 4.84831 21.9092C5.14205 22.2029 5.54045 22.3679 5.95586 22.3679H21.6189C22.0344 22.3679 22.4328 22.2029 22.7265 21.9092C23.0202 21.6154 23.1853 21.217 23.1853 20.8016V8.27114C23.1853 7.85573 23.0202 7.45734 22.7265 7.1636C22.4328 6.86986 22.0344 6.70483 21.6189 6.70483Z" fill="#434343"/>
</svg>
