<svg width="30" height="20" viewBox="0 0 30 20" fill="none" xmlns="http://www.w3.org/2000/svg">
<path d="M23.2294 0.5625H27.6585C28.8882 0.5625 29.8887 1.56298 29.8887 2.79271V7.2218C29.8887 8.45153 28.8882 9.45201 27.6585 9.45201H23.2294C21.9996 9.45201 20.9992 8.45153 20.9992 7.2218V2.79271C20.9992 1.56298 21.9996 0.5625 23.2294 0.5625ZM22.5059 7.2218C22.5059 7.62073 22.8304 7.94531 23.2294 7.94531H27.6585C28.0574 7.94531 28.382 7.62073 28.382 7.2218V2.79271C28.382 2.39378 28.0574 2.0692 27.6585 2.0692H23.2294C22.8304 2.0692 22.5059 2.39378 22.5059 2.79271V7.2218Z" fill="#5C5D5F"/>
<path d="M12.8588 0.5625H17.2282C18.4744 0.5625 19.4883 1.57636 19.4883 2.82254V7.19196C19.4883 8.43815 18.4744 9.45201 17.2282 9.45201H12.8588C11.6126 9.45201 10.5988 8.43815 10.5988 7.19196V2.82254C10.5988 1.57636 11.6126 0.5625 12.8588 0.5625ZM12.1055 7.19196C12.1055 7.60736 12.4434 7.94531 12.8588 7.94531H17.2282C17.6436 7.94531 17.9816 7.60736 17.9816 7.19196V2.82254C17.9816 2.40715 17.6436 2.0692 17.2282 2.0692H12.8588C12.4434 2.0692 12.1055 2.40715 12.1055 2.82254V7.19196Z" fill="#5C5D5F"/>
<path d="M23.2294 10.9609H27.6585C28.8882 10.9609 29.8887 11.9614 29.8887 13.1911V17.6202C29.8887 18.85 28.8882 19.8504 27.6585 19.8504H23.2294C21.9996 19.8504 20.9992 18.85 20.9992 17.6202V13.1911C20.9992 11.9614 21.9996 10.9609 23.2294 10.9609ZM22.5059 17.6202C22.5059 18.0192 22.8304 18.3438 23.2294 18.3438H27.6585C28.0574 18.3438 28.382 18.0192 28.382 17.6202V13.1911C28.382 12.7922 28.0574 12.4676 27.6585 12.4676H23.2294C22.8304 12.4676 22.5059 12.7922 22.5059 13.1911V17.6202Z" fill="#5C5D5F"/>
<path d="M12.8588 10.9609H17.2282C18.4744 10.9609 19.4883 11.9748 19.4883 13.221V17.5904C19.4883 18.8366 18.4744 19.8504 17.2282 19.8504H12.8588C11.6126 19.8504 10.5988 18.8366 10.5988 17.5904V13.221C10.5988 11.9748 11.6126 10.9609 12.8588 10.9609ZM12.1055 17.5904C12.1055 18.0058 12.4434 18.3438 12.8588 18.3438H17.2282C17.6436 18.3438 17.9816 18.0058 17.9816 17.5904V13.221C17.9816 12.8056 17.6436 12.4676 17.2282 12.4676H12.8588C12.4434 12.4676 12.1055 12.8056 12.1055 13.221V17.5904Z" fill="#5C5D5F"/>
<path d="M2.22937 0.5625H6.65846C7.88819 0.5625 8.88867 1.56298 8.88867 2.79271V7.2218C8.88867 8.45153 7.88819 9.45201 6.65846 9.45201H2.22937C0.999647 9.45201 -0.000837326 8.45153 -0.000837326 7.2218V2.79271C-0.000837326 1.56298 0.999647 0.5625 2.22937 0.5625ZM1.50586 7.2218C1.50586 7.62073 1.83044 7.94531 2.22937 7.94531H6.65846C7.0574 7.94531 7.38198 7.62073 7.38198 7.2218V2.79271C7.38198 2.39378 7.0574 2.0692 6.65846 2.0692H2.22937C1.83044 2.0692 1.50586 2.39378 1.50586 2.79271V7.2218Z" fill="#5C5D5F"/>
<path d="M2.22937 10.9609H6.65846C7.88819 10.9609 8.88867 11.9614 8.88867 13.1911V17.6202C8.88867 18.85 7.88819 19.8504 6.65846 19.8504H2.22937C0.999647 19.8504 -0.000837326 18.85 -0.000837326 17.6202V13.1911C-0.000837326 11.9614 0.999647 10.9609 2.22937 10.9609ZM1.50586 17.6202C1.50586 18.0192 1.83044 18.3438 2.22937 18.3438H6.65846C7.0574 18.3438 7.38198 18.0192 7.38198 17.6202V13.1911C7.38198 12.7922 7.0574 12.4676 6.65846 12.4676H2.22937C1.83044 12.4676 1.50586 12.7922 1.50586 13.1911V17.6202Z" fill="#5C5D5F"/>
</svg>
