<svg width="28" height="25" viewBox="0 0 28 25" fill="none" xmlns="http://www.w3.org/2000/svg">
<path d="M27 7.98775C27 4.13494 23.9478 1 20.1971 1C18.8892 1.00145 17.6093 1.38957 16.5104 2.11798C15.4115 2.84638 14.54 3.88429 14 5.10769C13.4603 3.88426 12.589 2.84629 11.4902 2.11786C10.3914 1.38943 9.11161 1.00135 7.80377 1C4.05128 1 1 4.13494 1 7.98775C0.999224 8.77767 1.12963 9.56193 1.38563 10.3068C1.6679 11.1254 2.09613 11.8829 2.64842 12.5405C2.88106 12.819 3.13486 13.0781 3.40741 13.3154L13.7846 23.9016C13.8463 23.9646 13.9297 24 14.0166 24C14.1036 24 14.187 23.9646 14.2486 23.9016L25.0115 12.9203C25.6431 12.2733 26.1439 11.5044 26.4852 10.6579C26.8264 9.81138 27.0014 8.90394 27 7.98775V7.98775Z" stroke="#494949" stroke-width="0.75" stroke-miterlimit="10"/>
</svg>
